<svg width="16" height="10" viewBox="0 0 16 10" fill="none" xmlns="http://www.w3.org/2000/svg">
<path d="M-0.00012207 8.42584C-9.82285e-05 8.55089 0.0337429 8.67313 0.0971203 8.77709C0.160497 8.88105 0.250564 8.96207 0.355929 9.00989C0.461295 9.05771 0.577227 9.0702 0.689064 9.04577C0.8009 9.02134 0.903619 8.96108 0.984227 8.87263L7.68327 1.52633L14.3823 8.87263C14.491 8.9878 14.6367 9.05152 14.7878 9.05008C14.939 9.04864 15.0836 8.98215 15.1905 8.86493C15.2974 8.7477 15.358 8.58913 15.3594 8.42335C15.3607 8.25758 15.3026 8.09787 15.1975 7.97863L8.09069 0.185122C7.98257 0.0665932 7.83595 6.67572e-06 7.68307 6.67572e-06C7.53019 6.67572e-06 7.38358 0.0665932 7.27546 0.185122L0.168613 7.97863C0.115085 8.03737 0.0726309 8.1071 0.0436792 8.18383C0.0147276 8.26056 -0.000156403 8.3428 -0.00012207 8.42584Z" fill="#68C2D0"/>
</svg>
