<svg width="18" height="19" viewBox="0 0 18 19" fill="none" xmlns="http://www.w3.org/2000/svg">
<path d="M6.7757 16.2809C5.37471 16.278 3.97388 16.272 2.57304 16.2633C1.54148 16.2449 0.692376 15.1265 1.1077 14.16C1.34697 13.603 1.95215 13.2147 2.59262 13.2108H3.55663C3.55663 11.665 3.55181 10.1193 3.55679 8.57354C3.57621 6.61415 4.85202 4.7239 6.74826 3.90089L6.76623 3.89326C6.76623 3.37521 6.742 2.81427 6.90714 2.39178C7.23018 1.56617 8.07768 0.994544 9.04088 1.00004C10.2117 1.0208 11.2518 1.98439 11.2597 3.13588V3.89326C11.2968 3.90913 11.3338 3.92531 11.3706 3.94195C13.2148 4.78251 14.463 6.64376 14.4693 8.60513V13.2108C15.0185 13.2108 15.5928 13.1377 16.0749 13.3382C17.0007 13.7235 17.3289 15.0397 16.607 15.777C16.3124 16.0777 15.8892 16.2556 15.4529 16.2633C14.0618 16.272 12.6706 16.2778 11.2796 16.2809C11.26 16.494 11.1607 16.7325 11.0742 16.9087C10.7614 17.5461 10.0595 17.9842 9.30134 17.9979C8.87815 18.0005 8.45352 18.0177 8.06805 17.8834C7.36675 17.6394 6.85081 16.996 6.7757 16.2809ZM10.5792 16.4161H7.44667C7.58982 16.9591 8.12951 17.3764 8.73276 17.3874C9.07185 17.3895 9.4087 17.4203 9.7218 17.3155C10.1408 17.175 10.4708 16.8276 10.5792 16.4161ZM8.99306 1.61058C8.1592 1.62539 7.41345 2.31149 7.40815 3.13771V4.09535C7.3905 4.34949 7.29999 4.33651 7.04017 4.44549C5.37519 5.15525 4.21636 6.80021 4.19855 8.57735V13.516C4.19855 13.516 4.13147 13.8054 3.87759 13.8213C3.00361 13.8213 1.97814 13.6991 1.69329 14.4117C1.47777 14.9511 1.93321 15.6334 2.56871 15.6526C6.86413 15.7299 11.1618 15.73 15.4572 15.6526C16.1823 15.6308 16.6892 14.664 16.1291 14.1054C15.9499 13.9263 15.6946 13.823 15.431 13.8213H14.1483C13.9747 13.8105 13.8426 13.7381 13.8274 13.516C13.8274 11.8697 13.8325 10.2235 13.8272 8.5772C13.8102 6.78922 12.6116 5.06764 10.8185 4.37833C10.8185 4.37833 10.6324 4.30583 10.6178 4.09535C10.6178 3.39719 10.6812 2.65248 10.2418 2.15504C9.93315 1.80581 9.50483 1.60768 8.99306 1.61058Z" fill="white" stroke="white" stroke-width="0.5"/>
</svg>
