<svg width="59" height="59" viewBox="0 0 59 59" fill="none" xmlns="http://www.w3.org/2000/svg">
<path d="M13.8 35.128C12.488 35.128 11.4853 34.6373 10.792 33.656C10.1093 32.6747 9.768 31.2453 9.768 29.368C9.768 27.48 10.1093 26.0453 10.792 25.064C11.4853 24.0827 12.488 23.592 13.8 23.592C15.112 23.592 16.1093 24.0827 16.792 25.064C17.4853 26.0347 17.832 27.464 17.832 29.352C17.832 31.24 17.4853 32.6747 16.792 33.656C16.1093 34.6373 15.112 35.128 13.8 35.128ZM13.8 33.8C14.6213 33.8 15.224 33.4427 15.608 32.728C15.992 32.0133 16.184 30.888 16.184 29.352C16.184 27.816 15.992 26.696 15.608 25.992C15.224 25.2773 14.6213 24.92 13.8 24.92C12.9787 24.92 12.376 25.2773 11.992 25.992C11.608 26.696 11.416 27.816 11.416 29.352C11.416 30.8773 11.608 32.0027 11.992 32.728C12.376 33.4427 12.9787 33.8 13.8 33.8ZM23.3938 35.128C22.0818 35.128 21.0791 34.6373 20.3858 33.656C19.7031 32.6747 19.3618 31.2453 19.3618 29.368C19.3618 27.48 19.7031 26.0453 20.3858 25.064C21.0791 24.0827 22.0818 23.592 23.3938 23.592C24.7058 23.592 25.7031 24.0827 26.3858 25.064C27.0791 26.0347 27.4258 27.464 27.4258 29.352C27.4258 31.24 27.0791 32.6747 26.3858 33.656C25.7031 34.6373 24.7058 35.128 23.3938 35.128ZM23.3938 33.8C24.2151 33.8 24.8178 33.4427 25.2018 32.728C25.5858 32.0133 25.7778 30.888 25.7778 29.352C25.7778 27.816 25.5858 26.696 25.2018 25.992C24.8178 25.2773 24.2151 24.92 23.3938 24.92C22.5724 24.92 21.9698 25.2773 21.5858 25.992C21.2018 26.696 21.0098 27.816 21.0098 29.352C21.0098 30.8773 21.2018 32.0027 21.5858 32.728C21.9698 33.4427 22.5724 33.8 23.3938 33.8ZM30.0915 29.096C29.8035 29.096 29.5582 29 29.3555 28.808C29.1635 28.616 29.0675 28.3707 29.0675 28.072C29.0675 27.7733 29.1635 27.528 29.3555 27.336C29.5582 27.1333 29.8035 27.032 30.0915 27.032C30.3795 27.032 30.6195 27.1333 30.8115 27.336C31.0035 27.528 31.0995 27.7733 31.0995 28.072C31.0995 28.3707 31.0035 28.616 30.8115 28.808C30.6195 29 30.3795 29.096 30.0915 29.096ZM30.0915 35.08C29.8035 35.08 29.5582 34.984 29.3555 34.792C29.1635 34.6 29.0675 34.3547 29.0675 34.056C29.0675 33.7573 29.1635 33.512 29.3555 33.32C29.5582 33.1173 29.8035 33.016 30.0915 33.016C30.3795 33.016 30.6195 33.1173 30.8115 33.32C31.0035 33.512 31.0995 33.7573 31.0995 34.056C31.0995 34.3547 31.0035 34.6 30.8115 34.792C30.6195 34.984 30.3795 35.08 30.0915 35.08ZM36.8 35.128C35.488 35.128 34.4853 34.6373 33.792 33.656C33.1093 32.6747 32.768 31.2453 32.768 29.368C32.768 27.48 33.1093 26.0453 33.792 25.064C34.4853 24.0827 35.488 23.592 36.8 23.592C38.112 23.592 39.1093 24.0827 39.792 25.064C40.4853 26.0347 40.832 27.464 40.832 29.352C40.832 31.24 40.4853 32.6747 39.792 33.656C39.1093 34.6373 38.112 35.128 36.8 35.128ZM36.8 33.8C37.6213 33.8 38.224 33.4427 38.608 32.728C38.992 32.0133 39.184 30.888 39.184 29.352C39.184 27.816 38.992 26.696 38.608 25.992C38.224 25.2773 37.6213 24.92 36.8 24.92C35.9787 24.92 35.376 25.2773 34.992 25.992C34.608 26.696 34.416 27.816 34.416 29.352C34.416 30.8773 34.608 32.0027 34.992 32.728C35.376 33.4427 35.9787 33.8 36.8 33.8ZM49.5298 33.64C49.7858 33.64 49.9778 33.6987 50.1058 33.816C50.2338 33.9333 50.2978 34.0987 50.2978 34.312C50.2978 34.7707 50.0418 35 49.5298 35H44.1858C43.6631 35 43.4018 34.7707 43.4018 34.312C43.4018 34.0987 43.4658 33.9333 43.5938 33.816C43.7324 33.6987 43.9298 33.64 44.1858 33.64H46.0258V25.656L44.3778 26.696C44.2711 26.76 44.1644 26.792 44.0578 26.792C43.8764 26.792 43.7164 26.712 43.5778 26.552C43.4498 26.392 43.3858 26.2107 43.3858 26.008C43.3858 25.7627 43.4924 25.5707 43.7057 25.432L46.1698 23.864C46.4151 23.7147 46.6498 23.64 46.8738 23.64C47.1084 23.64 47.3004 23.7147 47.4498 23.864C47.5991 24.0133 47.6738 24.216 47.6738 24.472V33.64H49.5298Z" fill="#633A2F"/>
<path d="M54.3319 29.6569C54.3319 43.3712 43.2142 54.4888 29.4999 54.4888C15.7856 54.4888 4.66797 43.3712 4.66797 29.6569C4.66797 15.9426 15.7856 4.82495 29.4999 4.82495C43.2142 4.82495 54.3319 15.9426 54.3319 29.6569Z" fill="white" stroke="#9DD765"/>
<path d="M29.5 0C34.5301 5.9983e-08 39.4766 1.28619 43.8696 3.73636C48.2626 6.18654 51.9561 9.7193 54.5992 13.999C57.2423 18.2787 58.7471 23.1631 58.9708 28.1882C59.1945 33.2133 58.1295 38.2121 55.8771 42.7097L29.5 29.5V0Z" fill="#9DD765" fill-opacity="0.8"/>
<path d="M9.11092 27.8033H5.40381V30.2747H9.11092V27.8033Z" fill="#9DD765"/>
<path d="M52.9784 27.8033H49.2712V30.2747H52.9784V27.8033Z" fill="#9DD765"/>
<path d="M30.4268 8.95882V5.25171H27.9554V8.95882H30.4268Z" fill="#9DD765"/>
<path d="M30.4268 52.8264V49.1193H27.9554V52.8264H30.4268Z" fill="#9DD765"/>
</svg>
