<svg width="86" height="57" viewBox="0 0 86 57" fill="none" xmlns="http://www.w3.org/2000/svg">
<g clip-path="url(#clip0)">
<path d="M52.2205 40.3207C52.2205 40.3207 59.632 54.0453 54.4498 56.296C49.2677 58.5467 50.1388 40.0559 50.1388 40.0559" fill="url(#paint0_linear)"/>
<path opacity="0.4" d="M52.2205 40.3207C52.2205 40.3207 57.6684 54.1777 53.8446 54.7661C50.2864 55.3251 50.124 40.0412 50.124 40.0412" fill="#5E003F"/>
<path d="M51.8808 40.4972C51.8808 40.4972 51.9547 40.6149 52.0728 40.8503C52.1909 41.0857 52.3828 41.424 52.6043 41.8506C52.8257 42.2919 53.0915 42.8215 53.372 43.4393C53.6525 44.0571 53.9626 44.7632 54.2726 45.5429C54.5826 46.3225 54.8927 47.1757 55.188 48.0877C55.4685 48.9998 55.7342 49.9706 55.8966 51.0003C55.9705 51.5152 56.0295 52.0301 56.0443 52.5596C56.0443 53.0892 56.0147 53.6188 55.8966 54.1336C55.8376 54.3837 55.749 54.6338 55.6309 54.8691C55.5128 55.1045 55.3651 55.3104 55.2027 55.5017C55.0256 55.6929 54.8336 55.8547 54.5974 55.9724C54.5383 56.0018 54.4793 56.0312 54.4202 56.0607L54.3759 56.0754H54.3612C54.3464 56.0754 54.3612 56.0754 54.3612 56.0754L54.3316 56.0901L54.2283 56.1342L54.125 56.1783C54.0954 56.1931 54.0659 56.1931 54.0364 56.2078C53.9773 56.2225 53.9183 56.2372 53.8592 56.2519C53.6082 56.296 53.372 56.2813 53.1505 56.1931C52.9291 56.1048 52.7224 55.9724 52.5452 55.7812C52.368 55.6046 52.2056 55.384 52.0728 55.1633C51.9399 54.928 51.8218 54.6926 51.7184 54.4425C51.5117 53.9424 51.3493 53.4275 51.2165 52.9127C51.0836 52.3978 50.9802 51.883 50.8916 51.3681C50.7145 50.3384 50.6259 49.3381 50.5373 48.3819C50.4635 47.4258 50.4192 46.5137 50.4044 45.6752C50.3749 44.8368 50.3749 44.0718 50.3897 43.3805C50.3897 42.7038 50.4044 42.1007 50.4192 41.6152C50.434 41.1298 50.4487 40.7473 50.4635 40.4825C50.4783 40.2178 50.493 40.0854 50.493 40.0854C50.5078 39.8794 50.3454 39.6882 50.1239 39.6735C49.9172 39.6588 49.7253 39.8206 49.7105 40.0412V40.0559C49.7105 40.0559 49.7105 40.203 49.6958 40.4678C49.6958 40.7326 49.6958 41.1151 49.6958 41.6152C49.6958 42.6008 49.7105 44.013 49.7843 45.7047C49.8582 47.3963 50.0058 49.3675 50.3749 51.4711C50.4635 52.0006 50.5816 52.5302 50.7145 53.0598C50.8621 53.5893 51.0098 54.1336 51.246 54.6485C51.3493 54.9133 51.4822 55.1633 51.6298 55.4281C51.7775 55.6782 51.9546 55.9283 52.1761 56.1342C52.3976 56.3549 52.6486 56.5314 52.9586 56.6491C53.2686 56.7668 53.5935 56.7815 53.9035 56.7226C53.9773 56.7079 54.0659 56.6932 54.1397 56.6638C54.184 56.6491 54.2135 56.6491 54.2578 56.6344L54.3612 56.5902L54.4645 56.5461L54.4941 56.5314L54.5236 56.5167H54.5383L54.5826 56.4873C54.6565 56.4578 54.7155 56.4284 54.7893 56.3843C55.0551 56.2372 55.3061 56.046 55.5128 55.8253C55.7195 55.6046 55.8966 55.3546 56.0295 55.0898C56.1624 54.825 56.251 54.5455 56.3248 54.266C56.4724 53.707 56.502 53.1333 56.502 52.5743C56.4872 52.0154 56.4429 51.4711 56.3691 50.9415C56.2953 50.4119 56.1771 49.8971 56.059 49.3969C55.9409 48.8968 55.808 48.4113 55.6752 47.9406C55.3947 46.9992 55.0994 46.1313 54.8041 45.3369C54.1988 43.7482 53.6377 42.4537 53.2096 41.5564C53.0029 41.1151 52.8405 40.762 52.7224 40.512C52.6043 40.2766 52.5452 40.1442 52.5452 40.1442C52.4566 39.953 52.2204 39.8794 52.0285 39.9677C51.8365 40.0559 51.7627 40.2913 51.8513 40.4825C51.8661 40.4825 51.8808 40.4825 51.8808 40.4972Z" fill="#440B1A"/>
<path d="M52.3239 49.5735C52.1172 48.7938 52.1172 47.9259 52.0287 47.1168C51.9401 46.2048 51.822 45.3075 51.7334 44.3954C51.6448 43.4834 51.5267 42.5714 51.4086 41.6741C51.3052 40.8797 50.9952 39.9235 51.1576 39.1145C51.2019 38.8938 51.4676 38.8203 51.5857 39.0262C51.9844 39.7323 51.9548 40.7473 52.0582 41.5417C52.1763 42.4537 52.2501 43.3657 52.3239 44.2778C52.3978 45.131 52.4273 45.9842 52.4273 46.8373C52.4421 47.72 52.5159 48.6908 52.3387 49.5735C52.3387 49.5882 52.3239 49.5882 52.3239 49.5735Z" fill="#440B1A"/>
<path d="M49.666 41.1003C49.666 41.1003 37.1462 55.9576 29.7937 52.4566C29.7937 52.4566 27.3724 50.9856 30.8862 47.6169C34.4001 44.2336 43.8933 40.762 47.4957 40.3501" fill="url(#paint1_linear)"/>
<path opacity="0.4" d="M33.0271 52.5596C35.6108 51.8829 37.7073 50.7061 39.3904 48.6172C40.8816 46.7785 41.5459 44.3954 40.9702 42.13C43.5834 41.1592 46.0194 40.4825 47.4811 40.3207L49.6514 41.0709C49.6514 41.0709 38.5489 54.2513 31.1078 52.8538C31.7574 52.8244 32.3923 52.7361 33.0271 52.5596Z" fill="#5E003F"/>
<path d="M29.7199 52.6185C29.1884 52.0742 28.9521 51.0298 29.0407 50.3972C29.0555 50.3237 29.0555 50.2648 29.0407 50.206C29.0555 50.1766 29.0703 50.1471 29.0703 50.1324C29.587 48.8968 30.6057 47.8523 31.6244 47.0286C32.717 46.1313 33.9424 45.4105 35.1383 44.7044C36.4965 43.8953 38.0615 43.0568 39.6265 42.7626C39.7298 42.7479 39.7594 42.8656 39.6856 42.9244C38.5044 43.6452 37.2643 44.2483 36.0979 44.9839C34.9906 45.6899 33.8833 46.3813 32.8351 47.161C31.8902 47.8523 31.0043 48.6614 30.3843 49.6617C30.0447 50.206 29.8085 50.8827 29.7494 51.5152C29.7051 51.8682 29.7937 52.2654 29.7199 52.6185Z" fill="#FDFFC9"/>
<path d="M49.3706 40.8507C49.0606 41.2331 48.721 41.6009 48.3962 41.9834C48.0566 42.3511 47.7318 42.7189 47.3775 43.0866C46.6983 43.8074 45.9897 44.5282 45.2662 45.2196C44.5428 45.911 43.8046 46.5877 43.0516 47.2349C42.2987 47.8822 41.5162 48.5147 40.7189 49.1031C40.3203 49.3973 39.9069 49.6915 39.4935 49.9563C39.0801 50.2358 38.6667 50.5006 38.2238 50.7507C37.3675 51.2508 36.4817 51.6921 35.5515 52.0452C34.6362 52.3982 33.6765 52.6483 32.7021 52.7218C32.2149 52.7513 31.7277 52.7365 31.2552 52.663C30.7828 52.5894 30.3251 52.4423 29.8822 52.2364L29.9117 52.2511C29.8822 52.2364 29.8379 52.1923 29.7936 52.1628C29.7493 52.1334 29.7198 52.0893 29.6755 52.0452C29.6017 51.9716 29.5278 51.8834 29.4688 51.7951C29.3507 51.6186 29.2768 51.4126 29.2326 51.192C29.1587 50.7654 29.2621 50.3094 29.454 49.8828C29.6459 49.4562 29.9265 49.059 30.2217 48.6765C30.5318 48.3088 30.8714 47.9557 31.2405 47.6174L31.3733 47.485L31.5062 47.3673C31.5948 47.2938 31.6834 47.2055 31.7867 47.1319C31.9787 46.9848 32.1706 46.8377 32.3773 46.6906C32.7759 46.3964 33.1893 46.1317 33.6175 45.8816C34.0456 45.6315 34.4738 45.3814 34.9019 45.1461C35.3448 44.9107 35.7878 44.69 36.2307 44.4694C36.6736 44.2487 37.1313 44.0428 37.589 43.8369C38.0466 43.6309 38.5043 43.4397 38.962 43.2484C39.4197 43.0572 39.8921 42.8807 40.3498 42.7042C40.8223 42.5276 41.28 42.3511 41.7524 42.1893C42.2249 42.0275 42.6973 41.8657 43.1697 41.7333C43.6422 41.5862 44.1294 41.4538 44.6019 41.3214C45.0743 41.189 45.5615 41.0713 46.0487 40.9684C46.5359 40.8654 47.0084 40.7771 47.4956 40.733C47.7023 40.7183 47.8647 40.5271 47.8352 40.3064C47.8204 40.1005 47.6285 39.9386 47.407 39.9681H47.3922C46.8755 40.0416 46.3735 40.1446 45.8716 40.2623C45.3696 40.38 44.8824 40.5123 44.3952 40.6594C43.9079 40.8065 43.4207 40.9537 42.9483 41.1155C42.4758 41.2773 41.9886 41.4391 41.5162 41.6156C41.0437 41.7921 40.5713 41.9687 40.0988 42.1452C39.6264 42.3364 39.1687 42.5129 38.6963 42.7189C38.2386 42.9101 37.7661 43.1161 37.3085 43.3367C36.8508 43.5426 36.3931 43.7633 35.9502 43.984C35.5072 44.2193 35.0496 44.44 34.6066 44.69C34.1637 44.9254 33.7208 45.1902 33.2926 45.455C32.8645 45.7198 32.4363 45.9993 32.0229 46.2935C31.8162 46.4406 31.6096 46.6024 31.4176 46.7495C31.3143 46.823 31.2257 46.9113 31.1223 46.9996L30.9747 47.1172L30.8418 47.2496C30.458 47.588 30.1036 47.9557 29.7788 48.3676C29.454 48.7648 29.1587 49.2061 28.9373 49.6915C28.8339 49.9416 28.7453 50.1917 28.701 50.4565C28.6568 50.7212 28.642 51.0154 28.6863 51.2802C28.7306 51.5597 28.8339 51.8245 28.9816 52.0746C29.0554 52.1923 29.144 52.31 29.2473 52.4129C29.2916 52.4718 29.3507 52.5159 29.395 52.56C29.454 52.6042 29.4983 52.6483 29.5721 52.6924H29.5869H29.6017C30.0741 52.9131 30.5908 53.0749 31.1076 53.1631C31.6243 53.2514 32.1558 53.2661 32.6726 53.2367C33.706 53.1631 34.7248 52.8984 35.6844 52.5453C36.6441 52.1776 37.5594 51.7215 38.4305 51.2214C39.3163 50.7065 40.1579 50.1623 40.9847 49.5591C41.8115 48.9707 42.6087 48.3382 43.3764 47.6909C44.1589 47.0437 44.9119 46.367 45.6501 45.6903C46.3883 44.999 47.1117 44.2929 47.8204 43.5721C48.1747 43.2043 48.5291 42.8513 48.8686 42.4835C49.2082 42.1158 49.5626 41.748 49.8874 41.3655C50.0202 41.2037 50.0055 40.9684 49.8431 40.8213C49.6807 40.6742 49.5183 40.6742 49.3706 40.8507C49.3706 40.836 49.3706 40.8507 49.3706 40.8507Z" fill="#440B1A"/>
<path d="M37.7806 47.264C38.5779 46.5285 39.6114 45.9548 40.5415 45.3663C41.5454 44.7338 42.5494 44.0865 43.5681 43.4834C44.5573 42.895 45.5612 42.3066 46.5504 41.6888C47.4658 41.1298 48.3516 40.2325 49.3999 39.9236C49.4885 39.8941 49.5918 40.0118 49.5475 40.1001C49.1636 40.9533 48.2335 41.4387 47.4658 41.9389C46.4323 42.6008 45.3693 43.2039 44.3063 43.8218C43.2876 44.4249 42.2541 44.9986 41.2059 45.5723C40.1281 46.1754 38.9913 46.9109 37.8102 47.3081C37.7806 47.3228 37.7511 47.2934 37.7806 47.264Z" fill="#440B1A"/>
<path d="M65.2866 9.60582C65.2276 9.32632 55.3948 1.69172 52.6191 0.397217C52.6191 0.397217 38.6081 12.5479 24.0066 15.6517" fill="url(#paint2_linear)"/>
<path opacity="0.4" d="M40.9556 8.60544C41.0294 8.63486 41.118 8.64957 41.1918 8.66428C44.6614 9.48806 48.2785 9.39979 51.7924 9.14972C57.5798 8.73783 61.8466 6.8108 61.7285 6.72253C63.7364 8.26711 65.2571 9.50277 65.2866 9.60574L24.0066 15.6516C30.0746 14.3571 36.054 11.5034 40.9556 8.60544Z" fill="#5E003F"/>
<path d="M52.5899 0.441284C53.018 0.676648 53.4314 0.941432 53.8448 1.19151C54.8045 1.7652 55.7346 2.38303 56.6647 3.01557C57.5801 3.64811 58.4807 4.31007 59.3665 5.00145C60.0604 5.54573 61.1087 6.19298 61.5073 6.98733C61.5221 7.01675 61.4925 7.04618 61.463 7.03147C60.5919 6.84023 59.7209 6.04588 58.9827 5.54573C58.0525 4.91319 57.1224 4.31007 56.1775 3.70695C55.3064 3.14797 54.4206 2.60369 53.5348 2.0447C53.0623 1.75049 52.5899 1.45629 52.1027 1.16209C52.0288 1.11795 51.9698 1.07382 51.9107 1.0444C52.1912 0.912011 52.4422 0.691358 52.5899 0.441284Z" fill="#FDFFC9"/>
<path d="M63.4408 7.79642L63.4261 7.75229C63.4113 7.72287 63.3818 7.67874 63.3523 7.64932L63.308 7.59048C63.2784 7.56105 63.2489 7.53163 63.2194 7.50221C63.1603 7.44337 63.116 7.39924 63.057 7.35511C62.9536 7.26685 62.8503 7.17859 62.7469 7.09033C62.5402 6.91381 62.3335 6.73728 62.1121 6.57547C61.6839 6.23713 61.2558 5.8988 60.8276 5.57517C59.9713 4.91321 59.1002 4.26596 58.2292 3.63343C57.3581 3.00089 56.4722 2.38306 55.5716 1.77994C55.114 1.48573 54.671 1.17682 54.1986 0.897324C53.7261 0.617829 53.2685 0.338335 52.7517 0.102972L52.5598 0L52.3974 0.147102C51.8954 0.603119 51.3787 1.02972 50.8619 1.47102C50.3304 1.89762 49.8137 2.32422 49.2674 2.7361C48.7359 3.14799 48.1897 3.55987 47.6434 3.95705C47.3776 4.16299 47.0971 4.35423 46.8166 4.56017C46.5361 4.76611 46.2703 4.95735 45.9898 5.14858C45.7093 5.33981 45.4288 5.53104 45.1483 5.72228C44.8678 5.91351 44.5872 6.10474 44.3067 6.29598C43.7457 6.67844 43.1699 7.03149 42.5941 7.39924L41.7083 7.92881L40.8372 8.45838C40.5419 8.6349 40.2466 8.79671 39.9514 8.97324C39.6561 9.13505 39.3608 9.31157 39.0655 9.47338L38.1649 9.95882L37.2643 10.4295C36.969 10.5914 36.659 10.7385 36.3489 10.8856C36.0389 11.0327 35.7436 11.1945 35.4336 11.3269L34.5182 11.7682L33.5881 12.1801C33.278 12.3272 32.968 12.4448 32.6432 12.5772C32.3331 12.7096 32.0231 12.842 31.6983 12.9597L30.7534 13.3275C30.4286 13.4451 30.1185 13.5628 29.7937 13.6658L29.3213 13.8423L28.8341 14.0041C28.5093 14.1071 28.1845 14.2101 27.8597 14.313L26.8852 14.5925L26.6343 14.6661L26.398 14.7102L25.9108 14.8279C25.2612 15.0044 24.5968 15.1221 23.9324 15.2692H23.9177C23.711 15.3133 23.5781 15.5193 23.6224 15.7252C23.6667 15.9312 23.8734 16.0636 24.0801 16.0194H24.0948C24.7592 15.8429 25.4384 15.6958 26.088 15.4899L26.59 15.3428L26.841 15.2692L27.0919 15.1957L28.0664 14.8867C28.3912 14.7838 28.716 14.6514 29.0408 14.5484L29.528 14.3719L30.0152 14.1954C30.34 14.0777 30.6501 13.96 30.9749 13.8276L31.9198 13.4304C32.2446 13.298 32.5546 13.1657 32.8646 13.0185C33.1747 12.8862 33.4995 12.7391 33.7948 12.592L34.7249 12.1654L35.655 11.724C35.9651 11.5769 36.2604 11.4151 36.5704 11.268C36.8805 11.1062 37.1757 10.9591 37.4858 10.7973L38.3864 10.3119L39.287 9.81172C39.5823 9.64991 39.8775 9.47338 40.1728 9.29686C40.4681 9.12034 40.7634 8.95853 41.0587 8.782L41.9445 8.25244L42.8156 7.72287C43.3618 7.35511 43.9376 7.00207 44.5134 6.6196C44.7939 6.44308 45.0892 6.25184 45.3697 6.06061C45.6502 5.86938 45.9455 5.67815 46.226 5.48691C46.7871 5.10445 47.3629 4.72198 47.9091 4.32481C48.4702 3.92763 49.0164 3.53045 49.5775 3.13328C50.1237 2.72139 50.6848 2.32422 51.2163 1.91233C51.7625 1.50044 52.294 1.07385 52.8403 0.64725L52.4712 0.691381C52.9437 0.926744 53.4013 1.19153 53.8443 1.47102C54.3019 1.75052 54.7449 2.04472 55.1878 2.35364C56.0736 2.95675 56.9447 3.57458 57.8158 4.22183C58.6868 4.85437 59.5284 5.50162 60.3847 6.16358C60.8128 6.48721 61.2262 6.82554 61.6396 7.16388C61.8463 7.32569 62.053 7.50221 62.2597 7.67874C62.3631 7.767 62.4664 7.85526 62.555 7.94352C62.5993 7.98765 62.6436 8.03178 62.6879 8.07591C62.7026 8.09062 62.7322 8.12004 62.7469 8.13475L62.7617 8.14946C62.7469 8.13475 62.7322 8.10533 62.7322 8.09062V8.07591V8.09062L62.7469 8.13475C62.8355 8.32599 63.0717 8.41425 63.2637 8.32599C63.4556 8.22301 63.5294 7.98765 63.4408 7.79642Z" fill="#440B1A"/>
<path d="M52.1613 2.47138C53.7263 3.50109 55.2027 4.69262 56.6496 5.86944C57.3435 6.44314 58.0521 7.00213 58.7461 7.57583C59.3957 8.1201 60.2225 8.60554 60.6506 9.35576C60.7687 9.56171 60.5473 9.75294 60.3406 9.6941C59.5433 9.45873 58.9085 8.78206 58.2736 8.26721C57.5059 7.64938 56.7529 7.01684 56.0147 6.36959C54.6417 5.19277 53.2686 3.9424 52.0727 2.55964C52.0284 2.51551 52.1023 2.42725 52.1613 2.47138Z" fill="#440B1A"/>
<path d="M50.2569 5.36928C52.1615 6.59022 53.8446 8.35545 55.3505 10.0177C55.5867 10.2972 55.1733 10.6502 54.9223 10.4002C54.1694 9.59111 53.4164 8.78205 52.6487 8.00241C51.8219 7.17863 50.9508 6.35486 50.1979 5.45754C50.1388 5.3987 50.1979 5.33986 50.2569 5.36928Z" fill="#440B1A"/>
<path d="M46.9499 8.13475C48.1606 9.01736 49.5041 10.0912 50.3899 11.2974C50.508 11.4593 50.3014 11.6652 50.1389 11.5181C49.6074 11.0032 49.135 10.4148 48.6035 9.89998C48.0277 9.34099 47.4224 8.81142 46.8909 8.2083C46.8614 8.16417 46.9056 8.10533 46.9499 8.13475Z" fill="#440B1A"/>
<path d="M43.0224 10.0471C43.4948 10.4001 43.9377 10.7826 44.3954 11.1651C44.7645 11.474 45.2074 11.7682 45.4437 12.1654C45.5027 12.2536 45.3846 12.4007 45.2813 12.3419C44.8531 12.136 44.5283 11.7241 44.1887 11.3857C43.7753 10.9738 43.3472 10.562 42.9633 10.1207C42.919 10.0765 42.9781 10.0177 43.0224 10.0471Z" fill="#440B1A"/>
<path d="M20.6108 16.2842C20.8323 16.0635 55.2323 10.9002 62.7619 7.79639C70.2915 4.69254 85.0112 1.36802 85.4984 4.32478C85.9709 7.28153 85.8085 23.5069 74.2335 29.2145C74.2335 29.2145 68.3722 40.2766 51.8218 41.6299C34.5332 43.0421 22.2939 27.1992 20.537 23.095C20.537 23.095 8.01712 31.9506 4.31136 28.6555C0.620369 25.3604 -0.117821 19.7558 2.21488 14.2542C4.56236 8.75256 7.86948 9.59104 9.39017 10.2677C10.9256 10.915 20.6108 16.2842 20.6108 16.2842Z" fill="url(#paint3_linear)"/>
<path d="M26.9444 29.3763C33.4406 33.3186 41.0292 35.4957 48.6474 35.3486C52.4566 35.2751 56.2361 34.6278 59.8385 33.3922C61.5216 32.8185 62.9685 32.1565 64.4006 31.1121C64.6811 30.9061 66.9105 28.935 67.1172 29.0085C68.2097 29.3763 69.3613 29.5969 70.5277 29.6264C72.196 29.6558 73.6576 28.4201 75.3112 28.5819C75.3259 28.5819 75.3407 28.5819 75.3555 28.5819C74.9864 28.8026 74.6173 28.9938 74.2334 29.1998C74.2334 29.1998 68.3721 40.2619 51.8217 41.6152C37.2349 42.8067 26.2357 31.7152 22.1018 25.7576C23.6373 27.0815 25.217 28.3171 26.9444 29.3763Z" fill="#FFCEA3"/>
<path d="M2.22943 14.2542C4.5769 8.75255 7.88403 9.59103 9.40472 10.2677C10.9254 10.9297 20.6253 16.2989 20.6253 16.2989C20.6401 16.2842 20.6992 16.2695 20.832 16.2401C19.9757 17.7846 20.0495 19.9323 20.2562 21.5652C20.3153 22.0947 20.4186 22.6096 20.522 23.1244C19.8724 23.5805 7.92832 31.8623 4.32592 28.6702C0.620161 25.3604 -0.11804 19.7558 2.22943 14.2542Z" fill="url(#paint4_linear)"/>
<path d="M20.4338 18.0641C41.31 21.624 56.5464 15.0338 56.5464 15.0338L56.5612 15.0779C57.0041 17.6817 58.1409 20.1383 59.1892 22.5507C59.6616 23.6246 60.326 25.0956 61.3447 25.9782C58.8496 26.7579 39.3759 32.2889 20.4928 22.0506L20.4338 18.0641Z" fill="url(#paint5_linear)"/>
<path d="M20.4041 21.727C20.4927 21.727 20.596 21.6976 20.6846 21.6829C30.9751 27.1992 41.6347 28.0524 48.618 27.6846C55.4685 27.3316 60.3849 25.8753 61.3446 25.5664C61.3593 25.5811 61.3593 25.6105 61.3741 25.6252C61.4774 25.8606 61.6251 26.0665 61.8022 26.2283C61.7875 26.2283 61.7875 26.243 61.7727 26.243C61.7432 26.2577 59.9125 26.8756 56.8416 27.464C54.6712 27.8759 51.8956 28.2878 48.6918 28.4496C44.1593 28.6849 39.7006 28.4201 35.419 27.6405C30.0745 26.6696 24.9957 24.8897 20.3598 22.3742L20.1678 22.2713L20.1531 21.6534C20.286 21.7564 20.2121 21.7123 20.4041 21.727Z" fill="#440B1A"/>
<path d="M56.561 15.4457C55.8081 15.7546 52.1023 17.1962 46.3887 18.2554C45.0156 18.5202 43.6278 18.7261 42.24 18.9026C40.5864 19.1086 38.9181 19.2704 37.2645 19.3586C35.3747 19.4763 33.4702 19.5057 31.5804 19.4763C29.4839 19.4469 27.3874 19.3145 25.3057 19.1086C24.4789 19.0203 23.6669 18.932 22.8549 18.8144C22.4415 18.7555 22.0133 18.6967 21.6 18.6378C21.0685 18.5643 20.6108 18.4613 20.1236 18.2554C20.1236 18.2407 20.1236 18.226 20.1236 18.1965C20.1236 18.1818 20.1236 18.1524 20.1236 18.1377C20.1236 18.123 20.1383 18.1083 20.1383 18.0936C20.1678 18.0494 20.1974 18.0053 20.2269 17.9759C20.2417 17.9612 20.2417 17.9612 20.2564 17.9465C20.345 17.8729 20.4041 17.7846 20.4631 17.6964H20.4927C31.2113 19.5204 40.3945 18.6084 46.2115 17.5199C52.5157 16.343 56.3396 14.7102 56.3839 14.6955C56.3986 14.6808 56.4282 14.6808 56.4429 14.6808C56.4577 14.9161 56.4872 15.1809 56.561 15.4457Z" fill="#440B1A"/>
<path d="M56.1477 12.386C56.1625 12.3124 56.2659 12.3124 56.2659 12.386C56.5464 13.8423 56.694 15.2986 57.0779 16.7402C57.506 18.2848 58.0523 19.7999 58.7757 21.2268C59.9716 23.5363 61.7728 25.7134 63.8545 27.2874C65.9658 28.8908 68.4461 29.4645 71.0594 29.2439C72.4767 29.1262 73.894 28.5819 75.2671 28.2142C74.8685 28.6555 74.5584 29.3174 74.396 29.8029C73.3035 30.0824 72.1962 30.2736 71.0741 30.3766C68.2542 30.6267 65.6853 29.9941 63.3969 28.3024C61.1084 26.6255 59.4549 24.2718 58.1704 21.7858C57.447 20.3736 56.8712 18.8585 56.5464 17.3139C56.2216 15.7399 55.9558 13.9747 56.1477 12.386Z" fill="#440B1A"/>
<path d="M20.9798 15.9312C21.0241 16.4901 20.8469 17.0933 20.7731 17.6375C20.6845 18.2848 20.655 18.9467 20.6402 19.594C20.6402 20.3001 20.6993 21.0062 20.7731 21.6976C20.8469 22.3595 21.0831 23.095 21.0093 23.757C20.965 24.0659 20.5516 24.1689 20.404 23.8747C20.1087 23.2716 20.1087 22.4919 20.0497 21.83C19.9906 21.1386 19.9611 20.4472 19.9758 19.7558C19.9906 18.5937 20.0792 16.7843 20.9503 15.9164C20.9503 15.9164 20.965 15.9164 20.9798 15.9312Z" fill="#440B1A"/>
<path d="M19.4297 15.4751C19.0754 16.1371 18.6768 16.7255 18.4258 17.461C18.1748 18.2259 18.0862 18.9909 18.0862 19.7852C18.0862 20.6973 18.2339 21.624 18.411 22.5213C18.4848 22.8744 18.5587 23.2127 18.6472 23.551C18.7358 23.8894 19.0016 24.0953 18.9573 24.4631C18.9425 24.5808 18.8392 24.6543 18.7211 24.6543C17.9829 24.6396 17.85 23.4334 17.7466 22.8891C17.5399 21.8447 17.4071 20.8002 17.4071 19.7411C17.4071 18.2701 17.8943 16.1371 19.3264 15.3722C19.4002 15.328 19.4593 15.4163 19.4297 15.4751Z" fill="#440B1A"/>
<path d="M16.9937 14.4307C15.6354 15.8723 15.0448 17.7111 15.0301 19.6675C15.0301 20.7414 15.222 21.8005 15.4878 22.8302C15.7535 23.86 16.226 24.6984 16.6689 25.6399C16.8756 26.0518 16.3293 26.3754 16.0193 26.0812C15.2811 25.3604 14.9267 24.1983 14.7053 23.2127C14.4248 22.0359 14.2919 20.8149 14.3362 19.6234C14.41 17.6228 15.222 15.534 16.9051 14.3571C16.9789 14.2983 17.0527 14.3719 16.9937 14.4307Z" fill="#440B1A"/>
<path d="M7.17547 14.0188C8.50423 14.3424 9.78869 14.975 11.0436 15.5045C12.3281 16.0488 13.5978 16.5784 14.897 17.1227C15.0594 17.1962 15.1628 17.3286 15.148 17.5051C15.148 17.6375 15.1037 17.6669 15.0151 17.7552C14.9266 17.8582 14.7494 17.8729 14.6313 17.8287C13.332 17.3433 12.0476 16.7843 10.7926 16.2106C9.53771 15.6369 8.17942 15.0044 7.11642 14.1218C7.05736 14.0923 7.10165 14.0041 7.17547 14.0188Z" fill="#440B1A"/>
<path d="M6.43718 20.7708C8.00215 20.7708 9.55237 20.7708 11.1026 20.6678C11.8998 20.609 12.6823 20.5207 13.4648 20.403C13.8487 20.3442 14.2768 20.2118 14.705 20.153C14.6902 20.4472 14.7198 20.7267 14.7788 21.0209C14.3949 21.1238 13.9816 21.1532 13.6272 21.1974C12.8152 21.3298 11.9884 21.3886 11.1616 21.418C9.5819 21.4916 7.9431 21.3004 6.43718 20.8443C6.36336 20.8443 6.39288 20.7708 6.43718 20.7708Z" fill="#440B1A"/>
<path d="M8.29743 25.2868C9.65572 24.9338 11.0288 24.7132 12.3723 24.3307C13.081 24.1395 13.7749 23.86 14.454 23.5658C14.6312 23.4922 14.8231 23.3745 15.0298 23.2715C15.1036 23.551 15.207 23.8452 15.3398 24.11C15.2365 24.1542 15.1479 24.1983 15.0446 24.2424C14.3064 24.5808 13.5239 24.8603 12.7562 25.0809C11.324 25.5075 9.75907 25.6987 8.28267 25.3751C8.23838 25.3604 8.25314 25.2868 8.29743 25.2868Z" fill="#440B1A"/>
<path d="M68.564 19.7117C69.4646 20.7267 70.38 21.5358 71.5906 22.183C72.757 22.8156 74.0857 23.1392 75.4145 23.2274C76.7433 23.3157 78.1015 23.0509 79.386 22.7273C80.449 22.4625 81.3939 22.0065 82.2059 21.2857C82.3536 21.1533 82.5898 21.271 82.575 21.4769C82.5012 22.6832 80.9953 23.1539 80.0356 23.4481C78.6035 23.8894 77.0238 24.1248 75.5326 24.0806C72.7422 23.9924 69.7599 22.286 68.4607 19.7852C68.4164 19.7264 68.5197 19.6529 68.564 19.7117Z" fill="#440B1A"/>
<path opacity="0.4" d="M2.92339 25.0368C2.49524 23.5805 2.25902 22.183 2.3476 20.7856C2.37713 20.4031 2.40665 20.0353 2.46571 19.6823C3.48442 20.9179 5.13799 21.9035 6.58486 22.4331C7.97267 22.9332 9.41954 23.1245 10.8812 23.0803C13.2139 23.0068 15.3251 22.8303 17.4659 21.8006C18.396 21.3445 19.3705 20.7856 20.0791 20.0353C20.2415 19.8588 20.3892 19.697 20.5368 19.5499C21.9689 20.9032 28.3617 25.4487 41.2654 26.7579C46.6395 27.3022 55.0107 24.6396 57.1957 18.579C57.5648 19.344 59.0412 20.0059 59.7942 20.3884C62.1564 21.5505 64.1939 22.0653 67.0433 22.1389C67.1467 22.1389 67.4272 22.4919 67.5158 22.5655C67.6634 22.6979 67.8258 22.8303 67.9882 22.948C68.2835 23.1833 68.5935 23.4187 68.9183 23.6393C69.4794 24.0071 70.0699 24.3307 70.69 24.5808C71.5759 24.9338 72.506 25.1104 73.4361 25.1545C73.9233 25.1839 74.4253 25.1692 74.9125 25.1398C75.4588 25.1104 76.1232 25.1398 76.5956 24.8309C76.8171 24.6838 76.9942 24.419 76.9647 24.1542C76.9499 24.0512 76.9056 23.963 76.8318 23.9041C76.7728 23.86 76.6842 23.86 76.6104 23.8453C72.0631 23.4481 71.1625 22.4772 70.8377 22.183C73.9381 21.8447 77.3486 20.8591 79.8437 19.594C81.3644 18.8144 82.826 17.8141 84.0957 16.6226C82.5898 21.4916 79.6665 26.5225 74.2186 29.2145C74.2186 29.2145 68.0325 37.2904 51.4969 38.6438C34.2082 40.0559 22.279 27.1992 20.522 23.0951C20.522 23.0951 8.93233 31.2887 4.75413 28.9791C3.95688 27.7435 3.30726 26.3607 2.92339 25.0368Z" fill="#5E003F"/>
<path d="M21.319 16.1224C22.3082 15.8576 23.3269 15.784 24.3161 15.5193C25.0986 15.4898 25.8811 15.3574 26.6488 15.2545C27.7414 15.1074 28.8487 14.9603 29.9412 14.7985C34.1489 14.1953 38.3567 13.504 42.5349 12.7096C50.8175 11.1209 59.1296 9.26741 67.1612 6.61957C70.4388 5.53101 73.7016 4.26594 77.1121 3.6334C78.7657 3.32448 80.4783 3.14796 82.1614 3.2068C82.7962 3.22151 83.3868 3.26564 83.9626 3.39803V3.38332C84.2283 3.51571 84.4941 3.61869 84.7598 3.73637C84.7894 3.75108 84.8189 3.76579 84.8336 3.7805C84.8632 3.79521 84.9075 3.82463 84.9518 3.83934C84.996 3.86876 85.188 4.03057 85.1289 3.97173C85.1585 4.00115 85.188 4.03057 85.2175 4.0747C85.188 4.05999 85.3356 4.31007 85.3356 4.33949C85.3356 4.3542 85.3504 4.3542 85.3504 4.36891C85.3209 4.3542 85.2766 4.33949 85.247 4.33949C85.2913 4.53072 85.3356 4.73666 85.3651 4.9279C85.5718 6.17826 85.5128 7.47276 85.439 8.73784C85.3651 10.0323 85.1289 11.3121 84.8927 12.5919C84.6565 13.8717 84.4498 15.1809 84.0216 16.4166C83.9921 16.4901 83.8888 16.4607 83.8888 16.3872C83.9478 15.1809 84.125 13.9894 84.2283 12.7832C84.3169 11.5769 84.3464 10.356 84.4055 9.14973C84.4645 8.03175 84.5384 6.92849 84.4498 5.82522C83.9921 6.29595 83.1653 6.26653 82.619 5.76638C82.3681 5.54572 82.1909 5.2221 82.058 4.91318C81.9399 4.57485 81.9842 4.28065 82.1614 4.04528C81.7332 4.0747 81.3051 4.11883 80.8917 4.14825C79.0019 4.31007 77.1416 4.82492 75.3256 5.35449C71.5608 6.45776 67.9141 7.91407 64.1493 9.04676C56.0144 11.5034 47.6432 13.2833 39.272 14.7543C35.5072 15.4163 31.7129 15.99 27.9185 16.4754C25.4087 16.799 22.7511 17.1521 20.4037 16.2695C20.699 16.2548 21.009 16.1959 21.319 16.1224Z" fill="#FFC3C4"/>
<path d="M20.8915 16.4313C19.9319 16.2253 19.0017 15.8281 18.0864 15.4898C16.9643 15.0926 15.8718 14.6072 14.794 14.1071C13.0076 13.298 11.295 12.3124 9.41993 11.7093C8.68173 11.4739 7.94353 11.2386 7.17581 11.2533C6.23091 11.2533 5.41889 11.7681 4.79881 12.4154C3.39623 13.857 2.4661 15.9017 1.5655 17.6669C1.47692 17.8287 1.21116 17.7552 1.18163 17.5934C1.01923 16.5342 1.32928 15.5928 1.81648 14.666C2.31846 13.6952 2.93855 12.739 3.63245 11.9005C4.90215 10.3412 6.67383 9.81167 8.60791 10.2824C10.5715 10.7531 12.417 11.8564 14.1739 12.7978C15.3255 13.4157 16.5214 13.9747 17.7025 14.5484C18.795 15.0779 20.0057 15.5634 20.9506 16.3136C20.9801 16.343 20.9654 16.446 20.8915 16.4313Z" fill="#FDFFC9"/>
<path d="M20.5811 16.6961L20.8321 16.5931C20.8468 16.5931 20.8468 16.5931 20.8468 16.5931L20.8321 16.6078C20.8025 16.6225 20.8616 16.6078 20.8763 16.6078L21.0535 16.5784L21.4226 16.5196L22.1608 16.4019L23.6372 16.1665L26.59 15.6958C28.5684 15.3869 30.532 15.078 32.5104 14.7543C34.474 14.4307 36.4523 14.0924 38.4159 13.754C40.3796 13.4157 42.3579 13.0774 44.3215 12.7096C46.2851 12.3418 48.2487 11.9741 50.2123 11.5769C52.1612 11.165 54.1248 10.7531 56.0736 10.2971C58.0225 9.84111 59.9713 9.37038 61.9054 8.70842C62.1416 8.62016 62.3779 8.5319 62.6289 8.44364C62.8798 8.34067 63.1013 8.25241 63.3375 8.16415C63.7952 7.97291 64.2529 7.79639 64.7106 7.63458C65.1683 7.45805 65.6407 7.29624 66.1131 7.13443C66.5856 6.97262 67.0433 6.8108 67.5157 6.64899C69.4055 6.03116 71.3101 5.47217 73.2294 4.98674C74.189 4.73666 75.1487 4.5013 76.1231 4.31007C77.0975 4.10412 78.072 3.9276 79.0464 3.7805C80.0356 3.64811 81.01 3.54513 81.9992 3.51571C82.4864 3.501 82.9736 3.51571 83.446 3.55984C83.6823 3.58926 83.9185 3.6334 84.14 3.67753C84.3614 3.73637 84.5829 3.79521 84.76 3.89818C84.9372 4.00115 85.0701 4.13354 85.1144 4.26594C85.1291 4.29536 85.1291 4.33949 85.1439 4.36891C85.1439 4.36891 85.1439 4.36891 85.1439 4.38362V4.41304V4.45717L85.1734 4.54543C85.1882 4.66311 85.203 4.78079 85.203 4.89847C85.2473 5.3692 85.262 5.86935 85.262 6.35479C85.262 7.34037 85.2177 8.32596 85.1291 9.29683C85.0406 10.2824 84.9077 11.2533 84.7453 12.2242C84.5829 13.195 84.3614 14.1512 84.1104 15.1074C83.9923 15.5781 83.8447 16.0488 83.697 16.5196L83.4608 17.2109C83.4165 17.3286 83.387 17.4463 83.3427 17.564L83.2098 17.9023C82.8703 18.8143 82.4569 19.7117 81.9992 20.5796L81.6448 21.2268C81.5267 21.4328 81.3939 21.6387 81.2757 21.8594L81.0838 22.1683L80.8771 22.4772C80.7442 22.6831 80.6114 22.8744 80.4637 23.0803L80.0208 23.654C79.8732 23.8452 79.7255 24.0365 79.5631 24.213C79.4007 24.3895 79.2531 24.5808 79.0907 24.7573L78.5887 25.2721C78.4263 25.4487 78.2344 25.6105 78.072 25.7723L77.8062 26.0224C77.7176 26.1106 77.629 26.1842 77.5405 26.2577C77.1566 26.5519 76.8023 26.8756 76.4036 27.1403C75.6359 27.714 74.7796 28.1553 73.9233 28.5819L73.7314 28.6702L73.5985 28.8909C73.569 28.935 73.5247 29.0232 73.4951 29.0821C73.4508 29.1556 73.4213 29.2145 73.377 29.288C73.2884 29.4204 73.2146 29.5675 73.126 29.6999C72.9489 29.9647 72.7569 30.2295 72.565 30.4943C72.1811 31.0238 71.7677 31.524 71.3248 32.0241C70.4538 33.0097 69.4941 33.907 68.4606 34.7455C67.4419 35.584 66.3494 36.3342 65.2125 36.9962C64.0757 37.6729 62.8798 38.2466 61.6544 38.7614C61.0491 39.0262 60.4143 39.2469 59.7942 39.4675L58.8493 39.7617C58.6869 39.8206 58.5245 39.85 58.3768 39.8941L57.8896 40.0265L57.4024 40.1589L56.9152 40.2619C56.5904 40.3354 56.2656 40.409 55.9408 40.4825L54.9663 40.659L54.7154 40.7032L54.4644 40.7326L53.9772 40.8061C53.3128 40.9091 52.6484 40.9679 51.9988 41.0415L51.8807 41.0562H51.8216H51.8069C51.7921 41.0562 51.8216 41.0562 51.8069 41.0562H51.7773L51.5263 41.0709L51.0244 41.1003L50.5224 41.1298C50.36 41.1445 50.1828 41.1445 50.0204 41.1445C49.3708 41.1298 48.7212 41.1592 48.0568 41.0856C47.732 41.0562 47.3924 41.0562 47.0676 41.0121L46.0784 40.8944C45.7536 40.865 45.4288 40.7914 45.104 40.7326L44.6168 40.6443C44.4544 40.6149 44.292 40.5855 44.1296 40.5414C43.48 40.3795 42.8304 40.2471 42.2103 40.0412L41.7378 39.9088L41.5016 39.8353L41.2654 39.747L40.3205 39.4234C40.1581 39.3792 40.0104 39.3057 39.848 39.2469L39.3904 39.0556C39.0803 38.9379 38.7703 38.8055 38.475 38.6732L37.5744 38.2613L36.6886 37.8053C36.5409 37.7317 36.3933 37.6581 36.2456 37.5699L35.8175 37.3198L35.3893 37.0697C35.2417 36.9962 35.094 36.9079 34.9612 36.8197L34.1049 36.3048C33.8243 36.1283 33.5438 35.937 33.2633 35.7605L32.8499 35.481L32.4365 35.1868C32.1708 34.9956 31.8903 34.8044 31.6245 34.5984C30.5467 33.8041 29.528 32.9509 28.5388 32.0536C27.5497 31.1562 26.6048 30.2148 25.7189 29.2292C24.8183 28.2436 23.9768 27.2139 23.1943 26.1548C23.0024 25.89 22.8104 25.6105 22.6185 25.3457C22.4413 25.0662 22.2494 24.8014 22.0722 24.5219C21.7179 23.9629 21.3931 23.3892 21.1421 22.8302L20.8468 22.1536L20.2415 22.5802C19.3114 23.2421 18.3517 23.8747 17.3773 24.4778C16.4029 25.0809 15.4137 25.6693 14.4097 26.2136C13.4058 26.7579 12.3723 27.258 11.3241 27.6993C10.2758 28.1406 9.19804 28.5084 8.12027 28.729C7.57401 28.832 7.02774 28.9056 6.511 28.8909C5.9795 28.8761 5.47752 28.7732 5.06413 28.5378C5.00507 28.5084 4.96078 28.479 4.9165 28.4495C4.8722 28.4201 4.8279 28.376 4.76885 28.3466L4.70979 28.3024L4.63598 28.2289L4.47357 28.0818C4.35546 27.9788 4.28165 27.8906 4.1783 27.7876C4.08971 27.6993 3.98636 27.5964 3.89777 27.4934C3.52868 27.0815 3.20387 26.6402 2.90859 26.1695C2.3328 25.228 1.91941 24.1836 1.66842 23.1097C1.41743 22.0212 1.32884 20.9032 1.3879 19.7852C1.44696 18.6672 1.63889 17.5493 1.94894 16.4607C2.11134 15.9164 2.28851 15.3869 2.4952 14.8573C2.7019 14.3277 2.93812 13.8129 3.18911 13.3274C3.45486 12.842 3.75014 12.3713 4.08971 11.9447C4.42928 11.5181 4.81315 11.1356 5.25607 10.8414C5.47752 10.6943 5.71375 10.5619 5.94997 10.4589C6.1862 10.356 6.43718 10.2824 6.70293 10.2383C7.21967 10.15 7.75117 10.1647 8.26791 10.2824C8.53366 10.3413 8.78465 10.4148 9.05041 10.5178C9.10946 10.5472 9.18327 10.5619 9.24233 10.5913L9.22757 10.606H9.24233C9.24233 10.606 9.2571 10.606 9.24233 10.606L9.27186 10.6208L9.37521 10.6649C9.50809 10.7237 9.64096 10.7826 9.75908 10.8561L10.1429 11.0473L10.5268 11.2386L11.2945 11.6358C12.3132 12.18 13.332 12.7243 14.3507 13.2686C16.3881 14.3719 18.4108 15.4898 20.4334 16.6078L20.5811 16.6961ZM20.6696 15.8723C18.6913 14.7837 16.6981 13.6952 14.705 12.6213C13.6863 12.0624 12.6676 11.5181 11.6489 10.9738L10.8811 10.5619L10.4973 10.356L10.0986 10.15C9.96577 10.0765 9.83289 10.0176 9.70002 9.95879L9.59667 9.91466L9.56714 9.89995L9.53761 9.88524L9.47855 9.85582C9.40474 9.8264 9.33092 9.79698 9.27186 9.76756C8.99135 9.64988 8.69607 9.56162 8.38602 9.48807C7.7807 9.35567 7.13109 9.31154 6.511 9.42922C5.87615 9.5322 5.28559 9.79698 4.76885 10.15C4.23735 10.5031 3.8092 10.9444 3.41057 11.4151C3.0267 11.8858 2.7019 12.4007 2.42138 12.9303C2.14086 13.4598 1.88988 13.9894 1.66842 14.5484C1.44696 15.0927 1.25503 15.6516 1.09263 16.2253C0.767822 17.358 0.546356 18.5349 0.487305 19.7264C0.428246 20.9179 0.50206 22.1094 0.753052 23.2863C1.00404 24.4631 1.44696 25.5958 2.06705 26.6402C2.37709 27.155 2.73142 27.6552 3.13005 28.1112C3.2334 28.2289 3.32198 28.3466 3.44009 28.4495C3.54344 28.5525 3.66155 28.6849 3.7649 28.7732L3.92731 28.9203L4.00112 28.9938C4.00112 28.9938 4.03065 29.0085 4.01589 29.0085L4.03065 29.0232L4.06018 29.038L4.10447 29.0821C4.16353 29.1409 4.23734 29.1851 4.31116 29.2439C4.38499 29.288 4.45881 29.3469 4.53263 29.3763C4.82791 29.5528 5.15272 29.6705 5.46276 29.744C5.78757 29.8176 6.09761 29.8617 6.42242 29.8764C7.05727 29.9059 7.66259 29.8323 8.26791 29.7293C9.46379 29.5087 10.5859 29.1115 11.6784 28.6849C12.7709 28.2436 13.8339 27.7435 14.8674 27.1992C15.9156 26.6696 16.9344 26.0959 17.9383 25.4928C18.9423 24.8897 19.9314 24.2718 20.9059 23.6099L20.0053 23.3598C20.3005 24.0365 20.6549 24.6249 21.024 25.2133C21.2012 25.5075 21.4079 25.787 21.5998 26.0812C21.7917 26.3607 21.9984 26.6402 22.2051 26.9197C23.0319 28.0229 23.903 29.0674 24.8331 30.0824C25.7632 31.0974 26.7229 32.0536 27.7416 32.9656C28.7603 33.8776 29.8085 34.7602 30.9011 35.584C31.1668 35.79 31.4621 35.9812 31.7279 36.1871L32.1413 36.4813L32.5694 36.7608C32.8499 36.9521 33.1452 37.1433 33.4257 37.3198L34.3116 37.8494C34.4592 37.9376 34.6068 38.0259 34.7545 38.1142L35.1974 38.3642L35.6403 38.6143C35.788 38.7026 35.9504 38.7761 36.098 38.8497L37.0134 39.3204L37.973 39.7176C38.2831 39.8647 38.6079 39.9971 38.9179 40.1148L39.3904 40.306C39.5528 40.3648 39.7152 40.4384 39.8776 40.4825L40.852 40.8208L41.103 40.9091L41.354 40.9827L41.8559 41.1298C42.5203 41.3357 43.1847 41.4828 43.8638 41.6446C44.0262 41.6888 44.2034 41.7182 44.3658 41.7476L44.8826 41.8359C45.2221 41.8947 45.5617 41.9682 45.9013 41.9977L46.9347 42.1301C47.2743 42.1742 47.6287 42.1742 47.9682 42.2036C48.6474 42.2625 49.356 42.2477 50.0499 42.2624C50.2271 42.2624 50.3895 42.2624 50.5667 42.2477L51.0687 42.2183L51.5706 42.1889L51.8216 42.1742H51.8512H51.8807H51.8954H51.9545L52.0874 42.1595C52.7665 42.0859 53.4604 42.0271 54.1396 41.9241L54.6563 41.8506L54.9073 41.8211L55.1583 41.777L56.177 41.5858C56.5166 41.5269 56.8414 41.4387 57.1809 41.3651L57.6829 41.2474L58.1849 41.1151C59.5137 40.7767 60.8276 40.3354 62.1121 39.8206C63.3966 39.3057 64.6368 38.7026 65.8326 38.0112C67.0285 37.3198 68.1801 36.5549 69.2579 35.687L69.6713 35.3634L70.0699 35.025C70.3356 34.8044 70.5866 34.569 70.8524 34.3336C71.3544 33.8629 71.8563 33.3775 72.3288 32.8626C72.8012 32.3625 73.2589 31.8329 73.6871 31.2739C73.8938 30.9944 74.1152 30.7149 74.3072 30.4354C74.4105 30.2883 74.4991 30.1412 74.6024 29.9941C74.6467 29.9206 74.7058 29.847 74.7501 29.7588C74.7944 29.6852 74.8387 29.6117 74.8977 29.5087L74.5877 29.8176C75.503 29.3175 76.4036 28.7879 77.2157 28.1553C77.6438 27.8611 78.0129 27.5081 78.4115 27.1698C78.5149 27.0815 78.6035 26.9932 78.692 26.905L78.9726 26.6255C79.1202 26.4784 79.3121 26.3019 79.4745 26.0959L79.9913 25.5222C80.1684 25.331 80.3161 25.125 80.4785 24.9191C80.8033 24.5219 81.0838 24.0953 81.3939 23.6834C81.5415 23.4628 81.6744 23.2568 81.8072 23.0362L82.0139 22.7126L82.2059 22.3742C82.324 22.1536 82.4569 21.9329 82.575 21.7123L82.9145 21.0356C83.3575 20.1236 83.7561 19.1821 84.0957 18.2259L84.2285 17.8729C84.2728 17.7552 84.3024 17.6375 84.3467 17.5051L84.5681 16.7843C84.701 16.2989 84.8486 15.8135 84.9667 15.328C85.203 14.3424 85.4097 13.3569 85.5573 12.3713C85.7197 11.371 85.8378 10.3707 85.9116 9.37038C85.9855 8.37009 86.015 7.35508 86.0002 6.35479C85.9855 5.85464 85.9707 5.35449 85.9116 4.83963C85.8969 4.69253 85.8821 4.56014 85.8673 4.44246L85.8526 4.3542V4.31007V4.28065V4.25122C85.8378 4.16296 85.8083 4.0747 85.7788 4.00115C85.7197 3.83934 85.6016 3.69224 85.4835 3.58926C85.3506 3.47158 85.2177 3.38332 85.0848 3.30977C84.8191 3.16267 84.5533 3.08912 84.3024 3.03028C84.0366 2.97144 83.7856 2.9273 83.5199 2.89788C83.0031 2.83904 82.4864 2.83904 81.9844 2.85375C80.9657 2.88317 79.9618 2.98615 78.9726 3.11854C76.9794 3.39803 75.0158 3.80992 73.067 4.28065C71.1181 4.75137 69.1841 5.28094 67.2795 5.88406C66.3198 6.17826 65.375 6.50189 64.4301 6.85493C63.9576 7.03146 63.4852 7.20798 63.0275 7.39921C62.7913 7.48747 62.5698 7.59045 62.3336 7.67871C62.0973 7.76697 61.8759 7.85523 61.6397 7.92878C59.7646 8.56132 57.8306 9.03205 55.8817 9.47336C53.9476 9.92937 51.984 10.3265 50.0352 10.7237C48.0863 11.1209 46.1227 11.4887 44.1591 11.8564C40.2319 12.5772 36.3047 13.2686 32.3627 13.9306C30.3991 14.2689 28.4207 14.5778 26.4571 14.9014L23.5043 15.3869L22.0279 15.6369L21.2897 15.7693L20.9206 15.8429L20.7287 15.887C20.6992 15.8576 20.6844 15.8723 20.6696 15.8723Z" fill="#440B1A"/>
<path d="M60.9458 25.4781C60.9458 25.4781 52.5894 36.8344 48.7951 34.7603C45.0007 32.6862 44.8531 28.6556 46.6248 27.5523C49.3413 25.8606 54.4792 22.5361 59.2775 23.3746" fill="url(#paint6_linear)"/>
<path opacity="0.4" d="M45.7094 28.8174C46.2999 30.2737 47.7911 31.274 49.3856 31.3622C51.0687 31.4358 52.486 30.8327 53.8296 29.9059C54.5973 29.3764 55.2764 28.685 55.8965 28.0083C56.5904 27.2434 57.3877 26.449 57.8601 25.5223C58.244 24.7721 58.495 24.1248 58.3621 23.2716C58.6722 23.2863 58.9822 23.3304 59.2775 23.3893L60.9458 25.4781C60.9458 25.4781 52.5894 36.8344 48.7951 34.7603C45.9456 33.201 45.1631 30.509 45.7094 28.8174Z" fill="#5E003F"/>
<path d="M57.8008 23.6688C55.3352 24.2719 53.0763 25.081 50.847 26.3019C48.9719 27.3316 47.0674 28.3614 45.8124 30.1413C45.7091 30.2884 45.4433 30.259 45.4138 30.053C45.2662 29.0086 45.9453 28.3025 46.713 27.67C47.7022 26.8756 48.8686 26.2431 49.9759 25.6253C52.2938 24.3455 55.099 23.1981 57.786 23.5511C57.8451 23.5658 57.8598 23.6541 57.8008 23.6688Z" fill="#FDFFC9"/>
<path d="M50.4927 35.334C52.0872 35.0251 54.1246 33.6276 56.5755 31.171C59.1296 28.5967 61.2409 25.7429 61.2704 25.7135C61.4033 25.537 61.359 25.3016 61.1818 25.1692C61.0046 25.0368 60.7684 25.081 60.6355 25.2575C58.3619 28.3319 51.851 35.9959 48.9868 34.4367C47.1265 33.4216 45.9749 31.7741 45.9306 30.0236C45.9011 29.0674 46.2407 28.2584 46.846 27.8906L47.1117 27.7288C49.7693 26.0665 55.2319 22.9333 59.7202 23.7276C59.9269 23.7717 59.9416 23.7865 59.9859 23.5805C60.0302 23.3746 59.5725 23.0509 59.3511 23.0068C54.5676 22.1536 49.4445 25.3457 46.6984 27.0668L46.4326 27.2286C45.6058 27.7435 45.1186 28.8026 45.1629 30.0383C45.222 32.0536 46.5212 33.9512 48.6324 35.0986C49.1492 35.3928 49.784 35.4664 50.4927 35.334Z" fill="#440B1A"/>
<path d="M51.9394 30.7591C52.589 30.156 53.3567 29.6411 54.0359 29.0527C54.7446 28.4496 55.468 27.8612 56.2209 27.3316C56.9444 26.8167 57.7269 26.3607 58.4946 25.9194C59.218 25.5222 60.1777 25.0957 60.9897 24.8897C60.9897 24.9191 61.1816 25.2722 61.1816 25.3016C61.1964 25.4928 60.8716 25.434 60.9159 25.6252C60.2515 26.0371 59.4838 26.1842 58.8046 26.552C57.9779 27.008 57.1806 27.5081 56.3981 28.023C55.5713 28.5526 54.8036 29.1557 54.0064 29.7147C53.3863 30.156 52.7219 30.6414 51.9542 30.7885C51.9394 30.7885 51.9246 30.7591 51.9394 30.7591Z" fill="#440B1A"/>
<path d="M53.7852 26.5372C54.5824 25.7576 55.8817 25.331 56.8856 24.8897C57.801 24.4925 58.7754 24.0954 59.7498 23.8306C59.8532 24.0512 59.986 24.2572 60.1484 24.4337C59.0707 24.772 57.9929 25.0809 56.9299 25.4634C55.9259 25.8312 54.8777 26.4343 53.8295 26.5961C53.7852 26.6108 53.7556 26.5667 53.7852 26.5372Z" fill="#440B1A"/>
<path opacity="0.4" d="M60.9752 10.2825C61.492 12.9892 64.179 14.7397 66.9399 14.2101C69.7155 13.6805 71.5315 11.0474 71.0147 8.35544C70.498 5.64876 67.8109 3.89824 65.0501 4.42781C62.2745 4.95738 60.4437 7.57579 60.9752 10.2825Z" fill="#5E003F"/>
<path d="M62.1709 8.44369C62.6581 10.9886 65.0351 12.6508 67.4859 12.1948C69.922 11.7241 71.5165 9.28217 71.0145 6.75201C70.5273 4.20714 68.1503 2.54489 65.6995 3.00091C63.2634 3.45692 61.6837 5.89882 62.1709 8.44369Z" fill="white"/>
<path d="M63.3523 4.28064C63.0127 5.70753 63.308 7.29624 64.3563 8.3995C65.2864 9.38509 66.5708 10.047 67.9734 9.78226C68.9478 9.59103 69.9075 8.9732 70.3947 8.1053C70.6605 7.63457 70.8819 7.105 70.9705 6.56072C70.9853 6.61957 71 6.67841 71.0148 6.73725C71.502 9.28211 69.9223 11.7093 67.4862 12.18C65.0502 12.6508 62.6584 10.9738 62.1712 8.42892C61.8759 6.86964 62.3631 5.33978 63.3523 4.28064Z" fill="#C4C4C4"/>
<path d="M61.8462 8.51721C61.8462 8.51721 61.8758 8.62018 61.9201 8.82613C61.9348 8.88497 61.9496 8.9291 61.9643 9.00265C61.9939 9.0762 62.0086 9.14975 62.0382 9.2233C62.0677 9.29685 62.0972 9.38511 62.1267 9.47338C62.171 9.56164 62.2006 9.6499 62.2449 9.75287C62.2596 9.797 62.2892 9.85584 62.3187 9.89997C62.3334 9.95881 62.3777 10.0029 62.3925 10.0618C62.4516 10.1648 62.5106 10.2677 62.5697 10.3854C62.6435 10.4884 62.7173 10.5914 62.8059 10.709C62.8797 10.8267 62.9831 10.9297 63.0864 11.0327C63.485 11.474 64.0165 11.9006 64.6809 12.2095C65.3453 12.5184 66.1573 12.6949 66.9989 12.6214C67.1022 12.6214 67.2056 12.5919 67.3089 12.5772L67.4713 12.5478H67.5451C67.5304 12.5478 67.5747 12.5478 67.5747 12.5478H67.5894H67.6042L67.6337 12.5331C67.8256 12.4743 68.0176 12.4448 68.239 12.3566C68.3424 12.3124 68.4605 12.283 68.5638 12.2242C68.6672 12.1801 68.7705 12.1212 68.8591 12.0771C68.9625 12.033 69.0511 11.9594 69.1544 11.9006C69.243 11.8417 69.3463 11.7829 69.4349 11.7093C69.5235 11.6358 69.6121 11.5622 69.7007 11.5034C69.7893 11.4298 69.8631 11.3416 69.9517 11.268C70.055 11.1798 70.1288 11.0915 70.2026 11.0032C70.2765 10.915 70.365 10.8267 70.4241 10.7385C70.4979 10.6355 70.557 10.5472 70.6308 10.4443C70.6899 10.3413 70.7489 10.2383 70.808 10.1353C70.8375 10.0765 70.867 10.0324 70.8965 9.97352L70.9704 9.81171C71.0147 9.70874 71.0737 9.59106 71.1032 9.48809C71.2804 9.04678 71.369 8.57605 71.4133 8.09061C71.4576 7.61989 71.4133 7.13445 71.3247 6.66372L71.2361 6.32539C71.2214 6.26655 71.2066 6.22242 71.1918 6.16357L71.1328 5.98705C71.0885 5.86937 71.059 5.75169 70.9999 5.64872L70.8523 5.32509C70.808 5.22212 70.7341 5.11915 70.6751 5.01618L70.5865 4.86907C70.557 4.82494 70.5127 4.7661 70.4832 4.72197C70.4093 4.63371 70.3503 4.53074 70.2765 4.44248L70.0402 4.17769C69.9664 4.08943 69.8778 4.01588 69.7893 3.92762L69.6564 3.80994C69.6121 3.76581 69.5678 3.73639 69.5235 3.70697C69.4349 3.63342 69.3463 3.55986 69.243 3.50102C69.1396 3.44218 69.0511 3.38334 68.9477 3.3245C68.8591 3.26566 68.741 3.22153 68.6377 3.16269C68.5343 3.11856 68.431 3.05972 68.3276 3.01559C68.2095 2.98617 68.0914 2.94204 67.988 2.8979C67.8847 2.86848 67.7666 2.83906 67.6632 2.80964C67.2351 2.70667 66.7922 2.64783 66.364 2.67725C66.1425 2.67725 65.9359 2.70667 65.7292 2.73609H65.6849H65.6701H65.6553C65.6553 2.73609 65.6258 2.73609 65.6406 2.73609L65.5668 2.7508L65.4191 2.78022L65.2715 2.80964C65.2272 2.82435 65.1829 2.83906 65.1238 2.85377C64.9319 2.92732 64.7252 2.98617 64.548 3.07443C64.4595 3.11856 64.3709 3.16269 64.2823 3.20682C64.1937 3.25095 64.1199 3.30979 64.0313 3.35392L63.9132 3.42747C63.8689 3.45689 63.8394 3.48631 63.7951 3.51573C63.7213 3.57457 63.6474 3.63342 63.5736 3.69226C63.426 3.80994 63.2931 3.94233 63.175 4.06001C62.673 4.57487 62.3334 5.14857 62.1267 5.69285C62.0825 5.82524 62.0234 5.95763 61.9791 6.09002C61.9496 6.22242 61.9053 6.35481 61.8758 6.47249C61.8462 6.59017 61.8315 6.72256 61.8167 6.82553C61.8019 6.88438 61.8019 6.94322 61.7872 6.98735C61.7872 7.04619 61.7872 7.09032 61.7724 7.14916C61.7724 7.25213 61.7576 7.3551 61.7576 7.44336C61.7576 7.53163 61.7577 7.61989 61.7724 7.70815C61.7724 7.79641 61.7724 7.86996 61.7872 7.9288C61.7872 8.00235 61.8019 8.06119 61.8019 8.12003C61.8315 8.34069 61.8462 8.45837 61.8462 8.45837V8.51721ZM62.4958 8.37011C62.4958 8.37011 62.4811 8.26714 62.4516 8.0759C62.4516 8.03177 62.4368 7.97293 62.422 7.91409C62.422 7.85525 62.4073 7.7817 62.4073 7.72286C62.4073 7.64931 62.3925 7.57576 62.3925 7.48749C62.3925 7.39923 62.3925 7.32568 62.4073 7.22271C62.4073 7.17858 62.4073 7.13445 62.4073 7.07561C62.4073 7.03148 62.422 6.97264 62.422 6.92851C62.4368 6.82553 62.4516 6.72256 62.4663 6.61959C62.4958 6.51662 62.5106 6.39894 62.5401 6.28126C62.5697 6.16357 62.614 6.04589 62.6583 5.92821C62.8354 5.44277 63.1159 4.92792 63.5441 4.45719C63.6622 4.33951 63.7655 4.23653 63.8984 4.11885C63.9575 4.07472 64.0313 4.01588 64.0904 3.95704C64.1199 3.92762 64.1494 3.8982 64.1937 3.88349L64.3266 3.82465C64.4004 3.78052 64.4742 3.73639 64.548 3.69226C64.6219 3.64813 64.7104 3.61871 64.7843 3.57457C64.9467 3.48631 65.1091 3.44218 65.2715 3.36863C65.3158 3.35392 65.3601 3.33921 65.4044 3.3245L65.552 3.29508L65.6996 3.26566L65.7587 3.23624C65.7735 3.23624 65.7439 3.23624 65.7587 3.23624H65.7735H65.7882H65.8177C66.0097 3.20682 66.1868 3.1774 66.3788 3.1774C66.7626 3.14798 67.1613 3.20682 67.5451 3.30979C67.6337 3.33921 67.7371 3.36863 67.8404 3.39805C67.929 3.44218 68.0323 3.4716 68.1209 3.51573C68.2095 3.54515 68.3129 3.604 68.4014 3.64813C68.49 3.69226 68.5934 3.73639 68.6672 3.79523C68.7558 3.85407 68.8444 3.91291 68.9329 3.95704C69.0215 4.01588 69.0953 4.08943 69.1839 4.14827C69.2282 4.17769 69.2725 4.20711 69.302 4.25125L69.4202 4.35422C69.494 4.42777 69.5826 4.48661 69.6416 4.57487C69.9369 4.88378 70.1583 5.23683 70.3503 5.6193L70.4536 5.88408C70.4979 5.98705 70.5274 6.07531 70.557 6.17828L70.6013 6.32539C70.616 6.36952 70.6308 6.42836 70.6456 6.4872L70.7194 6.79611C70.7784 7.208 70.808 7.6346 70.7637 8.06119C70.7194 8.47308 70.6308 8.88497 70.4684 9.26743C70.4389 9.3704 70.3798 9.45866 70.3355 9.54693L70.2765 9.67932C70.2469 9.72345 70.2174 9.76758 70.2026 9.81171C70.1436 9.89997 70.0993 9.98823 70.0402 10.0765C69.9812 10.1648 69.9221 10.2383 69.8631 10.3266C69.804 10.4148 69.7302 10.4737 69.6711 10.5472C69.5973 10.6208 69.5383 10.6943 69.4644 10.7679C69.3906 10.8414 69.3168 10.9003 69.243 10.9738C69.1692 11.0327 69.0806 11.0915 69.0068 11.1503C68.9329 11.2092 68.8444 11.2533 68.7705 11.3122C68.682 11.3563 68.6081 11.4151 68.5195 11.4593C68.431 11.5034 68.3424 11.5475 68.2686 11.5769C68.18 11.6211 68.1062 11.6358 68.0176 11.6652C67.8699 11.724 67.6485 11.7682 67.4565 11.8123L67.427 11.827H67.4123H67.3975C67.3975 11.827 67.427 11.827 67.4123 11.827L67.3384 11.8417L67.2056 11.8564C67.117 11.8711 67.0284 11.8859 66.9398 11.8859C66.2311 11.9153 65.5668 11.7829 64.991 11.5328C64.4299 11.2827 63.9722 10.915 63.6179 10.5619C63.5293 10.459 63.4407 10.3854 63.3817 10.2824C63.3079 10.1942 63.2488 10.0912 63.175 10.0029C63.1159 9.91468 63.0569 9.81171 63.0126 9.73816C62.9831 9.69403 62.9535 9.6499 62.9388 9.60577C62.924 9.56164 62.8945 9.51751 62.8797 9.47338C62.8354 9.38511 62.8059 9.31156 62.7616 9.23801C62.7321 9.16446 62.7025 9.09091 62.6878 9.03207C62.6583 8.97323 62.6435 8.91439 62.614 8.85555C62.5992 8.7967 62.5844 8.73786 62.5697 8.69373C62.5106 8.48779 62.4958 8.38482 62.4958 8.38482V8.37011Z" fill="black"/>
<path d="M66.1572 9.17918C66.3049 9.91469 66.9693 10.4001 67.6484 10.2677C68.3275 10.1353 68.7705 9.44397 68.6376 8.70845C68.4899 7.97294 67.8256 7.48751 67.1317 7.6199C66.4673 7.73758 66.0244 8.44367 66.1572 9.17918Z" fill="black"/>
<path d="M67.1615 8.10527C67.2205 8.39948 67.4863 8.59071 67.7668 8.53187C68.0473 8.47303 68.2245 8.19353 68.1654 7.91404C68.1064 7.61984 67.8406 7.4286 67.5601 7.48744C67.2796 7.53157 67.1024 7.81107 67.1615 8.10527Z" fill="white"/>
</g>
<defs>
<linearGradient id="paint0_linear" x1="54.4914" y1="57.5541" x2="51.67" y2="40.8597" gradientUnits="userSpaceOnUse">
<stop stop-color="#FCEA2C"/>
<stop offset="0.9949" stop-color="#F26354"/>
</linearGradient>
<linearGradient id="paint1_linear" x1="30.9457" y1="53.7122" x2="43.6537" y2="41.026" gradientUnits="userSpaceOnUse">
<stop stop-color="#FCEA2C"/>
<stop offset="0.9949" stop-color="#F26354"/>
</linearGradient>
<linearGradient id="paint2_linear" x1="64.1946" y1="3.98998" x2="23.2844" y2="11.9184" gradientUnits="userSpaceOnUse">
<stop stop-color="#FCEA2C"/>
<stop offset="0.9949" stop-color="#F26354"/>
</linearGradient>
<linearGradient id="paint3_linear" x1="76.3158" y1="13.5071" x2="22.5835" y2="27.8807" gradientUnits="userSpaceOnUse">
<stop stop-color="#F16A89"/>
<stop offset="1" stop-color="#A12679"/>
</linearGradient>
<linearGradient id="paint4_linear" x1="1.07422" y1="17.8119" x2="19.5759" y2="23.4287" gradientUnits="userSpaceOnUse">
<stop stop-color="#FCEA2C"/>
<stop offset="0.9949" stop-color="#F26354"/>
</linearGradient>
<linearGradient id="paint5_linear" x1="59.903" y1="18.4771" x2="21.2697" y2="25.9643" gradientUnits="userSpaceOnUse">
<stop stop-color="#FCEA2C"/>
<stop offset="0.9949" stop-color="#F26354"/>
</linearGradient>
<linearGradient id="paint6_linear" x1="47.4838" y1="33.1586" x2="58.647" y2="21.952" gradientUnits="userSpaceOnUse">
<stop stop-color="#FCEA2C"/>
<stop offset="0.9949" stop-color="#F26354"/>
</linearGradient>
<clipPath id="clip0">
<rect width="85.5424" height="56.7079" fill="white" transform="matrix(-1 0 0 1 86 0)"/>
</clipPath>
</defs>
</svg>
