<svg width="42" height="43" viewBox="0 0 42 43" fill="none" xmlns="http://www.w3.org/2000/svg">
<path d="M22.0211 38.7552H18.0172C17.083 38.7552 16.0153 37.9351 16.0153 36.2948V33.4242C16.0153 32.0573 15.348 30.8271 14.2803 29.8702C11.878 27.9565 10.6769 25.2227 10.6769 22.2155C10.8103 17.0212 14.9476 12.9204 19.8857 12.7837C22.4215 12.7837 24.8238 13.7405 26.5588 15.5175C28.2938 17.2945 29.3615 19.755 29.3615 22.3521C29.3615 25.2227 28.1603 27.9565 25.8915 29.7335C24.6903 30.6904 24.023 32.194 24.023 33.5609V36.7048C24.023 37.7984 23.0888 38.7552 22.0211 38.7552ZM20.0192 14.1506C15.7484 14.1506 12.145 17.8413 12.0115 22.2155C12.0115 24.8126 13.0792 27.2731 15.0811 28.7767C16.5492 30.0069 17.3499 31.6472 17.3499 33.4242V36.2948C17.3499 36.5681 17.3499 37.3883 18.0172 37.3883H22.0211C22.4215 37.3883 22.6884 37.1149 22.6884 36.7048V33.5609C22.6884 31.7839 23.6226 29.8702 25.0907 28.64C26.9592 27.1364 28.0268 24.8126 28.0268 22.3521C28.0268 20.1651 27.2261 18.1147 25.6245 16.4744C24.1565 14.9708 22.1545 14.1506 20.0192 14.1506Z" fill="#FFFEFC"/>
<path d="M23.3557 34.6545H16.6827C16.2823 34.6545 16.0154 34.3811 16.0154 33.9711C16.0154 33.561 16.2823 33.2876 16.6827 33.2876H23.3557C23.7561 33.2876 24.0231 33.561 24.0231 33.9711C24.0231 34.3811 23.7561 34.6545 23.3557 34.6545Z" fill="#FFFEFC"/>
<path d="M20.0187 10.0499C19.6184 10.0499 19.3514 9.77648 19.3514 9.3664V6.63256C19.3514 6.22248 19.6184 5.9491 20.0187 5.9491C20.4191 5.9491 20.686 6.22248 20.686 6.63256V9.3664C20.686 9.77648 20.4191 10.0499 20.0187 10.0499Z" fill="#FFFEFC"/>
<path d="M28.9609 13.8773C28.8274 13.8773 28.5605 13.8773 28.4271 13.7406C28.1601 13.4672 28.1601 13.0572 28.4271 12.7838L30.2955 10.8701C30.5624 10.5967 30.9628 10.5967 31.2297 10.8701C31.4967 11.1435 31.4967 11.5535 31.2297 11.8269L29.3613 13.7406C29.3613 13.7406 29.0944 13.8773 28.9609 13.8773Z" fill="#FFFEFC"/>
<path d="M35.3672 23.0356H32.698C32.2976 23.0356 32.0307 22.7622 32.0307 22.3522C32.0307 21.9421 32.2976 21.6687 32.698 21.6687H35.3672C35.7676 21.6687 36.0345 21.9421 36.0345 22.3522C36.0345 22.7622 35.7676 23.0356 35.3672 23.0356Z" fill="#FFFEFC"/>
<path d="M30.8294 34.1076C30.6959 34.1076 30.429 34.1076 30.2955 33.971L28.4271 32.0573C28.1601 31.7839 28.1601 31.3738 28.4271 31.1004C28.694 30.827 29.0944 30.827 29.3613 31.1004L31.2297 33.0141C31.4967 33.2875 31.4967 33.6976 31.2297 33.971C31.2297 34.1076 31.0963 34.1076 30.8294 34.1076Z" fill="#FFFEFC"/>
<path d="M9.20852 34.1076C9.07506 34.1076 8.80814 34.1076 8.67468 33.971C8.40776 33.6976 8.40776 33.2875 8.67468 33.0141L10.5431 31.1004C10.8101 30.827 11.2104 30.827 11.4774 31.1004C11.7443 31.3738 11.7443 31.7839 11.4774 32.0573L9.60891 33.971C9.47545 34.1076 9.34199 34.1076 9.20852 34.1076Z" fill="#FFFEFC"/>
<path d="M7.34038 23.0356H4.67115C4.27077 23.0356 4.00385 22.7622 4.00385 22.3522C4.00385 21.9421 4.27077 21.6687 4.67115 21.6687H7.34038C7.74076 21.6687 8.00768 21.9421 8.00768 22.3522C8.00768 22.7622 7.74076 23.0356 7.34038 23.0356Z" fill="#FFFEFC"/>
<path d="M11.077 13.8773C10.9435 13.8773 10.6766 13.8773 10.5431 13.7406L8.67468 11.6902C8.40776 11.4168 8.40776 11.0067 8.67468 10.7334C8.9416 10.46 9.34198 10.46 9.60891 10.7334L11.4774 12.647C11.7443 12.9204 11.7443 13.3305 11.4774 13.6039C11.3439 13.7406 11.2104 13.8773 11.077 13.8773Z" fill="#FFFEFC"/>
<path d="M25.3572 23.0357C24.9568 23.0357 24.6899 22.7623 24.6899 22.3522C24.6899 19.755 22.5545 17.568 20.0187 17.568C19.6184 17.568 19.3514 17.2946 19.3514 16.8845C19.3514 16.4744 19.6184 16.201 20.0187 16.201C23.3553 16.201 26.0245 18.9349 26.0245 22.3522C26.0245 22.7623 25.7576 23.0357 25.3572 23.0357Z" fill="#FFFEFC"/>
</svg>
