<svg width="21" height="21" viewBox="0 0 21 21" fill="none" xmlns="http://www.w3.org/2000/svg">
<path d="M11.8126 21.0001H9.18762C8.57512 21.0001 7.87512 20.4751 7.87512 19.4251V17.5876C7.87512 16.7126 7.43762 15.9251 6.73762 15.3126C5.16262 14.0876 4.37512 12.3376 4.37512 10.4126C4.46262 7.08756 7.17512 4.46256 10.4126 4.37506C12.0751 4.37506 13.6501 4.98756 14.7876 6.12506C15.9251 7.26256 16.6251 8.83756 16.6251 10.5001C16.6251 12.3376 15.8376 14.0876 14.3501 15.2251C13.5626 15.8376 13.1251 16.8001 13.1251 17.6751V19.6876C13.1251 20.3876 12.5126 21.0001 11.8126 21.0001ZM10.5001 5.25006C7.70012 5.25006 5.33762 7.61256 5.25012 10.4126C5.25012 12.0751 5.95012 13.6501 7.26262 14.6126C8.22512 15.4001 8.75012 16.4501 8.75012 17.5876V19.4251C8.75012 19.6001 8.75012 20.1251 9.18762 20.1251H11.8126C12.0751 20.1251 12.2501 19.9501 12.2501 19.6876V17.6751C12.2501 16.5376 12.8626 15.3126 13.8251 14.5251C15.0501 13.5626 15.7501 12.0751 15.7501 10.5001C15.7501 9.10006 15.2251 7.78756 14.1751 6.73756C13.2126 5.77506 11.9001 5.25006 10.5001 5.25006Z" fill="#68C2D0"/>
<path d="M12.6875 18.3751H8.3125C8.05 18.3751 7.875 18.2001 7.875 17.9376C7.875 17.6751 8.05 17.5001 8.3125 17.5001H12.6875C12.95 17.5001 13.125 17.6751 13.125 17.9376C13.125 18.2001 12.95 18.3751 12.6875 18.3751Z" fill="#68C2D0"/>
<path d="M10.4998 2.625C10.2373 2.625 10.0623 2.45 10.0623 2.1875V0.4375C10.0623 0.175 10.2373 0 10.4998 0C10.7623 0 10.9373 0.175 10.9373 0.4375V2.1875C10.9373 2.45 10.7623 2.625 10.4998 2.625Z" fill="#68C2D0"/>
<path d="M16.3622 5.07505C16.2747 5.07505 16.0997 5.07505 16.0122 4.98755C15.8372 4.81255 15.8372 4.55005 16.0122 4.37505L17.2372 3.15005C17.4122 2.97505 17.6747 2.97505 17.8497 3.15005C18.0247 3.32505 18.0247 3.58755 17.8497 3.76255L16.6247 4.98755C16.6247 4.98755 16.4497 5.07505 16.3622 5.07505Z" fill="#68C2D0"/>
<path d="M20.5625 10.9374H18.8125C18.55 10.9374 18.375 10.7624 18.375 10.4999C18.375 10.2374 18.55 10.0624 18.8125 10.0624H20.5625C20.825 10.0624 21 10.2374 21 10.4999C21 10.7624 20.825 10.9374 20.5625 10.9374Z" fill="#68C2D0"/>
<path d="M17.5872 18.0249C17.4997 18.0249 17.3247 18.0249 17.2372 17.9374L16.0122 16.7124C15.8372 16.5374 15.8372 16.2749 16.0122 16.0999C16.1872 15.9249 16.4497 15.9249 16.6247 16.0999L17.8497 17.3249C18.0247 17.4999 18.0247 17.7624 17.8497 17.9374C17.8497 18.0249 17.7622 18.0249 17.5872 18.0249Z" fill="#68C2D0"/>
<path d="M3.41216 18.0249C3.32466 18.0249 3.14966 18.0249 3.06216 17.9374C2.88716 17.7624 2.88716 17.4999 3.06216 17.3249L4.28716 16.0999C4.46216 15.9249 4.72466 15.9249 4.89966 16.0999C5.07466 16.2749 5.07466 16.5374 4.89966 16.7124L3.67466 17.9374C3.58716 18.0249 3.49966 18.0249 3.41216 18.0249Z" fill="#68C2D0"/>
<path d="M2.1875 10.9374H0.4375C0.175 10.9374 0 10.7624 0 10.4999C0 10.2374 0.175 10.0624 0.4375 10.0624H2.1875C2.45 10.0624 2.625 10.2374 2.625 10.4999C2.625 10.7624 2.45 10.9374 2.1875 10.9374Z" fill="#68C2D0"/>
<path d="M4.63716 5.07496C4.54966 5.07496 4.37466 5.07496 4.28716 4.98746L3.06216 3.67496C2.88716 3.49996 2.88716 3.23746 3.06216 3.06246C3.23716 2.88746 3.49966 2.88746 3.67466 3.06246L4.89966 4.28746C5.07466 4.46246 5.07466 4.72496 4.89966 4.89996C4.81216 4.98746 4.72466 5.07496 4.63716 5.07496Z" fill="#68C2D0"/>
<path d="M13.9997 10.9375C13.7372 10.9375 13.5622 10.7625 13.5622 10.5C13.5622 8.8375 12.1623 7.4375 10.4998 7.4375C10.2373 7.4375 10.0623 7.2625 10.0623 7C10.0623 6.7375 10.2373 6.5625 10.4998 6.5625C12.6873 6.5625 14.4372 8.3125 14.4372 10.5C14.4372 10.7625 14.2622 10.9375 13.9997 10.9375Z" fill="#68C2D0"/>
</svg>
