<svg width="474" height="20" viewBox="0 0 474 20" fill="none" xmlns="http://www.w3.org/2000/svg">
<path d="M0.292893 9.29289C-0.0976311 9.68342 -0.0976311 10.3166 0.292893 10.7071L6.65685 17.0711C7.04738 17.4616 7.68054 17.4616 8.07107 17.0711C8.46159 16.6805 8.46159 16.0474 8.07107 15.6569L2.41421 10L8.07107 4.34315C8.46159 3.95262 8.46159 3.31946 8.07107 2.92893C7.68054 2.53841 7.04738 2.53841 6.65685 2.92893L0.292893 9.29289ZM473.707 10.7071C474.098 10.3166 474.098 9.68346 473.707 9.29293L467.343 2.92897C466.953 2.53845 466.319 2.53845 465.929 2.92897C465.538 3.3195 465.538 3.95266 465.929 4.34319L471.586 10L465.929 15.6569C465.538 16.0474 465.538 16.6806 465.929 17.0711C466.319 17.4616 466.953 17.4616 467.343 17.0711L473.707 10.7071ZM1 11L473 11L473 9.00004L1 9L1 11Z" fill="#2F2F2F"/>
<line x1="186" y1="4.37114e-08" x2="186" y2="19" stroke="#2F2F2F" stroke-width="2"/>
<line x1="289" y1="4.37114e-08" x2="289" y2="19" stroke="#2F2F2F" stroke-width="2"/>
<line x1="83" y1="1" x2="83" y2="20" stroke="#2F2F2F" stroke-width="2"/>
<line x1="392" y1="4.37114e-08" x2="392" y2="19" stroke="#2F2F2F" stroke-width="2"/>
</svg>
