<svg width="32" height="67" viewBox="0 0 32 67" fill="none" xmlns="http://www.w3.org/2000/svg">
<path d="M16.9806 14.472C17.0145 14.472 17.0484 14.455 17.0653 14.421C18.0313 12.6428 18.3617 10.3882 17.9889 8.07408C17.7093 6.12576 17.0653 4.10938 16.0231 1.90582C15.9214 1.69312 15.8113 1.4549 15.6842 1.22519C15.6587 1.17414 15.5994 1.16563 15.5571 1.18265C15.5147 1.20817 15.4977 1.26773 15.5147 1.31027C15.6333 1.53147 15.7435 1.76119 15.8451 1.98239C16.8789 4.16042 17.5229 6.15979 17.794 8.0996C18.1584 10.3712 17.8364 12.5833 16.8958 14.3274C16.8704 14.3699 16.8874 14.4295 16.9297 14.455C16.9467 14.4635 16.9636 14.472 16.9806 14.472Z" fill="#9C8373"/>
<path fill-rule="evenodd" clip-rule="evenodd" d="M14.6333 1.2677C14.8451 1.66758 15.3535 1.82072 15.7687 1.61653C16.1924 1.40383 16.3534 0.884845 16.1246 0.459448C15.8958 0.0255432 15.3535 -0.1276 14.9637 0.127638C14.5655 0.374369 14.4214 0.867829 14.6333 1.2677Z" fill="#9C8373"/>
<path d="M15.9639 15.0506C16.0148 15.0506 16.0571 15.0165 16.0571 14.9655C16.4046 11.3156 16.0402 8.07405 14.981 5.34301L14.6675 4.65386C14.6421 4.60282 14.5913 4.5858 14.5404 4.60282C14.4896 4.62834 14.4726 4.67939 14.4896 4.73044L14.8031 5.41958C15.8538 8.1251 16.2097 11.3326 15.8707 14.9485C15.8623 14.9995 15.9046 15.0506 15.9555 15.0506C15.9639 15.0506 15.9639 15.0506 15.9639 15.0506Z" fill="#9C8373"/>
<path fill-rule="evenodd" clip-rule="evenodd" d="M13.6254 4.67938C13.8288 5.05373 14.3033 5.23239 14.7439 5.03671C15.1675 4.85804 15.3624 4.32204 15.1167 3.87112C14.854 3.4202 14.3287 3.27557 13.9474 3.53931C13.5576 3.80306 13.4136 4.31354 13.6254 4.67938Z" fill="#9C8373"/>
<path d="M15.1164 14.9825C15.1249 14.9825 15.1334 14.9825 15.1334 14.9825C15.1842 14.9739 15.2181 14.9229 15.2012 14.8718C14.0827 9.98829 11.9898 5.47058 9.14271 1.81217L9.06645 1.71858C8.93935 1.54842 8.80377 1.37826 8.65973 1.22512C8.62583 1.19109 8.56652 1.18258 8.52415 1.21661C8.48179 1.25064 8.48179 1.3102 8.51568 1.35274C8.65125 1.50588 8.78683 1.67604 8.90545 1.83769L8.98172 1.93128C11.8118 5.56417 13.8963 10.0564 15.0063 14.9144C15.0402 14.9484 15.0741 14.9825 15.1164 14.9825Z" fill="#9C8373"/>
<path fill-rule="evenodd" clip-rule="evenodd" d="M7.65986 1.48889C7.95643 1.8292 8.49025 1.86324 8.8546 1.57397C9.22743 1.27619 9.26133 0.740188 8.93934 0.374347C8.61735 0.00850538 8.08353 -0.0340343 7.74459 0.289267C7.40566 0.612569 7.36329 1.14857 7.65986 1.48889Z" fill="#9C8373"/>
<path d="M13.117 16.6841C13.1678 16.6841 13.2017 16.6501 13.2102 16.599C13.2102 16.548 13.1763 16.5054 13.1255 16.5054C10.736 16.3353 8.75322 14.9825 7.50764 13.885C6.06717 12.6513 4.71991 11.0689 3.38959 9.06951C3.26249 8.88233 3.13539 8.68665 2.99982 8.46544C2.9744 8.4229 2.91508 8.40589 2.87272 8.43992C2.83035 8.46544 2.8134 8.525 2.8473 8.56754C2.98287 8.78874 3.10997 8.98443 3.23707 9.18011C4.58433 11.205 5.94007 12.7875 7.38901 14.0381C8.65154 15.1442 10.6767 16.514 13.117 16.6841Z" fill="#9C8373"/>
<path fill-rule="evenodd" clip-rule="evenodd" d="M2.00011 8.55052C2.23737 8.95039 2.74577 9.0695 3.1186 8.82277C3.49142 8.57604 3.61005 8.08258 3.38974 7.71674C3.16943 7.34239 2.68645 7.22328 2.28821 7.42747C1.88996 7.64017 1.75438 8.15915 2.00011 8.55052Z" fill="#9C8373"/>
<path d="M14.0402 16.1566C14.0741 16.1566 14.108 16.1396 14.1165 16.1056C14.1419 16.063 14.125 16.0035 14.0741 15.9865C10.9051 14.3359 8.39698 12.3281 6.643 10.0139L6.23628 9.42684C6.21086 9.3843 6.15155 9.3758 6.10918 9.40132C6.06681 9.42684 6.05834 9.4864 6.08376 9.52894L6.49048 10.1245C8.26988 12.4642 10.7865 14.4891 13.9809 16.1566C14.0148 16.1481 14.0233 16.1566 14.0402 16.1566Z" fill="#9C8373"/>
<path fill-rule="evenodd" clip-rule="evenodd" d="M5.2449 9.5119C5.49062 9.92879 6.02444 10.0309 6.38032 9.77564C6.75315 9.5119 6.83789 9.03545 6.63453 8.67812C6.43117 8.32079 5.94818 8.19317 5.54146 8.38885C5.14321 8.58453 5.00764 9.0865 5.2449 9.5119Z" fill="#9C8373"/>
<path d="M14.3623 15.4165C14.3877 15.4165 14.4046 15.4079 14.4216 15.3909C14.4555 15.3569 14.4555 15.3058 14.4131 15.2718C11.1424 12.209 8.60888 8.55054 7.08367 4.69645L7.03283 4.57734C6.96505 4.41569 6.89726 4.23702 6.84642 4.06686C6.82947 4.02432 6.78711 3.9988 6.73627 4.00731C6.6939 4.02432 6.66848 4.06686 6.67695 4.11791C6.72779 4.29658 6.80405 4.47524 6.87184 4.6454L6.92268 4.76451C8.45636 8.64413 11.0068 12.3281 14.2945 15.4079C14.3199 15.4165 14.3369 15.4165 14.3623 15.4165Z" fill="#9C8373"/>
<path fill-rule="evenodd" clip-rule="evenodd" d="M5.90595 3.93068C6.04152 4.34757 6.48213 4.56877 6.88038 4.41563C7.27015 4.26249 7.49046 3.82858 7.35489 3.43722C7.22779 3.04585 6.78717 2.83315 6.38045 2.95226C5.98221 3.07138 5.77037 3.51379 5.90595 3.93068Z" fill="#9C8373"/>
<path fill-rule="evenodd" clip-rule="evenodd" d="M23.7507 56.4672C23.7507 56.4672 23.6914 56.0843 23.4203 55.4122C23.1322 54.7656 22.6153 53.8212 21.6663 52.8428C20.7257 51.8559 19.3785 50.8434 17.5906 50.0011C15.8027 49.1504 13.6166 48.5123 10.9305 47.9763C10.9305 47.9763 11.2695 48.4527 11.9219 49.1674C12.5659 49.882 13.5403 50.8264 14.7181 51.7623C15.9044 52.7067 17.294 53.6425 18.7938 54.4508C20.3106 55.242 21.9035 55.9142 23.7507 56.4672Z" fill="#3C7737"/>
<path fill-rule="evenodd" clip-rule="evenodd" d="M24.5811 49.2439C24.5811 49.2439 25.8691 48.9462 27.318 47.67C28.7585 46.3938 30.4277 44.1477 31.2666 39.9448C31.2666 39.9448 29.5719 40.6594 27.8603 42.1738C26.1572 43.6797 24.3947 46.113 24.5811 49.2439Z" fill="#3C7737"/>
<path fill-rule="evenodd" clip-rule="evenodd" d="M23.293 41.5443C23.293 41.5443 22.4965 40.2681 20.4798 39.009C18.4462 37.7243 15.2772 36.5502 10.2186 36.1418C10.2186 36.1418 11.5743 37.8689 13.9723 39.4088C16.3618 40.9488 19.7511 42.2335 23.293 41.5443Z" fill="#3C7737"/>
<path fill-rule="evenodd" clip-rule="evenodd" d="M22.9966 36.7883C22.9966 36.7883 23.2677 36.8989 23.7846 36.8904C24.2845 36.8734 25.0302 36.7033 25.7843 36.1758C26.53 35.6568 27.2587 34.7805 27.6739 33.5723C28.0806 32.3642 28.2162 30.7988 27.6908 29.0546C27.6908 29.0546 26.513 30.0926 25.42 31.4283C24.8692 32.1005 24.3523 32.8577 23.9625 33.7C23.5558 34.5508 23.3609 35.4781 22.9966 36.7883Z" fill="#3C7737"/>
<path d="M23.6575 67.0001C23.9286 67.0001 24.1574 66.7959 24.1913 66.5236C24.2252 66.2599 27.2333 39.9533 18.0566 18.5729C17.938 18.3006 17.6245 18.173 17.3533 18.2921C17.0822 18.4112 16.9551 18.726 17.0737 18.9983C26.1402 40.115 23.1576 66.1323 23.1322 66.396C23.0983 66.6938 23.3101 66.9575 23.5982 66.9916C23.6151 67.0001 23.6321 67.0001 23.6575 67.0001Z" fill="#3C1400"/>
<path fill-rule="evenodd" clip-rule="evenodd" d="M23.8777 4.0838C26.4197 8.49942 29.5463 17.0924 20.7341 22.6566C11.9218 28.2208 6.52424 25.1324 1.991 17.1945L-0.000240326 13.8594L3.6433 16.2246L3.53315 12.2089L6.60897 14.4635L6.56661 10.2861L10.1763 12.4216L9.54923 8.11656L12.9131 10.6264L12.6589 6.48304L16.2262 8.6866L15.7094 4.42412L18.8699 7.05307L18.514 2.73955L21.9203 5.22387L21.4967 0.952881C21.5051 0.969897 23.0642 2.67148 23.8777 4.0838Z" fill="#9BBADA"/>
<path fill-rule="evenodd" clip-rule="evenodd" d="M17.2437 22.0442C17.2437 22.0442 16.9895 21.2359 15.3371 21.0572C14.0746 20.9211 12.8121 21.6102 12.8121 21.6102C12.8121 21.6102 13.9729 22.444 15.0575 22.6227C16.4472 22.8439 16.9301 22.4525 17.2437 22.0442Z" fill="white"/>
<path fill-rule="evenodd" clip-rule="evenodd" d="M19.4041 20.9126C19.4041 20.9126 20.2345 21.0487 21.1412 19.6449C21.8275 18.5814 21.7851 17.1351 21.7851 17.1351C21.7851 17.1351 20.5226 17.7987 19.8786 18.692C19.0482 19.8321 19.1753 20.4447 19.4041 20.9126Z" fill="white"/>
<path fill-rule="evenodd" clip-rule="evenodd" d="M18.0653 20.7424C18.0653 20.7424 18.6245 20.1128 17.9382 18.5899C17.4128 17.4328 16.1757 16.6926 16.1757 16.6926C16.1757 16.6926 16.0571 18.122 16.4638 19.1429C16.9722 20.4701 17.5484 20.6828 18.0653 20.7424Z" fill="white"/>
<path fill-rule="evenodd" clip-rule="evenodd" d="M17.8873 21.8058C17.8873 22.1632 18.1754 22.4524 18.5313 22.4524C18.8872 22.4524 19.1753 22.1632 19.1753 21.8058C19.1753 21.4485 18.8872 21.1592 18.5313 21.1592C18.1754 21.1507 17.8873 21.44 17.8873 21.8058Z" fill="white"/>
</svg>
