<svg width="133" height="94" viewBox="0 0 133 94" fill="none" xmlns="http://www.w3.org/2000/svg">
<path d="M41.0171 82.2753C63.6703 82.2753 82.0342 63.8573 82.0342 41.1376C82.0342 18.4179 63.6703 0 41.0171 0C18.364 0 0 18.4179 0 41.1376C0 63.8573 18.364 82.2753 41.0171 82.2753Z" fill="#E6E7E8"/>
<path d="M41.0173 80.5458C62.718 80.5458 80.31 62.9021 80.31 41.1376C80.31 19.3731 62.718 1.72949 41.0173 1.72949C19.3165 1.72949 1.72461 19.3731 1.72461 41.1376C1.72461 62.9021 19.3165 80.5458 41.0173 80.5458Z" fill="#2F9AB2"/>
<path d="M41.0171 75.2337C60.2689 75.2337 75.8755 59.5812 75.8755 40.2729C75.8755 20.9646 60.2689 5.3121 41.0171 5.3121C21.7653 5.3121 6.15869 20.9646 6.15869 40.2729C6.15869 59.5812 21.7653 75.2337 41.0171 75.2337Z" fill="#F2F2F2"/>
<path d="M42.0025 13.9596C42.0025 14.4538 41.5098 14.9479 41.0171 14.9479C40.5244 14.9479 40.0317 14.4538 40.0317 13.9596V9.1417C40.0317 8.64756 40.5244 8.15341 41.0171 8.15341C41.5098 8.15341 42.0025 8.64756 42.0025 9.1417V13.9596Z" fill="#2F9AB2"/>
<path d="M42.0025 73.5043C42.0025 73.9984 41.5098 74.4925 41.0171 74.4925C40.5244 74.4925 40.0317 73.9984 40.0317 73.5043V68.8099C40.0317 68.3157 40.5244 67.8216 41.0171 67.8216C41.5098 67.8216 42.0025 68.3157 42.0025 68.8099V73.5043Z" fill="#2F9AB2"/>
<path d="M13.6724 40.2729C14.1651 40.2729 14.6578 40.767 14.6578 41.2612C14.6578 41.7553 14.1651 42.2494 13.6724 42.2494H8.99174C8.49905 42.2494 8.00635 41.7553 8.00635 41.2612C8.00635 40.767 8.49905 40.2729 8.99174 40.2729H13.6724Z" fill="#2F9AB2"/>
<path d="M73.0425 40.2729C73.5352 40.2729 74.0279 40.767 74.0279 41.2612C74.0279 41.7553 73.5352 42.2494 73.0425 42.2494H68.3619C67.8692 42.2494 67.3765 41.7553 67.3765 41.2612C67.3765 40.767 67.8692 40.2729 68.3619 40.2729H73.0425Z" fill="#2F9AB2"/>
<path d="M26.7287 59.0504C26.6055 59.0504 26.3591 59.0504 26.236 58.9269C25.9896 58.6798 25.8664 58.1857 26.1128 57.9386L45.0817 34.5902C45.328 34.3431 45.8207 34.2196 46.0671 34.4666C46.3134 34.7137 46.4366 35.2079 46.1902 35.4549L27.2214 58.8033C27.0982 59.0504 26.8518 59.0504 26.7287 59.0504Z" fill="#2F9AB2"/>
<path d="M39.2925 41.1376H42.6182L41.756 23.1013H40.1547L39.2925 41.1376Z" fill="#2F9AB2"/>
<path d="M42.1259 42.373L40.771 39.4081L53.458 34.0961L54.0739 35.5785L42.1259 42.373Z" fill="#2F9AB2"/>
<path d="M41.0173 45.0908C43.1941 45.0908 44.9589 43.3209 44.9589 41.1376C44.9589 38.9543 43.1941 37.1844 41.0173 37.1844C38.8404 37.1844 37.0757 38.9543 37.0757 41.1376C37.0757 43.3209 38.8404 45.0908 41.0173 45.0908Z" fill="#2F9AB2"/>
<path d="M41.0182 43.115C42.1066 43.115 42.9889 42.2301 42.9889 41.1384C42.9889 40.0468 42.1066 39.1618 41.0182 39.1618C39.9297 39.1618 39.0474 40.0468 39.0474 41.1384C39.0474 42.2301 39.9297 43.115 41.0182 43.115Z" fill="#F2F2F2"/>
<path d="M51.8756 60.7187C51.8756 60.7187 51.8335 60.6766 51.7914 60.6766C50.2764 60.7607 48.9717 62.5698 49.2243 64.0423C49.3505 64.7154 49.5188 65.3044 49.1822 65.9775C49.1401 66.0617 49.098 66.1458 49.0138 66.2299C49.1822 65.094 48.6771 63.5374 47.7934 62.7381C48.6351 61.7284 49.3926 60.5924 50.2764 59.5827C51.1602 58.573 52.0019 57.5633 52.549 56.3433C53.2223 54.8708 52.1702 53.1038 50.5289 53.819C50.1922 53.188 49.6451 52.8093 48.9297 53.3563C48.2563 52.4307 46.152 53.2721 45.4787 53.819V53.8611C45.0999 53.7349 44.637 53.819 44.2161 54.0294C42.9115 54.6605 42.1119 56.175 41.3543 57.3109C39.5026 60.0455 37.1879 63.6636 38.2821 67.1134C38.7871 68.7121 39.8393 70.1005 40.8914 71.3626C42.0277 72.7089 43.2903 74.0551 44.637 75.191C44.6791 75.2331 44.7211 75.2331 44.7632 75.2331C45.5208 75.8642 46.4466 76.4111 47.4567 76.2849C48.6771 76.1587 49.9818 75.149 50.571 74.0972C50.6131 74.0131 50.571 73.9289 50.5289 73.8868C51.3706 72.4144 51.7494 70.5632 52.1702 68.9646C52.5069 67.5762 52.8015 66.1879 52.8857 64.7995C52.8015 64.1685 52.9698 60.5504 51.8756 60.7187Z" fill="#F2F2F2"/>
<path d="M44.9737 66.1879C44.0899 65.052 42.9115 64.7154 41.4806 64.9258C41.3964 64.9258 41.3964 65.052 41.4806 65.052C42.7852 65.052 43.9215 65.5568 44.6791 66.6507C45.3945 67.6604 45.6049 68.8804 45.8995 70.0163C45.9416 70.1426 46.11 70.1005 46.11 69.9743C46.1521 68.7121 45.7733 67.1976 44.9737 66.1879Z" fill="#0E80A4"/>
<path d="M51.8756 60.7187C51.8756 60.7187 51.8335 60.6766 51.7914 60.6766C50.2764 60.7607 48.9717 62.5698 49.2243 64.0423C49.3505 64.7154 49.5188 65.3044 49.1822 65.9775C49.1401 66.0617 49.098 66.1458 49.0138 66.2299C49.1822 65.094 48.6771 63.5374 47.7934 62.7381C48.6351 61.7284 49.3926 60.5924 50.2764 59.5827C51.1602 58.573 52.0019 57.5633 52.549 56.3433C53.2223 54.8708 52.1702 53.1038 50.5289 53.819C50.1922 53.188 49.6451 52.8093 48.9297 53.3563C48.2563 52.4307 46.152 53.2721 45.4787 53.819V53.8611C45.0999 53.7349 44.637 53.819 44.2161 54.0294C42.9115 54.6605 42.1119 56.175 41.3543 57.3109C39.5026 60.0455 37.1879 63.6636 38.2821 67.1134C38.7871 68.7121 39.8393 70.1005 40.8914 71.3626C42.0277 72.7089 43.2903 74.0551 44.637 75.191C44.6791 75.2331 44.7211 75.2331 44.7632 75.2331C45.5208 75.8642 46.4466 76.4111 47.4567 76.2849C48.6771 76.1587 49.9818 75.149 50.571 74.0972C50.6131 74.0131 50.571 73.9289 50.5289 73.8868C51.3706 72.4144 51.7494 70.5632 52.1702 68.9646C52.5069 67.5762 52.8015 66.1879 52.8857 64.7995C52.8015 64.1685 52.9698 60.5504 51.8756 60.7187ZM52.3385 65.1782C52.2123 66.6927 51.7914 68.1652 51.3706 69.5956C50.9497 71.1522 50.2764 72.5827 49.8555 74.1393C49.0559 74.8966 48.2563 75.6118 47.12 75.738C46.1941 75.8642 45.5628 75.0648 44.7211 74.8545C43.9215 73.8448 42.8694 72.9613 41.9856 71.9937C40.9756 70.8998 40.0076 69.7639 39.2922 68.4597C38.4084 66.9031 38.1138 65.2623 38.5767 63.4953C38.9976 61.8966 39.8814 60.4242 40.681 58.9938C41.3964 57.7316 42.196 56.4695 43.164 55.3336C43.669 54.7446 44.3003 54.1556 45.0999 54.0715C46.2783 53.9452 45.3524 56.0909 45.1841 56.3854C44.5107 57.5633 43.5007 58.531 42.7431 59.709C42.0277 60.8449 41.691 62.1491 41.6068 63.4953C41.6068 63.6216 41.7752 63.5795 41.7752 63.4953C42.0277 61.6022 42.9957 59.9614 44.174 58.4889C45.0157 57.3951 46.11 56.2591 46.0679 54.7446C46.0679 54.2397 45.8574 53.9873 45.5628 53.819C46.2362 53.5245 46.9517 53.2721 47.6671 53.188C49.2663 53.0618 48.6351 54.8287 48.1721 55.6702C47.5408 56.7219 46.615 57.5213 45.8154 58.4468C45.0157 59.3303 44.3424 60.34 43.8794 61.4759C43.8794 61.518 43.9215 61.518 43.9215 61.518C44.4686 60.7607 44.9316 59.9614 45.5628 59.2883C46.11 58.6572 46.6571 58.1103 47.2042 57.5213C48.088 56.5536 49.0559 55.3757 49.0559 54.0294C49.0559 53.8611 49.0138 53.6928 48.9717 53.5666C49.8555 53.3142 50.2764 54.0294 50.3185 54.9129C50.3605 55.9226 49.5188 57.0164 48.9297 57.7737C47.8354 59.162 46.4045 60.6345 45.8995 62.4015C45.8995 62.4856 45.9837 62.5277 46.0258 62.4436C46.7412 61.1394 47.5829 59.9614 48.5509 58.8675C49.3505 57.942 50.108 56.9744 50.6131 55.8384C50.8235 55.3336 50.7814 54.6184 50.571 54.0294C51.5389 53.819 52.2123 54.2397 52.2965 55.2915C52.3385 56.2171 51.6231 57.1847 51.076 57.8999C49.8976 59.4986 48.5509 60.8449 47.5829 62.6119C47.5408 62.5698 47.4988 62.5277 47.4567 62.5277C47.4146 62.4856 47.3725 62.5698 47.4146 62.6119C48.3825 63.6216 48.5088 65.1361 48.7613 66.4403C48.7613 66.4403 48.7613 66.4824 48.8034 66.4824C48.6351 66.6927 48.4246 66.9031 48.2563 67.0714C47.7513 67.6604 47.4146 68.2073 47.4146 69.0066C47.4146 69.0487 47.4988 69.0487 47.4988 69.0066C47.6671 67.45 49.2243 66.9872 49.7293 65.641C50.0239 64.8837 49.4768 63.9581 49.6872 63.1588C49.9397 62.0649 50.7814 61.3497 51.7494 60.9711C52.7173 60.929 52.4227 64.5471 52.3385 65.1782Z" fill="#0E80A4"/>
<path d="M119.801 40.8191C120.137 39.9356 120.306 38.9259 119.885 38.0424C119.548 37.3693 118.707 37.0748 117.991 37.201C117.192 37.3272 116.518 37.8321 116.181 38.5473V38.5894C115.508 38.4211 114.919 38.7997 114.666 39.3887C113.867 39.1784 113.32 39.6832 113.025 40.3984C112.268 40.3563 111.847 40.9453 111.72 41.6185C111.089 41.4081 110.542 41.955 110.542 42.544C110.5 43.1751 111.047 43.722 111.594 43.8903C110.668 44.6476 110.163 45.9938 109.658 47.0035C108.859 48.5181 107.764 49.4437 106.291 50.2851C105.071 51.0003 103.808 51.6313 102.756 52.599C101.915 53.3562 101.073 54.4501 101.031 55.6281C100.989 56.8902 102.209 57.8999 102.883 58.7834C103.724 59.8772 103.766 61.3497 104.566 62.4856C105.155 63.285 106.081 63.5795 107.049 63.7478C107.049 63.8319 107.133 63.874 107.217 63.8319C108.059 63.6215 108.775 63.3691 109.153 62.5277C109.532 61.6863 109.153 60.7187 108.985 59.8772C108.985 59.8352 108.943 59.8352 108.943 59.7931C108.943 59.751 108.943 59.709 108.943 59.6669C108.943 59.6248 108.943 59.5827 108.943 59.5827C108.943 58.9937 108.985 58.4048 109.111 57.8158C109.406 56.764 110.205 55.7543 110.921 54.9549C112.225 53.5245 113.783 52.3465 115.129 50.9582C116.518 49.5278 117.739 48.0132 118.496 46.2042C119.212 44.5214 119.885 42.8385 119.843 40.9033C119.843 40.8612 119.843 40.8612 119.801 40.8191Z" fill="#F2F2F2"/>
<path d="M119.801 40.8191C120.137 39.9356 120.306 38.9259 119.885 38.0424C119.548 37.3693 118.707 37.0748 117.991 37.201C117.192 37.3272 116.518 37.8321 116.181 38.5473V38.5894C115.508 38.4211 114.919 38.7997 114.666 39.3887C113.867 39.1784 113.32 39.6832 113.025 40.3984C112.268 40.3563 111.847 40.9453 111.72 41.6185C111.089 41.4081 110.542 41.955 110.542 42.544C110.5 43.1751 111.047 43.722 111.594 43.8903C110.668 44.6476 110.163 45.9938 109.658 47.0035C108.859 48.5181 107.764 49.4437 106.291 50.2851C105.071 51.0003 103.808 51.6313 102.756 52.599C101.915 53.3562 101.073 54.4501 101.031 55.6281C100.989 56.8902 102.209 57.8999 102.883 58.7834C103.724 59.8772 103.766 61.3497 104.566 62.4856C105.155 63.285 106.081 63.5795 107.049 63.7478C107.049 63.8319 107.133 63.874 107.217 63.8319C108.059 63.6215 108.775 63.3691 109.153 62.5277C109.532 61.6863 109.153 60.7187 108.985 59.8772C108.985 59.8352 108.943 59.8352 108.943 59.7931C108.943 59.751 108.943 59.709 108.943 59.6669C108.943 59.6248 108.943 59.5827 108.943 59.5827C108.943 58.9937 108.985 58.4048 109.111 57.8158C109.406 56.764 110.205 55.7543 110.921 54.9549C112.225 53.5245 113.783 52.3465 115.129 50.9582C116.518 49.5278 117.739 48.0132 118.496 46.2042C119.212 44.5214 119.885 42.8385 119.843 40.9033C119.843 40.8612 119.843 40.8612 119.801 40.8191ZM112.899 40.8191C112.731 41.7026 112.941 42.6702 113.698 43.091C113.362 43.133 113.025 43.2172 112.731 43.3013C112.268 42.9647 111.973 42.502 112.015 41.913C112.015 41.2819 112.394 41.0295 112.899 40.8191ZM110.837 42.6282C110.795 42.0813 111.3 41.9971 111.678 41.7868C111.636 42.4178 111.847 43.091 112.436 43.3854C112.183 43.4696 111.973 43.5958 111.72 43.7641C111.678 43.7641 111.678 43.8062 111.636 43.8482C111.636 43.8062 111.636 43.8062 111.594 43.7641C111.215 43.5117 110.879 43.133 110.837 42.6282ZM116.56 42.2916C116.56 42.3337 116.602 42.3757 116.644 42.3337C116.939 41.4923 116.729 40.8191 116.518 40.0198C116.266 39.1363 116.687 38.2949 117.486 37.8742C118.075 37.5376 118.875 37.6217 119.338 38.0845C120.095 38.7997 119.675 40.3563 119.464 41.1978C119.464 41.2819 119.506 41.324 119.548 41.324C119.38 43.2172 118.622 44.9841 117.865 46.667C116.981 48.6022 115.382 50.243 113.825 51.7155C112.52 52.9776 111.005 54.0715 109.911 55.586C109.364 56.3433 108.901 57.1426 108.648 58.0261C108.564 58.2785 108.564 58.531 108.564 58.7834C108.438 59.3724 108.522 59.9614 108.648 60.5504C108.817 61.3497 109.027 62.1911 108.438 62.8643C108.143 63.2008 107.68 63.3271 107.302 63.5374C106.165 63.285 105.155 62.8222 104.608 61.7704C104.061 60.7187 103.977 59.5827 103.303 58.573C102.588 57.5213 101.325 56.6378 101.536 55.2074C101.788 53.819 103.388 52.5569 104.482 51.8417C106.502 50.4954 108.606 49.6119 109.869 47.4243C110.458 46.3304 110.921 45.1945 111.763 44.2689C112.646 43.3434 114.161 43.5958 115.171 42.9227C115.214 42.8806 115.214 42.7544 115.129 42.7965C114.751 42.9647 114.372 43.0068 113.993 43.091C113.488 42.5861 113.193 41.955 113.236 41.1978C113.236 40.8191 113.404 40.3984 113.656 40.1039C113.909 39.8515 114.203 39.8094 114.54 39.8094C114.372 40.6088 114.624 41.7026 115.087 42.3757C115.129 42.4178 115.171 42.3757 115.171 42.3337C115.003 41.7026 114.793 41.0715 114.793 40.3984C114.793 40.1881 114.835 39.9777 114.877 39.7674C114.919 39.7253 114.919 39.6832 114.919 39.6411C114.961 39.5149 115.003 39.4308 115.087 39.3046C115.34 39.0101 115.676 39.0101 116.013 38.968" fill="#0E80A4"/>
<path d="M108.732 76.2007C108.27 76.4952 107.933 76.8318 107.428 77.0001C106.839 77.2105 106.249 77.2525 105.66 77.2105C104.44 77.1263 103.472 76.4952 102.967 75.4014C104.061 73.1716 104.65 70.7736 104.861 68.3335C105.029 65.8934 104.861 63.2429 103.598 61.0973C103.598 61.0552 103.556 61.0132 103.556 60.9711C104.356 60.7607 104.903 61.6442 105.618 61.8966C105.66 61.9387 105.66 61.9808 105.702 61.9808C105.744 62.0229 105.829 61.9808 105.829 61.9387C105.829 61.7284 105.45 60.2559 105.786 60.34C106.081 60.3821 106.334 60.7187 106.502 60.929C106.67 61.1394 106.881 61.3918 107.049 61.6442C107.091 61.6863 107.091 61.6863 107.133 61.6863C107.133 61.6863 107.133 61.6863 107.133 61.7284C107.175 61.8125 107.302 61.7704 107.344 61.6863C107.386 61.0552 107.302 60.2559 107.638 59.709C107.891 59.3303 108.775 61.0132 108.901 61.1814C108.901 61.2235 108.943 61.2235 108.943 61.2656C108.985 61.3076 109.069 61.3076 109.069 61.2656C109.069 61.2656 109.069 61.2235 109.111 61.1814C109.153 61.1394 109.153 61.1394 109.153 61.0973V61.0552C109.322 60.4242 109.658 58.6151 110.121 58.9938C110.205 59.0779 110.248 59.2041 110.29 59.3724C109.995 60.7607 110.163 62.2332 110.248 63.6216C110.374 65.1782 110.374 66.7769 110.374 68.3335C110.29 70.9419 109.995 73.8448 108.732 76.2007Z" fill="#006F89"/>
<path d="M118.538 23.0652C118.118 20.1203 114.835 17.6802 112.057 17.3015C109.027 16.8808 106.081 18.4374 103.851 20.3306C100.863 22.8549 100.021 26.9358 100.736 30.5959C101.157 32.6995 102.336 34.5506 103.304 36.4438C104.44 38.6315 105.618 40.7771 106.46 43.133C107.26 45.4049 107.723 47.7608 107.807 50.1589C107.891 52.5149 107.975 54.997 107.386 57.3109C106.544 60.5925 104.272 64.7575 100.863 65.9355C98.8005 66.6507 96.5279 66.3141 94.3815 66.861C92.3194 67.3659 92.8244 70.395 94.8866 70.4791C97.6221 70.5633 100.568 70.1846 103.051 68.9646C106.165 67.45 108.438 63.9581 109.995 60.9711C111.847 57.4371 111.721 53.5666 111.089 49.7382C110.374 45.5732 109.28 41.5344 107.344 37.748C105.618 34.3402 103.135 30.4276 103.977 26.4309C104.524 23.8225 106.923 21.4245 109.406 20.5831C112.099 19.6575 114.498 20.8355 114.877 23.7384C115.003 24.6639 114.919 26.2206 114.119 26.8937C112.941 27.9034 111.889 25.5053 110.584 26.473C109.532 27.2723 109.448 28.4082 110.121 29.5021C111.047 30.9746 112.773 31.2691 114.33 31.0587C117.907 30.5118 118.959 25.9261 118.538 23.0652Z" fill="#0E80A4"/>
<path d="M131.922 41.2398C131.753 40.6508 130.954 40.2722 130.406 40.5667C130.364 40.6088 130.322 40.6088 130.28 40.6508C130.406 39.9356 129.733 39.3887 129.06 39.4729C128.934 39.4729 128.807 39.5149 128.681 39.557C128.639 39.3466 128.555 39.0942 128.344 38.8839C127.966 38.4632 127.461 38.1266 126.871 38.2528C126.366 38.3369 125.903 38.6314 125.525 39.0101C125.735 38.0424 124.851 37.1169 123.799 37.3693C123.589 37.4114 123.378 37.5376 123.21 37.6638C123.084 36.4438 121.611 35.7285 120.39 36.3596C119.549 36.7803 118.959 37.4955 118.581 38.2949C118.033 39.4729 118.454 40.8191 118.118 42.0392C116.897 43.1751 116.055 44.7317 115.214 46.1201C114.667 47.0035 114.035 47.845 113.236 48.5602C112.31 49.4016 111.047 49.8223 109.911 50.3271C107.975 51.1686 106.544 52.3465 105.745 54.3239C105.113 55.8805 105.24 57.6896 106.586 58.8255C107.218 59.3724 108.059 59.5407 108.775 59.9614C109.616 60.4662 110.037 61.3076 110.458 62.1911C111.047 63.4953 111.594 65.3885 113.236 65.6409C114.667 65.8934 115.045 64.2105 114.961 63.1167C114.919 62.696 114.793 62.2753 114.667 61.8966C114.625 61.8125 114.54 61.7704 114.498 61.8125C114.414 60.2138 114.372 58.6572 115.719 57.4371C116.35 56.8481 117.108 56.4274 117.781 55.8805C118.623 55.2074 119.464 54.4922 120.306 53.8611C122.116 52.4307 124.01 51.1265 125.945 49.9064C127.418 48.9809 129.27 48.0553 130.196 46.4987C130.827 45.7414 131.248 44.7317 131.585 43.8482C131.837 42.9647 132.174 42.0813 131.922 41.2398Z" fill="#F2F2F2"/>
<path d="M131.922 41.2398C131.753 40.6508 130.954 40.2722 130.406 40.5667C130.364 40.6088 130.322 40.6088 130.28 40.6508C130.406 39.9356 129.733 39.3887 129.06 39.4729C128.934 39.4729 128.807 39.5149 128.681 39.557C128.639 39.3466 128.555 39.0942 128.344 38.8839C127.966 38.4632 127.461 38.1266 126.871 38.2528C126.366 38.3369 125.903 38.6314 125.525 39.0101C125.735 38.0424 124.851 37.1169 123.799 37.3693C123.589 37.4114 123.378 37.5376 123.21 37.6638C123.084 36.4438 121.611 35.7285 120.39 36.3596C119.549 36.7803 118.959 37.4955 118.581 38.2949C118.033 39.4729 118.454 40.8191 118.118 42.0392C116.897 43.1751 116.055 44.7317 115.214 46.1201C114.667 47.0035 114.035 47.845 113.236 48.5602C112.31 49.4016 111.047 49.8223 109.911 50.3271C107.975 51.1686 106.544 52.3465 105.745 54.3239C105.113 55.8805 105.24 57.6896 106.586 58.8255C107.218 59.3724 108.059 59.5407 108.775 59.9614C109.616 60.4662 110.037 61.3076 110.458 62.1911C111.047 63.4953 111.594 65.3885 113.236 65.6409C114.667 65.8934 115.045 64.2105 114.961 63.1167C114.919 62.696 114.793 62.2753 114.667 61.8966C114.625 61.8125 114.54 61.7704 114.498 61.8125C114.414 60.2138 114.372 58.6572 115.719 57.4371C116.35 56.8481 117.108 56.4274 117.781 55.8805C118.623 55.2074 119.464 54.4922 120.306 53.8611C122.116 52.4307 124.01 51.1265 125.945 49.9064C127.418 48.9809 129.27 48.0553 130.196 46.4987C130.827 45.7414 131.248 44.7317 131.585 43.8482C131.837 42.9647 132.174 42.0813 131.922 41.2398ZM119.254 37.9583C119.717 37.2431 120.474 36.6541 121.316 36.57C121.779 36.5279 122.2 36.7803 122.537 37.0748C122.831 37.3272 122.873 37.6638 122.831 38.0424C122.284 38.7156 122.032 39.7674 122.032 40.5667C120.811 40.5246 119.633 40.8612 118.623 41.6605C118.538 41.7026 118.454 41.7868 118.412 41.8709C118.959 40.6088 118.538 39.1784 119.254 37.9583ZM131.501 41.9971C131.459 43.5537 130.491 44.9 129.775 46.2042C129.102 46.8353 128.513 47.5084 127.755 48.0553C126.829 48.7285 125.861 49.2754 124.893 49.8644C122.915 51.1265 121.064 52.5569 119.212 53.9873C118.37 54.6604 117.571 55.3336 116.729 55.9646C116.013 56.4695 115.298 56.9743 114.709 57.6895C113.53 59.12 114.204 61.3076 114.33 62.9905C114.33 63.0746 114.456 63.0746 114.456 62.9905C114.498 63.4533 114.456 63.9581 114.288 64.4209C113.909 65.5989 112.647 65.0099 112.099 64.3788C111.089 63.2429 110.921 61.6021 110.037 60.4242C109.154 59.2462 107.638 59.12 106.586 58.1523C105.071 56.7219 106.039 54.1556 107.133 52.7673C108.312 51.2527 110.248 50.7479 111.931 49.9485C113.488 49.2333 114.54 47.9712 115.466 46.5408C116.392 45.0262 117.192 43.4275 118.538 42.2075C119.843 40.9453 121.569 40.6929 123.294 40.7771C123.336 40.7771 123.336 40.735 123.294 40.6929C122.957 40.6088 122.621 40.5667 122.284 40.5667C122.537 39.9356 122.663 39.2204 123 38.5894C123.042 38.5894 123.126 38.5473 123.126 38.5052C123.168 38.4211 123.168 38.379 123.168 38.3369C123.505 37.8742 124.136 37.6217 124.683 37.8742C125.272 38.1266 125.356 38.8418 125.23 39.3887C124.893 39.8515 124.641 40.4405 124.599 40.9874C124.599 41.0716 124.725 41.0716 124.767 40.9874C125.062 40.146 125.567 39.4308 126.324 38.9259C126.661 38.7156 127.082 38.6314 127.503 38.7156C128.05 38.8418 128.26 39.3046 128.344 39.7674C127.839 40.2301 127.629 41.1136 127.376 41.7026C127.334 41.7447 127.418 41.8288 127.461 41.7868C127.966 41.2398 128.05 40.4826 128.681 40.0198C128.934 39.8515 129.312 39.8094 129.607 39.9356C129.901 40.1039 129.986 40.4405 130.112 40.735C130.112 40.735 130.112 40.7771 130.154 40.7771C129.607 41.324 129.481 42.2916 129.018 42.9227C128.723 42.7123 128.386 42.5861 127.966 42.4178C127.923 42.4178 127.881 42.4599 127.923 42.502C128.428 42.9227 128.934 43.133 129.144 43.8062C129.439 44.6896 128.976 45.5731 128.597 46.3725C128.555 46.4566 128.681 46.4987 128.723 46.4566C129.144 45.7835 129.691 44.7738 129.565 43.9744C129.523 43.5958 129.354 43.3013 129.144 43.091C129.565 42.7544 129.775 42.1654 130.028 41.7026C130.238 41.2819 130.533 40.9033 131.08 40.9874C131.501 41.0716 131.501 41.6185 131.501 41.9971Z" fill="#0E80A4"/>
<path d="M118.117 70.8998C117.781 68.8384 117.065 66.9452 116.392 64.9678C116.055 63.9581 115.592 62.9064 115.466 61.8546C115.382 61.0973 115.592 60.34 115.508 59.5828C115.508 59.4986 115.424 59.4986 115.382 59.5407H115.34C114.751 59.3303 114.372 60.0876 114.246 60.887C114.035 60.1297 113.656 59.3303 113.109 59.6248C112.646 59.8773 112.604 60.5083 112.604 60.9711C112.604 61.2656 112.604 61.6863 112.73 62.0229C112.478 61.6442 112.183 61.3497 111.847 61.0132C111.552 60.7187 110.963 60.2138 110.5 60.4242C109.995 60.6766 110.079 61.3077 110.374 61.8967C110.163 61.7284 109.911 61.518 109.658 61.3918C109.406 61.2235 108.859 61.0132 108.564 61.1394C108.522 61.0973 108.522 61.0973 108.48 61.1394C107.933 61.4759 108.312 62.107 108.606 62.5277C108.817 62.8643 109.111 63.2009 109.406 63.4953C109.869 64.0423 110.247 64.6733 110.584 65.3465C111.468 67.0293 111.805 68.7542 111.889 70.6474C111.931 71.4047 111.889 72.162 111.889 72.9613C111.889 73.7186 112.015 74.56 111.72 75.3173C111.131 75.1911 110.458 75.149 109.869 75.0648C108.817 74.8545 107.807 74.4759 106.839 74.0131C105.576 73.4662 104.019 72.793 103.009 71.7412C102.672 70.7736 102.251 69.8481 101.704 69.0066C100.4 67.0714 98.3374 65.8934 96.1068 65.3465C93.203 64.6733 90.0466 65.1361 87.1848 65.9355C85.2068 66.4824 83.313 67.2817 81.5033 68.2494C80.4933 68.5018 79.5253 68.8384 78.5153 69.0908C77.379 69.3432 76.2006 69.4694 75.0222 69.6798C72.918 70.0163 70.6454 70.6474 68.7936 71.7833C65.5531 72.2461 62.565 73.5924 59.577 74.8545C57.7673 75.6118 55.9156 76.369 54.0638 76.958C52.7171 77.4208 51.202 77.7153 50.0237 78.5567C50.0657 78.4305 50.0657 78.3043 50.1078 78.1781C50.3183 77.0842 50.5287 76.0325 50.8233 74.9807C51.0758 74.0972 51.2441 73.2558 51.7071 72.4565C51.7491 72.4144 51.7491 72.3302 51.7912 72.2882C51.8754 72.204 51.7912 72.1199 51.665 72.0778C51.5387 71.9516 51.2862 71.8675 50.9916 71.9937C50.3183 72.204 49.8974 72.9613 49.687 73.6765C49.6449 73.1717 49.6028 72.6668 49.3082 72.204C49.1399 71.9516 48.8453 71.7412 48.5928 71.9516C48.2561 72.2461 48.1298 72.8351 48.0877 73.4241C47.7511 72.6247 47.204 71.7833 46.3623 72.162C45.7731 72.4144 45.6889 73.1296 45.731 73.8448C45.5206 73.5082 45.226 73.2137 44.9314 72.9613C44.5947 72.7089 44.1738 72.6668 43.9213 73.0454C43.6267 73.4662 43.7109 74.1393 43.7109 74.6021C43.7109 74.9386 43.753 75.2752 43.7951 75.6118C43.6267 75.0648 43.29 74.1393 42.9113 74.3496C42.5746 74.56 42.8271 75.3173 42.8692 75.5697C43.0796 76.8739 43.0796 78.2202 43.0375 79.5244C42.9954 81.67 42.5746 84.4046 43.3321 86.5502C43.753 87.8544 44.5947 89.0744 46.0677 89.2427C48.1298 89.4531 50.0657 88.5696 51.8754 87.7282C54.2743 86.5923 56.631 85.4564 59.114 84.4887C61.3866 83.6052 64.1222 82.1748 66.6052 82.6797C66.7314 82.89 66.8577 83.1004 66.984 83.3107C66.8998 83.3107 66.7735 83.3528 66.6894 83.3949C65.7635 83.7735 66.6894 85.1619 67.4048 86.0874C66.8998 85.8771 66.3106 85.7929 65.8056 85.6667C65.4268 85.5826 64.543 85.4143 64.4168 85.9612C64.2905 86.5081 64.8797 86.8447 65.2585 87.0971C65.4689 87.2233 65.6793 87.3916 65.8897 87.5178C65.6793 87.5178 65.4268 87.5178 65.2164 87.5599C64.8376 87.602 64.2063 87.8123 64.2063 88.3172C64.2063 88.6958 64.6693 88.9482 64.9218 89.1165C65.006 89.1586 65.0901 89.2007 65.2164 89.2427C64.8797 89.2848 64.5009 89.3689 64.2063 89.5372C63.7013 89.7476 62.8596 90.3786 63.07 91.0097C63.2805 91.8091 64.5009 91.767 65.3847 91.5987C66.6052 91.8091 67.7415 92.1877 68.962 92.5663C70.0982 92.945 71.3187 93.1133 72.5392 93.2815C75.0222 93.6181 77.5473 93.9547 80.0724 93.7864C82.2188 93.6602 84.1968 92.9029 85.796 91.6828C87.5215 92.356 89.7099 92.2298 91.5196 91.9773C93.4134 91.6828 95.1389 91.178 96.696 90.0421C98.0428 89.0745 99.2211 87.8123 100.189 86.4661C102.42 87.3495 105.281 87.4337 107.638 87.2233C109.49 87.055 111.594 86.5502 113.235 85.4984C113.783 85.4984 114.203 85.2039 114.708 84.9515C115.382 84.6149 116.181 84.6149 116.855 84.2784C117.697 83.8577 118.117 82.8059 118.159 81.9224C118.622 80.2816 118.58 78.5567 118.58 76.8739C118.496 74.7704 118.412 72.8351 118.117 70.8998Z" fill="#0E80A4"/>
<path d="M48.3825 59.2462C48.3825 59.2462 42.5327 46.7511 43.7532 39.6832C43.7532 39.6832 40.5126 40.8191 38.7871 37.9583C38.7871 37.9583 41.3964 38.8839 43.7952 36.0231C43.7952 36.0231 40.8914 37.201 39.8392 34.8451C39.8392 34.8451 41.2701 35.3079 43.2481 34.0878C45.184 32.8677 46.9095 29.6283 50.0659 26.9357C58.525 19.7837 65.1324 16.2497 79.5676 20.0361C93.8344 23.7804 96.6962 40.146 95.7282 48.7705C94.7603 57.3951 93.7082 61.1394 87.185 65.641C80.7039 70.1005 48.3825 59.2462 48.3825 59.2462Z" fill="#0E80A4"/>
<path d="M88.1528 56.0488C94.0868 55.5019 99.0528 51.3789 100.947 46.5828C102.504 42.6702 102.251 37.5376 98.2532 35.0133C97.7482 34.6768 96.7381 34.2561 95.8964 34.0457C90.6779 32.6994 87.3952 36.8224 85.5856 41.1136C83.818 45.4049 83.1025 49.8223 85.7539 53.3563C86.8902 54.7867 86.7219 55.6281 88.1528 56.0488Z" fill="#0E80A4"/>
<path d="M91.6459 52.3045C88.1108 47.1298 82.4714 47.9291 81.4193 48.1816C81.3772 48.1816 81.3351 48.1816 81.3351 48.1816C77.2949 37.3693 71.3188 31.8581 64.8798 33.1622C64.0381 33.3305 63.1964 33.625 62.3547 34.0037C56.3786 36.8224 56.0419 42.7544 56.1261 44.9421C54.1902 41.5764 51.3284 40.735 49.9396 40.9874C49.7292 41.0295 49.5187 41.1136 49.3504 41.1978C46.9516 42.6703 45.8994 45.7414 46.3203 49.9906C46.5728 52.8514 47.4566 55.4178 47.6249 55.9226C44.5948 59.1621 44.0898 62.065 44.1739 63.9581C44.216 64.6313 44.3423 65.2623 44.4685 65.7672C45.6469 69.7219 49.2662 72.6247 53.1381 73.7607C54.4006 74.1393 55.6632 74.3917 56.9257 74.6021C60.0821 75.2331 62.8176 75.5697 63.4068 75.4856C63.6173 75.4435 63.7856 75.4014 63.8698 75.3594C65.5953 76.327 67.4891 76.6215 69.425 76.2428C72.876 75.5697 75.4432 72.9613 75.7378 72.6668C85.4594 68.7963 91.3513 64.2526 92.8243 59.4566C93.6239 57.0585 93.161 54.5763 91.6459 52.3045Z" fill="#F2F2F2" stroke="#0E80A4" stroke-miterlimit="10"/>
<path d="M50.0237 42.502C49.5608 42.6703 49.1399 42.9227 48.8032 43.3434C48.8453 43.3434 48.8874 43.3434 48.9295 43.3855C49.182 43.0068 49.5608 42.6703 50.0237 42.502Z" fill="#FAAA74"/>
<path d="M69.425 73.7607C68.8779 74.4759 68.2466 74.2655 67.7416 73.8027C67.2786 73.34 67.1524 72.3723 66.6895 71.9096C66.984 71.8675 67.2786 71.8675 67.5732 71.8675C68.1203 71.9095 68.7095 72.0358 69.1725 72.3723C69.5512 72.6668 69.7617 73.2979 69.425 73.7607Z" fill="#F2F2F2"/>
<path d="M71.6136 77.505C73.4233 77.505 75.3171 78.3885 76.9584 79.2719C78.263 79.9871 79.4835 80.8286 80.6619 81.67C81.1248 82.0065 81.6299 82.3431 82.1349 82.6797C82.177 82.7218 82.219 82.7218 82.2611 82.7638C81.8403 83.437 81.3773 84.1101 80.9986 84.6991C80.2831 85.7509 79.1468 87.0971 77.6318 87.2233C77.5055 87.2233 77.3793 87.2233 77.253 87.2233C76.2009 87.2233 75.0646 86.8868 74.0124 86.5923C73.8862 86.5502 73.7179 86.5081 73.5916 86.4661C71.7399 85.9191 70.4773 85.2881 69.5093 84.3204C69.4673 84.2784 69.3831 84.1942 69.341 84.1522C69.0464 83.8577 68.6256 83.437 68.1626 83.1425C68.1205 83.0583 68.0364 82.9742 67.9943 82.89C67.9101 82.301 67.9101 81.6279 67.9943 80.9548C68.1626 78.8933 69.5093 77.547 71.4873 77.4629C71.4453 77.505 71.5294 77.505 71.6136 77.505Z" fill="#F2F2F2"/>
<path d="M89.2473 91.3042C88.5318 91.3042 87.8164 91.2621 87.1009 91.2201C86.8905 91.2201 86.6801 91.178 86.5117 91.178C87.8164 89.9579 88.7001 88.3592 89.121 86.5923C89.2052 86.3398 89.3314 86.0454 89.4156 85.7088C89.9206 85.7929 90.4677 85.835 90.9727 85.835C92.9087 85.835 94.8867 85.3302 96.7384 84.7832C98.506 84.2363 99.979 83.5632 101.199 82.6797C100.821 83.6473 100.442 84.5729 99.8948 85.4564C98.9689 86.8447 97.6643 88.191 96.1913 89.3269C94.9708 90.2524 93.582 90.7573 91.5198 91.1359C90.8044 91.2201 90.089 91.3042 89.2473 91.3042Z" fill="#F2F2F2"/>
<path d="M68.1625 85.4143C68.0362 85.2881 67.91 85.3301 67.8258 85.4563C66.2687 84.3625 65.469 82.3852 64.5432 80.7865C63.6173 79.2719 62.5231 77.9677 60.8397 77.3367C58.3988 76.4111 53.9798 77.3787 53.7694 80.534V80.5761C52.7593 81.1651 51.8756 82.0486 51.6651 83.1845C51.2864 83.479 49.6871 84.9515 50.4026 85.3722C49.8555 85.877 49.3505 86.5923 49.3084 87.3075C49.2242 88.1909 49.6451 88.9062 50.5709 88.9903C51.6651 89.0744 52.5489 87.8544 53.4327 87.3495C55.1161 86.3398 56.4628 87.7282 57.5991 88.822C58.525 89.7476 59.4509 90.7573 60.7555 91.1359C61.976 91.4725 63.491 90.8414 64.5011 90.2524C64.5432 90.2524 64.5432 90.2103 64.5432 90.2103C65.7216 90.3786 66.9841 90.5048 67.7837 89.411C68.5413 88.4013 69.1305 86.466 68.1625 85.4143Z" fill="#F2F2F2"/>
<path d="M68.1625 85.4143C68.0362 85.2881 67.91 85.3301 67.8258 85.4563C66.2687 84.3625 65.469 82.3852 64.5432 80.7865C63.6173 79.2719 62.5231 77.9677 60.8397 77.3367C58.3988 76.4111 53.9798 77.3787 53.7694 80.534V80.5761C52.7593 81.1651 51.8756 82.0486 51.6651 83.1845C51.2864 83.479 49.6871 84.9515 50.4026 85.3722C49.8555 85.877 49.3505 86.5923 49.3084 87.3075C49.2242 88.1909 49.6451 88.9062 50.5709 88.9903C51.6651 89.0744 52.5489 87.8544 53.4327 87.3495C55.1161 86.3398 56.4628 87.7282 57.5991 88.822C58.525 89.7476 59.4509 90.7573 60.7555 91.1359C61.976 91.4725 63.491 90.8414 64.5011 90.2524C64.5432 90.2524 64.5432 90.2103 64.5432 90.2103C65.7216 90.3786 66.9841 90.5048 67.7837 89.411C68.5413 88.4013 69.1305 86.466 68.1625 85.4143ZM67.2787 89.2427C66.5633 90.0421 65.2586 89.7476 64.3328 89.8738C64.2907 89.8738 64.2486 89.9159 64.2065 90C62.986 90.3786 61.9339 91.0097 60.6293 90.6311C59.493 90.2945 58.5671 89.1165 57.7254 88.3172C56.3787 87.055 55.074 86.0453 53.2223 86.9709C52.2964 87.4337 51.3285 89.0324 50.1501 88.4854C49.4767 88.1909 49.7292 87.1812 49.9396 86.6764C50.1501 86.1715 50.5288 85.7929 50.9497 85.4143C51.7072 84.7411 52.7173 84.2784 53.7273 84.068C55.074 83.7735 56.4208 84.5728 57.6833 84.9094C57.7254 84.9094 57.7675 84.8253 57.7254 84.8253C56.4628 84.3204 55.3265 83.5211 53.8956 83.6894C52.8014 83.8156 51.7493 84.3625 50.9076 84.9936C50.8234 85.0356 50.7393 85.1198 50.6972 85.1618C50.4868 84.657 51.9597 83.5211 52.2964 83.3107C53.7694 82.3431 55.4528 82.4693 57.0099 83.1004C57.052 83.1004 57.0941 83.1004 57.1362 83.1004C57.7675 83.3528 58.3988 83.5631 58.9038 84.0259C58.9879 84.068 59.0721 83.9839 58.9879 83.9418C58.6933 83.5632 58.1883 83.3107 57.7675 83.0583C57.4729 82.89 57.1783 82.7638 56.8416 82.6376C55.4528 81.8803 53.6852 82.0065 52.2964 82.7638C53.0539 81.3334 54.4428 80.4078 56.1262 80.3237C57.7254 80.1975 59.2405 80.8706 60.5451 81.7541C60.5872 81.7962 60.6293 81.712 60.5872 81.712C59.2825 80.492 57.3887 79.6926 55.5791 79.9871C55.074 80.0713 54.5269 80.2395 54.0219 80.492C54.6532 79.0195 55.5791 78.0939 57.1783 77.6732C58.7775 77.2525 60.503 77.4629 61.8918 78.3884C63.2806 79.3561 64.1644 80.9968 64.964 82.4272C65.6795 83.7314 66.5212 85.2881 67.8679 86.0033C67.91 86.0033 67.91 86.0033 67.9521 86.0033C68.3308 87.0971 68.0783 88.3592 67.2787 89.2427Z" fill="#0E80A4"/>
<path d="M54.7376 51.0003C55.0743 52.8935 54.3167 54.8708 53.0121 55.3336C51.7075 55.8384 50.4028 54.7025 50.0661 52.8093C49.7295 50.9161 50.487 48.9388 51.7916 48.476C53.0963 47.9712 54.4009 49.1071 54.7376 51.0003Z" fill="#0E80A4"/>
<path d="M52.3389 51.8838C52.1284 52.7673 51.5392 53.1459 50.9921 52.8093C50.445 52.4728 50.1925 51.4631 50.4029 50.6216C50.6134 49.7802 51.2026 49.3595 51.7076 49.6961C52.2547 50.0326 52.5493 51.0003 52.3389 51.8838Z" fill="#F2F2F2"/>
<path d="M67.2787 47.4243C68.1625 49.4857 67.8258 51.8417 66.5212 52.7673C65.1744 53.6928 63.4069 52.7673 62.481 50.7058C61.5972 48.6443 61.9339 46.2463 63.2385 45.3628C64.5852 44.4372 66.3949 45.3628 67.2787 47.4243Z" fill="#0E80A4"/>
<path d="M61.8919 57.3951L61.3027 57.8999C60.6714 58.4048 59.9139 58.6992 59.1143 58.6992H58.5671C58.3567 58.7413 58.3146 59.0779 58.5251 59.12L60.3768 59.751C60.8397 59.9193 61.3869 59.7089 61.5973 59.2882L62.3969 57.8999C62.5652 57.6054 62.2286 57.2268 61.8919 57.3951Z" fill="#0E80A4"/>
<path d="M72.4546 64.3385C66.6459 75.5829 58.4254 69.9447 58.4254 69.9447" stroke="#0E80A4" stroke-miterlimit="10"/>
<path d="M64.2485 49.1912C64.0381 50.0747 63.4489 50.4534 62.9018 50.1168C62.3547 49.7802 62.1022 48.7705 62.3126 47.9291C62.523 47.0877 63.1122 46.667 63.6173 47.0035C64.1644 47.3401 64.459 48.3498 64.2485 49.1912Z" fill="#F2F2F2"/>
</svg>
