<svg width="23" height="23" fill="none" xmlns="http://www.w3.org/2000/svg"><circle cx="11.008" cy="11.992" r="10.508" transform="rotate(-90 11.008 11.992)" stroke="#0E80A4"/><path d="M13.244 17.697c.09 0 .179-.024.254-.069a.423.423 0 00.168-.184.371.371 0 00.026-.237.4.4 0 00-.125-.21l-5.31-4.766 5.31-4.766a.389.389 0 00.128-.288.39.39 0 00-.134-.287.484.484 0 00-.319-.12c-.12 0-.235.04-.321.115l-5.632 5.056a.39.39 0 00-.134.29.39.39 0 00.134.29l5.632 5.056a.503.503 0 00.323.12z" fill="#0E80A4"/></svg>