<svg width="17" height="17" fill="none" xmlns="http://www.w3.org/2000/svg"><path d="M15.23 2.833h-1.536v.945h1.417v10.389H1.889V3.777h1.416v-.944H1.771a.84.84 0 00-.827.855v10.569a.84.84 0 00.827.854h13.458a.841.841 0 00.826-.854V3.688a.84.84 0 00-.826-.855z" fill="#858B8C"/><path d="M3.778 6.611h.944v.945h-.944V6.61zm2.833 0h.945v.945H6.61V6.61zm2.833 0h.945v.945h-.945V6.61zm2.834 0h.944v.945h-.944V6.61zm-8.5 2.361h.944v.945h-.944v-.945zm2.833 0h.945v.945H6.61v-.945zm2.833 0h.945v.945h-.945v-.945zm2.834 0h.944v.945h-.944v-.945zm-8.5 2.362h.944v.944h-.944v-.944zm2.833 0h.945v.944H6.61v-.944zm2.833 0h.945v.944h-.945v-.944zm2.834 0h.944v.944h-.944v-.944zM4.722 4.722a.472.472 0 00.472-.472V1.417a.472.472 0 10-.944 0V4.25a.472.472 0 00.472.472zm7.556 0a.472.472 0 00.472-.472V1.417a.472.472 0 00-.944 0V4.25a.472.472 0 00.472.472zM6.139 2.833h4.722v.945H6.14v-.945z" fill="#858B8C"/></svg>