<svg width="22" height="22" fill="none" xmlns="http://www.w3.org/2000/svg"><path d="M13.02 0c-1.5 0-2.67.014-3.51.043-.84.029-1.486.09-1.937.183-.451.093-.736.171-.854.236-.118.064-.31.19-.573.376-.208.172-.587.311-1.136.419-.548.107-1.461.204-2.74.29a.688.688 0 00-.52.258 8.956 8.956 0 00-.167.279 8.964 8.964 0 00-.354.72A10.99 10.99 0 00.802 3.91c-.132.401-.246.902-.344 1.504-.097.602-.146 1.21-.146 1.826 0 2.091.34 3.695 1.021 4.813a.658.658 0 00.584.322c1.166 0 2.448.73 3.843 2.191 1.396 1.461 2.601 3.445 3.615 5.952.028.043.073.143.135.3a6.7 6.7 0 01.115.301c.014.043.052.125.115.247.062.122.118.2.166.236.049.036.115.09.198.162a.62.62 0 00.26.14c.09.02.202.042.334.064.132.021.281.032.448.032.25 0 .507-.057.77-.172a2.81 2.81 0 00.73-.462 2.52 2.52 0 00.541-.655c.264-.444.417-1.081.459-1.912.041-.83.017-1.604-.073-2.32a20.459 20.459 0 00-.365-2.063c2.473.014 4.153.021 5.042.021.82 0 1.483-.229 1.99-.687.507-.458.767-1.06.78-1.805.015-.63-.048-1.11-.187-1.44.236-.243.434-.497.594-.762.16-.265.247-.562.26-.891.014-.674-.305-1.361-.958-2.063a3.924 3.924 0 00.177-.473 2.428 2.428 0 00.073-.58c-.028-.787-.472-1.49-1.333-2.105.07-.473.062-.895-.021-1.268C19.292.788 17.09 0 13.021 0zM2.626 2.943c2.278-.186 3.722-.515 4.333-.988a2.15 2.15 0 01.584-.344c.166-.057.666-.11 1.5-.16.833-.05 2.16-.076 3.979-.076.57 0 1.087.014 1.552.043.465.029 1.003.079 1.614.15.612.072 1.105.2 1.48.387.375.186.597.423.666.71.056.3-.076.622-.395.966a.691.691 0 000 .526c.069.18.18.305.333.376h.02a4.07 4.07 0 01.677.344c.188.115.345.254.47.419a.945.945 0 01.208.483c0 .058-.004.111-.01.161l-.021.14a.465.465 0 01-.042.129l-.052.107-.052.086-.052.076-.042.053-.031.043-.01.022a.515.515 0 00-.105.236.802.802 0 000 .258.672.672 0 00.094.247.823.823 0 00.177.204c.083.043.174.104.27.183.098.078.22.225.365.44.146.215.22.43.22.645-.015.358-.279.694-.793 1.01a.82.82 0 00-.333.472.528.528 0 00-.01.183c.007.064.02.128.041.193a.65.65 0 00.136.236c.014.022.041.075.083.162a1.923 1.923 0 01.177.537c.021.114.032.222.032.322a1.23 1.23 0 01-.198.644.903.903 0 01-.459.355 2.427 2.427 0 01-.448.118 2.608 2.608 0 01-.333.021h-4.875l-1.125-.021a.667.667 0 00-.458.183.426.426 0 00-.104.14c-.126.185-.146.4-.063.644.222.659.4 1.382.531 2.17.132.787.195 1.54.188 2.256-.007.716-.108 1.238-.302 1.568a2.718 2.718 0 01-.084.15c-.041.072-.07.122-.083.15a.529.529 0 01-.094.119.478.478 0 01-.146.107 1.175 1.175 0 01-.49.097.22.22 0 01-.124-.043 1.16 1.16 0 01-.188-.193c-.083-.1-.16-.237-.229-.409-1.07-2.664-2.36-4.787-3.875-6.37-1.514-1.582-2.979-2.445-4.396-2.588a8.756 8.756 0 01-.291-.774c-.084-.258-.17-.666-.26-1.225a11.18 11.18 0 01-.136-1.783c0-.644.062-1.285.187-1.923.125-.637.254-1.138.386-1.504a4.37 4.37 0 01.406-.87z" fill="#888"/></svg>