<svg width="22" height="23" fill="none" xmlns="http://www.w3.org/2000/svg"><g clip-path="url(#clip0)"><path d="M21.878 9.102c0 1.07-.83 1.937-1.853 1.937h-.088c.526.341.877.95.877 1.646 0 1.07-.83 1.937-1.853 1.937h-6.9c1.284 2.485 1.743 4.317 2.179 5.876.25.895-.145 1.875-.975 2.295-.924.467-1.933.135-2.483-.903-1.236-2.336-3.174-5.247-6.2-8.49a4.317 4.317 0 01-1.065-2.019H.123V1.937H4.13C4.885.769 6.162 0 7.608 0h9.453c1.023 0 1.853.867 1.853 1.937 0 .695-.35 1.304-.877 1.646h.599c1.023 0 1.852.867 1.852 1.937 0 .695-.35 1.304-.876 1.646h.413c1.023 0 1.853.867 1.853 1.936z" fill="#69A7B0"/></g><defs><clipPath id="clip0"><path fill="#fff" transform="matrix(1 0 0 -1 0 23)" d="M0 0h22v23H0z"/></clipPath></defs></svg>