<svg width="18" height="18" fill="none" xmlns="http://www.w3.org/2000/svg"><path d="M17.844 17.033l-4.898-5.01c1.12-1.359 1.679-2.923 1.679-4.693a7.25 7.25 0 00-.571-2.848 7.461 7.461 0 00-1.532-2.337A7.154 7.154 0 0010.229.58 6.95 6.95 0 007.425 0C6.12 0 4.915.325 3.808.976a7.116 7.116 0 00-2.623 2.663 7.317 7.317 0 00-.96 3.682c0 1.33.32 2.558.96 3.683a7.116 7.116 0 002.623 2.663 7.018 7.018 0 003.617.976c1.8 0 3.38-.604 4.742-1.811l4.88 4.992a.668.668 0 00.148.114.41.41 0 00.165.053.848.848 0 00.172 0 .417.417 0 00.165-.052c.052-.03.1-.068.147-.115A.541.541 0 0018 17.43a.541.541 0 00-.156-.396zM7.424 13.5a5.877 5.877 0 01-3.063-.835 6.116 6.116 0 01-2.215-2.259 6.13 6.13 0 01-.813-3.094 6.13 6.13 0 01.813-3.093A6.116 6.116 0 014.361 1.96a5.862 5.862 0 013.055-.835 5.86 5.86 0 013.055.835 6.183 6.183 0 012.224 2.259c.548.949.822 1.98.822 3.093 0 1.653-.565 3.077-1.696 4.272-1.12 1.184-2.48 1.822-4.085 1.916h-.311zm2.77-6.75H7.98V4.5a.545.545 0 00-.165-.396.538.538 0 00-.398-.167.51.51 0 00-.39.167.56.56 0 00-.155.396v2.25H4.656a.52.52 0 00-.398.167.56.56 0 00-.156.396.56.56 0 00.156.395.52.52 0 00.398.167H6.87v2.25a.56.56 0 00.156.396.51.51 0 00.39.166.538.538 0 00.397-.166.545.545 0 00.165-.396v-2.25h2.215c.15 0 .28-.056.39-.167a.545.545 0 00.164-.396.545.545 0 00-.164-.395.528.528 0 00-.39-.167z" fill="#68C2D0"/></svg>