<svg width="22" height="22" fill="none" xmlns="http://www.w3.org/2000/svg"><g clip-path="url(#clip0)"><path d="M12.708 22c-1.5 0-2.67-.014-3.51-.043-.84-.029-1.486-.09-1.938-.183-.451-.093-.736-.172-.854-.236a6.902 6.902 0 01-.573-.376c-.208-.172-.586-.311-1.135-.419-.549-.107-1.462-.204-2.74-.29a.688.688 0 01-.52-.258 9.024 9.024 0 01-.167-.279 8.956 8.956 0 01-.354-.72A10.987 10.987 0 01.49 18.09a10.03 10.03 0 01-.344-1.504A11.426 11.426 0 010 14.76c0-2.091.34-3.695 1.02-4.813a.658.658 0 01.584-.322c1.167 0 2.448-.73 3.844-2.191 1.396-1.461 2.6-3.445 3.614-5.952a2.19 2.19 0 00.136-.3c.062-.158.1-.258.114-.301a2.28 2.28 0 01.115-.247.708.708 0 01.167-.237c.048-.035.114-.09.198-.16a.62.62 0 01.26-.14c.09-.022.202-.043.333-.065.132-.021.282-.032.448-.032.25 0 .507.057.771.172.264.114.507.268.73.462.222.193.402.412.541.655.264.444.417 1.081.458 1.912.042.83.018 1.604-.073 2.32-.09.717-.211 1.404-.364 2.063 2.472-.014 4.153-.021 5.041-.021.82 0 1.483.229 1.99.687.507.458.767 1.06.781 1.805.014.63-.048 1.11-.187 1.44.236.243.434.497.594.762.16.265.246.562.26.891.014.674-.306 1.361-.958 2.063.014.029.041.097.083.204a1.823 1.823 0 01.146.537c.014.108.02.211.02.312-.027.787-.472 1.49-1.333 2.105.07.473.063.895-.02 1.268C18.979 21.212 16.777 22 12.707 22zM2.312 19.057c2.278.186 3.723.515 4.334.988.222.172.417.286.583.344.167.057.667.11 1.5.16.834.05 2.16.076 3.98.076.569 0 1.086-.014 1.551-.043a29.686 29.686 0 001.615-.15c.611-.072 1.104-.2 1.48-.387.374-.186.596-.423.666-.71.055-.3-.077-.622-.396-.966a.691.691 0 010-.526.65.65 0 01.333-.376h.021a4.075 4.075 0 00.677-.344 1.68 1.68 0 00.469-.419.945.945 0 00.208-.483 1.16 1.16 0 00-.01-.161 6.263 6.263 0 00-.02-.14.466.466 0 00-.043-.129l-.052-.107-.052-.086-.052-.075-.041-.054-.032-.043-.01-.022a.515.515 0 01-.104-.236.802.802 0 010-.258.672.672 0 01.093-.247.822.822 0 01.177-.204c.084-.043.174-.104.271-.183.098-.078.22-.225.365-.44a1.14 1.14 0 00.219-.645c-.014-.358-.278-.694-.792-1.01a.82.82 0 01-.333-.472.528.528 0 01-.01-.183.962.962 0 01.04-.193.65.65 0 01.136-.236c.014-.022.042-.075.084-.162a1.923 1.923 0 00.177-.537 1.88 1.88 0 00.031-.322 1.234 1.234 0 00-.198-.644.902.902 0 00-.458-.355 2.426 2.426 0 00-.448-.118 2.605 2.605 0 00-.334-.021h-4.875l-1.124.021a.666.666 0 01-.459-.183.426.426 0 01-.104-.14c-.125-.185-.146-.4-.063-.644.223-.659.4-1.382.532-2.17.132-.787.194-1.54.187-2.256-.007-.716-.107-1.239-.302-1.568a2.695 2.695 0 00-.083-.15 2.75 2.75 0 01-.084-.15.53.53 0 00-.093-.119.477.477 0 00-.146-.107 1.176 1.176 0 00-.49-.097.22.22 0 00-.125.043 1.161 1.161 0 00-.187.193c-.084.1-.16.237-.23.409-1.069 2.664-2.36 4.787-3.874 6.37-1.514 1.582-2.98 2.445-4.396 2.588a8.756 8.756 0 00-.292.774c-.083.258-.17.666-.26 1.225a11.18 11.18 0 00-.136 1.783c0 .644.063 1.285.188 1.923.125.637.253 1.138.385 1.503.132.366.268.656.407.87z" fill="#68C2D0"/></g><defs><clipPath id="clip0"><path fill="#fff" d="M0 0h21.375v22H0z"/></clipPath></defs></svg>