<svg width="22" height="22" fill="none" xmlns="http://www.w3.org/2000/svg"><path d="M13.02 22c-1.5 0-2.67-.014-3.51-.043-.84-.029-1.486-.09-1.937-.183-.452-.093-.736-.172-.854-.236a6.9 6.9 0 01-.573-.376c-.209-.172-.587-.311-1.136-.419-.548-.107-1.462-.204-2.74-.29a.688.688 0 01-.52-.258 9.003 9.003 0 01-.167-.279 8.958 8.958 0 01-.354-.72 10.99 10.99 0 01-.427-1.106 10.03 10.03 0 01-.344-1.504 11.426 11.426 0 01-.146-1.826c0-2.091.34-3.695 1.021-4.813a.658.658 0 01.584-.322c1.166 0 2.447-.73 3.843-2.191 1.396-1.461 2.601-3.445 3.615-5.952a2.19 2.19 0 00.135-.3 6.7 6.7 0 00.115-.301c.014-.043.052-.125.114-.247a.708.708 0 01.167-.237c.049-.035.115-.09.198-.16a.622.622 0 01.26-.14c.09-.022.202-.043.334-.065.132-.021.281-.032.448-.032.25 0 .507.057.77.172.264.114.508.268.73.462.222.193.402.412.541.655.264.444.417 1.081.459 1.912.041.83.017 1.604-.073 2.32-.09.717-.212 1.404-.365 2.063 2.472-.014 4.153-.021 5.042-.021.82 0 1.483.229 1.99.687.506.458.767 1.06.78 1.805.015.63-.048 1.11-.187 1.44.236.243.434.497.594.762.16.265.247.562.26.891.014.674-.305 1.361-.958 2.063.014.029.042.097.083.204.042.108.073.197.094.269a2.43 2.43 0 01.073.58c-.028.787-.472 1.49-1.333 2.105.07.473.062.895-.021 1.268C19.29 21.212 17.09 22 13.02 22zM2.626 19.057c2.278.186 3.722.515 4.333.988.222.172.417.286.584.344.166.057.666.11 1.5.16.833.05 2.16.076 3.979.076.57 0 1.086-.014 1.552-.043a29.686 29.686 0 001.614-.15c.611-.072 1.104-.2 1.48-.387.374-.186.597-.423.666-.71.056-.3-.076-.622-.396-.966a.69.69 0 010-.526c.07-.18.18-.305.334-.376h.02a4.065 4.065 0 00.677-.344 1.68 1.68 0 00.47-.419.945.945 0 00.208-.483c0-.058-.004-.111-.01-.161a6.263 6.263 0 00-.021-.14.47.47 0 00-.042-.129l-.052-.107-.052-.086-.053-.075-.041-.054-.031-.043-.01-.022a.515.515 0 01-.105-.236.808.808 0 010-.258.672.672 0 01.094-.247.82.82 0 01.177-.204c.083-.043.174-.104.27-.183.098-.078.22-.225.365-.44.146-.215.219-.43.219-.645-.014-.358-.278-.694-.792-1.01a.821.821 0 01-.333-.472.533.533 0 01-.01-.183.97.97 0 01.041-.193.65.65 0 01.136-.236c.014-.022.041-.075.083-.162a1.912 1.912 0 00.177-.537 1.8 1.8 0 00.031-.322 1.234 1.234 0 00-.198-.644.902.902 0 00-.458-.355 2.426 2.426 0 00-.448-.118 2.605 2.605 0 00-.333-.021h-4.875l-1.125.021a.666.666 0 01-.459-.183.427.427 0 01-.104-.14c-.125-.185-.146-.4-.062-.644.222-.659.4-1.382.531-2.17.132-.787.195-1.54.188-2.256-.007-.716-.108-1.239-.303-1.568a2.608 2.608 0 00-.083-.15 2.68 2.68 0 01-.083-.15.532.532 0 00-.094-.119.476.476 0 00-.146-.107 1.176 1.176 0 00-.49-.097.22.22 0 00-.124.043 1.153 1.153 0 00-.188.193c-.083.1-.16.237-.229.409-1.07 2.664-2.361 4.787-3.875 6.37-1.514 1.582-2.98 2.445-4.396 2.588a8.759 8.759 0 00-.291.774c-.084.258-.17.666-.26 1.225a11.18 11.18 0 00-.136 1.783c0 .644.062 1.285.187 1.923.125.637.254 1.138.386 1.503.132.366.267.656.406.87z" fill="#2CA3C9"/></svg>