<svg width="18" height="18" fill="none" xmlns="http://www.w3.org/2000/svg"><path d="M13.783 18c-.24 0-.475-.076-.674-.216l-4.052-2.849a.115.115 0 00-.136 0L4.87 17.783a1.165 1.165 0 01-1.37-.022 1.26 1.26 0 01-.433-.599 1.323 1.323 0 01-.033-.751l1.33-4.922a.137.137 0 00-.001-.075.13.13 0 00-.042-.062L.485 8.19a1.265 1.265 0 01-.428-.629 1.323 1.323 0 01.001-.773 1.27 1.27 0 01.43-.628 1.17 1.17 0 01.698-.248l4.889-.194a.121.121 0 00.066-.026.13.13 0 00.043-.06L7.867.83c.085-.243.24-.453.442-.602C8.512.08 8.753 0 9 0c.247 0 .488.08.69.228.204.149.358.359.443.602l1.683 4.803a.132.132 0 00.043.06.13.13 0 00.066.025l4.889.194c.252.004.496.09.698.248.202.157.352.377.43.628.077.251.077.522 0 .773a1.265 1.265 0 01-.427.63l-3.835 3.161a.124.124 0 00-.043.061.131.131 0 000 .076l1.33 4.922a1.33 1.33 0 01-.218 1.1 1.224 1.224 0 01-.429.363 1.163 1.163 0 01-.537.126zm-4.791-4.227c.24.008.473.091.668.24l4.052 2.848a.116.116 0 00.143 0 .125.125 0 00.044-.064.132.132 0 00-.002-.079l-1.33-4.922a1.318 1.318 0 01.013-.736 1.26 1.26 0 01.404-.602l3.835-3.162a.125.125 0 00.045-.063.131.131 0 000-.078.125.125 0 00-.044-.064.116.116 0 00-.071-.023l-4.89-.194a1.17 1.17 0 01-.663-.242 1.26 1.26 0 01-.422-.59l-1.684-4.8a.125.125 0 00-.044-.064.116.116 0 00-.141 0 .125.125 0 00-.044.064L7.194 6.037a1.26 1.26 0 01-.422.59 1.17 1.17 0 01-.664.242l-4.89.193a.116.116 0 00-.07.024.125.125 0 00-.045.063.131.131 0 000 .078.125.125 0 00.045.063l3.84 3.168c.189.154.33.364.404.602.074.239.08.495.015.736L4.08 16.718a.125.125 0 000 .076.119.119 0 00.044.06.106.106 0 00.141 0l4.052-2.847c.198-.138.43-.211.668-.211l.006-.023z" fill="#68C2D0"/></svg>