<svg width="18" height="18" fill="none" xmlns="http://www.w3.org/2000/svg"><path fill-rule="evenodd" clip-rule="evenodd" d="M9 16.875a7.875 7.875 0 100-15.75 7.875 7.875 0 000 15.75zM9 18A9 9 0 109 0a9 9 0 000 18z" fill="#68C2D0"/><path d="M5.906 6.787h1.485c0-.878.516-1.557 1.53-1.557.77 0 1.477.386 1.477 1.314 0 .715-.42 1.043-1.085 1.542-.757.55-1.357 1.193-1.314 2.236l.008.52h1.47v-.399c0-.807.307-1.043 1.136-1.671.685-.521 1.4-1.1 1.4-2.313 0-1.7-1.436-2.521-3.007-2.521-1.492 0-3.135.727-3.099 2.85zm1.758 6.206c0 .6.478 1.043 1.136 1.043.685 0 1.156-.444 1.156-1.043 0-.621-.472-1.058-1.157-1.058-.657 0-1.135.437-1.135 1.058z" fill="#68C2D0"/></svg>