<svg width="18" height="20" fill="none" xmlns="http://www.w3.org/2000/svg"><path d="M5.575.953h6.574a.478.478 0 00.476-.476A.478.478 0 0012.15 0H5.575a.476.476 0 100 .953zm11.667 1.059H.477A.478.478 0 000 2.489c0 .261.215.476.477.476h.761l.36 3.809v.015L2.805 19.57c.023.246.226.43.472.43h11.16c.246 0 .45-.188.473-.43l1.566-16.605h.762a.478.478 0 00.477-.476.47.47 0 00-.473-.477zm-3.234 17.035H3.71L2.594 7.21h12.53l-1.116 11.836zm1.207-12.789H2.504L2.19 2.965h13.332l-.308 3.293z" fill="#2F2F2F"/></svg>