<svg width="93" height="19" fill="none" xmlns="http://www.w3.org/2000/svg"><path d="M14.571 7.063a.55.55 0 01-.035.254l-.08.228a4.18 4.18 0 00-.067.227.628.628 0 00-.003.28 19.14 19.14 0 01-.365.491 2.733 2.733 0 00-.317.531c-.108 0-.188.033-.241.097a.66.66 0 00-.094.244 1.457 1.457 0 00-.51.373 2.576 2.576 0 00-.364.49 7.759 7.759 0 00-1.369.926c-.417.354-.79.758-1.12 1.211.175-.017.347-.014.516.01.179.022.353.05.523.082.179.022.353.045.522.068.168.013.338.002.511-.034.138.104.288.188.451.25.173.063.34.12.502.173.172.053.335.115.49.189.163.073.31.166.438.282a.132.132 0 01-.009.06l.004.043a.52.52 0 00.081.228.437.437 0 01.08.213c-.042.083-.078.17-.108.26a.95.95 0 01-.124.248.75.75 0 01-.158.191.552.552 0 01-.269.114.84.84 0 01-.195.417 2.665 2.665 0 01-.341.282c-.12.08-.24.165-.358.255a.977.977 0 00-.295.308c-.285.096-.562.22-.832.374a2.213 2.213 0 00-.68.58 8.675 8.675 0 00-.445.116 3.329 3.329 0 01-.435.071.94.94 0 01-.507-.069c-.135-.075-.223-.224-.263-.446a.464.464 0 01.114-.187l.176-.164a1.39 1.39 0 00.16-.163.569.569 0 00.112-.216c.02-.002.045 0 .075.007l.087-.008a.47.47 0 00.27-.1c.064-.055.122-.11.176-.164.063-.055.132-.105.206-.152a.588.588 0 01.302-.073.612.612 0 01.28-.306c.13-.081.265-.153.406-.216.14-.072.27-.148.39-.228a.593.593 0 00.245-.362.47.47 0 00-.206-.157 1.084 1.084 0 00-.274-.091l-.285-.061a1.308 1.308 0 01-.243-.08c-.104.04-.205.064-.302.073-.205.02-.406.02-.604-.001-.198-.02-.4-.02-.603-.001a1.44 1.44 0 00-.474.119 1.372 1.372 0 01-.165-.029l-.151-.044a1.911 1.911 0 01-.688.198l-.948.09a.96.96 0 00-.23.052 1.286 1.286 0 00-.1.643c.015.165.055.323.118.474.063.14.126.292.19.452.212.157.412.349.6.576.188.217.295.467.322.749a.695.695 0 01.001.162.65.65 0 00-.389-.066 1.339 1.339 0 00-.388.096c-.113.05-.237.091-.37.124a11.36 11.36 0 00-.35-.114 2.385 2.385 0 01-.355-.172 10.504 10.504 0 00-.278-.444 2.152 2.152 0 00-.334-.41l-.005-.058a5.804 5.804 0 00-.184-.998 6.94 6.94 0 01-.2-1.467c.005-.167.039-.323.104-.466a5.904 5.904 0 01-.114-.725 13.282 13.282 0 01-.058-1.525c.01-.511-.01-1.03-.06-1.554a3.559 3.559 0 00-.045-.32 3.558 3.558 0 00-.046-.319l-.058.006a1.15 1.15 0 00-.359.093c-.114.04-.227.085-.34.135-.113.05-.23.101-.353.152a1.689 1.689 0 01-.375.08 1.08 1.08 0 00-.179.135c-.045.043-.09.082-.136.116a.81.81 0 01-.153.088.607.607 0 01-.232.037l-.233.184a3.708 3.708 0 01-.267.129.367.367 0 00-.137.101l-.107.113a1.537 1.537 0 01-.123.1.366.366 0 01-.186.062.516.516 0 01-.147 0 .64.64 0 01-.162-.161 7.222 7.222 0 01-.15-.177 1.398 1.398 0 00-.162-.161.57.57 0 00-.217-.112c.034-.052.05-.093.047-.122a.545.545 0 01-.027-.13c-.003-.03 0-.05.01-.06a.753.753 0 01.222-.433 1.43 1.43 0 01.4-.289 4.07 4.07 0 01.464-.22c.151-.064.291-.136.42-.218.38-.026.723-.093 1.026-.2.303-.118.612-.27.928-.457a.39.39 0 00.18.027.745.745 0 00.143-.029L4.87 7.8a.878.878 0 01.361-.226c.134-.042.268-.08.402-.112s.263-.064.388-.096a.83.83 0 00.32-.192l.058-.006c.234-.022.463-.083.69-.183.235-.101.465-.153.69-.155.185-.125.358-.21.52-.256a3.38 3.38 0 01.565-.098.37.37 0 00.17-.075.417.417 0 01.24-.096c.02-.002.035.001.046.01l.058-.006c.087-.008.143-.043.167-.104.033-.062.122-.1.268-.114a1.16 1.16 0 01.191-.003l.175-.017c.068-.007.11-.035.124-.086.014-.06.056-.088.125-.085.033.036.083.05.151.044a1.21 1.21 0 01.16-.03c.067-.006.108.01.121.048a1.35 1.35 0 01.492-.239 3.76 3.76 0 01.55-.097c.069-.006.137-.008.206-.005.068-.006.141-.008.22-.006a.542.542 0 01.298-.117.999.999 0 01.33.057c.16.044.327.096.5.158s.331.13.476.205c.144.074.234.14.268.195.022.017.036.06.042.128a.767.767 0 00.06.171c.06.112.115.22.164.323a.744.744 0 01.105.328zm-1.603.316a.129.129 0 00-.02-.057l-.007-.073a.44.44 0 00-.217-.112 2.372 2.372 0 00-.55-.065 1.33 1.33 0 01-.241-.05 2.119 2.119 0 01-.661.166 1.647 1.647 0 01-.608-.045.892.892 0 01-.316.236 2.89 2.89 0 01-.426.159 6.508 6.508 0 01-.448.087l-.393.037c-.04.004-.105.04-.196.107a.525.525 0 01-.254.113.224.224 0 01-.168-.058 1.164 1.164 0 01-.347.21 6.354 6.354 0 01-.47.177c-.162.045-.328.096-.5.151a4.958 4.958 0 00-.411.157c-.093.264-.13.547-.11.85.018.292.04.58.067.861.016.166.022.327.017.484-.004.158.001.32.017.484.007.078.02.16.038.247a.577.577 0 00.11.225.444.444 0 00-.138.248 1.353 1.353 0 00.053.554c.028.086.055.167.082.243.308-.059.585-.144.83-.256a4.974 4.974 0 001.327-.892c.197-.186.404-.382.62-.59a.652.652 0 00.225-.11.494.494 0 01.242-.081c.026-.14.09-.24.192-.298a.612.612 0 00.225-.272c.114-.04.207-.088.28-.144.082-.067.16-.128.233-.184a2.17 2.17 0 01.232-.185.876.876 0 01.313-.118c.146-.21.298-.42.454-.632.166-.212.365-.388.597-.528.03-.1.066-.188.108-.26.04-.083.078-.16.11-.232.041-.082.073-.163.094-.244a.973.973 0 00.015-.31zm11.12-.21l.005.058c-.067.026-.096.077-.088.155-.103.059-.21.109-.325.149-.114.03-.223.075-.325.134-.108 0-.22.006-.337.018-.108 0-.215.005-.322.016a13.21 13.21 0 00-.872.113c-.29.047-.582.075-.875.083a2.11 2.11 0 01-.434.233 1.87 1.87 0 01-.447.102.974.974 0 01-.31-.015c-.222.14-.47.261-.745.366-.265.104-.534.208-.809.313-.275.095-.54.203-.793.326a2.08 2.08 0 00-.634.443 5.856 5.856 0 00.017.793c.013.136.03.262.05.378.031.114.076.228.136.34.05.015.106.024.165.028.069.004.128.003.176-.002a.753.753 0 00.145-.028.177.177 0 00.092-.112c.144-.034.29-.053.436-.057l.438-.042c.145-.014.286-.032.42-.055.146-.023.285-.061.417-.113.152-.054.3-.092.445-.116l.45-.072a7.95 7.95 0 00.447-.088c.153-.044.308-.112.466-.206.13.037.26.049.386.037.136-.013.268-.016.396-.009a.63.63 0 01.176.145.31.31 0 01.093.197.702.702 0 01-.107.423c-.084.145-.15.279-.197.401l-.16.015a2.348 2.348 0 00-.676.168 6.55 6.55 0 00-.635.282c-.207.098-.419.192-.636.281-.208.079-.429.13-.662.152-.039.003-.06.03-.066.08.004.038-.003.069-.02.09a1.212 1.212 0 00-.22.006 2.77 2.77 0 00-.636.134 2.635 2.635 0 01-.62.133l-.174.017-.178-.012a.38.38 0 01-.174.178.536.536 0 00-.208.138c-.02.09-.03.199-.028.326.012.127.02.258.023.395.012.127.014.25.006.368a.56.56 0 01-.09.288c.014.048.055.063.122.047.066-.026.103 0 .11.078.009.087.008.18-.002.28a1.52 1.52 0 00-.001.294c.017.185.056.387.117.607.069.21.156.402.26.578.116.176.257.32.425.43a.95.95 0 00.6.12 1.1 1.1 0 00.429-.13.747.747 0 00.307-.323l.072-.022a.323.323 0 01.103.005c.04.006.08.007.118.003.059-.005.128-.046.21-.123.09-.087.183-.184.28-.291.108-.109.216-.212.324-.31.107-.11.213-.188.316-.237.055-.143.105-.285.15-.427a.78.78 0 01.261-.348l-.04-.423c.087-.116.18-.223.278-.321a.814.814 0 00.23-.36c.05.014.096.025.136.03a.747.747 0 00.291-.027.777.777 0 00.157-.06c.088.1.158.216.21.348.06.122.13.238.21.348-.071.184-.153.402-.247.657a12.14 12.14 0 01-.31.765 8.547 8.547 0 01-.37.742 2.276 2.276 0 01-.39.537.624.624 0 01-.18.12c-.099.088-.19.17-.27.247-.08.086-.155.182-.223.286a4.314 4.314 0 00-.783.428c-.239.17-.478.336-.718.496a1.569 1.569 0 00-.383-.008 4.237 4.237 0 00-.349.049c-.115.03-.24.052-.376.065a.314.314 0 00-.185-.085c-.069-.004-.098-.05-.087-.14-.332.013-.608-.054-.828-.2a2.178 2.178 0 01-.581-.533 3.832 3.832 0 01-.408-.726 14.976 14.976 0 00-.352-.76l-.005-.044c-.004-.05.012-.08.05-.094.038-.013.055-.044.05-.093-.002-.02-.008-.033-.018-.042-.04-.104-.073-.194-.1-.27a1.156 1.156 0 01-.055-.274 3.43 3.43 0 01-.014-.455 3.872 3.872 0 00-.016-.47 1.3 1.3 0 00-.097-.402.693.693 0 00.083-.2 2.478 2.478 0 00.009-.53c.001-.088.008-.168.021-.238l-.129-.267a.973.973 0 01-.073-.302l-.01-.102c.082-.175.148-.353.2-.534.051-.182.107-.368.167-.56l-.004-.044a12.378 12.378 0 00-.11-.843c-.047-.28-.084-.561-.11-.843l-.027-.277a2.51 2.51 0 01-.012-.279.404.404 0 00.16-.177.404.404 0 01.16-.177l.48-.046.074-.154a.457.457 0 00.043-.166c.104-.04.203-.088.295-.146.101-.069.193-.136.275-.203l.345-.24c.11-.078.217-.142.32-.192.112-.06.23-.11.354-.151.123-.041.266-.08.43-.115.078-.007.125-.027.142-.058a1.44 1.44 0 01.107-.113l.355.025c.118-.001.235-.008.351-.019a1.65 1.65 0 00.644-.194c.292-.028.578-.06.859-.097.29-.037.582-.07.873-.098.253-.024.507-.039.761-.043a6.28 6.28 0 01.754.03.923.923 0 01.287-.071 1.45 1.45 0 01.354.01c.129.007.25-.004.365-.035.02.106.053.196.1.27a.417.417 0 01.096.241zm7.724 6.765a.753.753 0 01-.089.45.642.642 0 00-.046.446 1.02 1.02 0 00-.306.338 5.407 5.407 0 00-.21.418c-.602.479-1.26.88-1.974 1.204a6.654 6.654 0 01-2.223.61c-.048.004-.094-.016-.138-.06a1.597 1.597 0 01-.13-.12 1.81 1.81 0 00-.144-.134.199.199 0 00-.152-.044.263.263 0 00-.156.059l-.006-.059c.01-.01.013-.025.01-.045a1.628 1.628 0 00-.078-.36 1.447 1.447 0 01-.077-.346.69.69 0 01.04-.342l.176-.017c.097-.01.189-.023.275-.041a1.62 1.62 0 01.304-.059c.107-.01.207.01.3.06a4.908 4.908 0 001.489-.437c.468-.23.942-.458 1.42-.68a.676.676 0 00.098-.363c.007-.138.034-.268.08-.39a3.251 3.251 0 00-.82-.422c-.264-.102-.565-.117-.901-.046a1.468 1.468 0 00-.678-.156 8.908 8.908 0 01-.693-.022 8.484 8.484 0 00-.193-.01.6.6 0 00-.192-.012.283.283 0 00-.142.058c-.037.023-.043.058-.02.105a.267.267 0 00-.216-.112.434.434 0 01-.215-.097c-.313.01-.59-.017-.832-.082-.243-.075-.51-.158-.803-.247a1.033 1.033 0 00-.24-.036.923.923 0 01-.212-.068 1.158 1.158 0 01-.456-.31 1.743 1.743 0 01-.294-.457 2.883 2.883 0 01-.2-.555 21.085 21.085 0 00-.14-.531 7.52 7.52 0 00.202-.505 4.17 4.17 0 00.125-.542c.056-.034.112-.064.168-.09a2.47 2.47 0 00.183-.09.164.164 0 01-.022-.072.282.282 0 01.03-.15c.034-.052.04-.102.015-.148.195-.215.38-.434.555-.657.184-.233.337-.483.458-.75a.803.803 0 00.33-.252l.234-.317c.077-.115.166-.217.265-.305a.775.775 0 01.393-.2.425.425 0 01.145-.175c.063-.055.127-.106.192-.151.064-.045.123-.095.177-.15a.441.441 0 00.111-.216 1.01 1.01 0 00.415-.128c.13-.071.256-.147.375-.227.12-.08.24-.156.361-.226.13-.071.274-.115.43-.13a.482.482 0 01.118.004.679.679 0 01.132.002c.075.062.126.14.155.235.038.085.066.18.086.286.02.106.035.213.046.32.02.106.048.201.086.286a6.627 6.627 0 01-.244.524.989.989 0 01-.358.416l-.029.003a.265.265 0 01-.194-.025.36.36 0 00-.21-.04.158.158 0 00-.112.056l-.066.08a.342.342 0 01-.082.066c-.027.022-.07.027-.131.013-.131.061-.177.15-.137.263a.907.907 0 00-.45.22c-.117.1-.224.212-.32.34a9.03 9.03 0 01-.292.336.655.655 0 01-.365.182 3.17 3.17 0 01-.538.832 3.172 3.172 0 00-.511.814c.037.075.064.156.082.242.018.087.042.178.07.273.099.108.21.2.336.277.134.075.264.151.39.228l.043-.005c.194-.018.378.004.55.065.173.053.35.07.535.052a.494.494 0 00.243-.082 9.808 9.808 0 001.524.09c.128.007.256.005.382-.007.136-.013.264-.01.383.007.11.02.22.048.332.086.11.029.222.062.334.1.233.076.452.163.657.261.216.098.409.221.58.372.17.14.31.314.418.519.107.196.173.43.2.702zm11.95-8.751c-.026.13-.078.253-.155.368l-.219.33a1.81 1.81 0 00-.173.34.689.689 0 00-.008.383l-.073.007a.24.24 0 00-.074-.007.532.532 0 00-.353.151.996.996 0 01-.304.206.804.804 0 00-.089-.153.222.222 0 00-.142-.104 8.79 8.79 0 01-.689.183 8.638 8.638 0 00-.691.155c-.105.03-.21.069-.313.118-.104.04-.213.08-.327.12a.599.599 0 01-.187.047.72.72 0 00-.204.02c-.232.031-.483.075-.752.13a1.65 1.65 0 00-.709.289 3.081 3.081 0 00-.632.001 4.598 4.598 0 00-.766.147c-.269.065-.504.17-.705.318a.91.91 0 00-.341-.026.06.06 0 00-.043.018l-.044.004a.613.613 0 00.055.26.447.447 0 00.208.172.989.989 0 00-.025.355c.016.165.041.33.076.493.045.163.076.326.091.492.018.184.008.332-.03.444.125.282.203.589.235.92.01.116.012.234.004.352 0 .108.007.225.019.352a.33.33 0 00.142.25c.083.052.13.13.14.238a.26.26 0 01-.018.119c.133-.042.26-.094.382-.154a.945.945 0 01.386-.126.553.553 0 01.223.023c.08.022.152.054.215.098a5.5 5.5 0 00-.014.163l.017.175.03.306.056.289a1.726 1.726 0 01-.242.39.905.905 0 00-.165.429.77.77 0 00-.384.14 2.113 2.113 0 00-.287.233l-.272.232a.615.615 0 01-.312.118c-.146.014-.25.004-.312-.029a.597.597 0 01-.145-.133 1.564 1.564 0 00-.1-.123c-.023-.037-.073-.047-.15-.03a1.066 1.066 0 00-.15-.339 3.782 3.782 0 00-.222-.317 5.542 5.542 0 00-.22-.303 1.712 1.712 0 01-.165-.337 3.027 3.027 0 01-.148-.78 1.984 1.984 0 00-.207-.775 5.856 5.856 0 00-.021-.837 10.964 10.964 0 00-.106-.8l-.109-.828a.664.664 0 01-.159-.279c-.02-.116-.041-.226-.061-.332a.957.957 0 00-.11-.078.223.223 0 01-.07-.111.597.597 0 00-.518.123.454.454 0 01-.24.111.796.796 0 01-.22-.008.744.744 0 00-.208-.01c-.058.006-.09.024-.098.054.002.02-.016.04-.053.064a.662.662 0 01-.198.078c-.105.03-.225.06-.359.093l-.376.065a3.699 3.699 0 01-.232.037c-.156.015-.275-.003-.359-.054a5.23 5.23 0 00-.327-.19c.014-.06.02-.1.018-.119a.317.317 0 00-.11-.225c-.064-.062-.1-.118-.104-.166a.282.282 0 01.108-.26c.072-.067.107-.163.104-.29.215-.119.436-.214.665-.285.229-.07.463-.132.703-.185.24-.052.475-.109.705-.17.24-.062.471-.148.696-.258l.193.011.204-.02c.291-.027.575-.084.852-.17a3.92 3.92 0 01.88-.187 1.888 1.888 0 01.472.014c.383-.095.76-.195 1.134-.3.382-.105.775-.201 1.178-.289.193-.038.381-.07.565-.098.193-.038.385-.081.576-.129a.373.373 0 00.142-.058c.036-.032.05-.088.043-.166.091.03.19.041.297.03.165-.015.323-.06.473-.133.15-.073.308-.117.473-.133a.325.325 0 01.103.005l.088-.009c.068-.006.1-.039.094-.097.003-.069.047-.117.133-.145.066-.026.162-.05.287-.072l.391-.067c.144-.033.273-.065.388-.096a.678.678 0 00.266-.143l.087-.17a.429.429 0 01.401.197.94.94 0 01.19.438c.042.035.097.05.165.043.077-.017.145-.028.203-.034l.044-.004zM55.756 3.02c.016.165.021.327.017.484.004.147-.01.305-.043.475a1.14 1.14 0 00-.21.27l-.177.297c-.06.094-.124.188-.194.283a.895.895 0 01-.273.218c-.057.437-.139.862-.246 1.274-.1.402-.162.82-.19 1.254a3.2 3.2 0 00-.21.727 30.63 30.63 0 01-.144.793c-.044.26-.099.51-.164.752a2.131 2.131 0 01-.304.662c-.056.24-.11.5-.161.78a1.46 1.46 0 01-.331.694c.011.019.02.047.023.086a.694.694 0 01-.056.344.59.59 0 00-.058.315 3.517 3.517 0 00-.413.451c-.12.169-.247.338-.378.507-.13.17-.273.32-.428.453a1.41 1.41 0 01-.517.285 2.475 2.475 0 01-.41-.299 1.564 1.564 0 00-.437-.252c-.12-.43-.21-.854-.269-1.27a11.02 11.02 0 00-.223-1.259 3.398 3.398 0 00-.257-.681 2.083 2.083 0 01-.182-.675l-.014-.145a4.88 4.88 0 01.014-.164.79.79 0 01-.227-.375 8.764 8.764 0 01-.12-.489 4.321 4.321 0 00-.137-.502.98.98 0 00-.215-.406.218.218 0 00.043-.166.393.393 0 00-.043-.143.754.754 0 01-.029-.145.263.263 0 01.031-.135 1.006 1.006 0 01-.185-.247 2.707 2.707 0 01-.068-.244l-.054-.26a1.418 1.418 0 00-.056-.274.238.238 0 00-.116-.136c-.042-.035-.065-.062-.066-.082a.139.139 0 01.047-.122 3.154 3.154 0 01-.394-.58 9.37 9.37 0 00-.353-.614c0-.108.03-.194.093-.26a.483.483 0 00.123-.246l.467-.045c.508.795.916 1.634 1.226 2.517.32.872.61 1.756.872 2.653.074.258.143.516.207.775.074.258.153.52.237.787.025.056.06.117.106.181a.41.41 0 01.078.199.39.39 0 01-.027.179c.062.033.11.082.146.148a.864.864 0 01.109.21c.035.065.066.136.093.212a.676.676 0 00.106.18.456.456 0 00.29-.189c.08-.105.146-.225.202-.357a5.12 5.12 0 00.167-.414 1.06 1.06 0 01.202-.343c0-.108.01-.212.03-.312a.94.94 0 00.027-.326c.081-.175.154-.338.218-.492.064-.153.095-.333.095-.539a.354.354 0 00.08-.095c.006-.03.05-.04.13-.028a2.485 2.485 0 01.043-.77c.064-.26.158-.51.282-.747a3.26 3.26 0 01.067-.683 8.33 8.33 0 01.197-.71c.023-.072.054-.153.094-.245a.6.6 0 00.048-.27.18.18 0 00-.039-.099.483.483 0 01-.026-.115.281.281 0 01.068-.213c.053-.064.101-.127.144-.19a3.164 3.164 0 01.009-.678 1.28 1.28 0 01.236-.611c.017-.335.05-.662.097-.98a4.32 4.32 0 01.248-.951l.525-.05c-.018-.185.056-.286.22-.301a.845.845 0 01.329.042c.098.206.175.444.23.714.064.258.107.5.128.723zm11.26 8.326a.613.613 0 01-.158.354c-.08.086-.181.16-.303.22s-.25.107-.384.14a4.594 4.594 0 01-.349.048l-.145.014a.547.547 0 00-.133-.002c-.049.004-.07.03-.066.08.005.048-.016.084-.063.109a.835.835 0 00-.297-.03 1.437 1.437 0 00-.203.033 1.07 1.07 0 01-.174.032.41.41 0 01-.177-.013l-.094-.05a.584.584 0 00-.08-.08.214.214 0 00-.11-.064c-.07-.022-.13-.021-.176.003-.037.023-.103 0-.198-.07a1.532 1.532 0 01-.34-.32 19.74 19.74 0 01-.276-.43 10.76 10.76 0 00-.293-.443 1.878 1.878 0 00-.345-.379l-.117.011c-.175.017-.29.101-.343.254a1.318 1.318 0 01-.156-.088.621.621 0 00-.172-.102 7.42 7.42 0 01-.683.242c-.238.072-.479.12-.722.143l-.204.02a.696.696 0 01-.192-.012 1.146 1.146 0 00-.249.171.488.488 0 01-.255.098.473.473 0 01-.21-.038c-.059.005-.085.032-.08.08.014.049-.013.076-.081.082l-.131.013c-.136.013-.272.03-.407.053-.126.022-.257.04-.393.053a2.35 2.35 0 01-.575-.019.308.308 0 01-.156.06.185.185 0 00-.078.11l-.047.122a.374.374 0 01-.08.096c-.027.022-.07.031-.13.027a.455.455 0 01-.119.29c-.07.076-.1.182-.087.318a.835.835 0 00-.242.244 6.76 6.76 0 00-.177.297 3.066 3.066 0 01-.192.298.688.688 0 01-.243.229c-.043.063-.05.157-.018.281a1.691 1.691 0 01-.371.271 1.1 1.1 0 01-.428.144c-.282.027-.49-.105-.626-.396-.01-.097-.01-.2 0-.31a1.577 1.577 0 01.027-.326.816.816 0 01.105-.29.49.49 0 01.23-.213c-.009-.087-.043-.143-.105-.166-.062-.033-.092-.094-.09-.183.25-.151.462-.338.637-.561.175-.223.33-.453.464-.692l.429-.747a3.77 3.77 0 01.494-.68l-.03-.306a2.24 2.24 0 00.469-1.105c.105-.03.168-.085.19-.165a.615.615 0 00.032-.283c.048-.004.076-.027.082-.066.015-.05.057-.07.127-.057a4.92 4.92 0 01.23-.67l.265-.613c.087-.215.16-.432.217-.654.067-.222.108-.466.121-.732.136-.023.202-.093.2-.21a8.81 8.81 0 01.027-.342c.133-.15.225-.32.275-.512.06-.192.11-.388.15-.588.039-.21.083-.415.132-.616.058-.212.148-.402.27-.57l-.005-.044c-.005-.049-.027-.076-.067-.082-.04-.016-.063-.048-.068-.096.009-.011.013-.021.012-.03a.517.517 0 00.24-.26.504.504 0 01.239-.272c.22.145.41.23.569.254.158.015.365.02.62.015a.761.761 0 01.25.476c.038.183.09.364.156.544.107.304.22.602.336.895.125.282.227.577.305.883.047.182.117.352.21.51.094.158.164.323.21.495.032.134.047.29.044.467a.806.806 0 00.1.431l.125.224c.059.102.108.21.149.324.05.113.095.227.135.34.106.285.204.594.295.929.1.324.23.615.393.874a.41.41 0 00.238.184c.11.028.23.046.358.054.128-.003.25-.01.366-.02a4.09 4.09 0 01.32-.046l.145-.014a.553.553 0 01.178.013c.047.074.073.14.078.198a.351.351 0 01-.09.288.305.305 0 00-.094.245c.004.048.029.1.073.155a.776.776 0 00-.176.002 1.917 1.917 0 00-.645.18c.094.157.21.288.347.393.146.094.297.182.452.266a.486.486 0 01.295-.146.615.615 0 01.329.056.806.806 0 00.342.041c.088-.008.15-.029.186-.062.086.08.158.167.216.26.057.082.128.159.213.229zm-4.79-1.896c-.035-.164-.08-.277-.136-.34a1.52 1.52 0 01-.128-.268 2.913 2.913 0 01-.13-.429 3.394 3.394 0 00-.101-.446c-.1-.324-.21-.648-.328-.97a6.557 6.557 0 00-.399-.933.297.297 0 00.043-.166l-.004-.043a.877.877 0 01-.223-.332c-.053-.142-.105-.28-.157-.412-.043-.143-.1-.27-.169-.381a.638.638 0 00-.277-.283.452.452 0 00-.024.209c.006.068.017.13.032.188a.6.6 0 01.048.187.468.468 0 00-.197.254c-.03.1-.09.185-.182.253a4.107 4.107 0 01-.25.921c-.12.286-.25.573-.388.861-.13.288-.254.579-.373.875-.12.286-.209.584-.268.894a.683.683 0 00-.23.36 1.49 1.49 0 00-.02.414c.093.04.193.06.3.06l.336-.032c.107-.01.21-.01.31 0a.51.51 0 01.276.12 1.8 1.8 0 01.4-.112.837.837 0 00.367-.167c.201.05.414.063.637.042.117-.011.228-.032.333-.062.115-.03.224-.065.328-.105.09.012.16.04.214.083.053.034.127.042.223.023a.231.231 0 00.076-.125.255.255 0 01.06-.138zm12.36-1.536a.293.293 0 01-.092.259.23.23 0 00-.097.215.284.284 0 00.072.14c-.136.013-.224.066-.264.158-.04.092-.08.194-.118.306l-.19.018a.208.208 0 00-.114.04.374.374 0 00-.079.096 2.868 2.868 0 00-.073.154 2.24 2.24 0 00-.522.241 6.148 6.148 0 00-.47.31c-.148.103-.3.21-.455.323a3.38 3.38 0 01-.49.268.95.95 0 01-.345.386l-.044.004a.2.2 0 01-.133-.002.159.159 0 00-.12-.032c-.03.003-.049.01-.057.02a1.73 1.73 0 01-.95.385 2.51 2.51 0 01-.278.012 1.279 1.279 0 00-.28-.003c-.029.003-.047.015-.055.035l-.024.061a.23.23 0 01-.038.063c-.008.02-.041.033-.1.039-.106.01-.215.005-.324-.013a.78.78 0 00-.337.017 2.864 2.864 0 01-.56-.314 1.645 1.645 0 01-.4-.492 1.21 1.21 0 00-.234-.286 1.037 1.037 0 01-.205-.304 4.973 4.973 0 01-.064-.2c-.03-.105-.06-.215-.09-.33-.03-.115-.06-.225-.09-.33a3.014 3.014 0 01-.036-.217 3.743 3.743 0 01-.017-.337l.025-.356c.023-.375.026-.748.01-1.119-.007-.382.04-.754.143-1.117a1.719 1.719 0 01-.058-.304l-.03-.32a1.313 1.313 0 00-.118-.46.796.796 0 00.076-.434c-.017-.175-.1-.27-.248-.286l-.004-.043a.603.603 0 00-.25-.462c-.033-.34.025-.6.175-.782.158-.192.372-.364.642-.518.033-.062.043-.112.03-.15.07.013.135.027.195.04a.54.54 0 00.178.013.747.747 0 00.258-.069c.04.114.12.18.24.198.128.007.233.027.314.058l.018.19c.03.301.13.58.301.84a.736.736 0 00-.049.254c-.001.088.002.172.01.25.01.116.026.232.047.348.021.116.037.227.047.334a1.45 1.45 0 01-.01.354.555.555 0 01-.131.322c.002.127.006.274.012.44.015.155.02.317.017.484a2.63 2.63 0 01-.027.488.984.984 0 01-.138.396c.004.147.008.298.014.455l.04.423c.02.213.055.465.102.755.057.289.148.525.274.71.056.073.154.122.294.148.15.025.268.033.355.025a1.22 1.22 0 00.317-.075.422.422 0 00.23-.213c.059.004.1.03.124.077a.238.238 0 00.114.106 59.629 59.629 0 011.598-.83 15.426 15.426 0 001.562-.9.55.55 0 00.253.035 1.49 1.49 0 00.29-.057c.095-.029.19-.048.288-.057l.102-.01c.025.057.04.1.042.129zm9.116.526a.873.873 0 01-.155.382 1.618 1.618 0 01-.281.292 3.2 3.2 0 01-.329.252c-.12.07-.236.15-.345.24l-.19.018c-.408.039-.733-.028-.975-.201a2.09 2.09 0 01-.567-.697 5.022 5.022 0 01-.355-.937 7.548 7.548 0 00-.279-.915 1.28 1.28 0 00-.258.378 8.465 8.465 0 01-.211.403 1.936 1.936 0 01-.244.376.75.75 0 01-.373.257c-.022.07-.05.142-.082.213a.809.809 0 00-.038.225 3.144 3.144 0 00-.544.464c-.16.172-.32.35-.479.531-.159.182-.324.36-.493.533a2.47 2.47 0 01-.563.422c-.011-.009-.03-.012-.06-.01a.616.616 0 00-.313.119.71.71 0 01-.313.104.55.55 0 01-.223-.023 3.983 3.983 0 01-.2-.084.675.675 0 00-.198-.07.546.546 0 00-.22.007 1.83 1.83 0 00-.44-.444 1.021 1.021 0 01-.341-.497 2.455 2.455 0 01-.069-.258 1.494 1.494 0 00-.057-.289 3.664 3.664 0 00-.159-.426 4.099 4.099 0 01-.16-.456c.023-.267.044-.558.063-.874.008-.324.026-.645.055-.962.037-.327.096-.637.176-.929a2.65 2.65 0 01.366-.785l-.024-.101c-.015-.156 0-.304.045-.446.046-.142.096-.279.152-.412a3.3 3.3 0 00.139-.396.77.77 0 00-.011-.425c.11-.07.228-.13.35-.181.123-.05.252-.083.388-.096.127-.012.245-.004.356.025-.012.08.027.125.116.136l.004.044c.02.204.014.405-.016.605-.03.199-.07.399-.119.6-.05.19-.1.387-.15.588a3.74 3.74 0 00-.076.581.142.142 0 00-.082.067l-.021.09a.183.183 0 01-.037.077c-.017.021-.046.034-.085.038-.025.345-.056.692-.091 1.038a5.81 5.81 0 00.008 1.015c.02.204.06.411.119.621a2 2 0 00.277.592l.057-.02a.379.379 0 01.255.049c.072.042.165.082.276.12.076-.026.147-.057.212-.093.064-.046.087-.112.07-.198a.782.782 0 00.312-.118 1.53 1.53 0 00.215-.212l.2-.225a.693.693 0 01.262-.173c-.005-.058.005-.103.031-.135l.08-.096a.277.277 0 00.05-.255c.114-.02.2-.058.253-.112a.931.931 0 00.16-.177c.051-.074.098-.147.14-.22a.66.66 0 01.173-.193c.054-.152.128-.356.221-.61.103-.255.2-.52.292-.793.102-.275.185-.533.25-.774.074-.253.105-.442.093-.568a.214.214 0 00-.056-.127.2.2 0 01-.028-.13l-.004-.044c.069-.105.126-.218.174-.34.057-.124.114-.242.172-.355a2.3 2.3 0 01.22-.316.892.892 0 01.316-.236c.16.034.319.053.476.058.167.003.326.027.478.072.033.242.084.521.154.838.07.317.163.583.282.797.012.127.019.249.02.366l.034.35c.018.195.042.394.071.597.04.202.092.388.157.559a1.095 1.095 0 00-.058.476c.022.224.076.434.164.632.087.188.155.392.206.613a.587.587 0 00.636.19.573.573 0 00.112-.056c.087.08.163.161.23.243.075.072.16.137.254.197zm9.05-7.841l.006.058c-.067.026-.096.078-.088.156-.103.059-.21.108-.325.148a1.344 1.344 0 00-.325.135c-.108 0-.22.006-.337.017a3.56 3.56 0 00-.322.016c-.292.028-.583.066-.872.113-.29.047-.582.075-.875.084a2.21 2.21 0 01-.434.233 1.87 1.87 0 01-.447.101.974.974 0 01-.31-.014 4.27 4.27 0 01-.745.365c-.265.104-.534.208-.809.313-.275.095-.54.204-.793.326a2.08 2.08 0 00-.634.443 5.856 5.856 0 00.017.793c.013.137.03.262.05.378.031.115.076.228.136.34.05.015.105.025.165.029.069.003.128.002.176-.002a.746.746 0 00.145-.029.177.177 0 00.092-.112c.144-.033.29-.052.436-.056l.437-.042c.146-.014.287-.032.422-.055.145-.024.283-.062.416-.113.152-.054.3-.093.445-.117l.45-.072c.144-.024.293-.053.447-.087.153-.044.308-.113.466-.206.13.036.26.048.386.036.136-.013.268-.016.396-.008.073.042.132.09.176.145a.31.31 0 01.093.197.703.703 0 01-.107.422 2.89 2.89 0 00-.197.402l-.16.015a2.352 2.352 0 00-.676.168c-.209.078-.42.172-.635.281-.207.098-.419.192-.636.282a2.55 2.55 0 01-.662.151c-.039.004-.061.03-.066.08.004.04-.003.07-.02.09a1.212 1.212 0 00-.22.007 2.774 2.774 0 00-.636.134 2.71 2.71 0 01-.62.133l-.175.017-.177-.013a.379.379 0 01-.175.179.536.536 0 00-.207.137c-.02.09-.03.2-.028.327.012.126.02.258.023.395.012.126.014.249.006.367a.56.56 0 01-.09.288c.014.048.055.064.122.048.066-.026.103 0 .11.077.009.088.008.181-.002.28-.01.1-.01.197-.001.295.017.184.056.387.117.606.069.21.156.402.26.579.116.175.257.319.425.43a.949.949 0 00.6.12c.155-.016.298-.059.429-.13a.746.746 0 00.307-.324l.072-.021a.324.324 0 01.103.005c.04.006.08.007.118.003.059-.006.128-.047.21-.123a6.22 6.22 0 00.28-.292c.108-.108.215-.212.324-.31.107-.109.212-.187.316-.237a7.21 7.21 0 00.15-.426.78.78 0 01.261-.349l-.04-.423c.087-.116.18-.223.278-.32a.815.815 0 00.23-.361c.05.015.096.025.136.031a.744.744 0 00.291-.028.776.776 0 00.157-.059c.088.1.158.216.21.348.06.122.13.238.21.348a46.58 46.58 0 00-.247.656c-.093.254-.196.51-.31.765a8.49 8.49 0 01-.37.742 2.27 2.27 0 01-.39.538.628.628 0 01-.18.12c-.1.088-.19.17-.27.247-.08.086-.155.181-.223.286a4.33 4.33 0 00-.783.428c-.239.17-.478.335-.718.495a1.564 1.564 0 00-.383-.007 4.206 4.206 0 00-.349.048c-.115.03-.24.052-.376.066a.314.314 0 00-.185-.086c-.069-.003-.098-.05-.087-.139-.332.012-.608-.054-.828-.2a2.182 2.182 0 01-.581-.533 3.833 3.833 0 01-.408-.726 14.909 14.909 0 00-.352-.761l-.005-.044c-.004-.049.012-.08.05-.093.038-.013.055-.044.05-.093-.001-.02-.008-.034-.018-.042-.04-.105-.073-.195-.1-.27a1.156 1.156 0 01-.055-.275 3.429 3.429 0 01-.015-.455 3.67 3.67 0 00-.015-.469 1.295 1.295 0 00-.098-.403.691.691 0 00.084-.199 2.454 2.454 0 00.009-.53 1.3 1.3 0 01.021-.238l-.129-.267A.976.976 0 0183.675 6l-.01-.102c.082-.175.148-.353.2-.535.051-.181.107-.368.167-.56l-.004-.044a12.371 12.371 0 00-.11-.843c-.047-.28-.084-.56-.11-.843l-.027-.277a2.535 2.535 0 01-.012-.278.404.404 0 00.16-.177.403.403 0 01.16-.177l.48-.046.074-.155a.453.453 0 00.043-.166c.104-.04.202-.088.295-.146.101-.068.193-.136.275-.202.129-.091.244-.171.345-.24.11-.079.217-.143.32-.192.112-.06.23-.11.353-.152a4.11 4.11 0 01.43-.114c.079-.008.126-.027.143-.058.026-.032.062-.07.106-.113l.356.025c.118-.002.235-.008.351-.02.234-.022.448-.086.644-.193.292-.028.578-.06.859-.097.29-.038.582-.07.873-.098.253-.025.507-.04.761-.044a6.25 6.25 0 01.754.031.922.922 0 01.287-.072c.117-.01.235-.007.355.01.128.008.25-.004.364-.034.02.106.053.196.1.27a.417.417 0 01.096.24z" fill="#F3967C"/></svg>