<svg width="39" height="25" fill="none" xmlns="http://www.w3.org/2000/svg"><path d="M35.244 3.094h-.146v-.222c0-.76-.327-1.488-.91-2.026A3.278 3.278 0 0031.983 0H3.13A3.28 3.28 0 00.917.841 2.756 2.756 0 000 2.871v16.164c0 .377.081.75.238 1.099.158.348.388.665.679.931.29.267.636.479 1.016.623.38.144.786.219 1.198.219h.242v.133c0 .785.34 1.538.945 2.093A3.38 3.38 0 006.6 25h28.644c.856 0 1.676-.312 2.282-.867a2.842 2.842 0 00.945-2.093V6.054c0-.785-.34-1.538-.945-2.093a3.381 3.381 0 00-2.282-.867zM1.614 5.15H33.5V8.2H1.614V5.15zm1.517-3.67h28.853c.402 0 .788.146 1.072.407.285.26.445.615.445.984v.799H1.614v-.8c0-.368.16-.722.444-.983a1.59 1.59 0 011.073-.408zM1.614 19.034V9.68H33.5v9.355c0 .369-.16.723-.444.984a1.59 1.59 0 01-1.073.407H3.13a1.59 1.59 0 01-1.073-.407 1.336 1.336 0 01-.444-.984zm35.243 2.96c0 .393-.17.77-.472 1.047a1.69 1.69 0 01-1.141.433H6.6a1.69 1.69 0 01-1.141-.433 1.42 1.42 0 01-.473-1.047v-.088h26.998c.411 0 .818-.075 1.198-.22.38-.143.725-.355 1.016-.622.29-.266.52-.583.678-.931a2.66 2.66 0 00.239-1.1V4.575h.145c.428 0 .838.156 1.14.433.303.278.474.654.474 1.047l-.017 15.941z" fill="#68C2D0"/></svg>