<svg width="73" height="74" fill="none" xmlns="http://www.w3.org/2000/svg"><g clip-path="url(#clip0)"><path d="M31.9 60.113v-3.877a4.274 4.274 0 00-4.27-4.277h-2.823v-1.837c-.78.542-1.588.861-2.372.861-.752 0-1.545-.322-2.322-.87h-.048v1.846H17.24a4.274 4.274 0 00-4.272 4.277v3.877H31.9z" fill="#fff"/><path d="M31.9 60.43H12.97a.316.316 0 01-.317-.317v-3.876a4.596 4.596 0 014.588-4.595h2.508v-1.53c0-.175.141-.316.316-.316h.047c.066 0 .13.02.183.058.765.54 1.485.813 2.14.813.684 0 1.422-.27 2.192-.805a.315.315 0 01.496.26v1.52h2.506a4.596 4.596 0 014.588 4.595v3.876a.316.316 0 01-.317.317zm-18.614-.634h18.298v-3.56a3.963 3.963 0 00-3.955-3.96h-2.822a.316.316 0 01-.316-.317v-1.263c-.705.401-1.395.604-2.056.604-.652 0-1.34-.213-2.054-.636v1.295a.316.316 0 01-.316.316H17.24a3.963 3.963 0 00-3.955 3.962v3.56z" fill="#50A5B3"/><path d="M31.9 60.43H12.97a.316.316 0 01-.316-.317v-3.878a4.596 4.596 0 014.587-4.594h.848c.137 0 .259.088.3.219l.004.012 2.676 3.553 1.262-.952a.316.316 0 01.38 0l1.263.953 2.675-3.554.005-.013a.315.315 0 01.3-.218h.675a4.596 4.596 0 014.588 4.594v3.878a.316.316 0 01-.317.317zm-18.614-.633h18.298v-3.562a3.963 3.963 0 00-3.955-3.961h-.49l-2.85 3.786a.316.316 0 01-.443.062l-1.325-1-1.325 1a.316.316 0 01-.442-.062l-2.85-3.786h-.663a3.963 3.963 0 00-3.955 3.96v3.563z" fill="#50A5B3"/><path fill-rule="evenodd" clip-rule="evenodd" d="M30.134 39.712a1.683 1.683 0 00-.725 3.287 1.683 1.683 0 00.725-3.287z" fill="#fff"/><path d="M29.77 43.354a2 2 0 010-4 2 2 0 010 4zm0-3.366a1.367 1.367 0 000 2.733 1.367 1.367 0 000-2.733z" fill="#50A5B3"/><path d="M29.886 40.537c0 4.121-3.963 10.447-7.45 10.447-3.33 0-7.451-6.326-7.451-10.447 0-4.12 3.335-7.462 7.45-7.462s7.451 3.341 7.451 7.462z" fill="#fff"/><path d="M22.435 51.3c-1.654 0-3.561-1.39-5.234-3.814-1.562-2.264-2.533-4.927-2.533-6.949 0-4.289 3.484-7.778 7.767-7.778s7.768 3.489 7.768 7.778c0 2.045-.948 4.706-2.473 6.947-1.65 2.426-3.58 3.816-5.295 3.816zm0-17.908c-3.934 0-7.135 3.206-7.135 7.145 0 3.85 3.986 10.13 7.135 10.13 1.48 0 3.264-1.323 4.772-3.539 1.457-2.142 2.363-4.667 2.363-6.59 0-3.94-3.2-7.146-7.135-7.146z" fill="#50A5B3"/><path d="M20.532 40.453a.728.728 0 11-1.456.001.728.728 0 011.456-.001zm5.261 0a.728.728 0 11-1.455.001.728.728 0 011.455-.001z" fill="#50A5B3"/><path d="M22.521 31.428c-4.259 0-7.711 3.306-7.711 7.384 0 .432.077.754.222 1.156.069.189 1.173-.417 1.267-.483a4.02 4.02 0 001.142-1.277 4.51 4.51 0 00.297-.627c.254-.671.945-2.538 1.646-2.391.94.196 2.006.307 3.137.307 1.13 0 2.197-.11 3.137-.307.701-.146 1.392 1.72 1.646 2.39.08.211.18.421.298.628.474.822 1.275 1.604 2.25 1.746.003-.047.062-.063.107-.079.319-.116.274-.806.274-1.063 0-4.078-3.453-7.383-7.712-7.383z" fill="#fff"/><path d="M15.092 40.316a.367.367 0 01-.357-.242c-.145-.401-.241-.77-.241-1.262 0-4.246 3.601-7.7 8.028-7.7 4.426 0 8.028 3.454 8.028 7.7v.082c.006.377.016 1.075-.46 1.27a.317.317 0 01-.283.104c-.944-.138-1.87-.849-2.479-1.902a4.689 4.689 0 01-.319-.673l-.016-.043c-.807-2.13-1.2-2.166-1.27-2.15-.998.208-2.075.314-3.201.314-1.127 0-2.204-.106-3.201-.314-.071-.014-.464.02-1.27 2.15l-.017.043a4.703 4.703 0 01-.319.673 4.34 4.34 0 01-1.234 1.378c-.01.007-.923.572-1.389.572zm7.43-8.571c-4.078 0-7.396 3.17-7.396 7.067 0 .32.047.567.131.835.27-.099.75-.347.863-.422a3.707 3.707 0 001.047-1.176c.108-.187.2-.383.276-.58l.015-.043c.54-1.425 1.15-2.722 1.991-2.546.955.2 1.99.3 3.072.3 1.083 0 2.117-.1 3.073-.3.837-.177 1.45 1.12 1.99 2.546l.016.042c.075.198.168.394.276.582.48.831 1.176 1.407 1.884 1.566a.593.593 0 01.081-.035c.036-.037.084-.19.077-.678l-.001-.09c0-3.898-3.318-7.068-7.396-7.068z" fill="#50A5B3"/><path d="M18.074 51.969l1.521-1.148 2.934 3.9-1.52 1.148-2.935-3.9z" fill="#fff"/><path d="M21.007 56.186c-.015 0-.03 0-.044-.003a.315.315 0 01-.209-.123l-2.934-3.9a.314.314 0 01.062-.443l1.52-1.148a.316.316 0 01.444.062l2.934 3.9a.317.317 0 01-.062.443l-1.521 1.148a.316.316 0 01-.19.064zm-2.492-4.154l2.554 3.394 1.015-.767-2.553-3.394-1.016.767z" fill="#50A5B3"/><path d="M24.038 55.868l-1.521-1.147 2.934-3.9 1.522 1.148-2.935 3.9z" fill="#fff"/><path d="M24.036 56.186a.313.313 0 01-.19-.064l-1.521-1.148a.314.314 0 01-.062-.443l2.934-3.9a.315.315 0 01.443-.062l1.52 1.148a.316.316 0 01.063.444l-2.934 3.9a.317.317 0 01-.253.125zm-1.078-1.527l1.016.767 2.554-3.394-1.016-.767-2.554 3.394zm-6.443 5.771a.316.316 0 01-.316-.317V57.05a.316.316 0 11.633 0v3.064a.316.316 0 01-.317.317zm12.012 0a.316.316 0 01-.316-.317V57.05a.316.316 0 11.632 0v3.064a.316.316 0 01-.316.317z" fill="#50A5B3"/><path d="M16.133 32.878c1.264 1.594 2.777 3.295 4.605 3.815 2.943.838 8.152-.207 8.152-4.45 0-2.712-2.27-5.991-6.508-3.495-5.252 3.095-8.3-2.854-8.3-.14 0 .857.345 1.712.797 2.49l1.254 1.78z" fill="#fff"/><path d="M22.797 37.275a7.97 7.97 0 01-2.146-.277c-1.878-.535-3.4-2.202-4.766-3.924l-.011-.014-1.253-1.78a.282.282 0 01-.015-.023c-.566-.972-.84-1.839-.84-2.65 0-.356.04-.789.364-.972.381-.216.828.052 1.504.458 1.34.805 3.584 2.152 6.588.383 2.276-1.341 3.856-.991 4.78-.462 1.523.872 2.204 2.753 2.204 4.23 0 1.498-.625 2.762-1.808 3.657-1.277.965-3.017 1.374-4.601 1.374zm-6.411-4.587c1.298 1.636 2.734 3.215 4.438 3.7 1.761.502 4.455.322 6.193-.993 1.033-.782 1.557-1.842 1.557-3.152 0-1.294-.583-2.934-1.885-3.68-1.118-.64-2.552-.482-4.146.458-3.328 1.96-5.87.435-7.234-.385-.32-.192-.712-.428-.862-.442-.017.04-.05.15-.05.413 0 .693.246 1.452.749 2.32l1.24 1.76zm6.049 14.218c-1.093 0-1.883-.492-2.344-1.464a.317.317 0 01.57-.272c.358.752.922 1.103 1.774 1.103 1.076 0 1.623-.705 1.762-1.078a.316.316 0 11.593.222c-.268.717-1.12 1.49-2.355 1.49z" fill="#50A5B3"/><path d="M59.863 56.236v3.877h-18.93v-3.877a4.274 4.274 0 014.27-4.277h2.825v-1.847h.048c.777.549 1.57.871 2.322.871.784 0 1.592-.319 2.372-.861v1.837h2.822a4.274 4.274 0 014.271 4.277z" fill="#fff"/><path d="M59.864 60.43H40.933a.316.316 0 01-.316-.317v-3.876a4.596 4.596 0 014.587-4.595h2.508v-1.53c0-.175.141-.316.316-.316h.047c.066 0 .13.02.183.058.765.54 1.485.813 2.14.813.685 0 1.422-.27 2.191-.805a.316.316 0 01.497.26v1.52h2.506a4.596 4.596 0 014.587 4.595v3.876a.316.316 0 01-.315.317zm-18.615-.634h18.298v-3.56a3.963 3.963 0 00-3.955-3.96H52.77a.316.316 0 01-.316-.317v-1.263c-.705.401-1.394.604-2.056.604-.652 0-1.34-.213-2.054-.636v1.295a.316.316 0 01-.316.316h-2.824a3.963 3.963 0 00-3.955 3.962v3.56z" fill="#50A5B3"/><path d="M59.864 60.43H40.933a.316.316 0 01-.316-.317v-3.878a4.596 4.596 0 014.587-4.594h.848a.316.316 0 01.304.23l2.676 3.555 1.262-.953a.316.316 0 01.38 0l1.263.953 2.675-3.554.004-.012a.316.316 0 01.3-.22h.676a4.596 4.596 0 014.587 4.595v3.878a.316.316 0 01-.315.317zm-18.615-.633h18.298v-3.562a3.963 3.963 0 00-3.955-3.961h-.49l-2.85 3.786a.316.316 0 01-.443.062l-1.325-1-1.324 1a.316.316 0 01-.443-.062l-2.85-3.786h-.663a3.963 3.963 0 00-3.955 3.96v3.563z" fill="#50A5B3"/><path fill-rule="evenodd" clip-rule="evenodd" d="M44.65 40.807a1.68 1.68 0 10-3.178 1.095 1.68 1.68 0 002.136 1.044 1.684 1.684 0 001.043-2.139z" fill="#fff"/><path d="M43.064 43.354a2 2 0 010-4 2 2 0 010 4zm0-3.366a1.367 1.367 0 000 2.733 1.367 1.367 0 000-2.733z" fill="#50A5B3"/><path d="M57.849 40.537c0 4.121-3.963 10.447-7.451 10.447-3.33 0-7.45-6.326-7.45-10.447 0-4.12 3.335-7.462 7.45-7.462s7.45 3.341 7.45 7.462z" fill="#fff"/><path d="M50.398 51.3c-1.653 0-3.56-1.39-5.234-3.814-1.562-2.264-2.532-4.927-2.532-6.949 0-4.289 3.484-7.778 7.767-7.778 4.282 0 7.767 3.489 7.767 7.778 0 2.045-.948 4.706-2.473 6.947-1.65 2.426-3.58 3.816-5.294 3.816zm0-17.908c-3.933 0-7.134 3.206-7.134 7.145 0 3.85 3.986 10.13 7.134 10.13 1.48 0 3.264-1.323 4.773-3.539 1.457-2.142 2.362-4.667 2.362-6.59 0-3.94-3.2-7.146-7.135-7.146z" fill="#50A5B3"/><path d="M48.495 40.453a.728.728 0 11-1.455.001.728.728 0 011.455-.001zm5.261 0a.728.728 0 11-1.456.001.728.728 0 011.456-.001z" fill="#50A5B3"/><path d="M50.484 31.428c-4.259 0-7.712 3.306-7.712 7.384 0 .432.078.754.223 1.156.069.189 1.173-.417 1.267-.483.47-.331.854-.78 1.142-1.277a4.51 4.51 0 00.297-.627c.254-.671.944-2.538 1.646-2.391.94.196 2.006.307 3.137.307 1.13 0 2.197-.11 3.137-.307.701-.146 1.392 1.72 1.646 2.39.08.211.179.421.297.628.475.822 1.276 1.604 2.251 1.746.003-.047.062-.063.106-.079.32-.116.274-.806.274-1.063 0-4.078-3.452-7.383-7.711-7.383z" fill="#fff"/><path d="M43.055 40.317a.368.368 0 01-.357-.242c-.145-.402-.242-.77-.242-1.262 0-4.247 3.602-7.701 8.029-7.701 4.426 0 8.027 3.454 8.027 7.7l.001.083c.006.377.016 1.074-.46 1.269a.316.316 0 01-.283.104c-.944-.138-1.87-.849-2.479-1.901a4.774 4.774 0 01-.32-.673l-.015-.043c-.807-2.13-1.2-2.166-1.27-2.15-.998.208-2.075.313-3.201.313a15.73 15.73 0 01-3.202-.313c-.07-.015-.463.019-1.27 2.15l-.016.043a4.582 4.582 0 01-.32.672 4.343 4.343 0 01-1.233 1.38c-.01.005-.923.57-1.389.57zm7.43-8.572c-4.078 0-7.396 3.17-7.396 7.067 0 .32.047.567.132.835.27-.099.748-.347.862-.422a3.708 3.708 0 001.047-1.176c.108-.187.2-.383.276-.58l.016-.043c.54-1.425 1.15-2.723 1.99-2.546.956.2 1.99.3 3.073.3s2.116-.1 3.072-.3c.838-.176 1.45 1.12 1.99 2.546l.016.042c.075.198.168.394.276.582.48.832 1.176 1.407 1.884 1.566a.622.622 0 01.08-.035c.037-.037.085-.19.078-.677l-.001-.092c0-3.897-3.318-7.067-7.395-7.067z" fill="#50A5B3"/><path d="M46.037 51.968l1.52-1.149 2.935 3.9-1.52 1.148-2.935-3.9z" fill="#fff"/><path d="M48.97 56.186a.315.315 0 01-.253-.126l-2.935-3.9a.317.317 0 01.063-.443l1.521-1.148a.315.315 0 01.443.062l2.934 3.9a.317.317 0 01-.063.443l-1.52 1.148a.313.313 0 01-.19.064zm-2.492-4.154l2.554 3.394 1.016-.767-2.554-3.394-1.016.767z" fill="#50A5B3"/><path d="M52 55.868l-1.52-1.148 2.934-3.9 1.522 1.148-2.935 3.9z" fill="#fff"/><path d="M52 56.186a.31.31 0 01-.19-.064l-1.522-1.148a.316.316 0 01-.062-.443l2.934-3.9a.316.316 0 01.443-.062l1.521 1.149a.317.317 0 01.063.443l-2.935 3.9a.317.317 0 01-.253.125zm-1.08-1.527l1.017.767 2.554-3.394-1.016-.767-2.554 3.394zm-6.442 5.771a.316.316 0 01-.316-.316v-3.065a.317.317 0 11.633 0v3.065a.316.316 0 01-.317.316zm12.012 0a.317.317 0 01-.316-.316v-3.065a.317.317 0 11.632 0v3.065a.316.316 0 01-.316.316zm-6.092-13.524c-1.094 0-1.883-.492-2.344-1.464a.317.317 0 01.57-.272c.358.753.922 1.103 1.774 1.103 1.075 0 1.623-.705 1.762-1.078a.316.316 0 11.593.223c-.269.717-1.12 1.488-2.355 1.488z" fill="#50A5B3"/><path fill-rule="evenodd" clip-rule="evenodd" d="M44.041 41.59a1.681 1.681 0 00-1.91 1.418 1.68 1.68 0 103.325.495 1.683 1.683 0 00-1.415-1.912zm14.619-8.94s-3.601 3.786-8.044 3.786c-4.443 0-6.042-1.695-6.042-3.786 0-2.092 1.6-3.787 6.042-3.787 4.443 0 8.044 3.787 8.044 3.787z" fill="#fff"/><path d="M50.616 36.753c-5.533 0-6.359-2.57-6.359-4.103s.826-4.104 6.36-4.104c4.525 0 8.122 3.727 8.272 3.886a.316.316 0 010 .436c-.15.159-3.747 3.885-8.273 3.885zm0-7.573c-3.746 0-5.726 1.2-5.726 3.47 0 2.27 1.98 3.47 5.726 3.47 3.646 0 6.752-2.677 7.592-3.47-.84-.793-3.952-3.47-7.592-3.47z" fill="#50A5B3"/><path d="M28.362 39.17h15.99V57.5h-15.99V39.17z" fill="#fff"/><path d="M44.353 57.817H28.362a.316.316 0 01-.316-.317V39.17c0-.175.141-.316.316-.316h15.99c.175 0 .317.141.317.316V57.5a.316.316 0 01-.316.317zm-15.675-.633h15.359V39.487h-15.36v17.697z" fill="#50A5B3"/><path d="M45.928 60.113v-1.94a4.274 4.274 0 00-4.271-4.277h-2.822v-1.837c-.78.541-1.588.861-2.372.861-.752 0-1.545-.322-2.323-.871h-.047v1.847h-2.824a4.275 4.275 0 00-4.272 4.277v1.94h18.931z" fill="#fff"/><path d="M45.928 60.43h-18.93a.316.316 0 01-.316-.316v-1.94a4.596 4.596 0 014.587-4.595h2.507v-1.53c0-.175.142-.317.316-.317h.048c.066 0 .13.02.183.058.764.54 1.485.813 2.14.813.685 0 1.422-.27 2.192-.805a.316.316 0 01.496.26v1.52h2.506a4.597 4.597 0 014.588 4.595v1.94a.317.317 0 01-.317.317zm-18.614-.633h18.298v-1.624a3.963 3.963 0 00-3.955-3.961h-2.822a.316.316 0 01-.317-.317v-1.262c-.704.401-1.394.604-2.056.604-.651 0-1.34-.214-2.053-.637v1.295a.316.316 0 01-.316.317h-2.824a3.963 3.963 0 00-3.955 3.961v1.624z" fill="#50A5B3"/><path d="M45.928 60.43h-18.93a.316.316 0 01-.316-.317v-1.941a4.596 4.596 0 014.587-4.595h.848c.136 0 .258.088.3.219l.004.012 2.676 3.554 1.262-.952a.316.316 0 01.38 0l1.263.952 2.675-3.554a.316.316 0 01.304-.23h.676a4.596 4.596 0 014.587 4.594v1.941a.316.316 0 01-.316.317zm-18.614-.633h18.298v-1.625a3.963 3.963 0 00-3.955-3.962h-.49l-2.85 3.786a.316.316 0 01-.443.063l-1.325-1-1.324 1a.316.316 0 01-.443-.063l-2.85-3.786h-.663a3.963 3.963 0 00-3.955 3.962v1.625z" fill="#50A5B3"/><path d="M43.914 42.474c0 4.121-3.963 10.447-7.45 10.447-3.33 0-7.452-6.326-7.452-10.447 0-4.121 3.336-7.462 7.451-7.462s7.45 3.341 7.45 7.462z" fill="#fff"/><path d="M36.463 53.237c-1.654 0-3.561-1.39-5.234-3.814-1.562-2.265-2.533-4.927-2.533-6.949 0-4.289 3.484-7.779 7.767-7.779s7.767 3.49 7.767 7.78c0 2.043-.947 4.705-2.472 6.946-1.65 2.425-3.58 3.816-5.295 3.816zm0-17.908c-3.934 0-7.134 3.205-7.134 7.145 0 3.85 3.985 10.13 7.134 10.13 1.48 0 3.264-1.323 4.772-3.54 1.457-2.141 2.363-4.666 2.363-6.59 0-3.94-3.2-7.145-7.135-7.145z" fill="#50A5B3"/><path d="M34.56 42.39a.727.727 0 11-1.455.001.727.727 0 011.455-.001zm5.26 0a.728.728 0 11-1.455 0 .728.728 0 011.456 0z" fill="#50A5B3"/><path d="M32.102 53.905l1.52-1.148 2.936 3.899-1.521 1.148-2.935-3.9z" fill="#fff"/><path d="M35.034 58.123a.316.316 0 01-.252-.126l-2.935-3.9a.315.315 0 01.062-.443l1.522-1.148a.316.316 0 01.443.062l2.934 3.9a.32.32 0 01-.062.443l-1.521 1.148a.315.315 0 01-.19.064zm-2.492-4.154l2.555 3.394 1.016-.767-2.554-3.394-1.017.767z" fill="#50A5B3"/><path d="M38.066 57.805l-1.522-1.148 2.935-3.9L41 53.905l-2.934 3.9z" fill="#fff"/><path d="M38.064 58.123a.315.315 0 01-.19-.064l-1.521-1.148a.315.315 0 01-.063-.443l2.935-3.9a.316.316 0 01.443-.062l1.52 1.148a.317.317 0 01.063.443l-2.934 3.9a.316.316 0 01-.253.126zm-1.078-1.527l1.016.767 2.554-3.394-1.016-.767-2.554 3.394zm-.523-7.753c-1.094 0-1.883-.492-2.344-1.464a.316.316 0 11.571-.272c.357.753.92 1.103 1.773 1.103 1.076 0 1.623-.705 1.762-1.078a.316.316 0 11.593.223c-.268.717-1.12 1.489-2.355 1.489z" fill="#50A5B3"/><path d="M44.943 39.739c0 .764-.1 1.506-.288 2.211a31.84 31.84 0 01-5.405-3.332 23.694 23.694 0 01-1.443-1.178c-.57-.5-1.108-1.039-1.593-1.623-1.057-1.274-1.832-2.738-2.49-4.262a8.526 8.526 0 012.632-.413 8.557 8.557 0 016.238 2.69 8.566 8.566 0 012.349 5.907z" fill="#fff"/><path d="M44.655 42.267a.32.32 0 01-.137-.031 32.175 32.175 0 01-5.459-3.365 23.833 23.833 0 01-1.462-1.194 14.984 14.984 0 01-1.626-1.657c-.948-1.143-1.754-2.522-2.536-4.34a.317.317 0 01.193-.426 8.833 8.833 0 012.728-.429c2.471 0 4.768.99 6.467 2.789a8.876 8.876 0 012.436 6.125c0 .779-.1 1.55-.298 2.293a.317.317 0 01-.306.235zM34.158 31.755c.713 1.601 1.448 2.834 2.3 3.86.446.537.97 1.072 1.558 1.588.417.372.883.752 1.425 1.164a31.674 31.674 0 005 3.125c.123-.572.185-1.16.185-1.752a8.246 8.246 0 00-2.261-5.69 8.192 8.192 0 00-6.008-2.591c-.749 0-1.487.099-2.199.297z" fill="#50A5B3"/><path d="M42.593 33.831a33.357 33.357 0 01-4.786 3.61c-3.018 1.894-6.327 3.389-9.714 4.633a8.589 8.589 0 01-.321-2.335c0-3.829 2.5-7.073 5.953-8.184a8.521 8.521 0 012.631-.413 8.558 8.558 0 016.237 2.69z" fill="#fff"/><path d="M28.093 42.391a.314.314 0 01-.304-.23 8.918 8.918 0 01-.333-2.422 8.882 8.882 0 016.172-8.485 8.825 8.825 0 012.728-.429c2.47 0 4.767.99 6.467 2.789a.318.318 0 01-.017.452 33.823 33.823 0 01-4.831 3.643c-2.77 1.74-5.967 3.264-9.773 4.663a.307.307 0 01-.109.019zm8.263-10.933c-.867 0-1.72.134-2.533.398a8.25 8.25 0 00-5.735 7.883c0 .65.075 1.292.223 1.917 3.621-1.35 6.675-2.819 9.329-4.483a33.53 33.53 0 004.497-3.356 8.184 8.184 0 00-5.78-2.359z" fill="#50A5B3"/><path d="M29.178 21.793v4.628c0 .71.576 1.287 1.286 1.287h28.28c.71 0 1.286-.577 1.286-1.287V14.334c0-.711-.575-1.288-1.285-1.288H30.464c-.71 0-1.286.577-1.286 1.288v7.459z" fill="#fff"/><path d="M58.745 28.025H30.464c-.884 0-1.602-.72-1.602-1.604v-4.627a.316.316 0 11.632 0v4.627c0 .535.435.971.97.971h28.28c.535 0 .97-.436.97-.97V14.333a.971.971 0 00-.97-.97h-28.28a.972.972 0 00-.97.97V19a.316.316 0 11-.632 0v-4.665c0-.884.718-1.604 1.602-1.604h28.28c.884 0 1.602.72 1.602 1.604v12.087c0 .884-.718 1.604-1.601 1.604z" fill="#50A5B3"/><path d="M43.07 15.268H32.504a.917.917 0 00-.917.918v8.384c0 .506.41.917.917.917h24.203c.506 0 .916-.41.916-.917v-8.384a.917.917 0 00-.916-.917H43.07z" fill="#fff"/><path d="M56.706 25.804H32.503c-.68 0-1.233-.553-1.233-1.234v-8.384c0-.68.553-1.234 1.233-1.234H43.07a.316.316 0 010 .633H32.503c-.331 0-.6.27-.6.601v8.384a.6.6 0 00.6.6h24.203c.33 0 .6-.269.6-.6v-8.384a.601.601 0 00-.6-.6H45.768a.317.317 0 010-.634h10.938c.68 0 1.232.553 1.232 1.234v8.384c0 .68-.553 1.234-1.232 1.234z" fill="#50A5B3"/><path d="M40.359 23.585h-.02a.316.316 0 01-.248-.149l-3.305-5.291-2.103 4.433a.316.316 0 11-.571-.271l2.35-4.957a.316.316 0 01.554-.032l3.377 5.407 2.072-2.548a.316.316 0 01.38-.086l2.806 1.34 2.394-2.907a.315.315 0 01.477-.012l3.047 3.336 3.208-1.55a.316.316 0 11.274.571l-3.42 1.652a.315.315 0 01-.37-.072l-2.96-3.241-2.32 2.816a.316.316 0 01-.38.084l-2.803-1.338-2.194 2.698a.315.315 0 01-.245.117z" fill="#50A5B3"/></g><path d="M72.5 36.555c0 19.913-16.118 36.055-36 36.055-19.881 0-36-16.142-36-36.055S16.619.5 36.5.5c19.882 0 36 16.142 36 36.055z" stroke="#68C2D0"/><defs><clipPath id="clip0"><path fill="#fff" transform="translate(12.653 12.672)" d="M0 0h47.693v47.765H0z"/></clipPath></defs></svg>