<svg width="166" height="25" fill="none" xmlns="http://www.w3.org/2000/svg"><path d="M10.314 18.514c-.479-.8-1.125-1.398-1.847-1.95-.747-.571-1.562-1.16-2.45-1.456-.822-.273-1.836-.165-2.651.088-.789.245-1.355.738-1.654 1.546-.3.81-.37 1.607.28 2.248.595.587 1.477.97 2.284 1.034.241.02.873.061 1.044-.156.197-.25.136-.943.074-1.22-.175-.781-.954-1.43-1.615-.772-.68.675-1.595-.53-.92-1.2.743-.74 1.896-.787 2.754-.213.862.576 1.278 1.625 1.28 2.66 0 1.058-.33 1.99-1.368 2.294-.995.291-2.08.109-3.023-.32-.89-.407-1.754-1.039-2.21-1.961-.469-.951-.28-2.115.09-3.06.815-2.08 3.018-2.757 5.026-2.63 1.25.08 2.4.803 3.417 1.523.998.705 1.98 1.517 2.625 2.597.499.83-.635 1.786-1.136.948zM28.56 9.893c.193 1.85-.498 3.422-1.545 3.507-1.047.089-2.054-1.34-2.247-3.19-.192-1.848.5-3.417 1.546-3.506 1.048-.086 2.054 1.34 2.247 3.189z" fill="#369CB7"/><path d="M8.269 11.576c0 5.175 4.306 8.64 9.539 8.64 5.232 0 9.292-2.756 9.402-8.64.098-5.172-4.24-9.37-9.469-9.37-5.232 0-9.472 4.195-9.472 9.37z" fill="#369CB7"/><path d="M20.168 2.696c-.028-.468-2.748-.525-3.399-2.206a2.116 2.116 0 01-.122-.49 3.11 3.11 0 00-1.334.856 3.15 3.15 0 00-.729 1.346 1.372 1.372 0 01-.606-.49 1.431 1.431 0 01-.243-.856 3.433 3.433 0 00-.729.856c-.7 1.184-.451 2.444-.362 2.817 6.19-.947 7.545-1.498 7.524-1.833z" fill="#369CB7"/><path d="M13.45 15.742c.527 2.416 3.72 3.76 7.13 3.001 3.414-.758 5.753-3.33 5.226-5.74-.527-2.417-3.72-3.76-7.135-3.002-3.407.754-5.749 3.325-5.22 5.741z" fill="#fff"/><path d="M12.275 11.302c.414 2.187 2.33 3.552 4.283 3.049 1.952-.503 3.203-2.683 2.79-4.87-.414-2.186-2.332-3.552-4.283-3.049-1.953.504-3.203 2.684-2.79 4.87z" fill="#fff"/><path d="M24.225 8.206c.413 2.186-.713 4.334-2.512 4.799-1.798.464-3.593-.933-4.004-3.12-.413-2.186.713-4.334 2.512-4.799 1.799-.464 3.59.93 4.004 3.12z" fill="#fff"/><path d="M9.673 16.528c-.608.127-1.247-.197-1.79-.841-.543-.644-.98-1.599-1.183-2.717-.203-1.117-.13-2.179.147-2.992.278-.815.759-1.37 1.367-1.498.608-.126 1.248.197 1.791.841.542.644.98 1.599 1.182 2.716.205 1.117.133 2.179-.144 2.993-.278.818-.759 1.374-1.37 1.498z" fill="#369CB7" stroke="#fff" stroke-width=".7"/><path d="M8.154 12.883c1.335 2.703 1.53 4.718 2.44 4.454.913-.264 1.157-3.142.861-5.412-.293-2.27-2.282-3.817-2.597-3.5-.315 0-.997 2.187-.704 4.457zm14.491 3.019c-.12.14-1.388 1.569-3.632 1.538-1.61-.022-3.114-.79-3.922-1.993.308.255 1.71 1.35 3.893 1.42 1.95.066 3.288-.727 3.66-.965zm-3.989-1.86c.11.057.518.248 1.034.134.518-.115.808-.462.887-.56a6.862 6.862 0 01-1.921.426z" fill="#369CB7"/><path d="M27.306 11.724c.083-.045.195.014.203.14l.451 8.45c.003.073-.033.138-.088.165l-7.443 3.736-.001.002a.115.115 0 01-.095.006h-.001l-7.895-2.699h0c-.056-.018-.1-.076-.104-.151l-.452-8.456a.177.177 0 01.058-.145.123.123 0 01.127-.027h.002l7.866 2.763h.001c.06.02.125.017.181-.013l7.19-3.77z" fill="#369CB7" stroke="#fff" stroke-width=".8"/><path d="M20.174 23.725l-.388-7.553.572-.169.331 7.413-.515.31z" fill="#fff"/><path d="M12.62 12.56l-.041.358-.02-.02-.046-.337v-.278l5.815 2.33-5.674-2.074-.03-.012-.004.032zm14.293-.64l-.246-.75-5.785 3.615 5.791-3.2.022-.011.012.022.192.325h.014v-.001z" fill="#369CB7" stroke="#fff" stroke-width=".4"/><path d="M14.416 19.666c.012.643-.824 1.177-1.868 1.197-1.04.02-1.896-.487-1.91-1.13-.008-.644.825-1.178 1.868-1.197 1.045-.018 1.9.488 1.91 1.13z" fill="#369CB7"/><path d="M13.684 19.679c.006.391-.505.72-1.143.732-.638.013-1.159-.3-1.167-.691-.007-.391.505-.72 1.141-.732.638-.01 1.159.3 1.169.69z" fill="#fff"/><path d="M14.705 18.285c.013.752-.961 1.375-2.177 1.398-1.218.022-2.212-.57-2.227-1.318-.013-.748.962-1.375 2.177-1.398 1.218-.022 2.215.57 2.227 1.318z" fill="#369CB7"/><path d="M13.85 18.302c.007.458-.586.84-1.33.853-.746.013-1.354-.347-1.36-.806-.01-.458.586-.84 1.331-.853.741-.013 1.35.346 1.36.806z" fill="#fff"/><path d="M14.056 17.028c.013.642-.824 1.177-1.867 1.197-1.041.019-1.897-.487-1.91-1.13 0-.029 0-.058.004-.086.063-.602.867-1.092 1.861-1.111 1.047-.018 1.9.488 1.912 1.13z" fill="#369CB7"/><path d="M13.32 17.04c.006.392-.505.72-1.142.733-.475.009-1.075-.236-1.158-.607-.003-.02-.009-.046-.009-.083.007-.365.619-.722 1.142-.732.64-.01 1.16.298 1.167.69z" fill="#fff"/><path d="M11.815 14.848c-.208.099-.88.407-1.24 1.078-.259.48-.293.933-.293 1.169l1.502-1.14c-.025-.365.054-.738.031-1.107z" fill="#369CB7"/><path d="M11.594 16.596c-.182.216-.366.43-.548.643a1.768 1.768 0 01.019-1.11c.167-.45.477-.612.548-.644-.242.414-.302.827-.182 1.009a.25.25 0 00.163.102z" fill="#fff"/><path d="M25.515 17.805c.044.642.92 1.104 1.963 1.035 1.04-.07 1.85-.65 1.805-1.29-.045-.64-.921-1.104-1.96-1.034-1.042.069-1.853.646-1.808 1.29z" fill="#369CB7"/><path d="M26.246 17.754c.025.391.56.674 1.199.63.634-.04 1.13-.395 1.104-.786-.025-.391-.56-.674-1.199-.63-.638.04-1.129.395-1.104.786z" fill="#fff"/><path d="M25.11 16.452c.051.748 1.073 1.29 2.288 1.206 1.214-.082 2.158-.758 2.107-1.506-.05-.747-1.075-1.289-2.287-1.205-1.215.086-2.157.758-2.108 1.505z" fill="#369CB7"/><path d="M25.962 16.395c.032.458.656.786 1.399.734.74-.051 1.319-.462 1.287-.92-.032-.458-.656-.786-1.398-.735-.741.052-1.316.462-1.288.92z" fill="#fff"/><path d="M25.526 15.144c.045.643.921 1.104 1.96 1.034 1.04-.07 1.848-.648 1.805-1.288 0-.028-.007-.058-.01-.086-.113-.596-.955-1.012-1.95-.945-1.042.066-1.85.643-1.805 1.285z" fill="#369CB7"/><path d="M26.257 15.093c.026.392.561.675 1.2.631.475-.032 1.05-.324 1.1-.704a.282.282 0 00.004-.082c-.038-.363-.679-.668-1.2-.63-.637.04-1.128.393-1.104.785z" fill="#fff"/><path d="M27.616 12.77c.21.07.845.31 1.283.976.3.457.371.906.392 1.14-.53-.335-1.06-.673-1.591-1.007a7.215 7.215 0 01-.084-1.108z" fill="#369CB7"/><path d="M27.94 14.501l.6.596a1.77 1.77 0 00-.114-1.104c-.206-.432-.527-.566-.6-.595.278.392.372.8.265.99a.255.255 0 01-.151.113z" fill="#fff"/><path d="M17.245 11.55c.088.672-.328 1.28-.927 1.36-.6.08-1.155-.402-1.24-1.073-.088-.671.328-1.279.927-1.359.597-.08 1.156.4 1.24 1.072z" fill="#369CB7"/><path d="M16.04 10.959c.038.283-.14.537-.388.57-.253.032-.486-.169-.52-.452-.039-.283.139-.538.387-.57.253-.032.486.168.52.452z" fill="#fff"/><path d="M22.814 10.401c.086.672-.327 1.28-.927 1.36-.6.08-1.154-.402-1.24-1.074-.088-.672.328-1.28.925-1.359.6-.078 1.155.403 1.242 1.073z" fill="#369CB7"/><path d="M21.707 9.686c.038.283-.139.538-.387.57-.253.032-.486-.169-.521-.452-.038-.283.14-.538.388-.57.248-.032.482.169.52.452zm-9.109 2.839v.386l.447.128-.192-.386-.255-.128z" fill="#fff"/><path d="M12.624 12.7l3.796 1.427 3.32 1.266-6.962-2.549-.154-.144z" fill="#369CB7"/><path d="M25.29 12.332l-4.082 2.51 3.126-1.61 2.55-1.287-.19-.386-1.404.773z" fill="#fff"/><path d="M26.663 11.763l-3.556 1.956-3.11 1.728 6.533-3.518.133-.166zm76.98 8.625l-1.237-1.727c-.576 1.727-1.597 2.12-2.345 2.12-1.266 0-1.465-1.147-1.465-1.815v-8.651h-4.517v2.727h1.293v5.879c-.561 1.655-1.944 2.134-2.864 2.134-1.266 0-1.769-.973-1.769-1.815v-6.181h1.597v-2.743H90.74V4.83l-3.223 1.945v3.556H86.22v2.727h1.295v3.76c-1.065 2.162-3.338 4.645-6.016 4.645-2.95 0-4.217-1.783-4.217-4.065 0-3.512 2.016-4.76 3.669-4.76.632 0 1.02.189 1.02.189v2.06h2.734v-4.63s-1.38-.45-2.98-.45c-7.007 0-7.785 5.59-7.785 7.679 0 .449.045.957.143 1.494-.374 1.467-1.152 1.783-1.712 1.783-1.208 0-1.208-1.191-1.208-1.451v-8.97c0-.029-2.201-.58-4.058-.58-6.201 0-8.217 4.341-8.217 8.23 0 1.335.546 6.255 5.137 6.255 1.799 0 3.496-.856 4.36-2.337 0 0 .056-.086.085-.086.03 0 .03.03.056.086.244 1.089 1.182 2.12 2.734 2.12 2.244 0 3.439-1.407 3.915-2.395 1.022 1.436 2.792 2.568 5.77 2.568 3.294 0 5.237-1.727 6.59-3.28.273 1.885 1.642 3.221 4.043 3.221 2.288 0 3.655-.826 4.404-1.697.633.943 1.698 1.569 3.123 1.569 3.253 0 4.603-2.641 4.603-3.368.035-.1-.066-.26-.066-.26zm-35.642-2.73c0 1.554-1.137 3.339-3.193 3.339-2.505 0-2.532-2.67-2.532-3.455 0-3.889 2.733-5.007 4.214-5.007 1.08 0 1.51.19 1.51.19v4.933zM41.14 4.827H30.591v3.005h2.46v15.836h3.698v-6.255h4.416c1.799 0 7.195-.19 7.195-6.314 0-6.272-4.604-6.272-7.222-6.272zm-.16 9.624c-.662 0-4.244-.03-4.244-.03V7.833h4.446c1.353 0 3.424.03 3.424 3.222.014 3.236-2.691 3.397-3.626 3.397z" fill="#369CB7"/><path d="M164.004 17.266c-.389.987-.92 1.9-1.641 2.73-.719.826-1.496 1.248-2.317 1.248-.749 0-1.44-.276-2.087-.826a5.975 5.975 0 01-1.555-1.96 5.705 5.705 0 002.935-1.828c.792-.914 1.194-1.93 1.194-3.063 0-1.101-.344-2.002-1.036-2.7-.706-.697-1.612-1.03-2.749-1.03-2.389 0-4.172 1.264-5.38 3.788V4.83h-4.446v2.727h1.238v12.99a2.12 2.12 0 01-.98.245c-1.267 0-1.51-1.09-1.51-1.727v-4.919c0-2.858-1.956-4.122-4.303-4.122-2.62 0-3.784 1.554-3.784 1.554-.057.086-.086.117-.115.117-.031 0-.031-.057-.031-.087v-1.277h-4.475v2.73h1.439v5.69c-.575 1.655-1.581 2.032-2.316 2.032-1.268 0-1.47-1.146-1.47-1.814v-8.651h-4.516v2.727h1.293v5.79c-.56 1.583-1.555 1.946-2.287 1.946-1.239 0-1.512-1.147-1.512-1.815v-4.82c0-2.858-1.955-4.122-4.329-4.122-2.618 0-3.754 1.554-3.754 1.554V4.83H99.451c.432.55.692 1.248.692 2.003 0 .334-.056.668-.143.973h3.627v10.348s.863 1.176 1.121 1.583c.101.158.273.508.273.928 0 .754-.475 1.858-1.396 2.787v.22h3.698V7.807h4.992V23.67h3.223v-7.097c0-1.887 1.05-3.513 2.92-3.513.418 0 1.986.246 1.986 2.003v5.253c0 2.003 1.409 3.73 3.783 3.73 1.799 0 3.022-.842 3.743-1.698.617 1.016 1.727 1.698 3.208 1.698 1.439 0 2.501-.524 3.253-1.16v.798h3.222v-7.113c0-1.886 1.022-3.512 2.893-3.512.446 0 1.986.246 1.986 2.003v5.253c0 2.003 1.409 3.73 3.756 3.73a5.18 5.18 0 001.929-.363h3.194c0-4.005.202-5.182.389-5.937.303-1.335.833-2.526 1.567-3.542.733-1.015 1.581-1.539 2.546-1.539.995 0 1.597.61 1.597 1.54 0 1.335-1.166 2.466-4.244 3.408.087.683.792 2.425 1.54 3.47 1.38 1.93 2.95 2.961 4.879 2.961 1.094 0 2.087-.32 3.006-.973 1.843-1.305 2.734-2.946 3.309-4.732l-1.996-1.073zM58.893 15.467v-5.385c-.188-.117-.748-.144-1.022-.144-3.526-.014-5.179 2.598-5.253 2.684-.056.088-.085.118-.116.118-.056 0-.056-.117-.056-.117v-2.308H49.41v13.35h3.224v-4.947c0-.61.086-2.527 1.05-3.89.547-.754 1.354-1.48 2.506-1.48v2.119h2.703z" fill="#369CB7"/><path d="M128.896 8.862c1.08 0 1.985-.914 1.985-2.032 0-1.09-.905-2.003-1.985-2.003-1.107 0-1.986.914-1.986 2.003 0 1.12.863 2.032 1.986 2.032zm-32.016 0c1.08 0 1.986-.914 1.986-2.032 0-1.09-.906-2.003-1.986-2.003-1.107 0-1.986.914-1.986 2.003 0 1.12.879 2.032 1.986 2.032z" fill="#369CB7"/></svg>