<svg width="20" height="20" fill="none" xmlns="http://www.w3.org/2000/svg"><circle cx="9.649" cy="6.065" stroke="#C4C4C4" stroke-linecap="round" stroke-linejoin="round" r="3.982"/><path clip-rule="evenodd" d="M3.333 15.585c0-.28.062-.557.183-.81.382-.762 1.457-1.166 2.35-1.35a14 14 0 011.952-.274 20.873 20.873 0 013.654 0c.657.046 1.31.138 1.953.275.892.183 1.968.549 2.35 1.35.244.514.244 1.11 0 1.625-.382.8-1.458 1.167-2.35 1.342a13 13 0 01-1.953.282c-.99.084-1.983.1-2.975.046-.229 0-.45 0-.679-.046a12.852 12.852 0 01-1.945-.282c-.9-.175-1.968-.541-2.357-1.342a1.899 1.899 0 01-.183-.816z" stroke="#C4C4C4" stroke-linecap="round" stroke-linejoin="round"/></svg>