<svg width="97" height="21" fill="none" xmlns="http://www.w3.org/2000/svg"><path d="M74.232 2.13h-5.183c-.305 0-.61.318-.762.635L66.153 16.72c0 .317.153.476.457.476h2.744c.305 0 .457-.159.457-.476l.61-3.964c0-.317.305-.634.762-.634h1.677c3.506 0 5.487-1.745 5.945-5.233.304-1.427 0-2.696-.61-3.489-.915-.793-2.287-1.268-3.963-1.268zm.61 5.234c-.305 1.902-1.677 1.902-3.05 1.902h-.914l.61-3.647c0-.158.153-.317.457-.317h.305c.915 0 1.83 0 2.287.634.304.159.304.635.304 1.428" fill="#C4C4C4"/><path d="M36.887 2.13h-5.182c-.305 0-.61.318-.762.635L28.809 16.72c0 .317.152.476.457.476h2.439c.305 0 .61-.317.762-.634l.61-3.806c0-.317.304-.634.762-.634h1.676c3.506 0 5.488-1.745 5.945-5.233.305-1.427 0-2.696-.61-3.489-.914-.793-2.134-1.268-3.963-1.268zm.61 5.234c-.305 1.902-1.677 1.902-3.049 1.902h-.762l.61-3.647c0-.158.152-.317.457-.317h.305c.915 0 1.83 0 2.286.634.153.159.305.635.153 1.428zm15.09-.159h-2.439c-.152 0-.457.158-.457.317l-.152.793-.153-.317c-.61-.793-1.676-1.11-2.896-1.11-2.744 0-5.182 2.22-5.64 5.232-.305 1.586.153 3.013.915 3.965.762.951 1.83 1.268 3.2 1.268 2.287 0 3.507-1.427 3.507-1.427l-.153.793c0 .317.153.476.458.476h2.286c.305 0 .61-.317.762-.635l1.372-8.88c-.153-.158-.457-.475-.61-.475zm-3.506 5.074c-.304 1.427-1.371 2.537-2.896 2.537-.762 0-1.372-.317-1.676-.634-.305-.476-.458-1.11-.458-1.903.153-1.427 1.372-2.537 2.744-2.537.762 0 1.22.317 1.677.634.457.476.61 1.269.61 1.903z" fill="#CFCFCF"/><path d="M89.78 7.205h-2.44c-.152 0-.457.158-.457.317l-.152.793-.153-.317c-.61-.793-1.676-1.11-2.896-1.11-2.743 0-5.182 2.22-5.64 5.232-.305 1.586.153 3.013.915 3.965.762.951 1.83 1.268 3.2 1.268 2.287 0 3.507-1.427 3.507-1.427l-.153.793c0 .317.153.476.458.476h2.286c.305 0 .61-.317.762-.635l1.372-8.88c-.152-.158-.305-.475-.61-.475zm-3.507 5.074c-.304 1.427-1.371 2.537-2.896 2.537-.762 0-1.371-.317-1.676-.634-.305-.476-.458-1.11-.458-1.903.153-1.427 1.372-2.537 2.744-2.537.762 0 1.22.317 1.677.634.61.476.762 1.269.61 1.903z" fill="#C4C4C4"/><path d="M65.848 7.205h-2.59c-.306 0-.458.158-.61.317l-3.354 5.391L57.77 7.84c-.153-.317-.305-.476-.762-.476h-2.44c-.304 0-.456.317-.456.634l2.743 8.404-2.591 3.806c-.153.317 0 .793.305.793h2.439c.304 0 .457-.159.61-.317L66 8.156c.457-.476.152-.951-.153-.951" fill="#CFCFCF"/><path d="M92.675 2.606l-2.134 14.271c0 .318.153.476.458.476h2.134c.305 0 .61-.317.762-.634l2.134-13.954c0-.317-.153-.476-.457-.476h-2.44c-.152-.159-.304 0-.457.317" fill="#C4C4C4"/><path d="M14.405 1.566C13.527.522 11.899 0 9.645 0H3.382c-.376 0-.752.391-.877.783L0 17.877c0 .391.25.652.501.652h3.883l1.002-6.394v.261c.125-.391.501-.783.877-.783h1.879c3.632 0 6.388-1.565 7.265-5.872V5.35c-.126 0-.126 0 0 0 .125-1.696-.126-2.74-1.002-3.784" fill="#CFCFCF"/><path d="M15.143 5.476v.388c-.87 4.39-3.6 5.81-7.2 5.81h-1.86c-.372 0-.745.388-.869.775l-1.241 7.876c0 .258.124.517.496.517h3.228c.372 0 .744-.259.744-.646v-.13l.62-4.002v-.258c0-.387.373-.646.746-.646h.496c3.103 0 5.585-1.29 6.206-5.164.248-1.55.124-2.97-.62-3.874a1.286 1.286 0 00-.745-.646" fill="#C4C4C4"/><path d="M14.274 5.089c-.124 0-.248-.13-.372-.13-.125 0-.249 0-.373-.129-.496-.129-.993-.129-1.613-.129H7.075c-.124 0-.248 0-.372.13a.715.715 0 00-.373.645l-.993 6.714v.258c.124-.387.497-.774.87-.774h1.86c3.6 0 6.331-1.55 7.2-5.81 0-.13 0-.259.124-.388-.248-.13-.372-.258-.62-.258-.373-.13-.373-.13-.497-.13" fill="#F6F6F6"/></svg>