<svg width="53" height="62" fill="none" xmlns="http://www.w3.org/2000/svg"><path stroke="#5B8288" stroke-width=".5" d="M4.506 25.834H48.79v30.77H4.506z"/><path d="M49.33 56.784a.079.079 0 01-.06-.025.123.123 0 01-.03-.086V25.705c0-.042.015-.07.03-.086a.079.079 0 01.06-.026c.026 0 .045.01.06.026s.03.044.03.086v30.968c0 .076-.056.111-.09.111zM15.886 21.32v-.001c.029-.305.049-.599.016-.851-.033-.258-.125-.505-.347-.68a.875.875 0 00-.49-.167 3.82 3.82 0 00-.49.004h-.01l-.01.002a2.38 2.38 0 01-.277.01h-.003l-1.857.024a9.338 9.338 0 01-.752-.033c-.142-.011-.309-.025-.499-.015-.111 0-.237 0-.395-.012h0-.007l-.056-.003c-.151-.006-.405-.018-.646-.012a2.913 2.913 0 00-.398.032c-.06.01-.122.024-.18.044a.466.466 0 00-.181.114l-.008.008-.007.009a.603.603 0 00-.105.312 2.09 2.09 0 00-.002.317c.012.214.045.44.068.577a5.817 5.817 0 01.043.352.132.132 0 01-.026.088.077.077 0 01-.058.03h0c-.037.002-.09-.03-.097-.098a2.111 2.111 0 00-.046-.333l-.002-.012v-.005a4.88 4.88 0 01-.075-.803c.007-.258.06-.455.177-.59h0l.002-.003c.112-.134.319-.218.626-.252.3-.033.639-.014.966.004.156.013.3.013.39.013h.001c.263 0 .45.012.641.023l.113.01c.142.011.31.025.5.015l1.852-.024c.052 0 .102-.003.145-.006h.007c.047-.004.088-.006.13-.006h.014c.44-.026.801-.045 1.1.187.252.202.37.474.417.783.047.305.023.625 0 .93l-.002.033-.003.035c-.01.1-.02.205-.02.302a.138.138 0 01-.037.083.074.074 0 01-.053.026h-.002a.086.086 0 01-.056-.032.142.142 0 01-.032-.092c0-.106.01-.215.021-.337zm30.771 0v-.001c.028-.305.048-.599.016-.851-.034-.258-.126-.505-.348-.68a.875.875 0 00-.49-.167 3.82 3.82 0 00-.49.004h-.01l-.01.002a2.38 2.38 0 01-.277.01h-.003l-1.857.024a9.338 9.338 0 01-.752-.033c-.142-.011-.309-.025-.499-.015-.11 0-.237 0-.395-.012h0-.007l-.056-.003c-.15-.006-.405-.018-.645-.012a2.914 2.914 0 00-.399.032c-.06.01-.122.024-.18.044a.466.466 0 00-.181.114l-.008.008-.007.009a.603.603 0 00-.104.312c-.01.099-.009.21-.003.317.012.214.045.44.068.577.02.12.03.22.04.318l.003.034a.131.131 0 01-.026.088.077.077 0 01-.057.03.083.083 0 01-.064-.022.112.112 0 01-.033-.076 2.24 2.24 0 00-.047-.333l-.002-.012v-.005a4.881 4.881 0 01-.075-.803c.007-.258.061-.455.177-.59h0l.002-.003c.112-.134.32-.218.626-.252.3-.033.64-.014.966.004.157.013.3.013.39.013h.001c.264 0 .45.012.641.023l.113.01c.142.011.31.025.5.015l1.852-.024c.052 0 .102-.003.145-.006h.007c.047-.004.088-.006.13-.006h.014c.44-.026.801-.045 1.1.187.253.202.37.474.417.783.047.305.023.625 0 .93 0 .01 0 .022-.002.033 0 .012-.002.023-.003.035-.01.1-.02.205-.02.302a.138.138 0 01-.037.083.074.074 0 01-.053.026h-.001a.086.086 0 01-.057-.032.142.142 0 01-.032-.092c0-.106.01-.215.022-.337z" fill="#5B8288" stroke="#5B8288" stroke-width=".5"/><path d="M14.697 49.264l.334.209c.13.082 3.278 2 11.401 2 8.124 0 11.272-1.918 11.402-2l.333-.21V37.386l4.495-1.41v6.66c-1.152.307-1.998 1.306-1.998 2.488v3.527h5.493v-3.527c0-1.182-.846-2.18-1.997-2.489v-7.13l2.618-.822-7.866-2.47-.474 1.339 3.603 1.13-15.609 4.9-15.608-4.9 15.608-4.9 10.585 3.324.473-1.339-11.058-3.471-20.346 6.387 8.61 2.703v11.877zm29.962-4.14v2.116h-2.497v-2.116c0-.649.56-1.176 1.249-1.176.688 0 1.248.527 1.248 1.176zm-28.464-7.268l10.237 3.214 10.237-3.214v5.527h-1.847v1.411h1.847v1.411h-3.246v1.411h3.246v.85c-.965.443-4.071 1.596-10.237 1.596-6.17 0-9.276-1.154-10.237-1.595v-10.61z" fill="#5B8288"/><path d="M43.912 19.556l-.008-.01L28.404.96l-.002-.002a1.372 1.372 0 00-1.04-.497h-.01c-.412 0-.787.196-1.045.514l-.001.002-14.649 18.429c-.035.044-.085.042-.114.017a.13.13 0 01-.015-.164v-.001L26.176.831s0 0 0 0A1.515 1.515 0 0127.341.25h.011c.441 0 .86.203 1.169.562v.001l15.497 18.583h0l.003.003a.116.116 0 01-.012.157l-.008.007-.007.008-.004.001a.088.088 0 01-.03.005.091.091 0 01-.035-.007.035.035 0 01-.007-.004l-.006-.01z" fill="#5B8288" stroke="#5B8288" stroke-width=".5"/><path d="M27.392 3.104h0l-.01-.002a.817.817 0 01-.523-.291c-.132-.174-.177-.49-.077-.76h0l.001-.004c.078-.22.228-.334.367-.354h.002a2.63 2.63 0 01.549-.035c.294.04.49.196.575.401.087.21.053.493-.107.722a.812.812 0 01-.659.33.569.569 0 01-.118-.007zm-.223-1.193l-.08.015-.055.059.182.171-.182-.171h0l-.002.001-.001.002-.004.004-.008.01a.599.599 0 00-.075.12h0l-.004.01a.63.63 0 00-.02.413c.01.03.028.083.068.13a.609.609 0 00.411.211.646.646 0 00.633-.248h0l.003-.005a.533.533 0 00.088-.455l-.003-.01-.004-.009a.422.422 0 00-.244-.226.916.916 0 00-.152-.043.614.614 0 00-.17-.02h-.006c-.11 0-.24.015-.375.04zM4.116 25.706h0v-.001c0-.076.056-.112.09-.112.02 0 .04.008.058.028.019.02.032.05.032.083 0 0 0 0 0 0l-.193 30.968v.001c0 .042-.014.07-.03.086a.079.079 0 01-.118-.002.125.125 0 01-.032-.083s0 0 0 0l.193-30.968z" fill="#5B8288" stroke="#5B8288" stroke-width=".5"/><path d="M2.903 60.987h47.73c1.073 0 1.954-.94 1.954-2.074v-.204c0-1.133-.87-2.074-1.954-2.074H2.903c-1.072 0-1.953.928-1.953 2.074v.204c0 1.133.87 2.074 1.953 2.074zm-1.173-2.29c0-.687.524-1.252 1.173-1.252h47.73c.639 0 1.174.554 1.174 1.251v.205c0 .686-.525 1.251-1.174 1.251H2.903c-.638 0-1.173-.553-1.173-1.25v-.206zm1.173-32.845h47.73c1.073 0 1.954-.941 1.954-2.074v-.205c0-1.133-.87-2.073-1.954-2.073H2.903c-1.072 0-1.953.928-1.953 2.073v.205c0 1.133.87 2.074 1.953 2.074zm-1.173-2.29c0-.687.524-1.252 1.173-1.252h47.73c.639 0 1.174.553 1.174 1.251v.205c0 .686-.525 1.25-1.174 1.25H2.903c-.638 0-1.173-.552-1.173-1.25v-.205z" fill="#5B8288" stroke="#5B8288" stroke-width=".1"/></svg>