<svg width="20" height="20" viewBox="0 0 20 20" fill="none" xmlns="http://www.w3.org/2000/svg">
<g clip-path="url(#clip0)">
<path d="M9.94407 10.2696C7.98493 10.2696 6.22451 9.18564 5.34849 7.43959C4.98745 6.71602 4.80273 5.93938 4.80273 5.132C4.80273 2.302 7.10892 0 9.94407 0C12.782 0 15.091 2.302 15.091 5.132C15.091 5.93938 14.9063 6.71602 14.5452 7.43959C13.6636 9.18564 11.9004 10.2696 9.94407 10.2696ZM9.94407 1.18732C7.76663 1.18732 5.99501 2.95572 5.99501 5.132C5.99501 5.75499 6.13775 6.35284 6.41483 6.90879C7.08653 8.24976 8.43833 9.08227 9.94407 9.08227C11.4498 9.08227 12.8044 8.24976 13.4817 6.90879C13.7588 6.35284 13.9015 5.75499 13.9015 5.1348C13.9015 2.95851 12.1243 1.18732 9.94407 1.18732Z" fill="#A1A9AA"/>
<path d="M19.4039 20.0001C19.1212 20.0001 18.8693 19.7989 18.8189 19.5112C18.0745 15.3514 15.9446 13.6724 14.173 12.6722C11.4498 11.1357 8.05768 11.2335 5.32049 12.9237C3.6944 13.9294 1.92838 15.4967 1.18111 19.5028C1.11954 19.8269 0.811672 20.0392 0.487015 19.9805C0.165157 19.9219 -0.0475495 19.609 0.0112247 19.2877C0.845258 14.8262 2.84638 13.0578 4.69636 11.9152C7.803 9.99589 11.6597 9.88973 14.7607 11.6386C17.7302 13.312 19.3451 15.6783 19.9916 19.3017C20.0504 19.6257 19.8349 19.933 19.5102 19.9917C19.4739 19.9973 19.4375 20.0001 19.4039 20.0001Z" fill="#A1A9AA"/>
</g>
<defs>
<clipPath id="clip0">
<rect width="20" height="20" fill="white"/>
</clipPath>
</defs>
</svg>
