<svg width="21" height="25" viewBox="0 0 21 25" fill="none" xmlns="http://www.w3.org/2000/svg">
<path d="M7.8605 17.4544L11.2863 18.4931C11.282 18.5149 11.2732 18.5411 11.2645 18.5629C11.1729 18.8117 10.9852 18.9513 10.6797 18.9993C9.55378 19.1783 7.68593 19.0648 7.66847 19.0648C7.38044 19.0473 7.13169 19.2655 7.11423 19.5536C7.09677 19.8416 7.31498 20.0904 7.60301 20.1078C7.68593 20.1122 9.60179 20.23 10.8456 20.0293C12.0806 19.8329 12.4341 18.7462 12.3686 18.061C12.3468 17.8472 12.2028 17.6683 11.9977 17.6072L8.16162 16.4463C6.26759 15.8746 4.19026 16.9307 4.10298 16.9744C4.09425 16.9787 4.08115 16.9831 4.07243 16.9918L0.253808 19.3005C0.00505225 19.4488 -0.0735022 19.7718 0.0748784 20.0205C0.175254 20.182 0.345455 20.2737 0.524384 20.2737C0.616031 20.2737 0.707678 20.2475 0.794961 20.1995L4.59612 17.9083C4.76196 17.821 6.43342 17.0224 7.8605 17.4544Z" fill="#A1A9AA"/>
<path d="M20.9353 16.5773C20.6342 16.0275 19.6959 15.1503 18.2732 15.7787C16.929 16.3766 14.088 17.7426 14.0574 17.7557C13.7956 17.8822 13.6865 18.1921 13.813 18.4539C13.9396 18.7158 14.2538 18.8249 14.5113 18.6983C14.5418 18.6852 17.3654 17.3236 18.6965 16.7344C19.0762 16.5642 19.3948 16.5642 19.6697 16.7344C19.6784 16.7388 19.6828 16.7432 19.6915 16.7475L12.5736 21.9627C12.0674 22.3336 11.4259 22.4864 10.8105 22.3904L4.4607 21.3779C4.31232 21.3561 4.15957 21.3953 4.04174 21.4914L2.43574 22.8311C2.21317 23.0144 2.18262 23.3461 2.37028 23.5687C2.47502 23.6909 2.6234 23.7563 2.77178 23.7563C2.88961 23.7563 3.00744 23.7171 3.10782 23.6341L4.53052 22.4471L10.649 23.4247C11.5393 23.5687 12.4689 23.3417 13.1977 22.8093L20.7913 17.2494C20.9964 17.0923 21.0619 16.8086 20.9353 16.5773Z" fill="#A1A9AA"/>
<path d="M12.5957 7.59155H11.4077C10.914 7.59155 10.5123 7.18984 10.5123 6.69623C10.5123 6.20261 10.914 5.80091 11.4077 5.80091H13.5047C13.7294 5.80091 13.9132 5.61708 13.9132 5.3924C13.9132 5.16772 13.7294 4.98389 13.5047 4.98389H12.4119V4.14984C12.4119 3.92516 12.2281 3.74133 12.0034 3.74133C11.7787 3.74133 11.5949 3.92516 11.5949 4.14984V4.98389H11.4077C10.4647 4.98389 9.69531 5.75325 9.69531 6.69623C9.69531 7.63921 10.4647 8.40857 11.4077 8.40857H12.5957C13.0894 8.40857 13.4911 8.81027 13.4911 9.30389C13.4911 9.7975 13.0894 10.1992 12.5957 10.1992H10.4613C10.2366 10.1992 10.0528 10.383 10.0528 10.6077C10.0528 10.8324 10.2366 11.0162 10.4613 11.0162H11.5915V11.8673C11.5915 12.092 11.7753 12.2758 12 12.2758C12.2247 12.2758 12.4085 12.092 12.4085 11.8673V11.0162H12.606C12.6094 11.0162 12.6128 11.0162 12.6162 11.0162C13.5489 11.0026 14.3047 10.2401 14.3047 9.30389C14.3047 8.3575 13.5387 7.59155 12.5957 7.59155Z" fill="#A1A9AA"/>
<path d="M17.6579 2.34213C16.1464 0.830638 14.1379 0 12 0C9.86213 0 7.85362 0.830638 6.34213 2.34213C4.83064 3.85362 4 5.86213 4 8C4 10.1379 4.83064 12.1464 6.34213 13.6579C7.85362 15.1694 9.86213 16 12 16C14.1379 16 16.1464 15.1694 17.6579 13.6579C19.1694 12.1464 20 10.1379 20 8C20 5.86213 19.1694 3.85362 17.6579 2.34213ZM12 15.183C8.04085 15.183 4.81702 11.9591 4.81702 8C4.81702 4.04085 8.04085 0.817021 12 0.817021C15.9591 0.817021 19.183 4.04085 19.183 8C19.183 11.9591 15.9591 15.183 12 15.183Z" fill="#A1A9AA"/>
</svg>
