<svg width="18" height="19" viewBox="0 0 18 19" fill="none" xmlns="http://www.w3.org/2000/svg">
<path d="M9.79541 9.32669L17.8352 0.99506C18.0549 0.767357 18.0549 0.398479 17.8352 0.170777C17.6155 -0.0569256 17.2595 -0.0569256 17.0398 0.170777L9 8.50241L0.960205 0.170777C0.740479 -0.0569255 0.384522 -0.0569255 0.164795 0.170777C-0.0549317 0.39848 -0.0549317 0.767357 0.164795 0.99506L8.20459 9.32669L0.164795 17.6583C-0.0549316 17.886 -0.0549316 18.2549 0.164795 18.4826C0.274658 18.5965 0.418213 18.6534 0.5625 18.6534C0.706787 18.6534 0.850342 18.5965 0.960205 18.4826L9 10.151L17.0398 18.4826C17.1497 18.5965 17.2932 18.6534 17.4375 18.6534C17.5818 18.6534 17.7253 18.5965 17.8352 18.4826C18.0549 18.2549 18.0549 17.886 17.8352 17.6583L9.79541 9.32669Z" fill="#282828"/>
</svg>
