<svg width="17" height="17" viewBox="0 0 17 17" fill="none" xmlns="http://www.w3.org/2000/svg">
<path fill-rule="evenodd" clip-rule="evenodd" d="M8.5 0.34375C8.74035 0.34375 8.97086 0.43923 9.14082 0.609185C9.31077 0.779139 9.40625 1.00965 9.40625 1.25V8.5C9.40625 8.74035 9.31077 8.97086 9.14082 9.14082C8.97086 9.31077 8.74035 9.40625 8.5 9.40625H1.25C1.00965 9.40625 0.779139 9.31077 0.609185 9.14082C0.43923 8.97086 0.34375 8.74035 0.34375 8.5C0.34375 8.25965 0.43923 8.02914 0.609185 7.85918C0.779139 7.68923 1.00965 7.59375 1.25 7.59375H7.59375V1.25C7.59375 1.00965 7.68923 0.779139 7.85918 0.609185C8.02914 0.43923 8.25965 0.34375 8.5 0.34375V0.34375Z" fill="#369CB7"/>
<path fill-rule="evenodd" clip-rule="evenodd" d="M7.59375 8.5C7.59375 8.25965 7.68923 8.02914 7.85918 7.85918C8.02914 7.68923 8.25965 7.59375 8.5 7.59375H15.75C15.9904 7.59375 16.2209 7.68923 16.3908 7.85918C16.5608 8.02914 16.6562 8.25965 16.6562 8.5C16.6562 8.74035 16.5608 8.97086 16.3908 9.14082C16.2209 9.31077 15.9904 9.40625 15.75 9.40625H9.40625V15.75C9.40625 15.9904 9.31077 16.2209 9.14082 16.3908C8.97086 16.5608 8.74035 16.6562 8.5 16.6562C8.25965 16.6562 8.02914 16.5608 7.85918 16.3908C7.68923 16.2209 7.59375 15.9904 7.59375 15.75V8.5Z" fill="#369CB7"/>
</svg>
