<svg width="113" height="106" viewBox="0 0 113 106" fill="none" xmlns="http://www.w3.org/2000/svg">
<path d="M81.0057 2.03751C62.9574 -3.03634 48.2049 1.42865 43.7419 14.7323C39.269 28.0765 42.9474 41.6744 26.7431 47.1644C13.462 51.538 -2.12431 59.2503 0.239618 80.8547C2.48585 101.353 14.6782 105.128 30.2939 105.96C46.9101 106.853 64.723 92.3622 80.1916 99.4352C94.5517 106.001 110.756 107.462 112.884 88.4858C114.13 77.3741 104.929 73.66 103.184 65.004C100.761 53.0094 105.606 48.514 107.068 40.4973C110.687 20.5774 98.3085 7.68978 81.0057 2.03751Z" fill="#91DFEB"/>
<mask id="mask0" mask-type="alpha" maskUnits="userSpaceOnUse" x="0" y="0" width="113" height="106">
<path d="M81.0057 2.03751C62.9574 -3.03634 48.2049 1.42865 43.7419 14.7323C39.269 28.0765 42.9474 41.6744 26.7431 47.1644C13.462 51.538 -2.12431 59.2503 0.239618 80.8547C2.48585 101.353 14.6782 105.128 30.2939 105.96C46.9101 106.853 64.723 92.3622 80.1916 99.4352C94.5517 106.001 110.756 107.462 112.884 88.4858C114.13 77.3741 104.929 73.66 103.184 65.004C100.761 53.0094 105.606 48.514 107.068 40.4973C110.687 20.5774 98.3085 7.68978 81.0057 2.03751Z" fill="#91DFEB"/>
</mask>
<g mask="url(#mask0)">
<path d="M76.3607 59.6927L75.5757 63.8698C83.1841 65.4284 89.6453 70.1667 93.8722 77.087C98.0991 84.0697 99.5483 92.5486 97.9783 100.903L102.024 101.713C103.836 92.2992 102.205 82.6981 97.3745 74.7802C92.4833 66.8624 85.056 61.5007 76.3607 59.6927Z" fill="#0E80A4"/>
<path d="M100.816 95.5411C102.809 96.2269 102.749 98.5336 102.024 100.716C101.36 102.96 100.273 104.269 98.2803 103.584C96.2876 102.898 95.2007 100.591 95.9253 98.3466C96.5895 96.1645 98.8238 94.9176 100.816 95.5411Z" fill="#0E80A4"/>
<path d="M100.092 97.9726C99.79 97.9726 99.5485 98.0349 99.3069 98.2219C98.8842 98.596 98.8238 99.2818 99.2465 99.7182C99.79 100.342 100.032 101.215 99.9711 102.15C99.9108 103.085 99.4277 103.958 98.7635 104.581C98.3408 104.955 98.2804 105.641 98.6427 106.077C99.005 106.514 99.6692 106.576 100.092 106.202C101.179 105.205 101.903 103.833 102.024 102.399C102.145 100.903 101.722 99.4688 100.817 98.409C100.575 98.0973 100.394 97.9726 100.092 97.9726Z" fill="#0E80A4"/>
<path d="M98.2199 98.8454C97.918 98.8454 97.6765 98.9077 97.4349 99.0947C97.0122 99.4688 96.9519 100.155 97.3142 100.591C98.2199 101.651 97.5557 103.895 95.7442 105.516C95.3215 105.89 95.2611 106.576 95.6234 107.013C95.9857 107.449 96.6499 107.511 97.0726 107.137C99.7295 104.706 100.515 101.214 98.8238 99.2194C98.703 98.9701 98.4615 98.9077 98.2199 98.8454Z" fill="#0E80A4"/>
<path d="M97.133 98.0349C96.8311 98.0349 96.5896 98.0972 96.348 98.2843C95.9254 98.6583 95.865 99.2818 96.2273 99.7182C96.2877 100.155 95.5027 101.963 93.2081 104.082C92.8458 104.456 92.6646 105.018 92.9665 105.516C93.3288 106.077 94.0534 106.14 94.5365 105.766C95.865 104.581 96.9519 103.21 97.6161 102.025C98.703 100.03 98.3407 98.9701 97.8577 98.409C97.6161 98.1596 97.3746 98.0349 97.133 98.0349Z" fill="#0E80A4"/>
<path d="M97.6765 98.1595C98.3407 98.9077 97.6161 99.6558 97.3142 99.9676C97.0727 100.155 96.7707 100.466 96.4084 100.84C95.6234 101.589 94.5365 102.586 93.3288 103.646C92.9061 104.02 92.2419 104.02 91.8796 103.521C91.5173 103.085 91.5173 102.399 91.94 102.025C94.3554 99.8429 95.8046 98.4713 96.0461 98.1595C96.1065 98.0972 96.1669 98.0349 96.1669 97.9725C96.4084 97.7855 96.65 97.6608 96.9519 97.7231C97.2538 97.7855 97.4954 97.9102 97.6765 98.1595ZM96.0461 98.2842C95.9857 98.4089 95.9254 98.5336 95.9254 98.7207C95.9254 98.5336 95.9254 98.4089 96.0461 98.2842ZM95.9254 99.0947C95.9857 99.2194 96.0461 99.4065 96.1669 99.5311C96.0461 99.4065 95.9254 99.2194 95.9254 99.0947Z" fill="#0E80A4"/>
<path d="M96.0461 95.0423C94.8988 94.9176 93.8119 95.2917 92.9665 96.0399C92.5438 96.4139 92.4834 97.0997 92.9061 97.5361C93.2684 97.9726 93.9327 98.0349 94.3553 97.5985C94.778 97.2244 95.3215 97.0374 95.865 97.0997C96.4688 97.1621 97.0123 97.4738 97.4349 97.9726C97.7973 98.409 98.4615 98.4713 98.8842 98.0973C99.3069 97.7232 99.3673 97.0374 99.0049 96.601C98.2199 95.7281 97.1934 95.167 96.0461 95.0423Z" fill="#0E80A4"/>
<path d="M61.325 66.0518C52.7504 65.179 45.0212 60.8148 39.5866 53.6451C34.152 46.5377 31.6763 37.4977 32.5216 28.2082L36.507 28.5823C35.7824 36.8119 37.9562 44.7921 42.787 51.0889C47.5574 57.3858 54.26 61.1889 61.7477 61.937L61.325 66.0518Z" fill="#0E80A4"/>
<path d="M54.1996 78.5209C54.1996 78.5209 54.0185 78.8326 53.7166 79.5184C53.5354 79.8302 53.4146 80.2042 53.0523 80.703C52.9316 80.9524 52.7504 81.2018 52.5693 81.4511C52.5089 81.5758 52.3881 81.7005 52.3277 81.8876C52.207 82.0123 52.1466 82.1369 52.0258 82.324C51.6031 82.8851 51.12 83.5085 50.5162 84.0697C50.3954 84.1943 50.2143 84.3814 50.0935 84.5061C49.9727 84.6931 49.7916 84.8178 49.6104 84.9425C49.2481 85.2542 48.8858 85.5659 48.5235 85.8777C47.0139 87.0622 45.0816 88.1844 42.8474 88.9949C40.6131 89.7431 38.0166 90.1795 35.2993 89.9301C34.937 89.8678 34.6351 89.8678 34.2728 89.8054C33.9105 89.7431 33.6086 89.6807 33.2463 89.6184C32.5216 89.4937 31.8574 89.3067 31.1932 89.0573C31.012 88.9949 30.8309 88.9326 30.6497 88.8702L30.1666 88.6832C29.8043 88.5585 29.5024 88.4338 29.1401 88.2468L28.8986 88.1221L28.5967 87.9974L28.1136 87.748C27.8117 87.561 27.5097 87.4363 27.1474 87.1869C26.7851 86.9375 26.4832 86.7505 26.1209 86.5011C25.819 86.2517 25.517 86.0024 25.2151 85.753C25.0944 85.6283 24.9132 85.5036 24.7924 85.3789L24.3697 84.9425C24.1282 84.6308 23.7659 84.3814 23.5244 84.0697C23.2828 83.7579 23.0413 83.4462 22.7394 83.1345C22.4978 82.8227 22.3167 82.4487 22.0751 82.1369C21.8336 81.8252 21.6524 81.4511 21.4713 81.0771L21.1694 80.516C21.0486 80.3289 20.9882 80.1419 20.9278 79.9549C20.2636 78.4586 19.8409 76.7753 19.6598 75.0919C19.4786 73.4086 19.4786 71.6629 19.8409 70.042C19.9013 69.6055 20.0221 69.2315 20.1428 68.7951C20.2636 68.3586 20.324 67.9846 20.5051 67.5482L20.9882 66.4259L21.5317 65.3037C21.7128 64.9296 22.0148 64.5556 22.2563 64.1192C22.4978 63.7451 22.7998 63.4334 23.0413 63.0593C23.2828 62.7476 23.6451 62.4358 23.9471 62.1241C24.249 61.8124 24.6113 61.563 24.9132 61.2513C27.5701 59.0692 30.9516 58.0717 34.2124 58.3834L34.8162 58.4457L35.4201 58.5704C35.8428 58.6328 36.2051 58.6951 36.5674 58.8198L37.1109 59.0068L37.4128 59.0692L37.7147 59.1939L38.2582 59.4433L38.5601 59.568L38.6809 59.6303H38.7412C38.7412 59.6303 38.9224 59.755 38.862 59.6926H38.9224L39.3451 59.942C39.5262 60.0044 39.647 60.0667 39.8282 60.1914L40.3716 60.5655C40.5528 60.6902 40.7339 60.8149 40.8547 60.9395C41.4585 61.4383 42.0624 61.9994 42.5455 62.6229C44.5985 65.0543 45.4439 68.2339 45.2024 71.0395C45.0816 72.4734 44.7797 73.7827 44.2362 74.9672V75.0296L44.1154 75.1543L44.0551 75.2166L43.9947 75.4037C43.9343 75.5283 43.8739 75.653 43.8135 75.7154C43.8135 75.7777 43.7531 75.8401 43.6928 75.9024L43.572 76.1518C43.4512 76.2765 43.3908 76.4635 43.2701 76.5882C43.0889 76.8999 42.9078 77.087 42.6662 77.3364C42.4851 77.5857 42.2435 77.7728 42.0624 78.0222C41.217 78.8326 40.2508 79.4561 39.3451 79.8925C38.862 80.1419 38.4393 80.2666 37.9562 80.3913C37.4732 80.516 37.0505 80.6407 36.6278 80.6407C34.937 80.8277 33.6086 80.5783 32.7632 80.3289C32.3405 80.2042 31.9782 80.0795 31.797 79.9549C31.5555 79.8925 31.4951 79.8302 31.4951 79.8302C30.3478 79.3314 29.744 77.9598 30.227 76.7753C30.7101 75.5907 32.0386 74.9672 33.1859 75.466L33.367 75.5283C33.367 75.5283 33.4274 75.5283 33.5482 75.5907C33.6689 75.653 33.8501 75.7154 34.0313 75.7777C34.4539 75.9648 35.1786 76.0895 36.0843 76.0271C36.9901 75.9648 38.077 75.5907 39.0432 74.7179C39.1639 74.5932 39.2847 74.4685 39.4055 74.3438C39.5262 74.2191 39.647 74.0944 39.7074 73.9697C39.7678 73.9074 39.7678 73.845 39.8282 73.7827L39.8885 73.7203C39.8885 73.7203 39.9489 73.658 39.9489 73.5956C40.0093 73.471 40.0697 73.3463 40.1301 73.2839L40.2508 73.0969L40.3112 73.0345C40.3112 73.0969 40.3716 72.9098 40.2508 73.0969V73.0345C40.6131 72.2864 40.7943 71.4759 40.9151 70.6031C41.0962 68.8574 40.6131 66.8 39.3451 65.2414C39.0432 64.805 38.6809 64.4932 38.2582 64.1192C38.1374 63.9945 38.077 63.9321 37.9562 63.8698L37.6543 63.6827C37.5939 63.6204 37.4128 63.4957 37.292 63.4334L36.9901 63.3087C36.7485 63.184 36.507 63.1216 36.2655 62.9969L36.0843 62.9346L35.9032 62.8723L35.4805 62.6852C35.2389 62.5605 34.937 62.5605 34.6351 62.4982L34.2124 62.4358L33.7897 62.3735C31.4951 62.1241 28.959 62.7476 27.0267 64.3062C26.7851 64.4932 26.5436 64.6803 26.302 64.9296C26.0605 65.179 25.819 65.3661 25.6378 65.6154C25.4567 65.8648 25.2151 66.1142 25.034 66.3636C24.8528 66.613 24.7321 66.8 24.5509 67.1117L24.0678 68.0469L23.7055 68.9821C23.5847 69.2938 23.464 69.6055 23.4036 69.9173C23.2224 70.1667 23.1621 70.4784 23.1017 70.7901C22.7998 72.0994 22.7394 73.471 22.8601 74.8425C22.9809 76.2141 23.2828 77.5234 23.7659 78.7703C23.8263 78.895 23.8867 79.082 23.9471 79.2067L24.1886 79.6431C24.3697 79.9549 24.4905 80.2666 24.6717 80.516C24.8528 80.8277 25.034 81.0771 25.2151 81.3265C25.3963 81.5758 25.6378 81.8252 25.819 82.1369C26.0001 82.3863 26.2417 82.6357 26.4832 82.8851L26.7851 83.2592C26.9059 83.3839 27.0267 83.4462 27.1474 83.5709C27.389 83.7579 27.6305 84.0073 27.872 84.1943C28.1136 84.3814 28.3551 84.5684 28.5967 84.6931C28.8382 84.8801 29.1401 85.0672 29.442 85.1919L29.8647 85.4412L29.9855 85.5036L30.0459 85.5659C30.1063 85.6283 29.9855 85.5659 29.9855 85.5659L30.227 85.6906C30.529 85.8153 30.8309 85.94 31.0724 86.0647L31.4951 86.2517C31.6159 86.3141 31.797 86.3764 31.9178 86.3764C32.5216 86.5635 33.0651 86.8128 33.6689 86.8752C33.9709 86.9375 34.2728 86.9999 34.5747 87.0622C34.8766 87.1246 35.1786 87.1246 35.4805 87.1869C37.8355 87.4363 40.0697 87.1869 42.0624 86.5635C44.0551 85.94 45.7458 85.0048 47.1347 84.0073C47.497 83.7579 47.7989 83.4462 48.1008 83.1968C48.282 83.0721 48.4027 82.9474 48.5235 82.8227C48.6443 82.6981 48.765 82.5734 48.9462 82.4487C49.4897 81.9499 49.9123 81.3888 50.335 80.89C50.4558 80.7653 50.5162 80.6407 50.637 80.516C50.6973 80.3913 50.8181 80.2666 50.8785 80.1419C50.9993 79.8925 51.1804 79.7055 51.3012 79.5184C51.6031 79.1444 51.7843 78.708 51.9654 78.4586C52.3277 77.8351 52.5089 77.5234 52.5089 77.5234C52.8108 77.0246 53.4146 76.8376 53.8977 77.087C54.26 77.3987 54.4412 78.0222 54.1996 78.5209Z" fill="#0E80A4"/>
<path d="M88.3773 83.3215C87.9546 94.4813 79.1384 101.526 68.5712 101.09C58.0039 100.654 49.7312 92.9227 50.1539 81.8252C50.5766 70.6654 59.7551 53.7075 70.3223 54.1439C80.8896 54.5804 88.8 72.2241 88.3773 83.3215Z" fill="#0E80A4"/>
<path d="M81.3728 85.8776C81.1313 92.5486 75.8174 96.7881 69.5375 96.5387C63.1971 96.2893 58.2456 91.6757 58.4871 85.0048C58.7286 78.3339 64.2236 68.1716 70.564 68.4209C76.844 68.608 81.6143 79.2067 81.3728 85.8776Z" fill="white"/>
<path d="M88.2563 40.2409C88.3167 38.7446 88.0148 37.373 87.5317 36.0014C86.2636 29.3305 82.5198 24.0311 75.1529 22.4725C73.4017 21.7867 69.2352 21.1009 68.0275 18.233C67.786 17.7966 67.7256 17.3602 67.7256 17.1732C67.1218 17.3602 65.7933 17.859 64.646 19.0435C63.5591 20.1657 63.1364 21.4126 62.9552 21.9737C62.7137 21.8491 62.0495 21.5997 61.5664 20.9139C60.9626 20.1034 60.9626 19.2929 61.0229 19.0435C60.4795 19.4799 59.8756 20.1034 59.3322 20.9139C58.366 22.4725 58.1849 24.1558 58.2453 25.4027C55.1657 27.2731 53.4749 29.9539 52.5087 33.0712C51.1803 35.0039 50.3953 37.1236 50.3349 39.4304C50.2745 41.3631 50.6972 43.1711 51.5426 44.8545C52.3276 54.9544 59.0303 61.4383 70.3825 61.4383C82.5198 61.4383 87.7732 55.8896 88.0752 43.0465C88.0752 42.6724 88.0752 42.2983 88.0752 41.8619C88.1355 41.3631 88.1959 40.802 88.2563 40.2409Z" fill="#0E80A4"/>
<path d="M51.9651 39.3057C51.8443 35.2533 53.5955 31.5749 56.5543 28.7694C55.2259 27.8965 53.6559 27.3978 51.9047 27.4601C47.6174 27.5848 44.1755 30.9515 44.2963 35.0662C44.4171 39.181 47.9797 42.423 52.3274 42.3606H52.3878C52.1463 41.4255 51.9651 40.3656 51.9651 39.3057Z" fill="#0E80A4"/>
<path d="M86.4446 26.712C84.7538 26.7744 83.1838 27.2731 81.9158 28.2083C85.0558 30.8268 86.9881 34.5052 87.1088 38.5576C87.1088 39.6175 87.0484 40.615 86.8069 41.6125C91.0942 41.4878 94.5361 38.1212 94.4153 34.0064C94.2946 29.8916 90.7319 26.6497 86.4446 26.712Z" fill="#0E80A4"/>
<path d="M90.6114 46.5378C90.7926 53.0841 82.5199 62.3112 69.8996 62.5606C57.2792 62.8723 48.6442 54.3933 48.4631 47.8471C48.4027 44.7921 49.0669 41.0514 52.7504 40.5527C56.9169 40.0539 62.593 42.3607 69.3561 42.236C76.5418 42.049 81.7953 38.807 86.0222 39.3058C89.1622 39.7422 90.4906 43.6699 90.6114 46.5378Z" fill="#0E80A4"/>
<path d="M85.1163 47.099C85.2975 53.2712 79.561 60.7526 70.5033 60.9397C61.4456 61.1267 53.8372 54.3934 53.656 48.2212C53.5353 44.6052 54.8034 42.2361 59.2718 41.9244C62.4118 41.675 66.216 41.862 69.9598 41.7997C73.3414 41.7373 76.421 41.3632 79.0175 41.3009C83.4859 41.1139 84.9956 43.1713 85.1163 47.099Z" fill="white"/>
<path d="M53.9579 46.3508C57.2791 46.4131 65.431 42.4854 69.2956 42.3607C73.2205 42.2983 81.1309 44.4804 84.452 44.2934C85.1163 43.2959 81.3724 39.6798 81.4932 38.3706C81.9159 34.5052 79.1382 31.0762 75.3944 30.7645C72.8582 30.5774 70.5032 31.762 69.1144 33.757C67.6048 31.8243 65.1894 30.7021 62.7137 31.0762C58.9698 31.6373 56.3733 35.1286 57.0375 38.994C57.2187 40.2409 53.2333 45.4156 53.9579 46.3508Z" fill="white"/>
<path d="M69.2354 44.0439C68.3901 44.1063 67.6654 44.0439 67.0012 43.9816C67.2428 44.1686 68.0278 44.7921 69.2354 44.7297C70.4431 44.6674 71.2281 44.0439 71.4093 43.7946C70.8054 43.9192 70.0808 44.0439 69.2354 44.0439Z" fill="#0E80A4"/>
<path d="M66.9407 39.2434C66.8199 40.7397 65.6726 41.8619 64.4045 41.7372C63.0761 41.6126 62.1703 40.3033 62.2911 38.8694C62.4118 37.3731 63.5591 36.2509 64.8272 36.3756C66.0953 36.5002 67.0614 37.7472 66.9407 39.2434Z" fill="#0E80A4"/>
<path d="M64.7066 37.4354C64.6462 38.0589 64.1631 38.5576 63.6196 38.4953C63.0762 38.4329 62.6535 37.9342 62.7139 37.2484C62.7743 36.6249 63.2573 36.1262 63.8008 36.1885C64.3443 36.2508 64.7066 36.812 64.7066 37.4354Z" fill="white"/>
<path d="M76.8437 39.3681C76.723 40.8644 75.5757 41.9866 74.3076 41.8619C72.9791 41.7372 72.0734 40.4279 72.1941 38.9317C72.3149 37.4354 73.4622 36.3131 74.7303 36.4378C75.9983 36.5625 76.9645 37.8718 76.8437 39.3681Z" fill="#0E80A4"/>
<path d="M74.7908 37.3107C74.7304 37.9341 74.2473 38.4329 73.7039 38.3706C73.1604 38.3082 72.7377 37.8094 72.7981 37.1236C72.8585 36.5002 73.3416 36.0014 73.885 36.0638C74.4285 36.1261 74.8512 36.6249 74.7908 37.3107Z" fill="white"/>
<path d="M57.5813 123.846C50.7579 114.993 51.4221 93.4214 55.2263 90.4912L58.3663 94.9177C58.789 96.1023 58.2455 98.8455 57.8832 101.589C57.2794 106.327 55.9509 112.873 61.6874 120.355L57.5813 123.846Z" fill="#0E80A4"/>
<path d="M80.4064 123.223C87.2299 114.369 86.5656 92.798 82.7614 89.8678L79.6214 94.2943C79.1987 95.4788 79.7422 98.222 80.1045 100.965C80.7084 105.703 82.0368 112.25 76.3003 119.731L80.4064 123.223Z" fill="#0E80A4"/>
<path d="M60.6608 49.0316C60.6608 49.0316 62.6535 54.2063 70.0204 54.2063C77.3873 54.0816 78.0515 48.3458 78.0515 48.3458" stroke="#0E80A4" stroke-miterlimit="10"/>
<path d="M37.2316 24.7794C37.2316 24.0936 36.9297 23.4701 36.4466 23.0337C35.6012 22.2232 33.9708 21.5374 34.3935 20.1035C34.5143 19.6671 34.6955 19.293 34.5747 18.7942C34.4539 18.3578 34.152 18.1708 33.7293 18.1084C32.8235 17.9837 31.9782 18.6695 31.4951 19.4177C30.5893 20.8516 30.4685 22.9714 30.5893 23.2831C30.5289 23.2208 29.0193 22.2856 27.872 22.4726C27.3286 22.535 26.6643 22.909 26.4832 23.4701C26.302 23.8442 26.4832 24.4677 26.7247 24.7794C26.1209 24.9041 25.7586 25.6522 25.6378 26.2757C25.517 27.0862 25.8189 27.3979 26.2416 28.0213C25.7586 28.4578 25.8189 29.7047 26.0605 30.2658C26.302 30.7645 26.9663 31.2009 27.4493 31.4503C28.657 32.0738 29.7439 32.0738 31.2535 32.2608C32.5216 32.3855 35.2389 31.575 36.4466 30.8269C38.4997 29.3306 37.1712 25.2158 37.2316 24.7794Z" fill="#0E80A4"/>
<path d="M35.1784 29.8293C35.1784 29.8293 33.7292 31.1385 33.1857 31.575C32.8234 31.8243 32.0988 32.5725 31.7969 32.6972C30.8307 33.0089 30.0457 33.5077 27.9323 32.5725C26.2415 31.8243 25.7584 29.8293 25.7584 29.8293L34.4538 29.2058L35.1784 29.8293Z" fill="#0E80A4"/>
<path d="M26.1812 30.8891C26.1812 31.0138 26.3623 31.0762 26.4227 31.1385C26.4831 31.2632 26.5435 31.3879 26.6643 31.4502C26.785 31.5749 26.785 31.8867 28.2946 32.5101C28.4758 32.5725 28.657 32.6348 28.7777 32.6971C29.14 32.8218 29.3212 32.8218 29.7439 32.8842C30.1062 32.8842 30.4081 32.8842 30.7704 32.8218C31.0723 32.7595 31.4346 32.6971 31.6762 32.5725C31.7969 32.5101 31.9177 32.4478 32.0385 32.3854C32.0989 32.3231 32.1592 32.3231 32.1592 32.2607C32.2196 32.136 32.1592 31.8243 32.0989 31.6996C31.9781 31.3255 32.0989 31.2632 32.1592 31.3879C32.2196 31.5126 32.3404 31.6373 32.3404 31.762C32.4008 31.8867 32.4008 32.0113 32.4008 32.1984C32.4008 32.2607 32.3404 32.3854 32.3404 32.3854C32.28 32.4478 32.28 32.5101 32.2196 32.5725C32.0989 32.6348 31.9781 32.7595 31.8573 32.8218C31.5554 32.9465 31.2535 33.0089 30.9516 33.0712C30.5893 33.1336 30.2873 33.1959 29.925 33.1959C29.5627 33.1959 29.14 33.0712 28.7777 32.9465C28.5966 32.8842 28.4154 32.8218 28.2343 32.7595C28.0531 32.6971 27.872 32.6348 27.7512 32.5101C27.4493 32.3231 27.1473 32.136 26.8454 31.949C26.7247 31.8243 26.6039 31.6996 26.4831 31.6373C26.3623 31.5126 26.302 31.3879 26.2416 31.2632C26.1812 31.1385 26.1208 31.0138 26.0604 30.8891C26.0604 30.7644 26.1208 30.8268 26.1812 30.8891Z" fill="white"/>
<path d="M30.4081 22.9713L30.5893 23.3454C30.5893 23.3454 30.227 23.2207 30.227 23.1583C30.1666 23.1583 29.9251 22.9713 29.8647 22.9713C29.2608 22.6596 28.8985 22.5972 28.8381 22.5972C28.0531 22.4725 27.7512 22.5349 27.5701 22.5972C27.0266 22.8466 26.8455 22.9713 26.7851 23.096C26.6039 23.283 26.4832 23.5324 26.4832 23.6571C26.4832 23.8441 26.4228 24.0935 26.5435 24.5299C26.6643 24.8416 26.7247 24.904 26.7851 24.9663C26.7851 24.9663 26.8455 25.091 27.2078 25.3404C27.5097 25.5274 27.6305 25.5898 27.6908 25.6521C27.9324 25.7768 28.1739 25.9015 28.3551 25.9639C28.5966 26.0262 29.3212 26.4003 30.5289 26.6497C30.7704 26.712 31.012 26.712 31.2535 26.712C31.4951 26.712 31.7366 26.712 31.9178 26.6497C31.9781 26.6497 32.0385 26.5873 32.0989 26.5873C32.1593 26.5873 32.3404 26.525 32.4612 26.2756C32.5216 26.2132 32.582 26.0886 32.582 25.9639C32.582 25.8392 32.6424 25.7768 32.6424 25.6521C32.6424 25.4651 32.582 25.2781 32.5216 25.091C32.4612 24.904 32.3404 24.7793 32.2197 24.6546C32.0385 24.4676 31.6762 24.2805 31.6158 24.2805C31.5554 24.2182 31.3139 24.1558 31.2535 24.0935C31.2535 24.0935 30.6497 23.8441 30.5893 23.8441C30.4685 23.7818 30.4081 23.7818 30.4081 23.7818C30.1062 23.7194 30.1062 23.6571 30.4081 23.7194C30.4081 23.7194 30.6497 23.7818 31.4347 24.0935C31.4951 24.0935 31.5554 24.1558 31.6158 24.1558C31.6762 24.2182 31.7366 24.2182 31.797 24.2805C31.9178 24.3429 32.0989 24.4676 32.2197 24.5923C32.3404 24.717 32.4612 24.8416 32.582 25.0287C32.7027 25.2157 32.7631 25.4028 32.7631 25.6521C32.7631 25.7768 32.7631 25.9015 32.7027 25.9639C32.7027 26.0886 32.6424 26.2132 32.582 26.2756C32.3404 26.525 32.2197 26.5873 32.1593 26.5873C32.0989 26.5873 32.0385 26.6497 31.9781 26.6497C31.7366 26.712 31.4951 26.712 31.2535 26.712C31.012 26.712 30.7704 26.6497 30.5289 26.6497C30.2874 26.5873 30.0458 26.525 29.8043 26.4626C29.7439 26.4626 29.0797 26.2756 27.6305 25.6521C27.0266 25.2781 26.9058 25.2157 26.9058 25.1534L26.7247 24.9663C26.6643 24.8416 26.5435 24.7793 26.4832 24.6546C26.4832 24.5923 26.3624 24.3429 26.3624 24.3429C26.3624 24.3429 26.302 24.0312 26.302 23.9065C26.302 23.7818 26.302 23.6571 26.302 23.5324C26.302 23.4701 26.3624 23.283 26.4228 23.1583C26.4832 23.0336 26.5435 22.9713 26.6643 22.8466C26.7247 22.7843 27.2078 22.2855 28.1135 22.2231C28.1135 22.2231 28.4758 22.2231 29.2005 22.4102C29.5024 22.5349 29.7439 22.5972 29.9855 22.7219C29.9855 22.7843 30.4081 22.9713 30.4081 22.9713Z" fill="white" stroke="white" stroke-width="0.25" stroke-miterlimit="10"/>
<path d="M26.6039 24.6546L26.6643 24.9663C26.6643 24.9663 26.4832 24.9663 26.302 25.1534C26.1812 25.2781 26.0605 25.4027 26.0001 25.5898C25.9397 25.7145 25.9397 25.7768 25.8793 25.9015C25.8189 26.0262 25.8189 26.1509 25.8189 26.2756C25.8189 26.3379 25.8189 26.4003 25.8189 26.4626C25.8189 26.525 25.8189 26.5873 25.8189 26.712C25.8189 26.8367 25.8793 27.0237 25.9397 27.1484C26.0001 27.2731 26.0605 27.4601 26.1812 27.5848C26.6643 28.0836 27.1474 28.333 27.5097 28.4577C27.6908 28.52 27.872 28.5824 28.0532 28.6447C28.1739 28.6447 28.5362 28.707 28.5966 28.7694C28.9589 28.8317 29.3816 28.8941 29.7439 28.8941C29.8043 28.8941 30.2874 28.8941 30.2874 28.8941C30.4685 28.8941 30.6497 28.8941 30.8308 28.8941C30.8912 28.8941 31.5554 28.8317 31.6158 28.7694C31.6762 28.7694 31.9178 28.707 32.2801 28.52C32.4008 28.4577 32.5216 28.333 32.582 28.2083C32.6424 28.1459 32.6424 28.0836 32.7028 28.0212C32.7631 27.8966 32.8235 27.5848 32.8235 27.4601C32.8235 27.3354 32.8235 27.2108 32.7631 27.1484C32.7631 27.0237 32.7028 26.9614 32.6424 26.899C32.582 26.8367 32.582 26.7743 32.5216 26.712C32.2801 26.5873 32.1593 26.5873 32.1593 26.5873C32.2197 26.5873 32.2801 26.525 32.2801 26.525C32.2801 26.525 32.4008 26.525 32.582 26.6497C32.6424 26.712 32.7028 26.7743 32.7631 26.8367C32.8839 27.0237 32.8839 27.2108 32.8839 27.4601C32.8839 27.5848 32.8839 27.8342 32.7631 28.0836C32.7631 28.1459 32.7028 28.2083 32.6424 28.2706C32.582 28.3953 32.4612 28.52 32.2801 28.5824C31.8574 28.8317 31.6762 28.8317 31.5554 28.8317C31.4951 28.8317 31.3139 28.8941 31.3139 28.8941C31.2535 28.8941 30.8308 28.9564 30.7705 28.9564C30.5893 28.9564 30.4081 28.9564 30.227 29.0188H29.6835C29.3212 29.0188 28.8985 28.9564 28.5362 28.8941C28.4155 28.8941 28.0532 28.8317 27.9324 28.7694C27.7512 28.707 27.5701 28.6447 27.3889 28.5824C26.0001 28.0212 26.0605 27.8342 25.9397 27.6472C25.8189 27.5225 25.7585 27.3354 25.6982 27.1484C25.6378 26.9614 25.5774 26.7743 25.5774 26.6497C25.5774 26.5873 25.5774 26.4626 25.5774 26.4003C25.5774 26.3379 25.5774 26.2132 25.5774 26.1509C25.6378 25.8392 25.6982 25.5274 25.8189 25.3404C25.9397 25.091 26.0605 24.904 26.1812 24.7793C26.3624 24.6546 26.6039 24.6546 26.6039 24.6546Z" fill="white" stroke="white" stroke-width="0.25" stroke-miterlimit="10"/>
<path d="M25.7585 29.5799C25.7585 29.7046 25.8793 29.8916 25.9397 30.0787C26 30.2034 26.0604 30.3904 26.1812 30.5151C26.302 30.6398 26.302 31.0762 27.9927 31.762C28.1739 31.8243 28.355 31.8867 28.5362 31.8867C28.9589 31.949 29.2608 32.0114 29.7439 32.0114C30.1666 32.0114 30.5893 31.949 30.9516 31.8243C31.3139 31.6996 31.7366 31.575 32.0385 31.3879C32.2196 31.2632 32.3404 31.2009 32.5216 31.0762C32.5819 31.0138 32.6423 30.9515 32.7027 30.8892C32.8235 30.7021 32.8235 30.2657 32.8235 30.141C32.8235 29.954 32.7631 29.8293 32.6423 29.7046C32.4612 29.3305 32.1593 29.2682 31.6158 29.1435C31.495 29.1435 31.4346 29.1435 31.3139 29.0811C31.1327 29.0811 31.0119 29.0811 30.8912 29.0811C30.7704 29.0811 30.5893 29.0811 30.5893 29.0811C30.5893 29.0811 30.7704 29.0188 30.8912 29.0188C31.0119 29.0188 31.1327 29.0188 31.3139 29.0188C31.4346 29.0188 31.495 29.0188 31.6158 29.0188C31.6762 29.0188 32.0385 29.0811 32.1593 29.1435C32.4612 29.2682 32.5819 29.4552 32.6423 29.5799C32.7027 29.7046 32.7631 29.8916 32.8235 30.0787C32.8235 30.2657 32.8235 30.4527 32.8235 30.6398C32.8235 30.7645 32.7631 30.8892 32.7027 30.8892C32.6423 30.9515 32.5819 31.0762 32.5216 31.1385C32.4008 31.2632 32.2196 31.3879 32.0385 31.5126C31.6762 31.6996 31.3139 31.8867 30.8912 32.0114C30.4685 32.1361 30.0458 32.1984 29.6231 32.1984C29.2004 32.1984 28.7777 32.1984 28.355 32.0737C28.1739 32.0114 27.9323 31.949 27.7512 31.8867C27.57 31.8243 27.3889 31.762 27.2077 31.6373C26.8454 31.4503 26.5435 31.2632 26.2416 31.0138C26.1208 30.8892 26 30.7645 25.8793 30.6398C25.7585 30.5151 25.6981 30.3281 25.6377 30.2034C25.5774 30.0787 25.517 29.8916 25.517 29.7669C25.6377 29.5176 25.6981 29.4552 25.7585 29.5799Z" fill="white" stroke="white" stroke-width="0.25" stroke-miterlimit="10"/>
</g>
<path d="M76.3607 59.6927L75.5757 63.8699C83.1841 65.4285 89.6453 70.1667 93.8722 77.0871C98.0991 84.0697 99.5483 92.5487 97.9783 100.903L102.024 101.713C103.836 92.2993 102.205 82.6981 97.3745 74.7803C92.4833 66.8624 85.056 61.5007 76.3607 59.6927Z" fill="#0E80A4"/>
<path d="M61.325 66.0519C52.7504 65.179 45.0212 60.8149 39.5866 53.6452C34.152 46.5378 31.6763 37.4977 32.5216 28.2083L36.507 28.5824C35.7824 36.8119 37.9562 44.7921 42.787 51.089C47.5574 57.3859 54.26 61.1889 61.7477 61.9371L61.325 66.0519Z" fill="#0E80A4"/>
<path d="M54.1996 78.5209C54.1996 78.5209 54.0185 78.8326 53.7166 79.5184C53.5354 79.8302 53.4146 80.2042 53.0523 80.703C52.9316 80.9524 52.7504 81.2018 52.5693 81.4511C52.5089 81.5758 52.3881 81.7005 52.3277 81.8876C52.207 82.0123 52.1466 82.1369 52.0258 82.324C51.6031 82.8851 51.12 83.5085 50.5162 84.0697C50.3954 84.1943 50.2143 84.3814 50.0935 84.5061C49.9727 84.6931 49.7916 84.8178 49.6104 84.9425C49.2481 85.2542 48.8858 85.5659 48.5235 85.8777C47.0139 87.0622 45.0816 88.1844 42.8474 88.9949C40.6131 89.7431 38.0166 90.1795 35.2993 89.9301C34.937 89.8678 34.6351 89.8678 34.2728 89.8054C33.9105 89.7431 33.6086 89.6807 33.2463 89.6184C32.5216 89.4937 31.8574 89.3067 31.1932 89.0573C31.012 88.9949 30.8309 88.9326 30.6497 88.8702L30.1666 88.6832C29.8043 88.5585 29.5024 88.4338 29.1401 88.2468L28.8986 88.1221L28.5967 87.9974L28.1136 87.748C27.8117 87.561 27.5097 87.4363 27.1474 87.1869C26.7851 86.9375 26.4832 86.7505 26.1209 86.5011C25.819 86.2517 25.517 86.0024 25.2151 85.753C25.0944 85.6283 24.9132 85.5036 24.7924 85.3789L24.3697 84.9425C24.1282 84.6308 23.7659 84.3814 23.5244 84.0697C23.2828 83.7579 23.0413 83.4462 22.7394 83.1345C22.4978 82.8227 22.3167 82.4487 22.0751 82.1369C21.8336 81.8252 21.6524 81.4511 21.4713 81.0771L21.1694 80.516C21.0486 80.3289 20.9882 80.1419 20.9278 79.9549C20.2636 78.4586 19.8409 76.7753 19.6598 75.0919C19.4786 73.4086 19.4786 71.6629 19.8409 70.042C19.9013 69.6055 20.0221 69.2315 20.1428 68.7951C20.2636 68.3586 20.324 67.9846 20.5051 67.5482L20.9882 66.4259L21.5317 65.3037C21.7128 64.9296 22.0148 64.5556 22.2563 64.1192C22.4978 63.7451 22.7998 63.4334 23.0413 63.0593C23.2828 62.7476 23.6451 62.4358 23.9471 62.1241C24.249 61.8124 24.6113 61.563 24.9132 61.2513C27.5701 59.0692 30.9516 58.0717 34.2124 58.3834L34.8162 58.4457L35.4201 58.5704C35.8428 58.6328 36.2051 58.6951 36.5674 58.8198L37.1109 59.0068L37.4128 59.0692L37.7147 59.1939L38.2582 59.4433L38.5601 59.568L38.6809 59.6303H38.7412C38.7412 59.6303 38.9224 59.755 38.862 59.6926H38.9224L39.3451 59.942C39.5262 60.0044 39.647 60.0667 39.8282 60.1914L40.3716 60.5655C40.5528 60.6902 40.7339 60.8149 40.8547 60.9395C41.4585 61.4383 42.0624 61.9994 42.5455 62.6229C44.5985 65.0543 45.4439 68.2339 45.2024 71.0395C45.0816 72.4734 44.7797 73.7827 44.2362 74.9672V75.0296L44.1154 75.1543L44.0551 75.2166L43.9947 75.4037C43.9343 75.5283 43.8739 75.653 43.8135 75.7154C43.8135 75.7777 43.7531 75.8401 43.6928 75.9024L43.572 76.1518C43.4512 76.2765 43.3908 76.4635 43.2701 76.5882C43.0889 76.8999 42.9078 77.087 42.6662 77.3364C42.4851 77.5857 42.2435 77.7728 42.0624 78.0222C41.217 78.8326 40.2508 79.4561 39.3451 79.8925C38.862 80.1419 38.4393 80.2666 37.9562 80.3913C37.4732 80.516 37.0505 80.6407 36.6278 80.6407C34.937 80.8277 33.6086 80.5783 32.7632 80.3289C32.3405 80.2042 31.9782 80.0795 31.797 79.9549C31.5555 79.8925 31.4951 79.8302 31.4951 79.8302C30.3478 79.3314 29.744 77.9598 30.227 76.7753C30.7101 75.5907 32.0386 74.9672 33.1859 75.466L33.367 75.5283C33.367 75.5283 33.4274 75.5283 33.5482 75.5907C33.6689 75.653 33.8501 75.7154 34.0313 75.7777C34.4539 75.9648 35.1786 76.0895 36.0843 76.0271C36.9901 75.9648 38.077 75.5907 39.0432 74.7179C39.1639 74.5932 39.2847 74.4685 39.4055 74.3438C39.5262 74.2191 39.647 74.0944 39.7074 73.9697C39.7678 73.9074 39.7678 73.845 39.8282 73.7827L39.8885 73.7203C39.8885 73.7203 39.9489 73.658 39.9489 73.5956C40.0093 73.471 40.0697 73.3463 40.1301 73.2839L40.2508 73.0969L40.3112 73.0345C40.3112 73.0969 40.3716 72.9098 40.2508 73.0969V73.0345C40.6131 72.2864 40.7943 71.4759 40.9151 70.6031C41.0962 68.8574 40.6131 66.8 39.3451 65.2414C39.0432 64.805 38.6809 64.4932 38.2582 64.1192C38.1374 63.9945 38.077 63.9321 37.9562 63.8698L37.6543 63.6827C37.5939 63.6204 37.4128 63.4957 37.292 63.4334L36.9901 63.3087C36.7485 63.184 36.507 63.1216 36.2655 62.9969L36.0843 62.9346L35.9032 62.8723L35.4805 62.6852C35.2389 62.5605 34.937 62.5605 34.6351 62.4982L34.2124 62.4358L33.7897 62.3735C31.4951 62.1241 28.959 62.7476 27.0267 64.3062C26.7851 64.4932 26.5436 64.6803 26.302 64.9296C26.0605 65.179 25.819 65.3661 25.6378 65.6154C25.4567 65.8648 25.2151 66.1142 25.034 66.3636C24.8528 66.613 24.7321 66.8 24.5509 67.1117L24.0678 68.0469L23.7055 68.9821C23.5847 69.2938 23.464 69.6055 23.4036 69.9173C23.2224 70.1667 23.1621 70.4784 23.1017 70.7901C22.7998 72.0994 22.7394 73.471 22.8601 74.8425C22.9809 76.2141 23.2828 77.5234 23.7659 78.7703C23.8263 78.895 23.8867 79.082 23.9471 79.2067L24.1886 79.6431C24.3697 79.9549 24.4905 80.2666 24.6717 80.516C24.8528 80.8277 25.034 81.0771 25.2151 81.3265C25.3963 81.5758 25.6378 81.8252 25.819 82.1369C26.0001 82.3863 26.2417 82.6357 26.4832 82.8851L26.7851 83.2592C26.9059 83.3839 27.0267 83.4462 27.1474 83.5709C27.389 83.7579 27.6305 84.0073 27.872 84.1943C28.1136 84.3814 28.3551 84.5684 28.5967 84.6931C28.8382 84.8801 29.1401 85.0672 29.442 85.1919L29.8647 85.4412L29.9855 85.5036L30.0459 85.5659C30.1063 85.6283 29.9855 85.5659 29.9855 85.5659L30.227 85.6906C30.529 85.8153 30.8309 85.94 31.0724 86.0647L31.4951 86.2517C31.6159 86.3141 31.797 86.3764 31.9178 86.3764C32.5216 86.5635 33.0651 86.8128 33.6689 86.8752C33.9709 86.9375 34.2728 86.9999 34.5747 87.0622C34.8766 87.1246 35.1786 87.1246 35.4805 87.1869C37.8355 87.4363 40.0697 87.1869 42.0624 86.5635C44.0551 85.94 45.7458 85.0048 47.1347 84.0073C47.497 83.7579 47.7989 83.4462 48.1008 83.1968C48.282 83.0721 48.4027 82.9474 48.5235 82.8227C48.6443 82.6981 48.765 82.5734 48.9462 82.4487C49.4897 81.9499 49.9123 81.3888 50.335 80.89C50.4558 80.7653 50.5162 80.6407 50.637 80.516C50.6973 80.3913 50.8181 80.2666 50.8785 80.1419C50.9993 79.8925 51.1804 79.7055 51.3012 79.5184C51.6031 79.1444 51.7843 78.708 51.9654 78.4586C52.3277 77.8351 52.5089 77.5234 52.5089 77.5234C52.8108 77.0246 53.4146 76.8376 53.8977 77.087C54.26 77.3987 54.4412 78.0222 54.1996 78.5209Z" fill="#0E80A4"/>
<path d="M88.2563 40.2409C88.3167 38.7446 88.0148 37.373 87.5317 36.0014C86.2636 29.3305 82.5198 24.0311 75.1529 22.4725C73.4017 21.7867 69.2352 21.1009 68.0275 18.233C67.786 17.7966 67.7256 17.3602 67.7256 17.1732C67.1218 17.3602 65.7933 17.859 64.646 19.0435C63.5591 20.1657 63.1364 21.4126 62.9552 21.9737C62.7137 21.8491 62.0495 21.5997 61.5664 20.9139C60.9626 20.1034 60.9626 19.2929 61.0229 19.0435C60.4795 19.4799 59.8756 20.1034 59.3322 20.9139C58.366 22.4725 58.1849 24.1558 58.2453 25.4027C55.1657 27.2731 53.4749 29.9539 52.5087 33.0712C51.1803 35.0039 50.3953 37.1236 50.3349 39.4304C50.2745 41.3631 50.6972 43.1711 51.5426 44.8545C52.3276 54.9544 59.0303 61.4383 70.3825 61.4383C82.5198 61.4383 87.7732 55.8896 88.0752 43.0465C88.0752 42.6724 88.0752 42.2983 88.0752 41.8619C88.1355 41.3631 88.1959 40.802 88.2563 40.2409Z" fill="#0E80A4"/>
<path d="M51.9651 39.3057C51.8443 35.2533 53.5955 31.5749 56.5543 28.7694C55.2259 27.8965 53.6559 27.3978 51.9047 27.4601C47.6174 27.5848 44.1755 30.9515 44.2963 35.0662C44.4171 39.181 47.9797 42.423 52.3274 42.3606H52.3878C52.1463 41.4255 51.9651 40.3656 51.9651 39.3057Z" fill="#0E80A4"/>
<path d="M86.4446 26.712C84.7538 26.7744 83.1838 27.2731 81.9158 28.2083C85.0558 30.8268 86.9881 34.5052 87.1088 38.5576C87.1088 39.6175 87.0484 40.615 86.8069 41.6125C91.0942 41.4878 94.5361 38.1212 94.4153 34.0064C94.2946 29.8916 90.7319 26.6497 86.4446 26.712Z" fill="#0E80A4"/>
<path d="M90.6114 46.5379C90.7926 53.0841 82.5199 62.3112 69.8996 62.5606C57.2792 62.8723 48.6442 54.3934 48.4631 47.8471C48.4027 44.7922 49.0669 41.0515 52.7504 40.5527C56.9169 40.054 62.593 42.3607 69.3561 42.2361C76.5418 42.049 81.7953 38.8071 86.0222 39.3058C89.1622 39.7422 90.4906 43.67 90.6114 46.5379Z" fill="#0E80A4"/>
<path d="M85.1163 47.099C85.2975 53.2712 79.561 60.7527 70.5033 60.9397C61.4456 61.1267 53.8372 54.3934 53.656 48.2213C53.5353 44.6052 54.8034 42.2361 59.2718 41.9244C62.4118 41.675 66.216 41.862 69.9598 41.7997C73.3414 41.7373 76.421 41.3633 79.0175 41.3009C83.4859 41.1139 84.9956 43.1713 85.1163 47.099Z" fill="white"/>
<path d="M53.9579 46.3508C57.2791 46.4132 65.431 42.4854 69.2956 42.3607C73.2205 42.2984 81.1309 44.4805 84.452 44.2934C85.1163 43.2959 81.3724 39.6799 81.4932 38.3706C81.9159 34.5052 79.1382 31.0762 75.3944 30.7645C72.8582 30.5775 70.5032 31.762 69.1144 33.7571C67.6048 31.8244 65.1894 30.7021 62.7137 31.0762C58.9698 31.6373 56.3733 35.1287 57.0375 38.9941C57.2187 40.241 53.2333 45.4156 53.9579 46.3508Z" fill="white"/>
<path d="M69.2354 44.044C68.3901 44.1064 67.6654 44.044 67.0012 43.9817C67.2428 44.1687 68.0278 44.7922 69.2354 44.7298C70.4431 44.6675 71.2281 44.044 71.4093 43.7946C70.8054 43.9193 70.0808 44.044 69.2354 44.044Z" fill="#0E80A4"/>
<path d="M66.9407 39.2434C66.8199 40.7397 65.6726 41.8619 64.4045 41.7372C63.0761 41.6126 62.1703 40.3033 62.2911 38.8694C62.4118 37.3731 63.5591 36.2509 64.8272 36.3756C66.0953 36.5002 67.0614 37.7472 66.9407 39.2434Z" fill="#0E80A4"/>
<path d="M64.7066 37.4355C64.6462 38.0589 64.1631 38.5577 63.6196 38.4953C63.0762 38.433 62.6535 37.9342 62.7139 37.2484C62.7743 36.625 63.2573 36.1262 63.8008 36.1886C64.3443 36.2509 64.7066 36.812 64.7066 37.4355Z" fill="white"/>
<path d="M76.8437 39.3681C76.723 40.8644 75.5757 41.9866 74.3076 41.8619C72.9791 41.7372 72.0734 40.428 72.1941 38.9317C72.3149 37.4354 73.4622 36.3132 74.7303 36.4379C75.9983 36.5626 76.9645 37.8718 76.8437 39.3681Z" fill="#0E80A4"/>
<path d="M74.7908 37.3107C74.7304 37.9342 74.2473 38.4329 73.7039 38.3706C73.1604 38.3082 72.7377 37.8095 72.7981 37.1237C72.8585 36.5002 73.3416 36.0015 73.885 36.0638C74.4285 36.1262 74.8512 36.6249 74.7908 37.3107Z" fill="white"/>
<path d="M60.6608 49.0317C60.6608 49.0317 62.6535 54.2063 70.0204 54.2063C77.3873 54.0816 78.0515 48.3459 78.0515 48.3459" stroke="#0E80A4" stroke-miterlimit="10"/>
<path d="M37.2316 24.7794C37.2316 24.0936 36.9297 23.4701 36.4466 23.0337C35.6012 22.2232 33.9708 21.5374 34.3935 20.1035C34.5143 19.6671 34.6955 19.293 34.5747 18.7942C34.4539 18.3578 34.152 18.1708 33.7293 18.1084C32.8235 17.9837 31.9782 18.6695 31.4951 19.4177C30.5893 20.8516 30.4685 22.9714 30.5893 23.2831C30.5289 23.2208 29.0193 22.2856 27.872 22.4726C27.3286 22.535 26.6643 22.909 26.4832 23.4701C26.302 23.8442 26.4832 24.4677 26.7247 24.7794C26.1209 24.9041 25.7586 25.6522 25.6378 26.2757C25.517 27.0862 25.8189 27.3979 26.2416 28.0213C25.7586 28.4578 25.8189 29.7047 26.0605 30.2658C26.302 30.7645 26.9663 31.2009 27.4493 31.4503C28.657 32.0738 29.7439 32.0738 31.2535 32.2608C32.5216 32.3855 35.2389 31.575 36.4466 30.8269C38.4997 29.3306 37.1712 25.2158 37.2316 24.7794Z" fill="#0E80A4"/>
<path d="M35.1784 29.8294C35.1784 29.8294 33.7292 31.1386 33.1857 31.575C32.8234 31.8244 32.0988 32.5725 31.7969 32.6972C30.8307 33.009 30.0457 33.5077 27.9323 32.5725C26.2415 31.8244 25.7584 29.8294 25.7584 29.8294L34.4538 29.2059L35.1784 29.8294Z" fill="#0E80A4"/>
<path d="M26.1812 30.8892C26.1812 31.0139 26.3623 31.0763 26.4227 31.1386C26.4831 31.2633 26.5435 31.388 26.6643 31.4503C26.785 31.575 26.785 31.8867 28.2946 32.5102C28.4758 32.5725 28.657 32.6349 28.7777 32.6972C29.14 32.8219 29.3212 32.8219 29.7439 32.8843C30.1062 32.8843 30.4081 32.8843 30.7704 32.8219C31.0723 32.7596 31.4346 32.6972 31.6762 32.5725C31.7969 32.5102 31.9177 32.4479 32.0385 32.3855C32.0989 32.3232 32.1592 32.3232 32.1592 32.2608C32.2196 32.1361 32.1592 31.8244 32.0989 31.6997C31.9781 31.3256 32.0989 31.2633 32.1592 31.388C32.2196 31.5127 32.3404 31.6374 32.3404 31.7621C32.4008 31.8867 32.4008 32.0114 32.4008 32.1985C32.4008 32.2608 32.3404 32.3855 32.3404 32.3855C32.28 32.4479 32.28 32.5102 32.2196 32.5725C32.0989 32.6349 31.9781 32.7596 31.8573 32.8219C31.5554 32.9466 31.2535 33.009 30.9516 33.0713C30.5893 33.1336 30.2873 33.196 29.925 33.196C29.5627 33.196 29.14 33.0713 28.7777 32.9466C28.5966 32.8843 28.4154 32.8219 28.2343 32.7596C28.0531 32.6972 27.872 32.6349 27.7512 32.5102C27.4493 32.3232 27.1473 32.1361 26.8454 31.9491C26.7247 31.8244 26.6039 31.6997 26.4831 31.6374C26.3623 31.5127 26.302 31.388 26.2416 31.2633C26.1812 31.1386 26.1208 31.0139 26.0604 30.8892C26.0604 30.7645 26.1208 30.8269 26.1812 30.8892Z" fill="white"/>
<path d="M30.4081 22.9713L30.5893 23.3454C30.5893 23.3454 30.227 23.2207 30.227 23.1584C30.1666 23.1584 29.9251 22.9713 29.8647 22.9713C29.2608 22.6596 28.8985 22.5973 28.8381 22.5973C28.0531 22.4726 27.7512 22.5349 27.5701 22.5973C27.0266 22.8467 26.8455 22.9713 26.7851 23.096C26.6039 23.2831 26.4832 23.5325 26.4832 23.6571C26.4832 23.8442 26.4228 24.0936 26.5435 24.53C26.6643 24.8417 26.7247 24.9041 26.7851 24.9664C26.7851 24.9664 26.8455 25.0911 27.2078 25.3405C27.5097 25.5275 27.6305 25.5899 27.6908 25.6522C27.9324 25.7769 28.1739 25.9016 28.3551 25.9639C28.5966 26.0263 29.3212 26.4003 30.5289 26.6497C30.7704 26.7121 31.012 26.7121 31.2535 26.7121C31.4951 26.7121 31.7366 26.7121 31.9178 26.6497C31.9781 26.6497 32.0385 26.5874 32.0989 26.5874C32.1593 26.5874 32.3404 26.525 32.4612 26.2757C32.5216 26.2133 32.582 26.0886 32.582 25.9639C32.582 25.8392 32.6424 25.7769 32.6424 25.6522C32.6424 25.4652 32.582 25.2781 32.5216 25.0911C32.4612 24.9041 32.3404 24.7794 32.2197 24.6547C32.0385 24.4676 31.6762 24.2806 31.6158 24.2806C31.5554 24.2183 31.3139 24.1559 31.2535 24.0936C31.2535 24.0936 30.6497 23.8442 30.5893 23.8442C30.4685 23.7818 30.4081 23.7818 30.4081 23.7818C30.1062 23.7195 30.1062 23.6571 30.4081 23.7195C30.4081 23.7195 30.6497 23.7818 31.4347 24.0936C31.4951 24.0936 31.5554 24.1559 31.6158 24.1559C31.6762 24.2183 31.7366 24.2183 31.797 24.2806C31.9178 24.3429 32.0989 24.4676 32.2197 24.5923C32.3404 24.717 32.4612 24.8417 32.582 25.0287C32.7027 25.2158 32.7631 25.4028 32.7631 25.6522C32.7631 25.7769 32.7631 25.9016 32.7027 25.9639C32.7027 26.0886 32.6424 26.2133 32.582 26.2757C32.3404 26.525 32.2197 26.5874 32.1593 26.5874C32.0989 26.5874 32.0385 26.6497 31.9781 26.6497C31.7366 26.7121 31.4951 26.7121 31.2535 26.7121C31.012 26.7121 30.7704 26.6497 30.5289 26.6497C30.2874 26.5874 30.0458 26.525 29.8043 26.4627C29.7439 26.4627 29.0797 26.2757 27.6305 25.6522C27.0266 25.2781 26.9058 25.2158 26.9058 25.1534L26.7247 24.9664C26.6643 24.8417 26.5435 24.7794 26.4832 24.6547C26.4832 24.5923 26.3624 24.3429 26.3624 24.3429C26.3624 24.3429 26.302 24.0312 26.302 23.9065C26.302 23.7818 26.302 23.6571 26.302 23.5325C26.302 23.4701 26.3624 23.2831 26.4228 23.1584C26.4832 23.0337 26.5435 22.9713 26.6643 22.8467C26.7247 22.7843 27.2078 22.2856 28.1135 22.2232C28.1135 22.2232 28.4758 22.2232 29.2005 22.4102C29.5024 22.5349 29.7439 22.5973 29.9855 22.722C29.9855 22.7843 30.4081 22.9713 30.4081 22.9713Z" fill="white" stroke="white" stroke-width="0.25" stroke-miterlimit="10"/>
<path d="M26.6039 24.6547L26.6643 24.9664C26.6643 24.9664 26.4832 24.9664 26.302 25.1534C26.1812 25.2781 26.0605 25.4028 26.0001 25.5898C25.9397 25.7145 25.9397 25.7769 25.8793 25.9016C25.8189 26.0263 25.8189 26.1509 25.8189 26.2756C25.8189 26.338 25.8189 26.4003 25.8189 26.4627C25.8189 26.525 25.8189 26.5874 25.8189 26.7121C25.8189 26.8367 25.8793 27.0238 25.9397 27.1485C26.0001 27.2732 26.0605 27.4602 26.1812 27.5849C26.6643 28.0837 27.1474 28.333 27.5097 28.4577C27.6908 28.5201 27.872 28.5824 28.0532 28.6448C28.1739 28.6448 28.5362 28.7071 28.5966 28.7695C28.9589 28.8318 29.3816 28.8941 29.7439 28.8941C29.8043 28.8941 30.2874 28.8941 30.2874 28.8941C30.4685 28.8941 30.6497 28.8941 30.8308 28.8941C30.8912 28.8941 31.5554 28.8318 31.6158 28.7695C31.6762 28.7695 31.9178 28.7071 32.2801 28.5201C32.4008 28.4577 32.5216 28.333 32.582 28.2083C32.6424 28.146 32.6424 28.0837 32.7028 28.0213C32.7631 27.8966 32.8235 27.5849 32.8235 27.4602C32.8235 27.3355 32.8235 27.2108 32.7631 27.1485C32.7631 27.0238 32.7028 26.9614 32.6424 26.8991C32.582 26.8367 32.582 26.7744 32.5216 26.7121C32.2801 26.5874 32.1593 26.5874 32.1593 26.5874C32.2197 26.5874 32.2801 26.525 32.2801 26.525C32.2801 26.525 32.4008 26.525 32.582 26.6497C32.6424 26.7121 32.7028 26.7744 32.7631 26.8367C32.8839 27.0238 32.8839 27.2108 32.8839 27.4602C32.8839 27.5849 32.8839 27.8343 32.7631 28.0837C32.7631 28.146 32.7028 28.2083 32.6424 28.2707C32.582 28.3954 32.4612 28.5201 32.2801 28.5824C31.8574 28.8318 31.6762 28.8318 31.5554 28.8318C31.4951 28.8318 31.3139 28.8941 31.3139 28.8941C31.2535 28.8941 30.8308 28.9565 30.7705 28.9565C30.5893 28.9565 30.4081 28.9565 30.227 29.0188H29.6835C29.3212 29.0188 28.8985 28.9565 28.5362 28.8941C28.4155 28.8941 28.0532 28.8318 27.9324 28.7695C27.7512 28.7071 27.5701 28.6448 27.3889 28.5824C26.0001 28.0213 26.0605 27.8343 25.9397 27.6472C25.8189 27.5225 25.7585 27.3355 25.6982 27.1485C25.6378 26.9614 25.5774 26.7744 25.5774 26.6497C25.5774 26.5874 25.5774 26.4627 25.5774 26.4003C25.5774 26.338 25.5774 26.2133 25.5774 26.1509C25.6378 25.8392 25.6982 25.5275 25.8189 25.3405C25.9397 25.0911 26.0605 24.904 26.1812 24.7794C26.3624 24.6547 26.6039 24.6547 26.6039 24.6547Z" fill="white" stroke="white" stroke-width="0.25" stroke-miterlimit="10"/>
<path d="M25.7585 29.58C25.7585 29.7047 25.8793 29.8917 25.9397 30.0788C26 30.2035 26.0604 30.3905 26.1812 30.5152C26.302 30.6399 26.302 31.0763 27.9927 31.7621C28.1739 31.8244 28.355 31.8868 28.5362 31.8868C28.9589 31.9491 29.2608 32.0115 29.7439 32.0115C30.1666 32.0115 30.5893 31.9491 30.9516 31.8244C31.3139 31.6997 31.7366 31.575 32.0385 31.388C32.2196 31.2633 32.3404 31.201 32.5216 31.0763C32.5819 31.0139 32.6423 30.9516 32.7027 30.8893C32.8235 30.7022 32.8235 30.2658 32.8235 30.1411C32.8235 29.9541 32.7631 29.8294 32.6423 29.7047C32.4612 29.3306 32.1593 29.2683 31.6158 29.1436C31.495 29.1436 31.4346 29.1436 31.3139 29.0812C31.1327 29.0812 31.0119 29.0812 30.8912 29.0812C30.7704 29.0812 30.5893 29.0812 30.5893 29.0812C30.5893 29.0812 30.7704 29.0189 30.8912 29.0189C31.0119 29.0189 31.1327 29.0189 31.3139 29.0189C31.4346 29.0189 31.495 29.0189 31.6158 29.0189C31.6762 29.0189 32.0385 29.0812 32.1593 29.1436C32.4612 29.2683 32.5819 29.4553 32.6423 29.58C32.7027 29.7047 32.7631 29.8917 32.8235 30.0788C32.8235 30.2658 32.8235 30.4528 32.8235 30.6399C32.8235 30.7646 32.7631 30.8893 32.7027 30.8893C32.6423 30.9516 32.5819 31.0763 32.5216 31.1386C32.4008 31.2633 32.2196 31.388 32.0385 31.5127C31.6762 31.6997 31.3139 31.8868 30.8912 32.0115C30.4685 32.1362 30.0458 32.1985 29.6231 32.1985C29.2004 32.1985 28.7777 32.1985 28.355 32.0738C28.1739 32.0115 27.9323 31.9491 27.7512 31.8868C27.57 31.8244 27.3889 31.7621 27.2077 31.6374C26.8454 31.4504 26.5435 31.2633 26.2416 31.0139C26.1208 30.8893 26 30.7646 25.8793 30.6399C25.7585 30.5152 25.6981 30.3281 25.6377 30.2035C25.5774 30.0788 25.517 29.8917 25.517 29.767C25.6377 29.5177 25.6981 29.4553 25.7585 29.58Z" fill="white" stroke="white" stroke-width="0.25" stroke-miterlimit="10"/>
</svg>
