<svg width="28" height="25" viewBox="0 0 28 25" fill="none" xmlns="http://www.w3.org/2000/svg">
<path d="M9.77834 18.2009C9.3242 17.4421 8.7102 16.874 8.02476 16.3498C7.3163 15.8073 6.54244 15.2477 5.69955 14.9667C4.91843 14.7076 3.95565 14.8103 3.1818 15.051C2.43337 15.2831 1.89567 15.7511 1.61229 16.5184C1.32769 17.2882 1.25987 18.0445 1.87751 18.6529C2.44306 19.2101 3.27989 19.573 4.04648 19.6341C4.27537 19.6524 4.87483 19.6927 5.03711 19.4862C5.22483 19.248 5.1667 18.5906 5.10736 18.3279C4.94144 17.5863 4.2015 16.9705 3.57418 17.5948C2.92869 18.2363 2.06037 17.0914 2.70101 16.4549C3.40584 15.7535 4.50062 15.7083 5.31565 16.2533C6.13432 16.8006 6.52912 17.7964 6.53033 18.7788C6.53033 19.7832 6.21788 20.669 5.23209 20.9573C4.28748 21.2335 3.25688 21.06 2.36192 20.6531C1.51662 20.267 0.696739 19.6671 0.264397 18.791C-0.181266 17.8881 -0.00203142 16.7835 0.349171 15.8867C1.12303 13.9122 3.2145 13.2683 5.12068 13.3893C6.3075 13.465 7.39986 14.1517 8.36506 14.8347C9.31209 15.5043 10.2446 16.2752 10.8574 17.3004C11.3309 18.0885 10.2543 18.9963 9.77834 18.2009Z" fill="#369CB7"/>
<path d="M25.581 12.8477L25.5792 12.8478C25.338 12.8683 24.9991 12.7162 24.6596 12.2343C24.3309 11.7676 24.0703 11.0745 23.9861 10.2665C23.9019 9.4579 24.0148 8.73673 24.2388 8.22844C24.4692 7.70588 24.7625 7.50736 24.9982 7.48708C25.2404 7.46745 25.5795 7.62057 25.9185 8.10161C26.2472 8.56799 26.5078 9.2604 26.5919 10.0683C26.6762 10.877 26.5633 11.5991 26.3392 12.1079C26.1084 12.6318 25.8152 12.8287 25.581 12.8477Z" stroke="#369CB7"/>
<path d="M18.4458 2.2885C18.1739 2.2401 17.9143 2.42125 17.8659 2.69311C17.8175 2.96498 17.9986 3.22461 18.2705 3.27302L18.4458 2.2885ZM10.3518 4.60937C9.84613 5.34255 9.44136 5.78793 8.99352 6.39085C8.5637 6.9695 8.17871 7.59347 7.85581 8.50559L8.79849 8.83931C9.08054 8.04256 9.41071 7.50622 9.79628 6.98714C10.1638 6.49231 10.6747 5.90252 11.175 5.17711L10.3518 4.60937ZM25.0758 6.95283C23.7074 4.63296 21.3293 2.80192 18.4458 2.2885L18.2705 3.27302C20.8418 3.73085 22.9809 5.36962 24.2145 7.46091L25.0758 6.95283Z" fill="#369CB7"/>
<path d="M18.4085 2.8931C18.3819 2.45303 16.4875 2.70804 15.8708 1.12909C15.7935 0.928392 15.7656 0.755505 15.7548 0.668457C15.5008 0.74946 14.9651 0.958616 14.4899 1.47244C14.0353 1.96329 13.8648 2.48317 13.7995 2.73706C13.6894 2.69232 13.4258 2.56659 13.2251 2.27643C12.9893 1.93549 12.9893 1.58246 12.9941 1.47244C12.7729 1.65742 11.7544 2.98258 11.5392 3.33803C11.324 3.69348 11.0004 4.49485 11.0004 4.49485L10.4617 5.29572" stroke="#369CB7"/>
<path d="M14.2561 6.75094L14.3795 7.23549L14.3796 7.23545L14.2561 6.75094ZM11.6816 11.2845L12.1781 11.2262L12.176 11.2083L12.1727 11.1906L11.6816 11.2845ZM17.2648 8.21234C17.383 8.46189 17.6811 8.56836 17.9307 8.45014C18.1802 8.33192 18.2867 8.03377 18.1685 7.78422L17.2648 8.21234ZM14.1328 6.2664C11.9611 6.81932 10.7545 9.09944 11.1905 11.3785L12.1727 11.1906C11.8173 9.33279 12.8119 7.63459 14.3795 7.23549L14.1328 6.2664ZM11.185 11.3428L11.3745 12.9578L12.3677 12.8412L12.1781 11.2262L11.185 11.3428ZM18.1685 7.78422C17.8107 7.02893 17.2306 6.52303 16.5048 6.27614C15.792 6.03367 14.974 6.05195 14.1326 6.26644L14.3796 7.23545C15.0933 7.05351 15.7046 7.06019 16.1828 7.22286C16.648 7.38111 17.0207 7.6971 17.2648 8.21234L18.1685 7.78422Z" fill="#369CB7"/>
<path d="M24.6275 7.09902C24.6275 7.09902 24.1329 7.18895 23.6832 8.17819C23.2336 9.16743 23.8765 11.3258 23.8765 11.3258L23.1437 8.9426C22.7513 6.86304 20.8783 5.01193 19.1707 5.45302C17.7962 5.80807 17.3716 6.65805 17.6335 7.7735" stroke="#369CB7"/>
<path d="M9.16996 16.3159C8.59229 16.4356 7.98556 16.129 7.46965 15.5168C6.95496 14.9059 6.53957 13.9993 6.34702 12.9375C6.15446 11.877 6.22349 10.869 6.48629 10.0968C6.75029 9.32335 7.20686 8.79551 7.78453 8.67455C8.36219 8.55481 8.96892 8.86149 9.48483 9.47363C9.99952 10.0845 10.4149 10.9911 10.6075 12.0517C10.8012 13.1123 10.7334 14.1203 10.4706 14.8937C10.2066 15.6695 9.75005 16.1974 9.16996 16.3159Z" stroke="#369CB7"/>
<path d="M21.485 15.7206C21.3712 15.8537 20.1674 17.21 18.0372 17.1807C16.5089 17.1599 15.081 16.4317 14.3132 15.2892C14.6063 15.5312 15.9372 16.5697 18.0093 16.6369C19.861 16.6993 21.1314 15.9466 21.485 15.7206Z" fill="#369CB7"/>
<path d="M17.6982 13.9552C17.8024 14.009 18.1899 14.191 18.6804 14.0823C19.1721 13.9735 19.447 13.6436 19.5221 13.5508C19.2678 13.6473 18.965 13.7438 18.6235 13.8196C18.2856 13.8941 17.9707 13.9332 17.6982 13.9552Z" fill="#369CB7"/>
<path d="M25.9099 12.1568C25.9886 12.1141 26.0952 12.1703 26.1025 12.2888L26.5312 20.3126C26.5336 20.381 26.4997 20.4433 26.4476 20.469L19.3812 24.016L19.38 24.0172C19.3533 24.0319 19.3194 24.0343 19.2904 24.0233H19.2892L11.794 21.4611H11.7928C11.7407 21.444 11.6996 21.3891 11.6947 21.317L11.266 13.2895C11.2624 13.232 11.2854 13.1819 11.3205 13.1514C11.3544 13.1209 11.398 13.1099 11.4416 13.1257H11.4428L18.9113 15.749H18.9125C18.9694 15.7686 19.0312 15.7649 19.0845 15.7368L25.9099 12.1568Z" fill="white" stroke="#369CB7"/>
<path d="M19.1396 23.1479L18.7715 15.977L19.314 15.8169L19.6289 22.8547L19.1396 23.1479Z" fill="#369CB7"/>
<path d="M13.6734 19.2946C13.6855 19.9055 12.891 20.4126 11.9004 20.4309C10.9122 20.4493 10.0996 19.9691 10.0875 19.3582C10.079 18.7473 10.8698 18.2402 11.8604 18.2219C12.8523 18.2048 13.6637 18.6849 13.6734 19.2946Z" fill="#369CB7"/>
<path d="M12.9782 19.3071C12.9842 19.6786 12.4986 19.9901 11.8931 20.0024C11.2876 20.0146 10.7934 19.7177 10.785 19.3462C10.7789 18.9748 11.2645 18.6632 11.8689 18.651C12.4744 18.6424 12.9685 18.9357 12.9782 19.3071Z" fill="white"/>
<path d="M13.9475 17.9838C13.9596 18.6973 13.0343 19.2887 11.8802 19.3107C10.7237 19.3314 9.78028 18.7694 9.76574 18.0595C9.75363 17.3496 10.6789 16.7546 11.833 16.7326C12.9895 16.7118 13.9354 17.2739 13.9475 17.9838Z" fill="#369CB7"/>
<path d="M13.1367 17.9997C13.1428 18.4346 12.5796 18.7975 11.8724 18.8097C11.1651 18.822 10.5874 18.4798 10.5814 18.0449C10.5729 17.6099 11.1385 17.247 11.8457 17.2348C12.5493 17.2226 13.127 17.5635 13.1367 17.9997Z" fill="white"/>
<path d="M13.3317 16.7901C13.3439 17.3998 12.5494 17.9081 11.5588 17.9265C10.5706 17.9448 9.75796 17.4646 9.74585 16.8537C9.74585 16.8268 9.74585 16.7987 9.74948 16.7718C9.80882 16.2012 10.573 15.7357 11.5164 15.7174C12.5107 15.7003 13.3196 16.1804 13.3317 16.7901Z" fill="#369CB7"/>
<path d="M12.6327 16.8023C12.6387 17.1737 12.1531 17.4853 11.5488 17.4975C11.0971 17.5061 10.5279 17.2739 10.4492 16.9208C10.4455 16.9025 10.4407 16.878 10.4407 16.8426C10.4467 16.4956 11.028 16.1572 11.5246 16.1474C12.1325 16.1376 12.6266 16.4309 12.6327 16.8023Z" fill="white"/>
<path d="M11.2035 14.7202C11.0061 14.8142 10.3679 15.1075 10.0263 15.7441C9.7805 16.1998 9.7478 16.6299 9.7478 16.8535C10.2237 16.4943 10.6973 16.1338 11.1744 15.7722C11.1502 15.4252 11.2253 15.0708 11.2035 14.7202Z" fill="#369CB7"/>
<path d="M10.9942 16.3796C10.8211 16.5848 10.6467 16.7877 10.4735 16.9905C10.4493 16.9184 10.3027 16.437 10.4917 15.936C10.6503 15.5096 10.9446 15.3557 11.0124 15.3251C10.7823 15.7186 10.7254 16.1108 10.8392 16.283C10.8659 16.3197 10.907 16.3612 10.9942 16.3796Z" fill="white"/>
<path d="M24.2107 17.5279C24.253 18.1376 25.085 18.5763 26.0745 18.5103C27.0627 18.4443 27.8305 17.8933 27.7881 17.286C27.7457 16.6788 26.9137 16.2377 25.9279 16.3037C24.9385 16.3696 24.1683 16.917 24.2107 17.5279Z" fill="#369CB7"/>
<path d="M24.9039 17.4794C24.9281 17.8509 25.4368 18.1197 26.0423 18.0781C26.6442 18.039 27.1152 17.703 27.091 17.3316C27.0668 16.9601 26.5582 16.6913 25.9526 16.7329C25.3471 16.772 24.8809 17.108 24.9039 17.4794Z" fill="white"/>
<path d="M23.826 16.2437C23.8744 16.9535 24.8445 17.4679 25.9974 17.3885C27.1503 17.3103 28.0465 16.6689 27.998 15.959C27.9508 15.2491 26.9771 14.7347 25.8266 14.8141C24.6737 14.896 23.7788 15.5338 23.826 16.2437Z" fill="#369CB7"/>
<path d="M24.6352 16.1893C24.6655 16.6243 25.2577 16.9358 25.9625 16.887C26.6661 16.8381 27.2147 16.4483 27.1845 16.0133C27.1542 15.5784 26.562 15.2668 25.8572 15.3157C25.1535 15.3645 24.6086 15.7543 24.6352 16.1893Z" fill="white"/>
<path d="M24.2209 15.0016C24.2633 15.6125 25.0953 16.0499 26.0811 15.9839C27.0693 15.918 27.8359 15.3681 27.7947 14.7609C27.7947 14.734 27.7887 14.7059 27.7862 14.679C27.6784 14.1133 26.8792 13.7187 25.9345 13.7822C24.9451 13.8445 24.1785 14.3919 24.2209 15.0016Z" fill="#369CB7"/>
<path d="M24.9151 14.9539C24.9393 15.3254 25.448 15.5942 26.0535 15.5526C26.5052 15.5221 27.0514 15.2447 27.0986 14.8843C27.1023 14.866 27.1047 14.8415 27.1023 14.8061C27.0659 14.4616 26.458 14.172 25.9639 14.2074C25.3584 14.2465 24.8921 14.5813 24.9151 14.9539Z" fill="white"/>
<path d="M26.2051 12.748C26.4049 12.814 27.008 13.0425 27.4234 13.6741C27.708 14.1079 27.7758 14.5343 27.7952 14.7555C27.2926 14.4378 26.7888 14.1177 26.285 13.8C26.2608 13.6375 26.239 13.4628 26.2257 13.277C26.2099 13.0901 26.2051 12.9129 26.2051 12.748Z" fill="#369CB7"/>
<path d="M26.5131 14.3915C26.702 14.5785 26.8933 14.7691 27.0822 14.9572C27.1004 14.8852 27.2046 14.3915 26.9745 13.9089C26.7795 13.4984 26.4743 13.3713 26.4053 13.3444C26.6693 13.7159 26.7589 14.1032 26.6572 14.284C26.6354 14.3182 26.5966 14.3671 26.5131 14.3915Z" fill="white"/>
<path d="M15.8497 11.6521L15.8497 11.6521L15.8501 11.6549C15.9047 12.0719 15.6455 12.3518 15.3994 12.3846C15.1574 12.4168 14.8374 12.2163 14.7842 11.7992L14.7842 11.7992L14.784 11.7974C14.7294 11.3804 14.9886 11.1005 15.2347 11.0678L15.2349 11.0677C15.4759 11.0355 15.7976 11.2365 15.8497 11.6521Z" fill="#369CB7" stroke="#369CB7"/>
<path d="M15.3704 11.0232C15.4266 11.3945 15.1662 11.7287 14.8009 11.7709C14.4301 11.813 14.0873 11.5498 14.0367 11.1784C13.9805 10.8071 14.2409 10.473 14.6061 10.4308C14.977 10.3886 15.3198 10.6519 15.3704 11.0232Z" fill="white"/>
<path d="M20.0848 10.707L20.0848 10.707L20.0846 10.7051C20.0299 10.2878 20.2893 10.0084 20.5324 9.97551C20.7749 9.9442 21.0952 10.1453 21.1505 10.5629C21.2034 10.9826 20.9443 11.261 20.7 11.2935C20.4583 11.3256 20.138 11.1255 20.0848 10.707Z" fill="#369CB7" stroke="#369CB7"/>
<path d="M20.3167 9.94395C20.3729 10.3153 20.1125 10.6494 19.7472 10.6916C19.3763 10.7338 19.0336 10.4705 18.983 10.0992C18.9268 9.72792 19.1872 9.39374 19.5524 9.35155C19.9233 9.30935 20.2661 9.57264 20.3167 9.94395Z" fill="white"/>
<path d="M11.9475 12.5147V12.8813L12.3714 13.0034L12.1897 12.6369L11.9475 12.5147Z" fill="white"/>
<path d="M11.9709 12.6809L15.575 14.0359L18.7273 15.2382L12.1175 12.8178L11.9709 12.6809Z" fill="#369CB7"/>
<path d="M23.9967 12.3314L20.1213 14.7139L23.0884 13.1866L25.5105 11.9648L25.3288 11.5983L23.9967 12.3314Z" fill="#369CB7"/>
<path d="M25.3001 11.7914L21.9237 13.6486L18.9712 15.2895L25.1741 11.949L25.3001 11.7914Z" fill="#369CB7"/>
</svg>
