<svg width="24" height="24" viewBox="0 0 24 24" fill="none" xmlns="http://www.w3.org/2000/svg">
<rect x="0.5" y="0.5" width="19.4444" height="23" rx="1.5" stroke="#A1A9AA"/>
<line x1="2.66675" y1="4.5" x2="17.7779" y2="4.5" stroke="#A1A9AA"/>
<line x1="2.66675" y1="8.94434" x2="17.7779" y2="8.94434" stroke="#A1A9AA"/>
<path d="M23.8783 23.286L20.4761 19.8838C21.3887 18.8346 21.9412 17.4656 21.9412 15.9694C21.9412 12.6758 19.2623 10 15.9718 10C12.6783 10 10.0024 12.6789 10.0024 15.9694C10.0024 19.2599 12.6814 21.9388 15.9718 21.9388C17.4681 21.9388 18.837 21.3863 19.8863 20.4736L23.2885 23.8758C23.3692 23.9565 23.4778 24 23.5834 24C23.6889 24 23.7976 23.9596 23.8783 23.8758C24.0397 23.7144 24.0397 23.4475 23.8783 23.286ZM10.8375 15.9694C10.8375 13.1384 13.1408 10.8381 15.9687 10.8381C18.7998 10.8381 21.1 13.1415 21.1 15.9694C21.1 18.7973 18.7998 21.1038 15.9687 21.1038C13.1408 21.1038 10.8375 18.8004 10.8375 15.9694Z" fill="#767979"/>
<path d="M4 16.337C5 17.4997 6 20.7791 6 20.5C7.6 15.7561 7.5 13.5 9 11" stroke="#A1A9AA" stroke-linecap="round"/>
</svg>
