<svg width="20" height="20" viewBox="0 0 20 20" fill="none" xmlns="http://www.w3.org/2000/svg">
<path d="M10 0C4.48602 0 0 4.48602 0 10C0 15.514 4.48602 20 10 20C15.514 20 20 15.514 20 10C20 4.48602 15.5141 0 10 0ZM10 18.7211C5.1912 18.7211 1.27892 14.8089 1.27892 10C1.27892 5.19113 5.1912 1.27892 10 1.27892C14.8088 1.27892 18.7211 5.1912 18.7211 10C18.7211 14.8088 14.8088 18.7211 10 18.7211Z" fill="#369CB7"/>
<path d="M9.99996 4.64133C8.1525 4.64133 6.64941 6.14434 6.64941 7.99188C6.64941 8.34507 6.93568 8.63134 7.28887 8.63134C7.64207 8.63134 7.92833 8.34507 7.92833 7.99188C7.92833 6.84959 8.85768 5.92024 9.99996 5.92024C11.1422 5.92024 12.0716 6.84959 12.0716 7.99188C12.0716 9.13417 11.1422 10.0635 9.99996 10.0635C9.64677 10.0635 9.3605 10.3498 9.3605 10.703V13.1614C9.3605 13.5146 9.64677 13.8009 9.99996 13.8009C10.3532 13.8009 10.6394 13.5146 10.6394 13.1614V11.2813C12.1821 10.9818 13.3505 9.62072 13.3505 7.99188C13.3505 6.14434 11.8475 4.64133 9.99996 4.64133Z" fill="#369CB7"/>
<path d="M10.0001 14.7902C9.83166 14.7902 9.66683 14.8584 9.54817 14.9771C9.4288 15.0964 9.3606 15.2613 9.3606 15.4297C9.3606 15.598 9.4288 15.7628 9.54817 15.8815C9.66683 16.0009 9.83166 16.0691 10.0001 16.0691C10.1684 16.0691 10.3333 16.0009 10.4519 15.8815C10.5713 15.7628 10.6395 15.598 10.6395 15.4297C10.6395 15.2613 10.5713 15.0964 10.4519 14.9771C10.3333 14.8584 10.1684 14.7902 10.0001 14.7902Z" fill="#369CB7"/>
</svg>
