<svg width="25" height="25" viewBox="0 0 25 25" fill="none" xmlns="http://www.w3.org/2000/svg">
<path d="M7.07347 23.4714C7.07347 23.7911 6.98161 24.0615 6.85834 24.2387C6.73334 24.4184 6.61084 24.4622 6.53618 24.4622H2.24872C2.17406 24.4622 2.05156 24.4184 1.92656 24.2387C1.80329 24.0615 1.71143 23.7911 1.71143 23.4714V16.7131C1.71143 16.3934 1.80329 16.1229 1.92656 15.9458C2.05156 15.7661 2.17406 15.7223 2.24872 15.7223H6.53618C6.61084 15.7223 6.73334 15.7661 6.85834 15.9458C6.98161 16.1229 7.07347 16.3934 7.07347 16.7131V23.4714Z" stroke="#A1A9AA"/>
<path d="M15.614 23.4738C15.614 23.7927 15.5222 24.0623 15.3991 24.239C15.2743 24.4181 15.1517 24.4621 15.0767 24.4621H10.7892C10.7142 24.4621 10.5917 24.4181 10.4669 24.239C10.3437 24.0623 10.252 23.7927 10.252 23.4738V13.155C10.252 12.8362 10.3437 12.5665 10.4669 12.3898C10.5917 12.2107 10.7142 12.1667 10.7892 12.1667H15.0767C15.1517 12.1667 15.2743 12.2107 15.3991 12.3898C15.5222 12.5665 15.614 12.8362 15.614 13.155V23.4738Z" stroke="#A1A9AA"/>
<path d="M24.5 23.4675C24.5 23.8038 24.408 24.0882 24.2851 24.2739C24.1591 24.4642 24.0424 24.5 23.9856 24.5H19.7923C19.7355 24.5 19.6187 24.4642 19.4928 24.2739C19.3699 24.0882 19.2778 23.8038 19.2778 23.4675V8.75485C19.2778 8.41848 19.3699 8.13414 19.4928 7.94847C19.6187 7.75816 19.7355 7.72229 19.7923 7.72229H23.9856C24.0424 7.72229 24.1591 7.75816 24.2851 7.94847C24.408 8.13414 24.5 8.41848 24.5 8.75485V23.4675Z" stroke="#A1A9AA"/>
<path d="M1 13C1 13 8.1111 11.6667 11.6666 9C15.2222 6.33334 19.6666 1.44446 19.6666 1.44446" stroke="#A1A9AA" stroke-linecap="round"/>
<path d="M16.4934 0.948305C16.2194 0.982556 16.025 1.23245 16.0593 1.50646C16.0935 1.78047 16.3434 1.97483 16.6174 1.94058L16.4934 0.948305ZM20.111 1L20.6059 1.07071L20.6985 0.422665L20.049 0.503861L20.111 1ZM19.1716 4.0404C19.1325 4.31376 19.3224 4.56703 19.5958 4.60608C19.8692 4.64513 20.1224 4.45518 20.1615 4.18182L19.1716 4.0404ZM16.6174 1.94058L20.173 1.49614L20.049 0.503861L16.4934 0.948305L16.6174 1.94058ZM19.616 0.929289L19.1716 4.0404L20.1615 4.18182L20.6059 1.07071L19.616 0.929289Z" fill="#A1A9AA"/>
</svg>
