<svg width="20" height="20" viewBox="0 0 20 20" fill="none" xmlns="http://www.w3.org/2000/svg">
<path d="M14.7463 9.58936L14.5895 9.81393L14.6943 10.067L17.6161 17.1207L15.2251 16.4279L14.8409 16.3165L14.648 16.6669L13.4472 18.8475L10.765 12.3721L10.6304 12.0473L10.2792 12.064C10.186 12.0685 10.0931 12.0709 10.0001 12.0709C9.90721 12.0709 9.81423 12.0685 9.7211 12.064L9.36988 12.0473L9.23532 12.3721L6.55307 18.8475L5.35232 16.6669L5.15937 16.3165L4.77517 16.4279L2.38422 17.1207L5.30597 10.067L5.41079 9.81388L5.25395 9.58931C4.59909 8.65169 4.21471 7.51314 4.21471 6.28539C4.21471 3.09578 6.81052 0.5 10.0001 0.5C13.1898 0.5 15.7855 3.09577 15.7856 6.28544C15.7856 7.51318 15.4012 8.65173 14.7463 9.58936ZM6.01655 17.3091L6.51837 18.2204L6.91647 17.2593L8.86451 12.5562L9.08371 12.027L8.52973 11.8813C7.61914 11.6419 6.7948 11.1853 6.11617 10.5694L5.59008 10.092L5.31822 10.7483L3.25031 15.7407L2.85219 16.7018L3.85141 16.4123L5.2927 15.9946L6.01655 17.3091ZM13.9837 17.3091L14.7075 15.9946L16.1488 16.4123L17.148 16.7019L16.7499 15.7407L14.682 10.7484L14.4101 10.092L13.884 10.5695C13.2054 11.1853 12.3811 11.6419 11.4705 11.8814L10.9165 12.027L11.1357 12.5563L13.0837 17.2593L13.4818 18.2204L13.9837 17.3091Z" stroke="#A1A9AA"/>
<path d="M7.18311 6.28532C7.18311 4.73238 8.44733 3.46814 10.0003 3.46814C11.5533 3.46814 12.8176 4.73238 12.8176 6.28532C12.8176 7.83828 11.5533 9.10255 10.0003 9.10255C8.44734 9.10255 7.18311 7.83828 7.18311 6.28532Z" stroke="#A1A9AA"/>
</svg>
