<svg width="18" height="15" fill="none" xmlns="http://www.w3.org/2000/svg"><g clip-path="url(#clip0)"><path d="M9.639 2.49h0a3.805 3.805 0 012.737-1.175c1.024 0 2.009.421 2.738 1.176h0a4.114 4.114 0 011.142 2.858 4.114 4.114 0 01-1.143 2.858h0L9.158 14.37a.158.158 0 01-.233 0L2.97 8.207c-1.523-1.577-1.523-4.14 0-5.716a3.775 3.775 0 015.474 0l.238.246.36.372.36-.372.237-.246z" stroke="#C4C4C4"/></g><defs><clipPath id="clip0"><path fill="#fff" transform="translate(.857 .817)" d="M0 0h16.286v14.107H0z"/></clipPath></defs></svg>