<svg width="18" height="19" fill="none" xmlns="http://www.w3.org/2000/svg"><path d="M6.776 16.28a841.222 841.222 0 01-4.203-.017c-1.032-.018-1.88-1.137-1.465-2.103.239-.557.844-.945 1.485-.95h.964c0-1.545-.005-3.09 0-4.636.02-1.96 1.295-3.85 3.191-4.673l.018-.008c0-.518-.024-1.079.141-1.501C7.23 1.566 8.077.995 9.041 1c1.17.02 2.21.984 2.219 2.136v.757l.11.049c1.845.84 3.093 2.702 3.1 4.663v4.606c.548 0 1.123-.073 1.605.127.926.386 1.254 1.702.532 2.439a1.67 1.67 0 01-1.154.486 1036.8 1036.8 0 01-4.173.018c-.02.213-.12.452-.206.628-.313.637-1.014 1.075-1.773 1.089-.423.002-.847.02-1.233-.115-.701-.244-1.217-.887-1.292-1.602zm3.803.136H7.447c.143.543.683.96 1.286.971.339.003.676.033.989-.072.419-.14.749-.487.857-.899zM8.993 1.611c-.834.014-1.58.7-1.585 1.527v.957c-.018.254-.108.242-.368.35-1.665.71-2.824 2.355-2.84 4.132v4.939s-.068.29-.321.305c-.874 0-1.9-.122-2.185.59-.215.54.24 1.222.876 1.242 4.295.077 8.593.077 12.888 0 .725-.022 1.232-.989.672-1.548a1.002 1.002 0 00-.698-.284h-1.283c-.173-.01-.305-.083-.32-.305 0-1.646.005-3.293 0-4.939-.018-1.788-1.216-3.51-3.01-4.199 0 0-.186-.072-.2-.283 0-.698.063-1.443-.376-1.94a1.606 1.606 0 00-1.249-.544z" fill="#fff" stroke="#fff" stroke-width=".5"/></svg>