<svg width="59" height="59" fill="none" xmlns="http://www.w3.org/2000/svg"><path d="M13.8 35.128c-1.312 0-2.315-.49-3.008-1.472-.683-.981-1.024-2.41-1.024-4.288 0-1.888.341-3.323 1.024-4.304.693-.981 1.696-1.472 3.008-1.472s2.31.49 2.992 1.472c.693.97 1.04 2.4 1.04 4.288 0 1.888-.347 3.323-1.04 4.304-.683.981-1.68 1.472-2.992 1.472zm0-1.328c.821 0 1.424-.357 1.808-1.072.384-.715.576-1.84.576-3.376 0-1.536-.192-2.656-.576-3.36-.384-.715-.987-1.072-1.808-1.072-.821 0-1.424.357-1.808 1.072-.384.704-.576 1.824-.576 3.36 0 1.525.192 2.65.576 3.376.384.715.987 1.072 1.808 1.072zm9.594 1.328c-1.312 0-2.315-.49-3.008-1.472-.683-.981-1.024-2.41-1.024-4.288 0-1.888.341-3.323 1.024-4.304.693-.981 1.696-1.472 3.008-1.472s2.31.49 2.992 1.472c.693.97 1.04 2.4 1.04 4.288 0 1.888-.347 3.323-1.04 4.304-.683.981-1.68 1.472-2.992 1.472zm0-1.328c.821 0 1.424-.357 1.808-1.072.384-.715.576-1.84.576-3.376 0-1.536-.192-2.656-.576-3.36-.384-.715-.987-1.072-1.808-1.072-.822 0-1.424.357-1.808 1.072-.384.704-.576 1.824-.576 3.36 0 1.525.192 2.65.576 3.376.384.715.986 1.072 1.808 1.072zm6.698-4.704a1.03 1.03 0 01-.736-.288.997.997 0 01-.289-.736c0-.299.096-.544.288-.736.203-.203.448-.304.736-.304a.95.95 0 01.72.304.997.997 0 01.288.736.997.997 0 01-.288.736.977.977 0 01-.72.288zm0 5.984a1.03 1.03 0 01-.736-.288.997.997 0 01-.289-.736c0-.299.096-.544.288-.736.203-.203.448-.304.736-.304a.95.95 0 01.72.304.997.997 0 01.288.736.997.997 0 01-.288.736.977.977 0 01-.72.288zm6.708.048c-1.312 0-2.315-.49-3.008-1.472-.683-.981-1.024-2.41-1.024-4.288 0-1.888.341-3.323 1.024-4.304.693-.981 1.696-1.472 3.008-1.472s2.31.49 2.992 1.472c.693.97 1.04 2.4 1.04 4.288 0 1.888-.347 3.323-1.04 4.304-.683.981-1.68 1.472-2.992 1.472zm0-1.328c.821 0 1.424-.357 1.808-1.072.384-.715.576-1.84.576-3.376 0-1.536-.192-2.656-.576-3.36-.384-.715-.987-1.072-1.808-1.072-.821 0-1.424.357-1.808 1.072-.384.704-.576 1.824-.576 3.36 0 1.525.192 2.65.576 3.376.384.715.987 1.072 1.808 1.072zm12.73-.16c.256 0 .448.059.576.176.128.117.192.283.192.496 0 .459-.256.688-.768.688h-5.344c-.523 0-.784-.23-.784-.688 0-.213.064-.379.192-.496.138-.117.336-.176.592-.176h1.84v-7.984l-1.648 1.04a.618.618 0 01-.32.096c-.182 0-.342-.08-.48-.24a.848.848 0 01-.192-.544c0-.245.106-.437.32-.576l2.464-1.568c.245-.15.48-.224.704-.224a.78.78 0 01.576.224c.15.15.224.352.224.608v9.168h1.856z" fill="#633A2F"/><path d="M54.332 29.657c0 13.714-11.118 24.832-24.832 24.832S4.668 43.37 4.668 29.657 15.786 4.825 29.5 4.825s24.832 11.118 24.832 24.832z" fill="#fff" stroke="#9DD765"/><path d="M29.5 0a29.5 29.5 0 0126.377 42.71L29.5 29.5V0z" fill="#9DD765" fill-opacity=".8"/><path d="M9.11 27.803H5.405v2.472H9.11v-2.472zm43.868 0h-3.707v2.472h3.707v-2.472zM30.427 8.959V5.252h-2.472v3.707h2.472zm0 43.867V49.12h-2.472v3.707h2.472z" fill="#9DD765"/></svg>