<svg width="86" height="57" fill="none" xmlns="http://www.w3.org/2000/svg"><g clip-path="url(#clip0)"><path d="M52.22 40.32s7.412 13.725 2.23 15.976c-5.182 2.25-4.311-16.24-4.311-16.24" fill="url(#paint0_linear)"/><path opacity=".4" d="M52.22 40.32s5.448 13.858 1.625 14.446c-3.559.56-3.721-14.725-3.721-14.725" fill="#5E003F"/><path d="M51.88 40.497s.075.118.193.353c.118.236.31.574.531 1 .222.442.488.971.768 1.59a41.536 41.536 0 011.816 4.648c.28.912.546 1.883.709 2.912.074.515.133 1.03.147 1.56 0 .53-.03 1.059-.147 1.574-.06.25-.148.5-.266.735a3.179 3.179 0 01-.428.633c-.177.19-.37.353-.606.47l-.177.089-.044.014h-.015c-.015 0 0 0 0 0l-.03.015-.103.044-.103.044c-.03.015-.06.015-.089.03l-.177.044a1.28 1.28 0 01-.709-.059 1.645 1.645 0 01-.605-.412 3.26 3.26 0 01-.472-.618 6.522 6.522 0 01-.355-.72c-.206-.5-.369-1.015-.502-1.53a19.164 19.164 0 01-.324-1.545c-.178-1.03-.266-2.03-.355-2.986a46.006 46.006 0 01-.133-2.707c-.03-.838-.03-1.603-.014-2.294 0-.677.014-1.28.03-1.766.014-.485.029-.868.044-1.133.014-.264.029-.397.029-.397a.393.393 0 00-.782-.044v.015s0 .147-.015.412v1.147c0 .986.015 2.398.088 4.09.074 1.691.222 3.663.59 5.766.09.53.208 1.06.34 1.589.148.53.296 1.074.532 1.588.103.265.236.515.384.78.148.25.325.5.546.706.222.22.473.397.783.515.31.118.634.133.944.074.074-.015.163-.03.237-.06.044-.014.074-.014.118-.029l.103-.044.104-.044.03-.015.029-.014h.014l.045-.03c.074-.03.133-.059.206-.103a2.97 2.97 0 00.724-.559c.206-.22.384-.47.517-.735.132-.265.221-.545.295-.824.147-.559.177-1.133.177-1.692a14.63 14.63 0 00-.133-1.633 16.816 16.816 0 00-.31-1.544c-.118-.5-.251-.986-.384-1.456-.28-.942-.576-1.81-.87-2.604a52.365 52.365 0 00-1.595-3.78c-.207-.442-.37-.795-.488-1.045-.118-.235-.177-.368-.177-.368-.088-.191-.325-.265-.517-.176a.387.387 0 00-.177.514c.015 0 .03 0 .03.015z" fill="#440B1A"/><path d="M52.324 49.574c-.207-.78-.207-1.648-.295-2.457-.089-.912-.207-1.81-.296-2.722a80.68 80.68 0 00-.324-2.72c-.104-.795-.414-1.752-.251-2.56.044-.221.31-.295.428-.089.398.706.369 1.721.472 2.516.118.912.192 1.824.266 2.736.074.853.103 1.706.103 2.56.015.882.089 1.853-.088 2.736 0 .014-.015.014-.015 0z" fill="#440B1A"/><path d="M49.666 41.1s-12.52 14.858-19.872 11.357c0 0-2.422-1.471 1.092-4.84 3.514-3.383 13.007-6.855 16.61-7.267" fill="url(#paint1_linear)"/><path opacity=".4" d="M33.027 52.56c2.584-.677 4.68-1.854 6.363-3.943 1.492-1.838 2.156-4.222 1.58-6.487 2.613-.97 5.05-1.648 6.511-1.81l2.17.75S38.55 54.252 31.108 52.855a8.54 8.54 0 001.92-.294z" fill="#5E003F"/><path d="M29.72 52.618c-.532-.544-.768-1.588-.68-2.22a.416.416 0 000-.192.248.248 0 00.03-.074c.517-1.235 1.536-2.28 2.554-3.103 1.093-.898 2.318-1.619 3.514-2.325 1.358-.809 2.924-1.647 4.489-1.941.103-.015.132.103.059.161-1.182.721-2.422 1.324-3.588 2.06-1.107.706-2.215 1.397-3.263 2.177-.945.691-1.83 1.5-2.45 2.5a4.408 4.408 0 00-.636 1.854c-.044.353.045.75-.03 1.103z" fill="#FDFFC9"/><path d="M49.37 40.85c-.31.383-.649.75-.974 1.133-.34.368-.664.736-1.019 1.104a57.564 57.564 0 01-4.325 4.148 40.395 40.395 0 01-2.333 1.868c-.399.294-.812.588-1.226.853-.413.28-.826.545-1.27.795-.855.5-1.741.941-2.672 1.294-.915.353-1.875.603-2.849.677-.487.03-.974.014-1.447-.059a5.126 5.126 0 01-1.373-.427l.03.015c-.03-.015-.074-.059-.118-.088-.045-.03-.074-.074-.119-.118a1.693 1.693 0 01-.206-.25 1.663 1.663 0 01-.236-.603c-.074-.427.03-.883.221-1.31.192-.426.473-.823.768-1.206.31-.367.65-.72 1.018-1.059l.133-.132.133-.118c.089-.073.177-.161.28-.235.193-.147.385-.294.591-.441.399-.295.812-.56 1.24-.81.429-.25.857-.5 1.285-.735.443-.235.886-.456 1.329-.677.443-.22.9-.426 1.358-.632.458-.206.915-.397 1.373-.589.458-.19.93-.367 1.388-.544.472-.176.93-.353 1.402-.515.473-.161.945-.323 1.418-.456.472-.147.96-.28 1.432-.412.472-.132.96-.25 1.447-.353.487-.103.96-.19 1.447-.235a.375.375 0 00.34-.427.376.376 0 00-.429-.338h-.015c-.517.074-1.019.177-1.52.294-.502.118-.99.25-1.477.397-.487.148-.974.295-1.447.456-.472.162-.96.324-1.432.5l-1.417.53c-.473.191-.93.368-1.403.574a28.6 28.6 0 00-1.387.618c-.458.206-.916.426-1.359.647-.443.235-.9.456-1.343.706-.443.235-.886.5-1.314.765-.428.265-.857.544-1.27.839-.207.147-.413.308-.605.456-.104.073-.192.161-.296.25l-.147.117-.133.133a8.51 8.51 0 00-1.063 1.118 6.12 6.12 0 00-.842 1.323c-.103.25-.192.5-.236.765a2.573 2.573 0 00-.015.824c.045.28.148.544.296.795.073.117.162.235.265.338.045.059.104.103.148.147.059.044.103.088.177.132h.03c.472.221.989.383 1.506.471a6.981 6.981 0 001.565.074c1.033-.074 2.052-.339 3.011-.692.96-.367 1.875-.824 2.747-1.324a29.173 29.173 0 002.554-1.662 37.095 37.095 0 002.391-1.868 59.478 59.478 0 002.274-2 73.496 73.496 0 002.17-2.119c.355-.368.71-.72 1.049-1.089.34-.367.694-.735 1.018-1.117a.392.392 0 00-.044-.545c-.162-.147-.325-.147-.472.03 0-.015 0 0 0 0z" fill="#440B1A"/><path d="M37.78 47.264c.798-.736 1.831-1.31 2.761-1.898 1.004-.632 2.008-1.28 3.027-1.883.99-.588 1.993-1.176 2.982-1.794.916-.56 1.802-1.456 2.85-1.765.089-.03.192.088.148.176-.384.853-1.315 1.339-2.082 1.839-1.034.662-2.097 1.265-3.16 1.883a105.37 105.37 0 01-3.1 1.75c-1.078.603-2.215 1.339-3.396 1.736-.03.015-.059-.015-.03-.044z" fill="#440B1A"/><path d="M65.287 9.606c-.06-.28-9.892-7.914-12.668-9.209 0 0-14.01 12.15-28.612 15.255" fill="url(#paint2_linear)"/><path opacity=".4" d="M40.956 8.605c.073.03.162.045.236.06 3.47.823 7.087.735 10.6.485 5.788-.412 10.055-2.34 9.936-2.427 2.008 1.544 3.53 2.78 3.559 2.883l-41.28 6.046c6.068-1.295 12.047-4.149 16.949-7.047z" fill="#5E003F"/><path d="M52.59.441c.428.236.841.5 1.255.75a57.42 57.42 0 012.82 1.825A57.723 57.723 0 0159.367 5c.693.545 1.742 1.192 2.14 1.986a.033.033 0 01-.044.044c-.871-.19-1.742-.985-2.48-1.485-.93-.633-1.86-1.236-2.805-1.84-.872-.558-1.757-1.102-2.643-1.661-.473-.295-.945-.589-1.432-.883-.074-.044-.133-.088-.192-.118.28-.132.531-.353.679-.603z" fill="#FDFFC9"/><path d="M63.44 7.796l-.014-.044a.449.449 0 00-.074-.103l-.044-.059-.089-.088a1.436 1.436 0 00-.162-.147l-.31-.265c-.207-.176-.413-.353-.635-.515-.428-.338-.856-.676-1.284-1a111.002 111.002 0 00-2.599-1.942 85.346 85.346 0 00-2.657-1.853c-.458-.294-.901-.603-1.373-.883-.473-.28-.93-.559-1.447-.794L52.56 0l-.163.147c-.502.456-1.018.883-1.535 1.324-.532.427-1.048.853-1.595 1.265-.531.412-1.077.824-1.624 1.221-.265.206-.546.397-.826.603-.28.206-.547.397-.827.589l-.842.573-.841.574c-.561.382-1.137.735-1.713 1.103l-.886.53-.87.53c-.296.176-.591.338-.887.514-.295.162-.59.339-.886.5l-.9.486-.9.47a17.57 17.57 0 01-.916.457c-.31.147-.605.309-.915.44l-.916.442-.93.412c-.31.147-.62.265-.945.397-.31.133-.62.265-.945.383l-.945.367c-.324.118-.634.236-.96.339l-.472.176-.487.162-.974.309-.975.28-.25.073-.237.044-.487.118c-.65.176-1.314.294-1.979.441h-.014a.385.385 0 00-.296.456.387.387 0 00.458.294h.015c.664-.176 1.343-.323 1.993-.53l.502-.146.251-.074.25-.073.975-.31c.325-.102.65-.235.975-.338l.487-.176.487-.177c.325-.117.635-.235.96-.367l.945-.398c.325-.132.635-.264.945-.412.31-.132.634-.279.93-.426l.93-.427.93-.441c.31-.147.605-.309.915-.456.31-.162.606-.309.916-.47l.9-.486.901-.5c.295-.162.59-.339.886-.515.295-.177.59-.338.886-.515l.886-.53.87-.53c.547-.367 1.123-.72 1.698-1.102a28.3 28.3 0 00.857-.56c.28-.19.576-.382.856-.573.561-.383 1.137-.765 1.683-1.162.561-.397 1.107-.795 1.669-1.192.546-.412 1.107-.809 1.638-1.22.547-.413 1.078-.84 1.624-1.266l-.369.044c.473.236.93.5 1.373.78.458.28.9.574 1.344.883.886.603 1.757 1.22 2.628 1.868.87.632 1.712 1.28 2.569 1.942.428.323.841.662 1.255 1 .206.162.413.338.62.515.103.088.206.176.295.265l.133.132.059.059.015.014a.111.111 0 01-.03-.058v-.015.015l.015.044c.089.191.325.28.517.191a.409.409 0 00.177-.53z" fill="#440B1A"/><path d="M52.161 2.471c1.565 1.03 3.042 2.222 4.489 3.398.694.574 1.402 1.133 2.096 1.707.65.544 1.476 1.03 1.905 1.78.118.206-.104.397-.31.338-.798-.235-1.433-.912-2.067-1.427a69.914 69.914 0 01-2.26-1.897c-1.372-1.177-2.745-2.428-3.941-3.81-.045-.044.03-.133.088-.089zM50.257 5.37c1.904 1.22 3.588 2.985 5.093 4.648.237.28-.177.632-.428.382-.753-.809-1.506-1.618-2.273-2.398-.827-.823-1.698-1.647-2.451-2.544-.06-.06 0-.118.059-.089zM46.95 8.135c1.21.882 2.554 1.956 3.44 3.162.118.162-.089.368-.251.221-.532-.515-1.004-1.103-1.536-1.618-.575-.559-1.18-1.089-1.712-1.692-.03-.044.015-.103.059-.073zm-3.928 1.912c.473.353.916.736 1.373 1.118.37.309.812.603 1.049 1 .059.089-.06.236-.163.177-.428-.206-.753-.618-1.092-.956-.414-.412-.842-.824-1.226-1.265-.044-.045.015-.103.06-.074z" fill="#440B1A"/><path d="M20.61 16.284c.222-.22 34.622-5.384 42.152-8.488 7.53-3.103 22.25-6.428 22.736-3.471.473 2.957.31 19.182-11.264 24.89 0 0-5.862 11.062-22.412 12.415-17.289 1.412-29.528-14.43-31.285-18.535 0 0-12.52 8.856-16.226 5.56-3.69-3.295-4.429-8.9-2.096-14.4C4.562 8.752 7.869 9.59 9.39 10.267c1.536.647 11.22 6.016 11.22 6.016z" fill="url(#paint3_linear)"/><path d="M26.944 29.376c6.497 3.943 14.085 6.12 21.703 5.973a36.67 36.67 0 0011.192-1.957c1.683-.574 3.13-1.236 4.562-2.28.28-.206 2.51-2.177 2.716-2.103 1.093.367 2.244.588 3.41.617 1.669.03 3.13-1.206 4.784-1.044h.044c-.369.22-.738.412-1.122.618 0 0-5.86 11.062-22.411 12.415-14.587 1.192-25.586-9.9-29.72-15.857 1.535 1.323 3.115 2.56 4.842 3.618z" fill="#FFCEA3"/><path d="M2.23 14.254c2.347-5.501 5.654-4.663 7.175-3.986 1.52.662 11.22 6.03 11.22 6.03.015-.014.074-.028.207-.058-.856 1.545-.783 3.692-.576 5.325.06.53.163 1.045.266 1.56-.65.456-12.594 8.737-16.196 5.545C.62 25.36-.118 19.756 2.229 14.254z" fill="url(#paint4_linear)"/><path d="M20.434 18.064c20.876 3.56 36.112-3.03 36.112-3.03l.015.044c.443 2.604 1.58 5.06 2.628 7.473.473 1.074 1.137 2.545 2.156 3.427-2.495.78-21.97 6.31-40.852-3.927l-.06-3.987z" fill="url(#paint5_linear)"/><path d="M20.404 21.727c.089 0 .192-.03.28-.044 10.291 5.516 20.95 6.37 27.934 6.002 6.85-.353 11.767-1.81 12.727-2.119.014.015.014.044.03.06.102.235.25.44.427.602-.014 0-.014.015-.03.015-.029.015-1.86.633-4.93 1.221-2.17.412-4.946.824-8.15.986-4.533.235-8.991-.03-13.273-.81-5.344-.97-10.423-2.75-15.06-5.266l-.191-.103-.015-.618c.133.103.06.06.251.074zm36.157-6.281c-.753.309-4.459 1.75-10.172 2.81-1.373.264-2.761.47-4.149.647a70.956 70.956 0 01-4.976.456c-1.89.117-3.794.147-5.684.117a74.408 74.408 0 01-6.274-.367 65.829 65.829 0 01-2.451-.295c-.413-.058-.842-.117-1.255-.176-.532-.074-.99-.177-1.476-.383v-.118c0-.014.014-.029.014-.043a.812.812 0 01.089-.118l.03-.03a1.08 1.08 0 00.206-.25h.03c10.718 1.824 19.902.912 25.719-.176 6.304-1.177 10.128-2.81 10.172-2.825.015-.014.044-.014.059-.014.015.235.044.5.118.765z" fill="#440B1A"/><path d="M56.148 12.386c.014-.074.118-.074.118 0 .28 1.456.428 2.913.812 4.354.428 1.545.974 3.06 1.698 4.487 1.196 2.31 2.997 4.486 5.078 6.06 2.112 1.604 4.592 2.178 7.205 1.957 1.418-.118 2.835-.662 4.208-1.03-.398.442-.709 1.103-.871 1.589a21.2 21.2 0 01-3.322.574c-2.82.25-5.389-.383-7.677-2.075-2.289-1.677-3.942-4.03-5.227-6.516-.723-1.412-1.299-2.928-1.624-4.472-.324-1.574-.59-3.34-.398-4.928zM20.98 15.931c.044.56-.133 1.162-.207 1.707a17.605 17.605 0 00-.133 1.956c0 .706.06 1.412.133 2.104.074.662.31 1.397.236 2.059-.044.309-.457.412-.605.118-.295-.603-.295-1.383-.354-2.045a19.483 19.483 0 01-.074-2.074c.015-1.162.103-2.972.974-3.84 0 0 .015 0 .03.015zm-1.55-.456c-.355.662-.753 1.25-1.004 1.986-.251.765-.34 1.53-.34 2.324 0 .912.148 1.839.325 2.736.074.353.148.692.236 1.03.089.338.355.544.31.912-.015.118-.118.191-.236.191-.738-.014-.871-1.22-.974-1.765-.207-1.044-.34-2.089-.34-3.148 0-1.47.487-3.604 1.92-4.369.073-.044.132.044.103.103zm-2.436-1.045c-1.359 1.442-1.95 3.281-1.964 5.238 0 1.073.192 2.133.458 3.162.266 1.03.738 1.868 1.18 2.81.208.412-.339.735-.649.441-.738-.72-1.092-1.883-1.314-2.868a13.43 13.43 0 01-.369-3.59c.074-2 .886-4.089 2.57-5.266.073-.059.147.015.088.074z" fill="#440B1A"/><path d="M7.175 14.019c1.33.323 2.614.956 3.869 1.486 1.284.544 2.554 1.073 3.853 1.618.162.073.266.206.251.382 0 .133-.044.162-.133.25-.088.103-.266.118-.384.074a58.701 58.701 0 01-3.838-1.618c-1.255-.574-2.614-1.207-3.677-2.09-.059-.029-.014-.117.06-.102zm-.738 6.751c1.565 0 3.115 0 4.666-.102.797-.059 1.58-.147 2.362-.265.384-.059.812-.191 1.24-.25-.015.294.015.574.074.868-.384.103-.797.132-1.152.176-.812.133-1.639.192-2.465.221a14.219 14.219 0 01-4.725-.574c-.074 0-.044-.073 0-.073zm1.86 4.517c1.359-.353 2.732-.574 4.075-.956.709-.191 1.403-.471 2.082-.765.177-.074.37-.191.576-.294.074.279.177.573.31.838-.104.044-.192.088-.295.132-.739.339-1.521.618-2.289.839-1.432.427-2.997.618-4.473.294-.045-.015-.03-.088.014-.088zm60.267-5.575c.9 1.015 1.816 1.824 3.027 2.471 1.166.633 2.495.956 3.824 1.044 1.328.089 2.686-.176 3.971-.5 1.063-.265 2.008-.72 2.82-1.441.148-.133.384-.015.369.19-.074 1.207-1.58 1.678-2.54 1.972-1.431.441-3.011.677-4.502.633-2.79-.089-5.773-1.795-7.072-4.296-.045-.059.059-.132.103-.073z" fill="#440B1A"/><path opacity=".4" d="M2.923 25.037c-.428-1.456-.664-2.854-.575-4.251.03-.383.059-.75.118-1.104 1.018 1.236 2.672 2.222 4.119 2.751 1.388.5 2.835.692 4.296.647 2.333-.073 4.444-.25 6.585-1.28.93-.456 1.904-1.014 2.613-1.765.162-.176.31-.338.458-.485 1.432 1.353 7.825 5.899 20.728 7.208 5.374.544 13.746-2.118 15.93-8.179.37.765 1.846 1.427 2.6 1.81 2.361 1.162 4.399 1.676 7.248 1.75.104 0 .384.353.473.427.147.132.31.264.472.382.296.235.606.47.93.691.561.368 1.152.692 1.772.942.886.353 1.816.53 2.746.573.487.03.99.015 1.476-.014.547-.03 1.211 0 1.684-.31.221-.146.398-.411.369-.676a.38.38 0 00-.133-.25c-.06-.044-.148-.044-.222-.059-4.547-.397-5.448-1.368-5.772-1.662 3.1-.338 6.51-1.324 9.006-2.589a18.77 18.77 0 004.252-2.971c-1.506 4.869-4.43 9.9-9.877 12.591 0 0-6.186 8.076-22.722 9.43-17.289 1.412-29.218-11.445-30.975-15.549 0 0-11.59 8.194-15.768 5.884-.797-1.235-1.447-2.618-1.83-3.942z" fill="#5E003F"/><path d="M21.319 16.122c.99-.264 2.008-.338 2.997-.603.783-.03 1.565-.162 2.333-.264 1.092-.148 2.2-.295 3.292-.457a280.84 280.84 0 0012.594-2.088c8.283-1.59 16.595-3.443 24.626-6.09 3.278-1.089 6.54-2.354 9.951-2.987 1.654-.309 3.366-.485 5.05-.426.634.015 1.225.059 1.8.191v-.015c.266.133.532.236.798.353a.36.36 0 01.074.044c.03.015.073.045.118.06.044.029.236.19.177.132a.62.62 0 01.088.103c-.029-.015.119.235.119.264 0 .015.014.015.014.03a.274.274 0 00-.103-.03c.044.192.089.398.118.589.207 1.25.148 2.545.074 3.81-.074 1.294-.31 2.574-.546 3.854-.237 1.28-.443 2.589-.871 3.825-.03.073-.133.044-.133-.03.059-1.206.236-2.398.34-3.604.088-1.206.117-2.427.177-3.633.058-1.118.132-2.222.044-3.325-.458.471-1.285.442-1.831-.059-.25-.22-.428-.544-.561-.853-.118-.338-.074-.632.103-.868-.428.03-.856.074-1.27.103-1.89.162-3.75.677-5.565 1.206-3.765 1.104-7.412 2.56-11.177 3.693-8.135 2.456-16.506 4.236-24.877 5.707-3.765.662-7.56 1.236-11.353 1.721-2.51.324-5.168.677-7.515-.206a5.15 5.15 0 00.915-.147z" fill="#FFC3C4"/><path d="M20.892 16.431c-.96-.206-1.89-.603-2.806-.941-1.122-.397-2.214-.883-3.292-1.383-1.786-.809-3.499-1.795-5.374-2.398-.738-.235-1.476-.47-2.244-.456-.945 0-1.757.515-2.377 1.162-1.403 1.442-2.333 3.487-3.234 5.252-.088.162-.354.088-.383-.074-.163-1.059.147-2 .634-2.927A15.7 15.7 0 013.632 11.9c1.27-1.559 3.042-2.088 4.976-1.618 1.963.471 3.809 1.574 5.566 2.516 1.152.618 2.347 1.177 3.529 1.75 1.092.53 2.303 1.015 3.248 1.766.03.029.014.132-.06.117z" fill="#FDFFC9"/><path d="M20.581 16.696l.251-.103h.015l-.015.015c-.03.014.03 0 .044 0l.177-.03.37-.058.738-.118 1.476-.236 2.953-.47c1.978-.31 3.942-.618 5.92-.942a819.52 819.52 0 005.906-1c1.964-.338 3.942-.677 5.906-1.044 1.963-.368 3.927-.736 5.89-1.133 1.95-.412 3.913-.824 5.862-1.28 1.949-.456 3.897-.927 5.831-1.589.237-.088.473-.176.724-.264.25-.103.472-.192.709-.28.457-.191.915-.368 1.373-.53.457-.176.93-.338 1.402-.5.473-.161.93-.323 1.403-.485a87.217 87.217 0 015.713-1.662c.96-.25 1.92-.486 2.894-.677a50.816 50.816 0 012.923-.53c.99-.132 1.964-.235 2.953-.264.487-.015.975 0 1.447.044.236.03.472.073.694.118.221.058.443.117.62.22s.31.236.354.368c.015.03.015.073.03.103v.088l.03.088c.014.118.029.236.029.353.044.471.059.971.059 1.457 0 .985-.044 1.971-.133 2.942a38.663 38.663 0 01-.384 2.927 32.243 32.243 0 01-.635 2.883c-.118.471-.265.942-.413 1.413l-.236.69c-.044.119-.074.236-.118.354l-.133.338A23.1 23.1 0 0182 20.58l-.355.647c-.118.206-.251.412-.37.632l-.191.31-.207.308a14.6 14.6 0 01-.413.603l-.443.574a8.383 8.383 0 01-.458.559c-.162.177-.31.368-.472.544l-.502.515c-.163.177-.355.338-.517.5l-.266.25a3.839 3.839 0 01-.266.236c-.383.294-.738.618-1.136.882-.768.574-1.624 1.015-2.48 1.442l-.193.088-.132.22c-.03.045-.074.133-.104.192-.044.074-.074.133-.118.206-.089.132-.162.28-.251.412-.177.265-.37.53-.561.794-.384.53-.797 1.03-1.24 1.53a23.846 23.846 0 01-2.864 2.721 24.547 24.547 0 01-3.248 2.251c-1.137.677-2.333 1.25-3.559 1.765-.605.265-1.24.486-1.86.706l-.945.295c-.162.059-.324.088-.472.132l-.487.133-.488.132-.487.103-.974.22-.975.177-.25.044-.252.03-.487.073c-.664.103-1.329.162-1.978.236l-.118.014h-.074c-.015 0 .015 0 0 0h-.03l-.25.015-.503.03-.502.029c-.162.014-.34.014-.502.014-.65-.014-1.299.015-1.963-.058-.325-.03-.665-.03-.99-.074l-.989-.118c-.324-.029-.65-.103-.974-.161l-.487-.089c-.163-.03-.325-.058-.487-.103-.65-.161-1.3-.294-1.92-.5l-.472-.132-.236-.074-.237-.088-.944-.324c-.163-.044-.31-.117-.473-.176l-.458-.191c-.31-.118-.62-.25-.915-.383l-.9-.412-.886-.456a6.508 6.508 0 01-.443-.235l-.428-.25-.429-.25a4.068 4.068 0 01-.428-.25l-.856-.515c-.28-.177-.561-.368-.842-.544l-.413-.28-.413-.294c-.266-.191-.547-.383-.812-.589a39.283 39.283 0 01-3.086-2.544 39.255 39.255 0 01-2.82-2.825 38.275 38.275 0 01-2.525-3.074c-.192-.265-.384-.545-.575-.81-.178-.279-.37-.544-.547-.823a13.736 13.736 0 01-.93-1.692l-.295-.676-.606.426a53.56 53.56 0 01-2.864 1.898 59.98 59.98 0 01-2.967 1.736 34.92 34.92 0 01-3.086 1.485c-1.048.442-2.126.81-3.204 1.03-.546.103-1.092.177-1.609.162-.532-.015-1.033-.118-1.447-.353a1.283 1.283 0 01-.147-.088c-.045-.03-.09-.074-.148-.103l-.06-.045-.073-.073-.162-.147c-.119-.103-.192-.191-.296-.294-.088-.089-.192-.192-.28-.295a9.67 9.67 0 01-.99-1.323 10.425 10.425 0 01-1.24-3.06 11.972 11.972 0 01-.28-3.325 15.06 15.06 0 01.56-3.324c.163-.545.34-1.074.547-1.604.207-.53.443-1.044.694-1.53.266-.485.561-.956.9-1.382a5.17 5.17 0 011.167-1.104c.222-.147.458-.28.694-.382a3.12 3.12 0 01.753-.22 4.006 4.006 0 011.565.043c.266.06.517.133.782.236.06.03.133.044.192.073l-.014.015h.014s.015 0 0 0l.03.015.103.044c.133.059.266.118.384.191l.384.191.384.192.768.397 3.056 1.633a802.17 802.17 0 016.082 3.339l.148.088zm.089-.824a769.47 769.47 0 00-5.965-3.25 312.65 312.65 0 00-3.056-1.648l-.768-.412-.384-.206-.398-.206a4.914 4.914 0 00-.399-.191l-.103-.044-.03-.015-.03-.015-.058-.03c-.074-.029-.148-.058-.207-.087a5.651 5.651 0 00-.886-.28c-.605-.132-1.255-.176-1.875-.059a4.342 4.342 0 00-1.742.721c-.532.353-.96.794-1.358 1.265-.384.47-.71.986-.99 1.515-.28.53-.531 1.06-.753 1.618a16.032 16.032 0 00-.575 1.677 15.528 15.528 0 00-.606 3.501c-.059 1.192.015 2.383.266 3.56s.694 2.31 1.314 3.354c.31.515.664 1.015 1.063 1.471.103.118.192.236.31.338.103.103.222.236.325.324l.162.147.074.074s.03.015.015.015l.015.014.03.015.043.044c.06.059.133.103.207.162.074.044.148.103.222.132.295.177.62.294.93.368.325.074.635.118.96.132.634.03 1.24-.044 1.845-.147 1.196-.22 2.318-.617 3.41-1.044a34.902 34.902 0 003.19-1.486 47.985 47.985 0 003.07-1.706 62.916 62.916 0 002.968-1.883l-.9-.25c.294.677.649 1.265 1.018 1.853.177.294.384.574.576.868.192.28.398.56.605.839a41.524 41.524 0 002.628 3.162 41.278 41.278 0 002.909 2.884 48.8 48.8 0 003.16 2.618c.265.206.56.397.826.603l.413.294.428.28c.28.191.576.382.857.559l.886.53.443.264.442.25.443.25c.148.089.31.162.458.236l.915.47.96.398c.31.147.635.28.945.397l.472.191c.163.059.325.132.488.177l.974.338.251.088.251.074.502.147c.664.206 1.329.353 2.008.515.162.044.34.073.502.103l.517.088c.34.059.679.132 1.018.162l1.034.132c.34.044.694.044 1.033.074.68.059 1.388.044 2.082.058.177 0 .34 0 .517-.014l.502-.03.502-.03.25-.014h.134l.132-.014c.68-.074 1.373-.133 2.053-.236l.516-.073.251-.03.251-.044 1.019-.191c.34-.06.664-.147 1.004-.22l.502-.119.502-.132a31.453 31.453 0 003.927-1.294 28.922 28.922 0 003.72-1.81 26.935 26.935 0 003.426-2.324l.413-.324.399-.338c.266-.22.517-.456.782-.691a28.448 28.448 0 001.477-1.471c.472-.5.93-1.03 1.358-1.59.207-.279.428-.558.62-.838.103-.147.192-.294.295-.44.045-.074.104-.148.148-.236.044-.074.089-.147.148-.25l-.31.309c.915-.5 1.816-1.03 2.628-1.663.428-.294.797-.647 1.196-.985.103-.089.191-.177.28-.265l.28-.28c.148-.147.34-.323.503-.53l.516-.573c.177-.191.325-.397.487-.603.325-.397.606-.824.916-1.236.147-.22.28-.426.413-.647l.207-.323.192-.339c.118-.22.25-.441.369-.662l.34-.676c.442-.912.841-1.854 1.18-2.81l.133-.353c.045-.118.074-.236.119-.368l.221-.72c.133-.486.28-.972.399-1.457a34.74 34.74 0 00.59-2.957A34.235 34.235 0 0086 6.354a17.673 17.673 0 00-.133-1.912l-.014-.088v-.103a1.243 1.243 0 00-.074-.25 1.056 1.056 0 00-.295-.412 2.19 2.19 0 00-.4-.28 2.955 2.955 0 00-.782-.279 7.247 7.247 0 00-.782-.132 10.774 10.774 0 00-1.536-.044c-1.018.03-2.022.132-3.011.265-1.994.279-3.957.69-5.906 1.162-1.949.47-3.883 1-5.787 1.603-.96.294-1.905.618-2.85.97-.472.177-.945.354-1.403.545-.236.088-.457.191-.693.28-.237.088-.458.176-.694.25-1.875.632-3.81 1.103-5.758 1.544-1.934.456-3.898.853-5.847 1.25a375.99 375.99 0 01-5.876 1.133 787.687 787.687 0 01-11.796 2.075c-1.964.338-3.942.647-5.906.97l-2.953.486-1.476.25-.738.132-.37.074-.191.044c-.03-.03-.045-.015-.06-.015z" fill="#440B1A"/><path d="M60.946 25.478s-8.357 11.356-12.15 9.282c-3.795-2.074-3.943-6.104-2.171-7.208 2.716-1.691 7.854-5.016 12.653-4.177" fill="url(#paint6_linear)"/><path opacity=".4" d="M45.71 28.817c.59 1.457 2.081 2.457 3.676 2.545 1.683.074 3.1-.53 4.444-1.456.767-.53 1.446-1.221 2.067-1.898.693-.765 1.49-1.559 1.963-2.486.384-.75.635-1.397.502-2.25.31.014.62.058.916.117l1.668 2.09s-8.357 11.355-12.15 9.281c-2.85-1.559-3.633-4.251-3.087-5.943z" fill="#5E003F"/><path d="M57.8 23.669c-2.465.603-4.724 1.412-6.953 2.633-1.875 1.03-3.78 2.06-5.035 3.84-.103.146-.369.117-.398-.089-.148-1.044.531-1.75 1.299-2.383.99-.794 2.156-1.427 3.263-2.045 2.318-1.28 5.123-2.427 7.81-2.074.06.015.074.103.015.118z" fill="#FDFFC9"/><path d="M50.493 35.334c1.594-.309 3.632-1.706 6.082-4.163 2.555-2.574 4.666-5.428 4.695-5.457.133-.177.089-.412-.088-.545a.386.386 0 00-.547.088c-2.273 3.075-8.784 10.739-11.648 9.18-1.86-1.015-3.012-2.663-3.056-4.413-.03-.957.31-1.766.915-2.133l.266-.162c2.657-1.662 8.12-4.796 12.608-4.001.207.044.222.058.266-.148.044-.205-.413-.53-.635-.573-4.783-.853-9.907 2.339-12.653 4.06l-.265.162c-.827.515-1.314 1.574-1.27 2.81.059 2.015 1.358 3.912 3.47 5.06.516.294 1.151.367 1.86.235z" fill="#440B1A"/><path d="M51.94 30.76c.649-.604 1.417-1.119 2.096-1.707a30.323 30.323 0 012.185-1.721c.723-.515 1.506-.971 2.274-1.413.723-.397 1.683-.823 2.495-1.03 0 .03.192.383.192.413.014.19-.31.132-.266.323-.664.412-1.432.56-2.111.927-.827.456-1.624.956-2.407 1.471-.827.53-1.594 1.133-2.392 1.692-.62.441-1.284.926-2.052 1.073-.015 0-.03-.029-.015-.029zm1.845-4.223c.797-.78 2.097-1.206 3.1-1.647.916-.398 1.89-.795 2.865-1.06.103.221.236.427.398.604-1.077.338-2.155.647-3.218 1.03-1.004.367-2.052.97-3.1 1.132-.045.015-.074-.03-.045-.059z" fill="#440B1A"/><path opacity=".4" d="M60.975 10.283c.517 2.706 3.204 4.457 5.965 3.927 2.776-.53 4.591-3.163 4.075-5.855-.517-2.706-3.204-4.457-5.965-3.927-2.775.53-4.606 3.148-4.075 5.855z" fill="#5E003F"/><path d="M62.17 8.444c.488 2.545 2.865 4.207 5.316 3.75 2.436-.47 4.03-2.912 3.528-5.442-.487-2.545-2.864-4.207-5.314-3.751-2.437.456-4.016 2.898-3.53 5.443z" fill="#fff"/><path d="M63.352 4.28c-.34 1.428-.044 3.016 1.004 4.12.93.985 2.215 1.647 3.617 1.382.975-.191 1.934-.809 2.422-1.677.266-.47.487-1 .576-1.544l.044.176c.487 2.545-1.093 4.972-3.529 5.443-2.436.47-4.828-1.206-5.315-3.751a4.774 4.774 0 011.181-4.148z" fill="#C4C4C4"/><path d="M61.846 8.517s.03.103.074.31c.015.058.03.102.044.176.03.073.045.147.074.22.03.074.06.162.089.25.044.089.074.177.118.28a.684.684 0 00.074.147c.014.059.059.103.073.162.06.103.119.206.178.323.074.103.147.206.236.324.074.118.177.22.28.324.399.441.93.868 1.595 1.177a4.605 4.605 0 002.318.411c.103 0 .207-.03.31-.044l.162-.03h.133l.03-.014c.192-.059.384-.088.605-.176.103-.045.221-.074.325-.133.103-.044.207-.103.295-.147.104-.044.192-.118.295-.176.089-.06.192-.118.28-.192.09-.073.178-.147.267-.206.088-.073.162-.161.25-.235.104-.088.178-.177.252-.265.073-.088.162-.176.221-.264.074-.104.133-.192.207-.295l.177-.309c.03-.059.059-.103.088-.161l.074-.162c.045-.103.104-.22.133-.324a4.93 4.93 0 00.31-1.397c.045-.471 0-.957-.088-1.427l-.089-.339c-.015-.058-.03-.103-.044-.161l-.06-.177c-.044-.118-.073-.235-.132-.338l-.148-.324c-.044-.103-.118-.206-.177-.309l-.088-.147-.104-.147c-.074-.088-.133-.191-.207-.28l-.236-.264c-.074-.089-.162-.162-.25-.25l-.134-.118a.811.811 0 00-.133-.103 1.924 1.924 0 00-.28-.206c-.103-.059-.192-.118-.295-.176-.089-.06-.207-.103-.31-.162-.104-.044-.207-.103-.31-.147a2.303 2.303 0 01-.34-.118c-.103-.03-.221-.059-.325-.088a4.34 4.34 0 00-1.299-.133c-.222 0-.428.03-.635.06h-.088l-.074.014-.148.03-.147.029c-.045.014-.09.03-.148.044-.192.073-.399.132-.576.22l-.266.133c-.088.044-.162.103-.25.147l-.119.073c-.044.03-.074.06-.118.089l-.221.176a4.9 4.9 0 00-1.447 2c-.044.133-.104.266-.148.398-.03.132-.074.265-.103.382-.03.118-.044.25-.06.354-.014.058-.014.117-.029.161 0 .06 0 .103-.015.162 0 .103-.014.206-.014.294 0 .089 0 .177.014.265 0 .088 0 .162.015.22 0 .074.015.133.015.192.03.22.044.338.044.338v.06zm.65-.147l-.044-.294a.755.755 0 00-.03-.162c0-.059-.015-.132-.015-.191 0-.074-.014-.147-.014-.236 0-.088 0-.161.014-.264v-.147c0-.045.015-.103.015-.147l.044-.31c.03-.102.045-.22.074-.338.03-.117.074-.235.118-.353.177-.485.458-1 .886-1.47.118-.118.222-.221.354-.34.06-.043.133-.102.192-.161a.27.27 0 01.104-.074l.133-.058.221-.133c.074-.044.162-.073.236-.117.163-.089.325-.133.487-.206l.133-.045.148-.029.148-.03.059-.029c.014 0-.015 0 0 0h.059c.192-.03.369-.059.56-.059.385-.029.783.03 1.167.133.089.03.192.059.295.088.089.044.192.074.28.118.09.03.193.088.281.132.089.044.192.088.266.147.089.06.177.118.266.162.088.059.162.132.25.191.045.03.09.06.119.103l.118.103c.074.074.163.133.222.22.295.31.516.663.708 1.045l.104.265c.044.103.073.191.103.294l.044.147c.015.045.03.103.045.162l.073.31c.06.411.089.838.045 1.264a4.247 4.247 0 01-.296 1.206c-.03.103-.088.192-.133.28l-.058.132a.595.595 0 00-.074.133c-.06.088-.104.176-.163.264-.059.089-.118.162-.177.25-.059.089-.133.148-.192.221-.074.074-.133.147-.207.22-.073.074-.147.133-.221.207-.074.059-.162.117-.236.176-.074.06-.163.103-.237.162-.088.044-.162.103-.25.147a3.61 3.61 0 01-.251.118c-.089.044-.163.059-.251.088-.148.059-.37.103-.561.147l-.03.015h-.03.015l-.074.015-.132.014c-.089.015-.178.03-.266.03a4.43 4.43 0 01-1.949-.353 4.66 4.66 0 01-1.373-.971c-.089-.103-.177-.177-.236-.28-.074-.088-.133-.19-.207-.28-.06-.087-.118-.19-.162-.264-.03-.044-.06-.088-.074-.132-.015-.044-.044-.088-.06-.133-.044-.088-.073-.161-.117-.235-.03-.074-.06-.147-.074-.206-.03-.059-.044-.118-.074-.176a2.466 2.466 0 00-.044-.162 2.401 2.401 0 01-.074-.31V8.37z" fill="#000"/><path d="M66.157 9.18c.148.735.812 1.22 1.491 1.088.68-.133 1.123-.824.99-1.56-.148-.735-.812-1.22-1.506-1.088-.665.118-1.108.824-.975 1.56z" fill="#000"/><path d="M67.162 8.105c.058.294.324.486.605.427a.52.52 0 00.398-.618c-.059-.294-.324-.485-.605-.427-.28.045-.458.324-.398.618z" fill="#fff"/></g><defs><linearGradient id="paint0_linear" x1="54.491" y1="57.554" x2="51.67" y2="40.86" gradientUnits="userSpaceOnUse"><stop stop-color="#FCEA2C"/><stop offset=".995" stop-color="#F26354"/></linearGradient><linearGradient id="paint1_linear" x1="30.946" y1="53.712" x2="43.654" y2="41.026" gradientUnits="userSpaceOnUse"><stop stop-color="#FCEA2C"/><stop offset=".995" stop-color="#F26354"/></linearGradient><linearGradient id="paint2_linear" x1="64.195" y1="3.99" x2="23.284" y2="11.918" gradientUnits="userSpaceOnUse"><stop stop-color="#FCEA2C"/><stop offset=".995" stop-color="#F26354"/></linearGradient><linearGradient id="paint3_linear" x1="76.316" y1="13.507" x2="22.584" y2="27.881" gradientUnits="userSpaceOnUse"><stop stop-color="#F16A89"/><stop offset="1" stop-color="#A12679"/></linearGradient><linearGradient id="paint4_linear" x1="1.074" y1="17.812" x2="19.576" y2="23.429" gradientUnits="userSpaceOnUse"><stop stop-color="#FCEA2C"/><stop offset=".995" stop-color="#F26354"/></linearGradient><linearGradient id="paint5_linear" x1="59.903" y1="18.477" x2="21.27" y2="25.964" gradientUnits="userSpaceOnUse"><stop stop-color="#FCEA2C"/><stop offset=".995" stop-color="#F26354"/></linearGradient><linearGradient id="paint6_linear" x1="47.484" y1="33.159" x2="58.647" y2="21.952" gradientUnits="userSpaceOnUse"><stop stop-color="#FCEA2C"/><stop offset=".995" stop-color="#F26354"/></linearGradient><clipPath id="clip0"><path fill="#fff" transform="matrix(-1 0 0 1 86 0)" d="M0 0h85.542v56.708H0z"/></clipPath></defs></svg>