<svg width="21" height="21" fill="none" xmlns="http://www.w3.org/2000/svg"><path d="M11.813 21H9.188c-.613 0-1.313-.525-1.313-1.575v-1.837c0-.875-.437-1.663-1.137-2.275-1.575-1.225-2.363-2.975-2.363-4.9.088-3.325 2.8-5.95 6.038-6.038 1.662 0 3.237.613 4.375 1.75 1.137 1.138 1.837 2.713 1.837 4.375 0 1.838-.787 3.588-2.275 4.725-.787.613-1.225 1.575-1.225 2.45v2.013c0 .7-.612 1.312-1.312 1.312zM10.5 5.25c-2.8 0-5.162 2.363-5.25 5.163 0 1.662.7 3.237 2.013 4.2.962.787 1.487 1.837 1.487 2.975v1.837c0 .175 0 .7.438.7h2.625c.262 0 .437-.175.437-.437v-2.013c0-1.137.613-2.362 1.575-3.15 1.225-.962 1.925-2.45 1.925-4.025 0-1.4-.525-2.712-1.575-3.762C13.213 5.775 11.9 5.25 10.5 5.25z" fill="#68C2D0"/><path d="M12.688 18.375H8.311c-.262 0-.437-.175-.437-.437 0-.263.175-.438.438-.438h4.374c.263 0 .438.175.438.438 0 .262-.175.437-.438.437zM10.5 2.625c-.263 0-.438-.175-.438-.438V.438c0-.262.175-.437.438-.437.262 0 .437.175.437.438v1.75c0 .262-.175.437-.437.437zm5.862 2.45c-.087 0-.262 0-.35-.087a.423.423 0 010-.613l1.225-1.225a.423.423 0 01.613 0 .423.423 0 010 .613l-1.225 1.225s-.175.087-.263.087zm4.201 5.862h-1.75c-.263 0-.438-.175-.438-.437 0-.263.175-.438.438-.438h1.75c.262 0 .437.175.437.438 0 .262-.175.437-.438.437zm-2.976 7.088c-.087 0-.262 0-.35-.088l-1.225-1.225a.423.423 0 010-.612.423.423 0 01.613 0l1.225 1.225a.423.423 0 010 .612c0 .088-.088.088-.263.088zm-14.175 0c-.087 0-.262 0-.35-.088a.423.423 0 010-.612L4.287 16.1a.423.423 0 01.613 0 .423.423 0 010 .612l-1.225 1.225c-.088.088-.175.088-.263.088zm-1.224-7.088H.438c-.263 0-.438-.175-.438-.437 0-.263.175-.438.438-.438h1.75c.262 0 .437.175.437.438 0 .262-.175.437-.438.437zm2.449-5.862c-.087 0-.262 0-.35-.088L3.062 3.675a.423.423 0 010-.613.423.423 0 01.613 0L4.9 4.287a.423.423 0 010 .613c-.088.087-.175.175-.263.175zM14 10.938c-.263 0-.438-.176-.438-.438 0-1.662-1.4-3.063-3.062-3.063-.263 0-.438-.175-.438-.437 0-.263.175-.438.438-.438a3.921 3.921 0 013.937 3.938c0 .262-.175.438-.437.438z" fill="#68C2D0"/></svg>