<svg width="32" height="67" fill="none" xmlns="http://www.w3.org/2000/svg"><path d="M16.98 14.472a.093.093 0 00.085-.051c.966-1.778 1.297-4.033.924-6.347-.28-1.948-.924-3.965-1.966-6.168-.102-.213-.212-.451-.339-.68-.025-.052-.085-.06-.127-.043-.042.025-.06.085-.042.127.118.221.228.451.33.672C16.88 4.16 17.523 6.16 17.794 8.1c.364 2.271.042 4.483-.898 6.227a.096.096 0 00.034.128c.017.008.034.017.05.017z" fill="#9C8373"/><path fill-rule="evenodd" clip-rule="evenodd" d="M14.633 1.268c.212.4.72.553 1.136.349a.84.84 0 00.356-1.158c-.23-.433-.771-.587-1.161-.331-.399.246-.543.74-.33 1.14z" fill="#9C8373"/><path d="M15.964 15.05c.05 0 .093-.034.093-.085.348-3.65-.017-6.891-1.076-9.622l-.313-.69c-.026-.05-.077-.067-.128-.05-.05.025-.067.076-.05.127l.313.69c1.05 2.705 1.407 5.913 1.068 9.528-.009.051.034.103.085.103h.008z" fill="#9C8373"/><path fill-rule="evenodd" clip-rule="evenodd" d="M13.625 4.68a.862.862 0 001.119.357c.424-.179.618-.715.373-1.166-.263-.45-.788-.595-1.17-.332-.39.264-.533.775-.322 1.14z" fill="#9C8373"/><path d="M15.116 14.982h.017a.085.085 0 00.068-.11C14.083 9.988 11.99 5.47 9.143 1.812l-.077-.093a5.708 5.708 0 00-.406-.494.103.103 0 00-.136-.008c-.042.034-.042.093-.008.136.135.153.27.323.39.485l.076.093c2.83 3.633 4.914 8.125 6.024 12.983.034.034.068.069.11.069z" fill="#9C8373"/><path fill-rule="evenodd" clip-rule="evenodd" d="M7.66 1.489c.296.34.83.374 1.195.085.372-.298.406-.834.084-1.2C8.617.01 8.084-.034 7.745.29c-.34.324-.382.86-.085 1.2z" fill="#9C8373"/><path d="M13.117 16.684c.05 0 .085-.034.093-.085 0-.051-.034-.094-.085-.094-2.389-.17-4.372-1.522-5.617-2.62-1.44-1.234-2.788-2.816-4.118-4.815A15.185 15.185 0 013 8.465c-.026-.042-.085-.06-.127-.025a.087.087 0 00-.026.128c.136.22.263.416.39.612 1.347 2.025 2.703 3.607 4.152 4.858 1.263 1.106 3.288 2.476 5.728 2.646z" fill="#9C8373"/><path fill-rule="evenodd" clip-rule="evenodd" d="M2 8.55c.237.4.746.52 1.119.273.372-.247.491-.74.27-1.106-.22-.375-.703-.494-1.1-.29A.796.796 0 002 8.551z" fill="#9C8373"/><path d="M14.04 16.157c.034 0 .068-.017.077-.051.025-.043.008-.103-.043-.12-3.169-1.65-5.677-3.658-7.431-5.972l-.407-.587c-.025-.043-.084-.051-.127-.026-.042.026-.05.085-.025.128l.406.595c1.78 2.34 4.296 4.365 7.49 6.033.035-.009.043 0 .06 0z" fill="#9C8373"/><path fill-rule="evenodd" clip-rule="evenodd" d="M5.245 9.512c.246.417.78.519 1.135.264a.835.835 0 00.255-1.098c-.204-.357-.687-.485-1.094-.29-.398.197-.533.698-.296 1.124z" fill="#9C8373"/><path d="M14.362 15.416a.077.077 0 00.06-.025c.034-.034.034-.085-.009-.12-3.27-3.062-5.804-6.72-7.33-10.575l-.05-.119a5.231 5.231 0 01-.187-.51.097.097 0 00-.11-.06.098.098 0 00-.06.11c.052.18.128.358.196.528l.05.12c1.534 3.88 4.085 7.563 7.372 10.643.026.008.043.008.068.008z" fill="#9C8373"/><path fill-rule="evenodd" clip-rule="evenodd" d="M5.906 3.93a.747.747 0 00.974.486c.39-.154.61-.587.475-.979-.127-.391-.568-.604-.975-.485-.398.12-.61.562-.474.979z" fill="#9C8373"/><path fill-rule="evenodd" clip-rule="evenodd" d="M23.75 56.467s-.059-.383-.33-1.055a8.844 8.844 0 00-1.754-2.57c-.94-.986-2.288-1.999-4.075-2.84-1.788-.852-3.974-1.49-6.66-2.026 0 0 .339.477.99 1.191a23.91 23.91 0 002.797 2.595 27.793 27.793 0 004.076 2.689 27.697 27.697 0 004.957 2.016zm.831-7.223s1.288-.298 2.737-1.574c1.44-1.276 3.11-3.522 3.949-7.725 0 0-1.695.714-3.407 2.229-1.703 1.506-3.465 3.939-3.279 7.07zm-1.288-7.7s-.796-1.276-2.813-2.535c-2.034-1.285-5.203-2.459-10.261-2.867 0 0 1.355 1.727 3.753 3.267 2.39 1.54 5.78 2.825 9.321 2.135zm-.296-4.756s.27.11.788.102c.5-.017 1.245-.187 2-.714.745-.52 1.474-1.395 1.889-2.604.407-1.208.542-2.773.017-4.517 0 0-1.178 1.038-2.271 2.373-.55.672-1.068 1.43-1.458 2.272-.406.85-.601 1.778-.965 3.088z" fill="#3C7737"/><path d="M23.657 67a.54.54 0 00.534-.476c.034-.264 3.042-26.57-6.134-47.951a.534.534 0 00-.704-.28.538.538 0 00-.28.705c9.067 21.117 6.085 47.134 6.06 47.398a.536.536 0 00.465.596c.017.008.034.008.06.008z" fill="#3C1400"/><path fill-rule="evenodd" clip-rule="evenodd" d="M23.878 4.084c2.542 4.415 5.668 13.008-3.144 18.573-8.812 5.564-14.21 2.475-18.743-5.462L0 13.859l3.643 2.366-.11-4.016 3.076 2.255-.042-4.178 3.61 2.136-.628-4.305 3.364 2.51-.254-4.144 3.567 2.204-.517-4.263 3.16 2.63-.355-4.314 3.406 2.484-.423-4.271c.008.017 1.567 1.718 2.38 3.13z" fill="#9BBADA"/><path fill-rule="evenodd" clip-rule="evenodd" d="M17.244 22.044s-.255-.808-1.907-.987c-1.262-.136-2.525.553-2.525.553s1.16.834 2.245 1.013c1.39.22 1.873-.17 2.187-.579zm2.16-1.131s.83.136 1.737-1.268c.687-1.064.644-2.51.644-2.51s-1.262.664-1.906 1.557c-.83 1.14-.704 1.753-.475 2.22zm-1.339-.171s.56-.63-.127-2.152c-.525-1.157-1.762-1.897-1.762-1.897s-.119 1.429.288 2.45c.508 1.327 1.084 1.54 1.601 1.6zm-.178 1.064a.645.645 0 101.288 0 .645.645 0 00-.644-.647.634.634 0 00-.644.647z" fill="#fff"/></svg>