<svg width="133" height="94" fill="none" xmlns="http://www.w3.org/2000/svg"><path d="M41.017 82.275c22.653 0 41.017-18.418 41.017-41.137C82.034 18.418 63.67 0 41.017 0 18.364 0 0 18.418 0 41.138s18.364 41.137 41.017 41.137z" fill="#E6E7E8"/><path d="M41.017 80.546c21.701 0 39.293-17.644 39.293-39.408 0-21.765-17.592-39.409-39.293-39.409-21.7 0-39.292 17.644-39.292 39.409 0 21.764 17.591 39.408 39.292 39.408z" fill="#2F9AB2"/><path d="M41.017 75.234c19.252 0 34.858-15.653 34.858-34.961S60.27 5.313 41.018 5.313 6.16 20.965 6.16 40.273s15.606 34.96 34.858 34.96z" fill="#F2F2F2"/><path d="M42.002 13.96c0 .494-.492.988-.985.988s-.985-.494-.985-.988V9.142c0-.494.492-.989.985-.989s.985.495.985.989v4.818zm0 59.544c0 .494-.492.989-.985.989s-.985-.495-.985-.989V68.81c0-.494.492-.988.985-.988s.985.494.985.988v4.694zm-28.33-33.231c.493 0 .986.494.986.988s-.493.988-.986.988h-4.68c-.493 0-.986-.494-.986-.988s.493-.988.986-.988h4.68zm59.371 0c.492 0 .985.494.985.988s-.493.988-.986.988h-4.68c-.493 0-.986-.494-.986-.988s.493-.988.986-.988h4.68zM26.729 59.05c-.123 0-.37 0-.493-.123-.246-.247-.37-.741-.123-.988L45.082 34.59c.246-.247.739-.37.985-.123s.37.74.123.988L27.221 58.803c-.123.247-.37.247-.492.247z" fill="#2F9AB2"/><path d="M39.292 41.138h3.326L41.756 23.1h-1.601l-.863 18.037z" fill="#2F9AB2"/><path d="M42.126 42.373l-1.355-2.965 12.687-5.312.616 1.483-11.948 6.794z" fill="#2F9AB2"/><path d="M41.017 45.09a3.947 3.947 0 003.942-3.952 3.947 3.947 0 00-3.942-3.954 3.947 3.947 0 00-3.941 3.954 3.947 3.947 0 003.941 3.953z" fill="#2F9AB2"/><path d="M41.018 43.115c1.089 0 1.97-.885 1.97-1.977a1.974 1.974 0 00-1.97-1.976c-1.088 0-1.97.885-1.97 1.976 0 1.092.882 1.977 1.97 1.977zm10.858 17.604s-.042-.042-.085-.042c-1.515.084-2.82 1.893-2.567 3.365.127.673.295 1.262-.042 1.936a.879.879 0 01-.168.252c.168-1.136-.337-2.693-1.22-3.492.841-1.01 1.599-2.146 2.482-3.155.884-1.01 1.726-2.02 2.273-3.24.673-1.472-.379-3.24-2.02-2.524-.337-.631-.884-1.01-1.6-.463-.673-.925-2.777-.084-3.45.463v.042c-.38-.126-.842-.042-1.263.168-1.305.631-2.104 2.146-2.862 3.282-1.851 2.734-4.166 6.353-3.072 9.802.505 1.6 1.557 2.987 2.61 4.25 1.136 1.346 2.398 2.692 3.745 3.828.042.042.084.042.126.042.758.631 1.684 1.178 2.694 1.052 1.22-.126 2.525-1.136 3.114-2.188.042-.084 0-.168-.042-.21.842-1.473 1.22-3.324 1.641-4.922.337-1.389.631-2.777.716-4.166-.085-.63.084-4.249-1.01-4.08z" fill="#F2F2F2"/><path d="M44.974 66.188c-.884-1.136-2.063-1.473-3.493-1.262-.085 0-.085.126 0 .126 1.304 0 2.44.505 3.198 1.599.715 1.01.926 2.23 1.22 3.365.043.127.211.084.211-.042.042-1.262-.337-2.776-1.136-3.786z" fill="#0E80A4"/><path d="M51.876 60.719s-.042-.042-.085-.042c-1.515.084-2.82 1.893-2.567 3.365.127.673.295 1.262-.042 1.936a.879.879 0 01-.168.252c.168-1.136-.337-2.693-1.22-3.492.841-1.01 1.599-2.146 2.482-3.155.884-1.01 1.726-2.02 2.273-3.24.673-1.472-.379-3.24-2.02-2.524-.337-.631-.884-1.01-1.6-.463-.673-.925-2.777-.084-3.45.463v.042c-.38-.126-.842-.042-1.263.168-1.305.631-2.104 2.146-2.862 3.282-1.851 2.734-4.166 6.353-3.072 9.802.505 1.6 1.557 2.987 2.61 4.25 1.136 1.346 2.398 2.692 3.745 3.828.042.042.084.042.126.042.758.631 1.684 1.178 2.694 1.052 1.22-.126 2.525-1.136 3.114-2.188.042-.084 0-.168-.042-.21.842-1.473 1.22-3.324 1.641-4.922.337-1.389.631-2.777.716-4.166-.085-.63.084-4.249-1.01-4.08zm.463 4.46c-.127 1.514-.548 2.986-.968 4.417-.421 1.556-1.095 2.987-1.516 4.543-.8.758-1.599 1.473-2.735 1.599-.926.126-1.557-.673-2.399-.883-.8-1.01-1.852-1.894-2.735-2.861-1.01-1.094-1.978-2.23-2.694-3.534-.884-1.557-1.178-3.198-.715-4.965.42-1.598 1.304-3.07 2.104-4.501.715-1.262 1.515-2.525 2.483-3.66.505-.59 1.136-1.178 1.936-1.263 1.178-.126.252 2.02.084 2.314-.673 1.178-1.683 2.146-2.44 3.324-.716 1.136-1.053 2.44-1.137 3.786 0 .127.168.085.168 0 .253-1.893 1.22-3.534 2.399-5.006.842-1.094 1.936-2.23 1.894-3.744 0-.505-.21-.758-.505-.926.673-.294 1.389-.547 2.104-.631 1.6-.126.968 1.64.505 2.482-.631 1.052-1.557 1.851-2.357 2.777-.8.883-1.473 1.893-1.936 3.029 0 .042.043.042.043.042.547-.757 1.01-1.557 1.64-2.23.548-.63 1.095-1.178 1.642-1.767.884-.967 1.852-2.145 1.852-3.492a1.51 1.51 0 00-.084-.462c.883-.253 1.304.462 1.346 1.346.043 1.01-.8 2.103-1.388 2.86-1.095 1.389-2.526 2.861-3.03 4.628 0 .085.084.127.126.043a19.558 19.558 0 012.525-3.577c.8-.925 1.557-1.893 2.062-3.029.21-.504.168-1.22-.042-1.809.968-.21 1.641.21 1.726 1.262.042.926-.674 1.894-1.221 2.609-1.178 1.599-2.525 2.945-3.493 4.712-.042-.042-.084-.084-.126-.084-.042-.042-.084.042-.042.084.968 1.01 1.094 2.524 1.346 3.828 0 0 0 .042.042.042-.168.21-.378.421-.547.59-.505.588-.841 1.135-.841 1.935 0 .042.084.042.084 0 .168-1.557 1.725-2.02 2.23-3.366.295-.757-.252-1.683-.042-2.482.253-1.094 1.094-1.81 2.062-2.188.968-.042.674 3.576.59 4.207z" fill="#0E80A4"/><path d="M119.801 40.82c.336-.884.505-1.894.084-2.778-.337-.673-1.178-.967-1.894-.841a2.407 2.407 0 00-1.81 1.346v.042c-.673-.168-1.262.21-1.515.8-.799-.21-1.346.294-1.641 1.01-.757-.043-1.178.546-1.305 1.22-.631-.21-1.178.336-1.178.925-.042.631.505 1.178 1.052 1.346-.926.758-1.431 2.104-1.936 3.114-.799 1.514-1.894 2.44-3.367 3.281-1.22.715-2.483 1.346-3.535 2.314-.841.757-1.683 1.851-1.725 3.03-.042 1.261 1.178 2.27 1.852 3.154.841 1.094.883 2.567 1.683 3.703.589.799 1.515 1.094 2.483 1.262 0 .084.084.126.168.084.842-.21 1.558-.463 1.936-1.304.379-.842 0-1.81-.168-2.65 0-.043-.042-.043-.042-.085v-.21c0-.59.042-1.178.168-1.767.295-1.052 1.094-2.062 1.81-2.861 1.304-1.43 2.862-2.608 4.208-3.997 1.389-1.43 2.61-2.945 3.367-4.754.716-1.683 1.389-3.365 1.347-5.3 0-.043 0-.043-.042-.085z" fill="#F2F2F2"/><path d="M119.801 40.82c.336-.884.505-1.894.084-2.778-.337-.673-1.178-.967-1.894-.841a2.407 2.407 0 00-1.81 1.346v.042c-.673-.168-1.262.21-1.515.8-.799-.21-1.346.294-1.641 1.01-.757-.043-1.178.546-1.305 1.22-.631-.21-1.178.336-1.178.925-.042.631.505 1.178 1.052 1.346-.926.758-1.431 2.104-1.936 3.114-.799 1.514-1.894 2.44-3.367 3.281-1.22.715-2.483 1.346-3.535 2.314-.841.757-1.683 1.851-1.725 3.03-.042 1.261 1.178 2.27 1.852 3.154.841 1.094.883 2.567 1.683 3.703.589.799 1.515 1.094 2.483 1.262 0 .084.084.126.168.084.842-.21 1.558-.463 1.936-1.304.379-.842 0-1.81-.168-2.65 0-.043-.042-.043-.042-.085v-.21c0-.59.042-1.178.168-1.767.295-1.052 1.094-2.062 1.81-2.861 1.304-1.43 2.862-2.608 4.208-3.997 1.389-1.43 2.61-2.945 3.367-4.754.716-1.683 1.389-3.365 1.347-5.3 0-.043 0-.043-.042-.085zm-6.902 0c-.168.883.042 1.85.799 2.271a6.526 6.526 0 00-.967.21c-.463-.336-.758-.799-.716-1.388 0-.631.379-.883.884-1.094zm-2.062 1.808c-.042-.547.463-.63.841-.841-.042.63.169 1.304.758 1.598-.253.085-.463.21-.716.38-.042 0-.042.041-.084.083 0-.042 0-.042-.042-.084-.379-.252-.715-.631-.757-1.136zm5.723-.336c0 .042.042.084.084.042.295-.842.085-1.515-.126-2.314-.252-.884.169-1.725.968-2.146.589-.336 1.389-.252 1.852.21.757.716.337 2.272.126 3.114 0 .084.042.126.084.126-.168 1.893-.926 3.66-1.683 5.343-.884 1.935-2.483 3.576-4.04 5.048-1.305 1.263-2.82 2.356-3.914 3.871-.547.757-1.01 1.557-1.263 2.44-.084.252-.084.505-.084.757-.126.59-.042 1.178.084 1.767.169.8.379 1.641-.21 2.314-.295.337-.758.463-1.136.673-1.137-.252-2.147-.715-2.694-1.767-.547-1.051-.631-2.187-1.305-3.197-.715-1.052-1.978-1.935-1.767-3.366.252-1.388 1.852-2.65 2.946-3.365 2.02-1.347 4.124-2.23 5.387-4.418.589-1.094 1.052-2.23 1.894-3.155.883-.926 2.398-.673 3.408-1.346.043-.042.043-.169-.042-.127-.378.169-.757.21-1.136.295-.505-.505-.8-1.136-.757-1.893 0-.379.168-.8.42-1.094.253-.252.547-.295.884-.295-.168.8.084 1.894.547 2.567.042.042.084 0 .084-.042-.168-.631-.378-1.263-.378-1.936 0-.21.042-.42.084-.63.042-.043.042-.085.042-.127a1.26 1.26 0 01.168-.336c.253-.295.589-.295.926-.337" fill="#0E80A4"/><path d="M108.732 76.2c-.462.295-.799.632-1.304.8-.589.21-1.179.252-1.768.21-1.22-.084-2.188-.715-2.693-1.809 1.094-2.23 1.683-4.627 1.894-7.067.168-2.44 0-5.091-1.263-7.237 0-.042-.042-.084-.042-.126.8-.21 1.347.673 2.062.926.042.042.042.084.084.084.042.042.127 0 .127-.042 0-.21-.379-1.683-.043-1.599.295.042.548.379.716.589.168.21.379.463.547.715.042.042.042.042.084.042v.042c.042.084.169.042.211-.042.042-.63-.042-1.43.294-1.977.253-.379 1.137 1.304 1.263 1.472 0 .043.042.043.042.085.042.042.126.042.126 0 0 0 0-.042.042-.085.042-.042.042-.042.042-.084v-.042c.169-.63.505-2.44.968-2.061.084.084.127.21.169.378-.295 1.389-.127 2.861-.042 4.25.126 1.556.126 3.155.126 4.712-.084 2.608-.379 5.51-1.642 7.867z" fill="#006F89"/><path d="M118.538 23.065c-.42-2.945-3.703-5.385-6.481-5.764-3.03-.42-5.976 1.136-8.206 3.03-2.988 2.524-3.83 6.605-3.115 10.265.421 2.104 1.6 3.955 2.568 5.848 1.136 2.188 2.314 4.333 3.156 6.689a23.603 23.603 0 011.347 7.026c.084 2.356.168 4.838-.421 7.152-.842 3.282-3.114 7.446-6.523 8.625-2.063.715-4.335.378-6.481.925-2.063.505-1.558 3.534.505 3.618 2.735.084 5.681-.294 8.164-1.514 3.114-1.515 5.387-5.007 6.944-7.994 1.852-3.534 1.726-7.404 1.094-11.233-.715-4.165-1.809-8.204-3.745-11.99-1.726-3.408-4.209-7.32-3.367-11.317.547-2.608 2.946-5.007 5.429-5.848 2.693-.925 5.092.253 5.471 3.155.126.926.042 2.483-.758 3.156-1.178 1.01-2.23-1.389-3.535-.421-1.052.8-1.136 1.935-.463 3.03.926 1.472 2.652 1.766 4.209 1.556 3.577-.547 4.629-5.133 4.208-7.994z" fill="#0E80A4"/><path d="M131.922 41.24c-.169-.59-.968-.968-1.516-.673-.042.042-.084.042-.126.084.126-.715-.547-1.262-1.22-1.178a1.23 1.23 0 00-.379.084 1.271 1.271 0 00-.337-.673c-.378-.42-.883-.757-1.473-.631-.505.084-.968.378-1.346.757.21-.968-.674-1.893-1.726-1.64-.21.041-.421.168-.589.294-.126-1.22-1.599-1.936-2.82-1.304-.841.42-1.431 1.136-1.809 1.935-.548 1.178-.127 2.524-.463 3.744-1.221 1.136-2.063 2.693-2.904 4.081-.547.884-1.179 1.725-1.978 2.44-.926.842-2.189 1.262-3.325 1.767-1.936.842-3.367 2.02-4.166 3.997-.632 1.556-.505 3.366.841 4.502.632.546 1.473.715 2.189 1.135.841.505 1.262 1.347 1.683 2.23.589 1.304 1.136 3.197 2.778 3.45 1.431.252 1.809-1.43 1.725-2.524-.042-.421-.168-.842-.294-1.22-.042-.084-.127-.127-.169-.084-.084-1.6-.126-3.156 1.221-4.376.631-.589 1.389-1.01 2.062-1.556.842-.674 1.683-1.389 2.525-2.02 1.81-1.43 3.704-2.734 5.639-3.955 1.473-.925 3.325-1.85 4.251-3.407.631-.758 1.052-1.767 1.389-2.65.252-.884.589-1.768.337-2.61z" fill="#F2F2F2"/><path d="M131.922 41.24c-.169-.59-.968-.968-1.516-.673-.042.042-.084.042-.126.084.126-.715-.547-1.262-1.22-1.178a1.23 1.23 0 00-.379.084 1.271 1.271 0 00-.337-.673c-.378-.42-.883-.757-1.473-.631-.505.084-.968.378-1.346.757.21-.968-.674-1.893-1.726-1.64-.21.041-.421.168-.589.294-.126-1.22-1.599-1.936-2.82-1.304-.841.42-1.431 1.136-1.809 1.935-.548 1.178-.127 2.524-.463 3.744-1.221 1.136-2.063 2.693-2.904 4.081-.547.884-1.179 1.725-1.978 2.44-.926.842-2.189 1.262-3.325 1.767-1.936.842-3.367 2.02-4.166 3.997-.632 1.556-.505 3.366.841 4.502.632.546 1.473.715 2.189 1.135.841.505 1.262 1.347 1.683 2.23.589 1.304 1.136 3.197 2.778 3.45 1.431.252 1.809-1.43 1.725-2.524-.042-.421-.168-.842-.294-1.22-.042-.084-.127-.127-.169-.084-.084-1.6-.126-3.156 1.221-4.376.631-.589 1.389-1.01 2.062-1.556.842-.674 1.683-1.389 2.525-2.02 1.81-1.43 3.704-2.734 5.639-3.955 1.473-.925 3.325-1.85 4.251-3.407.631-.758 1.052-1.767 1.389-2.65.252-.884.589-1.768.337-2.61zm-12.668-3.282c.463-.715 1.22-1.304 2.062-1.388.463-.042.884.21 1.221.505.294.252.336.589.294.967-.547.674-.799 1.725-.799 2.525-1.221-.042-2.399.294-3.409 1.093a.504.504 0 00-.211.21c.547-1.261.126-2.692.842-3.912zm12.247 4.04c-.042 1.556-1.01 2.902-1.726 4.206-.673.631-1.262 1.304-2.02 1.851-.926.673-1.894 1.22-2.862 1.81-1.978 1.261-3.829 2.692-5.681 4.122-.842.673-1.641 1.347-2.483 1.978-.716.504-1.431 1.01-2.02 1.724-1.179 1.431-.505 3.619-.379 5.301 0 .085.126.085.126 0 .042.463 0 .968-.168 1.43-.379 1.179-1.641.59-2.189-.041-1.01-1.136-1.178-2.777-2.062-3.955-.883-1.178-2.399-1.304-3.451-2.272-1.515-1.43-.547-3.996.547-5.385 1.179-1.514 3.115-2.02 4.798-2.819 1.557-.715 2.609-1.977 3.535-3.407.926-1.515 1.726-3.113 3.072-4.333 1.305-1.263 3.031-1.515 4.756-1.43.042 0 .042-.043 0-.085a4.154 4.154 0 00-1.01-.126c.253-.631.379-1.347.716-1.978.042 0 .126-.042.126-.084.042-.084.042-.126.042-.168.337-.463.968-.715 1.515-.463.589.253.673.968.547 1.515-.337.462-.589 1.051-.631 1.598 0 .085.126.085.168 0 .295-.841.8-1.556 1.557-2.061.337-.21.758-.295 1.179-.21.547.126.757.589.841 1.051-.505.463-.715 1.347-.968 1.936-.042.042.042.126.085.084.505-.547.589-1.304 1.22-1.767.253-.169.631-.21.926-.084.294.168.379.505.505.799 0 0 0 .042.042.042-.547.547-.673 1.515-1.136 2.146-.295-.21-.632-.337-1.052-.505-.043 0-.085.042-.043.084.505.42 1.011.631 1.221 1.304.295.884-.168 1.767-.547 2.567-.042.084.084.126.126.084.421-.674.968-1.683.842-2.483a1.462 1.462 0 00-.421-.883c.421-.337.631-.926.884-1.388.21-.421.505-.8 1.052-.716.421.085.421.631.421 1.01z" fill="#0E80A4"/><path d="M118.117 70.9c-.336-2.062-1.052-3.955-1.725-5.932-.337-1.01-.8-2.062-.926-3.113-.084-.758.126-1.515.042-2.272 0-.084-.084-.084-.126-.042h-.042c-.589-.21-.968.547-1.094 1.346-.211-.757-.59-1.557-1.137-1.262-.463.252-.505.883-.505 1.346 0 .295 0 .715.126 1.052-.252-.379-.547-.673-.883-1.01-.295-.294-.884-.8-1.347-.589-.505.253-.421.884-.126 1.473-.211-.169-.463-.379-.716-.505-.252-.169-.799-.379-1.094-.253-.042-.042-.042-.042-.084 0-.547.337-.168.968.126 1.389.211.336.505.673.8.967.463.547.841 1.178 1.178 1.852.884 1.682 1.221 3.407 1.305 5.3.042.758 0 1.515 0 2.314 0 .758.126 1.599-.169 2.356-.589-.126-1.262-.168-1.851-.252-1.052-.21-2.062-.59-3.03-1.052-1.263-.547-2.82-1.22-3.83-2.272-.337-.967-.758-1.893-1.305-2.734-1.304-1.936-3.367-3.114-5.597-3.66-2.904-.674-6.06-.21-8.922.589-1.978.546-3.872 1.346-5.682 2.313-1.01.253-1.978.59-2.988.842-1.136.252-2.314.378-3.493.589-2.104.336-4.377.967-6.228 2.103-3.24.463-6.229 1.81-9.217 3.072-1.81.757-3.661 1.514-5.513 2.103-1.347.463-2.862.757-4.04 1.599.042-.127.042-.253.084-.379.21-1.094.42-2.145.715-3.197.253-.884.421-1.725.884-2.524.042-.043.042-.127.084-.169.084-.084 0-.168-.126-.21-.126-.126-.379-.21-.673-.084-.674.21-1.095.967-1.305 1.683-.042-.505-.084-1.01-.379-1.473-.168-.252-.463-.463-.715-.252-.337.294-.463.883-.505 1.472-.337-.8-.884-1.64-1.726-1.262-.589.252-.673.968-.631 1.683-.21-.337-.505-.631-.8-.884-.336-.252-.757-.294-1.01.084-.294.421-.21 1.094-.21 1.557 0 .337.042.673.084 1.01-.168-.547-.505-1.473-.884-1.262-.336.21-.084.967-.042 1.22.21 1.304.21 2.65.169 3.954-.043 2.146-.463 4.88.294 7.026.421 1.304 1.263 2.524 2.736 2.693 2.062.21 3.998-.673 5.807-1.515 2.4-1.136 4.756-2.272 7.239-3.24 2.273-.883 5.008-2.313 7.491-1.808l.379.63a.78.78 0 00-.295.085c-.925.379 0 1.767.716 2.692-.505-.21-1.094-.294-1.6-.42-.378-.084-1.262-.253-1.388.294-.127.547.463.884.841 1.136.21.126.421.295.632.42-.21 0-.463 0-.674.043-.378.042-1.01.252-1.01.757 0 .379.463.631.716.8.084.042.168.084.294.126-.336.042-.715.126-1.01.294-.505.21-1.346.842-1.136 1.473.21.8 1.43.757 2.315.589 1.22.21 2.356.589 3.577.967 1.136.379 2.357.547 3.577.715 2.483.337 5.008.674 7.533.505a10.422 10.422 0 005.724-2.103c1.725.673 3.914.547 5.724.294 1.893-.294 3.619-.799 5.176-1.935 1.347-.968 2.525-2.23 3.493-3.576 2.231.884 5.092.968 7.449.757 1.852-.168 3.956-.673 5.597-1.725.548 0 .968-.294 1.473-.547.674-.336 1.473-.336 2.147-.673.842-.42 1.262-1.472 1.304-2.356.463-1.64.421-3.365.421-5.048-.084-2.104-.168-4.039-.463-5.974z" fill="#0E80A4"/><path d="M48.383 59.246s-5.85-12.495-4.63-19.563c0 0-3.24 1.136-4.966-1.725 0 0 2.61.926 5.008-1.935 0 0-2.904 1.178-3.956-1.178 0 0 1.431.463 3.41-.757 1.935-1.22 3.66-4.46 6.817-7.152 8.459-7.152 15.066-10.686 29.502-6.9 14.266 3.744 17.128 20.11 16.16 28.734-.968 8.625-2.02 12.37-8.543 16.871-6.481 4.46-38.803-6.395-38.803-6.395z" fill="#0E80A4"/><path d="M88.153 56.049c5.934-.547 10.9-4.67 12.794-9.466 1.557-3.913 1.304-9.045-2.694-11.57-.505-.336-1.515-.757-2.357-.967-5.218-1.347-8.5 2.776-10.31 7.068-1.768 4.29-2.483 8.708.168 12.242 1.136 1.43.968 2.272 2.399 2.693z" fill="#0E80A4"/><path d="M91.646 52.304c-3.535-5.174-9.175-4.375-10.227-4.122h-.084c-4.04-10.813-10.016-16.324-16.455-15.02-.842.169-1.684.463-2.525.842-5.976 2.818-6.313 8.75-6.229 10.938-1.936-3.366-4.798-4.207-6.186-3.955-.21.042-.421.127-.59.21-2.398 1.473-3.45 4.544-3.03 8.794.253 2.86 1.137 5.427 1.305 5.932-3.03 3.24-3.535 6.142-3.451 8.035a10.2 10.2 0 00.294 1.81c1.179 3.954 4.798 6.857 8.67 7.993 1.263.378 2.525.63 3.788.841 3.156.631 5.892.968 6.48.884a2.24 2.24 0 00.464-.127c1.725.968 3.62 1.263 5.555.884 3.451-.673 6.018-3.282 6.313-3.576 9.721-3.87 15.613-8.414 17.086-13.21.8-2.398.337-4.88-1.178-7.153z" fill="#F2F2F2" stroke="#0E80A4" stroke-miterlimit="10"/><path d="M50.024 42.502c-.463.168-.884.42-1.22.841.041 0 .083 0 .125.042a2.283 2.283 0 011.095-.883z" fill="#FAAA74"/><path d="M69.425 73.76c-.547.716-1.178.505-1.683.043-.463-.463-.59-1.43-1.053-1.893.295-.042.59-.042.884-.042.547.041 1.137.168 1.6.504.378.295.589.926.252 1.389zm2.189 3.745c1.81 0 3.703.883 5.344 1.767 1.305.715 2.526 1.557 3.704 2.398.463.337.968.673 1.473 1.01.042.042.084.042.126.084-.42.673-.884 1.346-1.262 1.935-.716 1.052-1.852 2.398-3.367 2.524h-.379c-1.052 0-2.188-.336-3.24-.63-.127-.043-.295-.085-.421-.127-1.852-.547-3.115-1.178-4.083-2.146l-.168-.168c-.295-.294-.715-.715-1.178-1.01-.042-.084-.127-.168-.169-.252a7.437 7.437 0 010-1.935c.169-2.062 1.515-3.408 3.493-3.492-.042.042.042.042.127.042zm17.633 13.799c-.715 0-1.43-.042-2.146-.084-.21 0-.42-.042-.59-.042 1.305-1.22 2.19-2.819 2.61-4.586.084-.252.21-.547.295-.883a9.72 9.72 0 001.557.126c1.936 0 3.914-.505 5.765-1.052 1.768-.547 3.241-1.22 4.461-2.103-.378.967-.757 1.893-1.304 2.776-.926 1.389-2.23 2.735-3.704 3.87-1.22.926-2.609 1.431-4.671 1.81-.716.084-1.431.168-2.273.168zm-21.085-5.89c-.126-.126-.252-.084-.336.042-1.557-1.094-2.357-3.07-3.283-4.67-.926-1.514-2.02-2.818-3.703-3.45-2.441-.925-6.86.043-7.07 3.198v.042c-1.01.59-1.894 1.473-2.105 2.609-.379.294-1.978 1.766-1.262 2.187-.547.505-1.053 1.22-1.095 1.936-.084.883.337 1.598 1.263 1.682 1.094.084 1.978-1.136 2.862-1.64 1.683-1.01 3.03.378 4.166 1.472.926.926 1.852 1.935 3.157 2.314 1.22.337 2.735-.295 3.745-.884.042 0 .042-.042.042-.042 1.179.169 2.441.295 3.24-.799.758-1.01 1.347-2.945.38-3.997z" fill="#F2F2F2"/><path d="M68.162 85.414c-.126-.126-.252-.084-.336.042-1.557-1.094-2.357-3.07-3.283-4.67-.926-1.514-2.02-2.818-3.703-3.45-2.441-.925-6.86.043-7.07 3.198v.042c-1.01.59-1.894 1.473-2.105 2.609-.379.294-1.978 1.766-1.262 2.187-.547.505-1.053 1.22-1.095 1.936-.084.883.337 1.598 1.263 1.682 1.094.084 1.978-1.136 2.862-1.64 1.683-1.01 3.03.378 4.166 1.472.926.926 1.852 1.935 3.157 2.314 1.22.337 2.735-.295 3.745-.884.042 0 .042-.042.042-.042 1.179.169 2.441.295 3.24-.799.758-1.01 1.347-2.945.38-3.997zm-.883 3.829c-.716.8-2.02.505-2.946.63-.042 0-.084.043-.126.127-1.221.379-2.273 1.01-3.578.631-1.136-.337-2.062-1.514-2.904-2.314-1.346-1.262-2.651-2.272-4.503-1.346-.926.463-1.894 2.061-3.072 1.514-.673-.294-.42-1.304-.21-1.809.21-.505.589-.883 1.01-1.262.757-.673 1.767-1.136 2.777-1.346 1.347-.294 2.694.505 3.956.841.042 0 .084-.084.042-.084-1.262-.505-2.398-1.304-3.83-1.136-1.094.127-2.146.674-2.987 1.305a.874.874 0 00-.21.168c-.211-.505 1.262-1.64 1.598-1.851 1.473-.968 3.157-.842 4.714-.21h.126c.631.252 1.263.462 1.768.925.084.042.168-.042.084-.084-.295-.379-.8-.631-1.22-.884a6.194 6.194 0 00-.926-.42c-1.39-.758-3.157-.632-4.546.126.758-1.43 2.147-2.356 3.83-2.44 1.6-.126 3.114.547 4.42 1.43.041.042.083-.042.041-.042-1.305-1.22-3.198-2.02-5.008-1.725a5.605 5.605 0 00-1.557.505c.631-1.473 1.557-2.398 3.156-2.819 1.6-.42 3.325-.21 4.714.715 1.389.968 2.272 2.609 3.072 4.04.716 1.303 1.557 2.86 2.904 3.575h.084a3.274 3.274 0 01-.673 3.24zM54.738 51c.336 1.894-.421 3.87-1.726 4.334-1.304.504-2.61-.632-2.946-2.525-.337-1.893.421-3.87 1.726-4.333 1.304-.505 2.609.631 2.946 2.524z" fill="#0E80A4"/><path d="M52.339 51.884c-.21.883-.8 1.262-1.347.925-.547-.336-.8-1.346-.59-2.187.211-.842.8-1.263 1.306-.926.547.337.841 1.304.63 2.188z" fill="#F2F2F2"/><path d="M67.279 47.424c.883 2.062.547 4.418-.758 5.343-1.347.926-3.114 0-4.04-2.061-.884-2.062-.547-4.46.758-5.343 1.346-.926 3.156 0 4.04 2.061zm-5.387 9.971l-.59.505c-.63.505-1.388.8-2.188.8h-.547c-.21.041-.252.378-.042.42l1.852.631c.463.168 1.01-.042 1.22-.463l.8-1.388c.168-.295-.168-.673-.505-.505z" fill="#0E80A4"/><path d="M72.455 64.338c-5.81 11.245-14.03 5.607-14.03 5.607" stroke="#0E80A4" stroke-miterlimit="10"/><path d="M64.249 49.191c-.21.884-.8 1.262-1.347.926-.547-.337-.8-1.346-.59-2.188.211-.841.8-1.262 1.305-.925.547.336.842 1.346.632 2.187z" fill="#F2F2F2"/></svg>