<svg width="11" height="17" viewBox="0 0 11 17" fill="none" xmlns="http://www.w3.org/2000/svg">
<path d="M9.55332 16.8602C9.68376 16.8602 9.81126 16.8244 9.91969 16.7574C10.0281 16.6904 10.1126 16.5952 10.1625 16.4838C10.2124 16.3725 10.2254 16.2499 10.1999 16.1317C10.1745 16.0135 10.1116 15.9049 10.0193 15.8197L2.35683 8.73881L10.0193 1.65789C10.1395 1.54296 10.2059 1.38902 10.2044 1.22923C10.2029 1.06945 10.1336 0.916603 10.0113 0.803614C9.88904 0.690624 9.72364 0.626534 9.55073 0.625145C9.37782 0.623757 9.21124 0.685182 9.08687 0.79619L0.957895 8.30816C0.834265 8.42244 0.764812 8.57742 0.764812 8.73901C0.764812 8.90061 0.834265 9.05558 0.957895 9.16986L9.08687 16.6818C9.14813 16.7384 9.22086 16.7833 9.3009 16.8139C9.38093 16.8445 9.46671 16.8602 9.55332 16.8602Z" fill="#C4C4C4"/>
</svg>
