<svg width="93" height="19" viewBox="0 0 93 19" fill="none" xmlns="http://www.w3.org/2000/svg">
<path d="M14.571 7.06333C14.5794 7.15082 14.5678 7.23531 14.5364 7.3168L14.4552 7.54529C14.4326 7.61613 14.4104 7.69183 14.3887 7.77239C14.3669 7.85295 14.3661 7.94623 14.386 8.05224C14.2648 8.2208 14.1431 8.3845 14.021 8.54334C13.8988 8.70218 13.7931 8.87906 13.7038 9.074C13.596 9.07451 13.5157 9.10672 13.4629 9.17062C13.4199 9.2336 13.3885 9.31509 13.3686 9.41509C13.171 9.50267 13.0014 9.62681 12.8598 9.78751C12.7172 9.93849 12.5956 10.1022 12.4947 10.2786C12 10.5418 11.5439 10.8503 11.1264 11.2041C10.709 11.558 10.3356 11.9616 10.0062 12.415C10.1812 12.3982 10.3532 12.4014 10.5221 12.4245C10.7009 12.4466 10.8752 12.4741 11.0451 12.5069C11.2238 12.529 11.3976 12.5516 11.5666 12.5747C11.7346 12.5881 11.9052 12.5766 12.0784 12.5405C12.2159 12.645 12.3662 12.7288 12.5291 12.7916C12.7018 12.8536 12.8692 12.9112 13.0313 12.9643C13.203 13.0166 13.366 13.0795 13.5202 13.153C13.6841 13.2256 13.8304 13.3195 13.9592 13.4347C13.961 13.4542 13.958 13.4741 13.9502 13.4945C13.9511 13.5042 13.9525 13.5188 13.9544 13.5382C13.9618 13.616 13.9887 13.6919 14.035 13.7659C14.0804 13.8303 14.1068 13.9013 14.1143 13.9791C14.0731 14.0615 14.0373 14.1483 14.0067 14.2395C13.9762 14.3307 13.9351 14.4132 13.8833 14.4868C13.8412 14.5595 13.7884 14.6234 13.725 14.6785C13.6616 14.7336 13.5721 14.7716 13.4563 14.7925C13.4235 14.9624 13.3583 15.1011 13.2607 15.2085C13.1621 15.3063 13.0485 15.4005 12.9199 15.4913C12.8 15.5714 12.6806 15.6564 12.5617 15.7463C12.4418 15.8264 12.3437 15.929 12.2674 16.0541C11.9822 16.15 11.7048 16.2747 11.4349 16.428C11.1739 16.5707 10.9471 16.7641 10.7547 17.0081C10.6107 17.0415 10.4624 17.0802 10.3096 17.1243C10.1656 17.1577 10.0208 17.1813 9.87494 17.1953C9.67079 17.2148 9.50181 17.1918 9.36799 17.1261C9.23325 17.0507 9.14546 16.9021 9.10462 16.6804C9.12728 16.6095 9.16544 16.547 9.21912 16.4928L9.39473 16.3289C9.45813 16.2738 9.51181 16.2196 9.55576 16.1663C9.60851 16.1024 9.64575 16.0302 9.66747 15.9496C9.68691 15.9478 9.71168 15.9503 9.74177 15.9572C9.77094 15.9544 9.8001 15.9517 9.82926 15.9489C9.94592 15.9377 10.0359 15.9046 10.0993 15.8494C10.1627 15.7943 10.2213 15.7397 10.275 15.6855C10.3384 15.6304 10.4071 15.5797 10.4811 15.5333C10.5552 15.487 10.6559 15.4627 10.7832 15.4603C10.8391 15.3274 10.9324 15.2253 11.0629 15.1539C11.1925 15.0729 11.3278 15.0011 11.469 14.9385C11.6092 14.8662 11.7393 14.79 11.8592 14.7099C11.9878 14.6191 12.0695 14.4984 12.1041 14.348C12.0481 14.2749 11.9793 14.2226 11.8978 14.1911C11.8154 14.15 11.7242 14.1195 11.6242 14.0996L11.3388 14.0386C11.2485 14.0178 11.1675 13.9912 11.0957 13.9589C10.9915 13.9982 10.8909 14.0226 10.7937 14.0319C10.5895 14.0514 10.3884 14.0511 10.1902 14.0308C9.99208 14.0105 9.79093 14.0101 9.58679 14.0296C9.40208 14.0473 9.24401 14.087 9.11256 14.1486C9.06302 14.1435 9.00816 14.134 8.94797 14.1202C8.89751 14.1054 8.84704 14.0906 8.79658 14.0758C8.58136 14.1847 8.35223 14.2508 8.1092 14.274L7.16138 14.3647C7.08361 14.3721 7.00677 14.3893 6.93086 14.4162C6.84253 14.6208 6.80906 14.835 6.83045 15.0585C6.84626 15.2238 6.88591 15.3819 6.9494 15.5328C7.01195 15.6739 7.07544 15.8248 7.13986 15.9854C7.35102 16.1418 7.55086 16.3336 7.73938 16.5608C7.92696 16.7783 8.03424 17.028 8.06121 17.31C8.06772 17.378 8.06797 17.4319 8.06197 17.4718C7.95825 17.413 7.82862 17.3911 7.67308 17.406C7.53698 17.419 7.4076 17.451 7.28495 17.5019C7.17201 17.552 7.04843 17.5932 6.91419 17.6257C6.80261 17.5873 6.68616 17.5494 6.56486 17.512C6.44262 17.4648 6.32432 17.4075 6.20994 17.3399C6.11636 17.1821 6.02371 17.034 5.93199 16.8956C5.83934 16.7475 5.72818 16.611 5.5985 16.4861L5.59292 16.4277C5.56037 16.0875 5.49912 15.7549 5.40917 15.43C5.32894 15.1041 5.27255 14.771 5.24 14.4308C5.22512 14.2753 5.2151 14.1192 5.20994 13.9628C5.21357 13.7957 5.24776 13.6403 5.31251 13.4968C5.26102 13.2663 5.22319 13.0246 5.19901 12.7719C5.15065 12.2664 5.13145 11.7581 5.14141 11.247C5.15138 10.7359 5.13125 10.2179 5.08102 9.69295C5.07079 9.58602 5.0557 9.47955 5.03575 9.37354C5.02552 9.26661 5.01043 9.16014 4.99048 9.05414L4.93215 9.05972C4.80577 9.07181 4.68612 9.10288 4.57318 9.15292C4.45932 9.19325 4.34592 9.23843 4.23298 9.28848C4.12005 9.33852 4.00225 9.38904 3.8796 9.44001C3.75601 9.48127 3.63103 9.50794 3.50466 9.52003C3.43061 9.56635 3.37114 9.61128 3.32625 9.65482C3.28137 9.69835 3.23601 9.73703 3.1902 9.77084C3.14438 9.80466 3.09324 9.83408 3.03677 9.8591C2.97059 9.88505 2.89328 9.89735 2.80486 9.896C2.70444 9.97428 2.62692 10.0357 2.57231 10.0801C2.50706 10.1158 2.41796 10.1587 2.30502 10.2087C2.24856 10.2337 2.20274 10.2675 2.16758 10.3101L2.06069 10.4234C2.02459 10.4563 1.98364 10.4896 1.93782 10.5234C1.892 10.5572 1.83021 10.5779 1.75244 10.5853C1.68439 10.5918 1.63532 10.5916 1.60523 10.5847C1.54225 10.5416 1.48806 10.488 1.44267 10.4236C1.38755 10.3602 1.33776 10.3012 1.2933 10.2466C1.23818 10.1832 1.18399 10.1296 1.13074 10.0856C1.06683 10.0329 0.994595 9.99562 0.914035 9.97389C0.948269 9.92157 0.963992 9.88082 0.961201 9.85166C0.94776 9.8137 0.938714 9.77042 0.934064 9.72182C0.931274 9.69265 0.934274 9.67275 0.943065 9.6621C0.97493 9.48246 1.0494 9.33799 1.16648 9.22869C1.28262 9.10967 1.41567 9.01355 1.56563 8.94034C1.71466 8.85741 1.86948 8.78374 2.03009 8.71932C2.18098 8.65584 2.32122 8.58356 2.45081 8.50249C2.83087 8.47594 3.17272 8.4089 3.47635 8.30136C3.77906 8.18411 4.08824 8.0319 4.40388 7.84474C4.465 7.86833 4.52472 7.87733 4.58305 7.87175C4.63165 7.8671 4.67979 7.85759 4.72747 7.84321L4.8705 7.8001C4.97785 7.69173 5.09818 7.61645 5.23149 7.57426C5.3648 7.53208 5.49857 7.49476 5.63281 7.46229C5.76704 7.42983 5.89642 7.39783 6.02094 7.3663C6.14452 7.32504 6.2512 7.26088 6.34097 7.17381L6.3993 7.16823C6.63261 7.14591 6.8622 7.0847 7.08807 6.98461C7.32366 6.88359 7.55418 6.8321 7.77963 6.83016C7.96382 6.70462 8.13715 6.61937 8.29963 6.57439C8.4621 6.52942 8.65027 6.4967 8.86413 6.47624C8.91274 6.47159 8.96921 6.44656 9.03353 6.40117C9.09693 6.34605 9.17724 6.31384 9.27445 6.30454C9.29389 6.30268 9.30894 6.30615 9.31959 6.31494C9.33903 6.31308 9.35848 6.31122 9.37792 6.30936C9.46541 6.30099 9.52095 6.26625 9.54453 6.20513C9.57784 6.14308 9.6674 6.10508 9.81322 6.09113C9.88126 6.08462 9.94492 6.08343 10.0042 6.08758C10.0625 6.082 10.1208 6.07642 10.1792 6.07083C10.2472 6.06432 10.2886 6.03584 10.3034 5.98537C10.3173 5.92518 10.3587 5.89669 10.4277 5.8999C10.4606 5.936 10.511 5.95079 10.5791 5.94428C10.6462 5.92805 10.6992 5.91807 10.7381 5.91435C10.8061 5.90784 10.8469 5.92357 10.8603 5.96152C11.0066 5.84943 11.1706 5.76996 11.3525 5.72313C11.5442 5.67536 11.7275 5.64311 11.9025 5.62637C11.9705 5.61986 12.039 5.61821 12.108 5.62142C12.1761 5.61491 12.2494 5.6128 12.3281 5.61508C12.41 5.54838 12.5093 5.50945 12.626 5.49829C12.694 5.49178 12.8038 5.51071 12.9552 5.55509C13.1163 5.59853 13.2832 5.65124 13.4559 5.7132C13.6286 5.77515 13.7872 5.84337 13.9316 5.91784C14.0761 5.99231 14.1657 6.05731 14.2005 6.11285C14.2218 6.13043 14.2357 6.17325 14.2422 6.2413C14.2584 6.30842 14.2786 6.36535 14.3027 6.41209C14.3624 6.5241 14.4169 6.63171 14.466 6.73492C14.5239 6.82748 14.5589 6.93695 14.571 7.06333ZM12.9677 7.37858C12.9659 7.35914 12.9592 7.34016 12.9476 7.32165C12.9448 7.29249 12.9425 7.26818 12.9406 7.24874C12.8864 7.19506 12.8142 7.15783 12.7239 7.13704C12.6433 7.11531 12.5535 7.09938 12.4545 7.08924C12.3651 7.07817 12.2714 7.07242 12.1732 7.072C12.0839 7.06093 12.0038 7.04406 11.9329 7.02141C11.7353 7.10899 11.515 7.16441 11.2719 7.18766C11.0483 7.20905 10.8458 7.19409 10.6643 7.14278C10.5852 7.23865 10.4799 7.31739 10.3485 7.37902C10.217 7.44064 10.0749 7.49348 9.92216 7.53752C9.77821 7.57092 9.62892 7.59991 9.47431 7.62452C9.32849 7.63847 9.19726 7.65102 9.0806 7.66218C9.04172 7.6659 8.97646 7.70158 8.88483 7.76921C8.7932 7.83683 8.70849 7.87437 8.63072 7.88181C8.5724 7.88739 8.5166 7.8682 8.46335 7.82425C8.38237 7.90066 8.26643 7.97062 8.11554 8.03411C7.96465 8.09759 7.80844 8.15668 7.6469 8.21138C7.48443 8.25635 7.31756 8.30665 7.1463 8.36228C6.98476 8.41698 6.84752 8.46935 6.73459 8.51939C6.64211 8.78331 6.60543 9.06641 6.62454 9.36869C6.64272 9.66126 6.6653 9.9485 6.69227 10.2304C6.70808 10.3957 6.7137 10.557 6.70914 10.7144C6.70458 10.8718 6.71021 11.0331 6.72602 11.1984C6.73346 11.2762 6.74622 11.3583 6.76432 11.4449C6.78148 11.5217 6.81808 11.5967 6.87413 11.6698C6.80194 11.7356 6.75591 11.8185 6.73605 11.9185C6.72498 12.0078 6.72363 12.0963 6.732 12.1838C6.74223 12.2907 6.76125 12.387 6.78906 12.4726C6.81687 12.5582 6.84422 12.639 6.87111 12.7149C7.1794 12.656 7.45573 12.5707 7.70011 12.459C7.95422 12.3464 8.18702 12.2162 8.39851 12.0685C8.61973 11.9198 8.82937 11.7526 9.02743 11.5668C9.22548 11.3811 9.43233 11.1847 9.64797 10.9777C9.74332 10.949 9.8183 10.9124 9.87291 10.8679C9.93724 10.8225 10.018 10.7952 10.1152 10.7859C10.1411 10.646 10.2052 10.5467 10.3074 10.4879C10.4088 10.4193 10.4835 10.3288 10.5316 10.2163C10.6455 10.1759 10.739 10.1278 10.8121 10.0717C10.894 10.005 10.9715 9.94364 11.0446 9.88759C11.1168 9.82183 11.1943 9.76045 11.2772 9.70348C11.3697 9.64557 11.4739 9.60618 11.5896 9.58529C11.7363 9.37506 11.8878 9.16436 12.0442 8.95319C12.2103 8.7411 12.4093 8.56509 12.6411 8.42519C12.6707 8.32426 12.7066 8.23744 12.7487 8.16474C12.7898 8.08232 12.8266 8.00523 12.859 7.93346C12.9001 7.85104 12.9316 7.76955 12.9533 7.68899C12.9741 7.59871 12.9789 7.49524 12.9677 7.37858ZM24.0871 7.16825L24.0927 7.22658C24.0265 7.25253 23.9971 7.30439 24.0046 7.38216C23.9023 7.441 23.7942 7.49058 23.6804 7.53091C23.5656 7.56151 23.457 7.60623 23.3547 7.66507C23.2469 7.66558 23.1346 7.67141 23.018 7.68257C22.9101 7.68308 22.8027 7.68845 22.6958 7.69868C22.4041 7.72658 22.1134 7.76421 21.8236 7.81155C21.5339 7.85889 21.2422 7.8868 20.9487 7.89525C20.8201 7.98605 20.6754 8.06365 20.5148 8.12807C20.363 8.18183 20.2142 8.21569 20.0684 8.22964C19.9517 8.2408 19.8483 8.23599 19.758 8.21519C19.5358 8.35417 19.2875 8.47603 19.013 8.58077C18.7483 8.68458 18.4787 8.78886 18.2042 8.8936C17.9288 8.98862 17.6645 9.09729 17.4113 9.21961C17.1669 9.33129 16.9554 9.47905 16.7768 9.66292C16.7704 9.80087 16.7689 9.93837 16.7722 10.0754C16.7745 10.2027 16.7817 10.3295 16.7938 10.4559C16.8069 10.592 16.8238 10.7179 16.8447 10.8336C16.8753 10.9484 16.9205 11.0618 16.9802 11.1738C17.0307 11.1886 17.0856 11.1981 17.1448 11.2022C17.2138 11.2055 17.2726 11.2047 17.3212 11.2001C17.3698 11.1954 17.418 11.1859 17.4656 11.1716C17.5124 11.1475 17.5432 11.1102 17.5579 11.0597C17.7019 11.0263 17.8473 11.0075 17.994 11.0033C18.1398 10.9893 18.2856 10.9754 18.4315 10.9614C18.5773 10.9475 18.7178 10.9291 18.8529 10.9064C18.9978 10.8827 19.1365 10.8449 19.2688 10.793C19.4207 10.7393 19.569 10.7005 19.7139 10.6769C19.8685 10.6523 20.0183 10.6281 20.1631 10.6045C20.308 10.5808 20.4573 10.5518 20.611 10.5175C20.7637 10.4734 20.919 10.4046 21.0769 10.311C21.2079 10.3475 21.3366 10.3598 21.463 10.3477C21.5991 10.3346 21.7312 10.3318 21.8595 10.3392C21.9322 10.3813 21.9907 10.4296 22.0352 10.4842C22.0894 10.5379 22.1202 10.6036 22.1276 10.6814C22.1407 10.8175 22.1051 10.9582 22.0209 11.1036C21.9367 11.249 21.871 11.3828 21.8239 11.5051L21.6634 11.5204C21.4301 11.5427 21.2049 11.5986 20.9879 11.6881C20.7796 11.7669 20.5678 11.8607 20.3526 11.9696C20.1462 12.0678 19.9344 12.1616 19.7174 12.2511C19.5091 12.3299 19.2883 12.3804 19.055 12.4027C19.0161 12.4065 18.9941 12.4331 18.989 12.4826C18.9927 12.5215 18.9858 12.5516 18.9682 12.5729C18.9187 12.5678 18.8453 12.57 18.7481 12.5793C18.5245 12.6006 18.313 12.6454 18.1135 12.7135C17.914 12.7817 17.7073 12.826 17.4934 12.8464C17.4351 12.852 17.3768 12.8576 17.3185 12.8632C17.2592 12.859 17.1999 12.8549 17.1407 12.8508C17.0995 12.9332 17.0414 12.9927 16.9665 13.0293C16.8906 13.0562 16.8214 13.102 16.7589 13.1669C16.7381 13.2572 16.7289 13.366 16.7313 13.4933C16.7434 13.6196 16.751 13.7513 16.7543 13.8884C16.7664 14.0147 16.7683 14.1372 16.7601 14.2557C16.7518 14.3742 16.7217 14.4703 16.6699 14.5439C16.6843 14.5916 16.725 14.6073 16.7921 14.5911C16.8583 14.5651 16.8952 14.591 16.9026 14.6688C16.911 14.7563 16.9101 14.8496 16.8999 14.9487C16.8898 15.0477 16.8894 15.1459 16.8987 15.2431C16.9163 15.4278 16.9553 15.6301 17.0156 15.8499C17.0847 16.0592 17.1718 16.2519 17.2769 16.4283C17.3918 16.6037 17.5331 16.7471 17.7007 16.8586C17.8674 16.9604 18.0674 17.0001 18.3007 16.9778C18.4563 16.9629 18.5993 16.9198 18.7298 16.8484C18.8603 16.7771 18.9628 16.6692 19.0373 16.5247L19.1088 16.5032C19.1477 16.4994 19.1822 16.5011 19.2123 16.508C19.2521 16.514 19.2914 16.5151 19.3303 16.5114C19.3887 16.5058 19.4583 16.4648 19.5393 16.3884C19.6291 16.3013 19.7228 16.2041 19.8204 16.0966C19.9277 15.9883 20.0356 15.8847 20.1439 15.7861C20.2512 15.6777 20.3565 15.599 20.4597 15.5499C20.5147 15.4073 20.5649 15.2651 20.6102 15.1234C20.6652 14.9808 20.7522 14.8646 20.8711 14.7747L20.8307 14.3519C20.9177 14.2356 21.0104 14.1286 21.109 14.0309C21.2173 13.9323 21.2941 13.8121 21.3394 13.6704C21.3899 13.6852 21.435 13.6956 21.4748 13.7016C21.5244 13.7067 21.5734 13.7069 21.622 13.7023C21.6706 13.6976 21.7188 13.6881 21.7665 13.6737C21.8239 13.6584 21.8759 13.6387 21.9227 13.6146C22.0107 13.7141 22.0806 13.8301 22.1325 13.9624C22.1932 14.0842 22.2632 14.2001 22.3424 14.3102C22.2716 14.4936 22.1896 14.7124 22.0962 14.9666C22.0028 15.2207 21.8996 15.4759 21.7868 15.7319C21.6739 15.988 21.5504 16.2352 21.4163 16.4737C21.2909 16.7015 21.1609 16.8807 21.0263 17.0113C20.9999 17.0433 20.94 17.0834 20.8465 17.1315C20.747 17.2195 20.6567 17.3018 20.5758 17.3782C20.4957 17.4643 20.4214 17.5597 20.353 17.6644C20.0794 17.7788 19.8184 17.9215 19.5699 18.0925C19.3311 18.2625 19.0918 18.4276 18.8521 18.5879C18.7326 18.5699 18.6049 18.5674 18.4688 18.5804C18.3521 18.5916 18.2359 18.6076 18.1202 18.6285C18.0054 18.6591 17.88 18.6809 17.7439 18.6939C17.7003 18.649 17.6387 18.6206 17.5591 18.6086C17.4901 18.6054 17.4612 18.5591 17.4723 18.4697C17.1399 18.4819 16.8637 18.4151 16.6437 18.2694C16.4247 18.1334 16.2311 17.9557 16.063 17.7363C15.9046 17.5161 15.7686 17.274 15.6551 17.0102C15.5415 16.7464 15.4241 16.4927 15.3027 16.2493L15.2985 16.2055C15.2938 16.1569 15.3105 16.1259 15.3484 16.1124C15.3864 16.099 15.4031 16.068 15.3984 16.0194C15.3965 15.9999 15.3903 15.9858 15.3796 15.977C15.3402 15.8729 15.3071 15.7829 15.2802 15.7069C15.2533 15.631 15.2348 15.5396 15.2246 15.4327C15.2097 15.2771 15.205 15.1255 15.2105 14.9779C15.215 14.8205 15.2099 14.664 15.195 14.5084C15.1801 14.3529 15.1476 14.2187 15.0976 14.1057C15.1318 14.0534 15.1598 13.987 15.1815 13.9064C15.1926 13.8171 15.1988 13.7282 15.2002 13.6397C15.2015 13.5513 15.198 13.4634 15.1896 13.3759C15.191 13.2875 15.1981 13.2083 15.2111 13.1384C15.1619 13.0352 15.1191 12.9461 15.0825 12.8711C15.0449 12.7864 15.0206 12.6857 15.0094 12.5691L14.9997 12.467C15.0811 12.2924 15.1474 12.1144 15.1987 11.9329C15.25 11.7514 15.3058 11.5646 15.3658 11.3724L15.3617 11.3287C15.3347 11.0468 15.298 10.7658 15.2516 10.4857C15.2052 10.2057 15.1685 9.9247 15.1415 9.64279L15.115 9.36573C15.1057 9.26852 15.1017 9.1757 15.1031 9.08728C15.1771 9.04096 15.2303 8.98191 15.2627 8.91014C15.2951 8.83837 15.3483 8.77933 15.4223 8.733L15.9035 8.68696L15.9771 8.53277C16.0016 8.48138 16.0159 8.42605 16.0201 8.36679C16.1242 8.3274 16.2226 8.27875 16.3151 8.22084C16.4165 8.15228 16.5081 8.08466 16.59 8.01796C16.7187 7.92717 16.8337 7.84749 16.935 7.77893C17.0452 7.69972 17.1519 7.63556 17.2551 7.58645C17.3671 7.52668 17.4849 7.47617 17.6085 7.43491C17.732 7.39366 17.8755 7.35541 18.0389 7.32015C18.1167 7.31271 18.1639 7.29348 18.1806 7.26246C18.2069 7.2305 18.2426 7.19276 18.2875 7.14922C18.406 7.1575 18.5245 7.16579 18.643 7.17407C18.7606 7.17263 18.8777 7.16633 18.9944 7.15517C19.2277 7.13285 19.4422 7.06818 19.638 6.96115C19.9296 6.93325 20.2159 6.90095 20.4969 6.86426C20.7876 6.82664 21.0788 6.79388 21.3704 6.76597C21.6232 6.74179 21.8769 6.72733 22.1315 6.72259C22.3861 6.71785 22.6373 6.72816 22.8849 6.75352C22.9696 6.71598 23.0655 6.6921 23.1724 6.68187C23.289 6.67071 23.4071 6.67413 23.5265 6.69213C23.6548 6.69949 23.7763 6.68786 23.8911 6.65726C23.911 6.76326 23.9442 6.85329 23.9905 6.92734C24.0456 6.99073 24.0778 7.07104 24.0871 7.16825ZM31.8125 13.934C31.8283 14.0992 31.7985 14.2492 31.7231 14.384C31.6565 14.5081 31.6413 14.6567 31.6775 14.8298C31.5488 14.9206 31.4468 15.0334 31.3714 15.1681C31.296 15.3029 31.2259 15.442 31.1612 15.5855C30.5595 16.0649 29.9014 16.4663 29.1868 16.7898C28.4828 17.122 27.742 17.3253 26.9643 17.3997C26.9157 17.4044 26.8696 17.3843 26.8261 17.3394C26.7835 17.3042 26.7404 17.2642 26.6969 17.2193C26.6533 17.1744 26.6049 17.13 26.5517 17.086C26.5091 17.0509 26.4586 17.0361 26.4003 17.0417C26.3322 17.0482 26.2801 17.0679 26.244 17.1008C26.2422 17.0813 26.2403 17.0619 26.2385 17.0424C26.2473 17.0318 26.2507 17.0167 26.2489 16.9973C26.2377 16.8806 26.2115 16.7605 26.1702 16.6369C26.1299 16.5231 26.1042 16.4078 26.093 16.2911C26.08 16.155 26.0936 16.0409 26.1338 15.9488L26.3088 15.932C26.406 15.9227 26.4979 15.909 26.5845 15.891C26.6798 15.8622 26.781 15.8427 26.8879 15.8325C26.9948 15.8223 27.0948 15.8421 27.1879 15.8921C27.7207 15.8215 28.2169 15.6759 28.6765 15.4554C29.1449 15.2242 29.6186 14.9973 30.0977 14.7749C30.1652 14.6606 30.1978 14.5397 30.1954 14.4124C30.2019 14.2745 30.2286 14.1444 30.2758 14.0221C30.0026 13.8324 29.7292 13.6918 29.4555 13.6003C29.1907 13.4981 28.89 13.4827 28.5535 13.5541C28.3373 13.4473 28.1116 13.3953 27.8764 13.3982C27.6509 13.4001 27.4197 13.3928 27.1827 13.3763C27.1234 13.3721 27.0593 13.3685 26.9903 13.3652C26.9301 13.3514 26.866 13.3477 26.798 13.3542C26.7494 13.3589 26.7021 13.3781 26.6563 13.4119C26.6193 13.4351 26.6128 13.47 26.6369 13.5168C26.5809 13.4437 26.5086 13.4064 26.4202 13.4051C26.3406 13.3931 26.2688 13.3607 26.2049 13.3079C25.892 13.3183 25.6147 13.2908 25.373 13.2257C25.1304 13.1508 24.8625 13.0685 24.5695 12.9788C24.4889 12.9571 24.4093 12.9451 24.3306 12.9428C24.2607 12.9299 24.1898 12.9072 24.1181 12.8748C23.9347 12.8041 23.7826 12.7009 23.6617 12.5653C23.5408 12.4297 23.4428 12.2772 23.3678 12.1078C23.282 11.9297 23.2153 11.7447 23.1675 11.5531C23.1198 11.3615 23.0734 11.1844 23.0284 11.0219C23.101 10.858 23.1683 10.6897 23.2303 10.517C23.2825 10.3453 23.3241 10.1647 23.355 9.97534C23.4106 9.9406 23.4666 9.91072 23.5231 9.88569C23.5795 9.86067 23.6404 9.83032 23.7056 9.79465C23.6941 9.77613 23.6869 9.7523 23.6841 9.72313C23.6794 9.67453 23.6894 9.62453 23.7139 9.57313C23.7481 9.5208 23.7532 9.47127 23.7291 9.42452C23.9244 9.20963 24.1094 8.99082 24.2843 8.76807C24.468 8.53467 24.6207 8.28462 24.7423 8.01792C24.8835 7.95536 24.9932 7.87129 25.0714 7.76571C25.1495 7.66013 25.2277 7.55454 25.3059 7.44896C25.3832 7.33366 25.4716 7.232 25.5711 7.144C25.6696 7.04628 25.8006 6.97979 25.964 6.94454C25.9964 6.87277 26.0447 6.81419 26.1091 6.76879C26.1725 6.71368 26.2363 6.66342 26.3006 6.61803C26.365 6.57263 26.424 6.52284 26.4777 6.46865C26.5313 6.41447 26.5686 6.34223 26.5894 6.25195C26.7449 6.23707 26.8831 6.19442 27.0039 6.124C27.1344 6.05266 27.2596 5.97691 27.3794 5.89677C27.4993 5.81663 27.6196 5.74135 27.7404 5.67094C27.8709 5.59959 28.014 5.55647 28.1695 5.54159C28.2084 5.53787 28.2477 5.53901 28.2876 5.54501C28.3264 5.54129 28.3707 5.54197 28.4202 5.54704C28.4948 5.60858 28.5464 5.68702 28.5751 5.78238C28.6127 5.86708 28.6414 5.96243 28.6614 6.06843C28.6813 6.17444 28.6964 6.2809 28.7066 6.38784C28.7266 6.49384 28.7553 6.58919 28.7929 6.67389C28.7212 6.84753 28.6398 7.02209 28.5487 7.19758C28.4673 7.37214 28.3481 7.51107 28.1912 7.61438L28.1621 7.61717C28.095 7.6334 28.0304 7.62486 27.9683 7.59156C27.9063 7.55825 27.8364 7.54532 27.7586 7.55276C27.71 7.55741 27.6725 7.57571 27.6461 7.60767L27.5802 7.68755C27.5626 7.70885 27.5353 7.73109 27.4983 7.75425C27.471 7.77648 27.4272 7.78067 27.367 7.7668C27.2356 7.82843 27.19 7.91618 27.2304 8.03004C27.0475 8.06716 26.8976 8.14036 26.7805 8.24967C26.6625 8.34925 26.5556 8.46248 26.4598 8.58937C26.3631 8.70653 26.2659 8.81884 26.1683 8.92628C26.0697 9.024 25.948 9.0847 25.8031 9.10837C25.6658 9.41582 25.4863 9.69296 25.2646 9.9398C25.0527 10.1857 24.8825 10.4571 24.7539 10.7539C24.7905 10.8288 24.8179 10.9096 24.8359 10.9962C24.854 11.0827 24.8775 11.1737 24.9062 11.269C25.0049 11.3773 25.1167 11.4696 25.2417 11.546C25.3765 11.6214 25.5063 11.6972 25.6314 11.7736L25.6751 11.7694C25.8695 11.7508 26.0531 11.7725 26.2258 11.8344C26.3976 11.8866 26.5758 11.9039 26.7605 11.8863C26.8577 11.877 26.9385 11.8496 27.0028 11.8042C27.2612 11.8384 27.5137 11.8633 27.7605 11.8789C28.0169 11.8936 28.2725 11.8986 28.5271 11.8938C28.6553 11.9012 28.7826 11.8988 28.909 11.8867C29.0451 11.8737 29.1729 11.8762 29.2923 11.8942C29.402 11.9131 29.5127 11.9418 29.6243 11.9802C29.7349 12.0088 29.8461 12.0423 29.9576 12.0807C30.1905 12.1565 30.4098 12.2435 30.6153 12.3415C30.8307 12.4386 31.024 12.5624 31.1953 12.7128C31.3658 12.8534 31.5049 13.0265 31.6129 13.232C31.7199 13.4278 31.7864 13.6618 31.8125 13.934ZM43.7629 5.18282C43.7361 5.31291 43.684 5.43561 43.6068 5.55092L43.3882 5.88085C43.3197 5.98551 43.2619 6.09895 43.2147 6.22118C43.1764 6.33277 43.1739 6.46054 43.2073 6.6045C43.1878 6.60636 43.1635 6.60868 43.1343 6.61147C43.1043 6.60454 43.0795 6.60201 43.06 6.60387C42.9045 6.61875 42.7867 6.66926 42.7067 6.7554C42.6354 6.83089 42.534 6.89945 42.4026 6.96107C42.3776 6.90461 42.3482 6.85346 42.3143 6.80765C42.2796 6.75211 42.2321 6.71741 42.1719 6.70355C41.9433 6.77448 41.7137 6.83568 41.4832 6.88717C41.2517 6.92893 41.0212 6.98042 40.7916 7.04162C40.6865 7.0713 40.5824 7.11069 40.4792 7.15981C40.375 7.1992 40.266 7.23906 40.1522 7.27938C40.0957 7.30441 40.0335 7.32017 39.9654 7.32668C39.8964 7.32347 39.8284 7.32998 39.7613 7.34622C39.5289 7.37826 39.278 7.42188 39.0086 7.47709C38.7382 7.52257 38.5022 7.61873 38.3004 7.76557C38.2013 7.75543 38.0979 7.75061 37.99 7.75112C37.8821 7.75163 37.7747 7.757 37.6678 7.76723C37.4345 7.78955 37.1792 7.8385 36.902 7.91408C36.6335 7.97901 36.3984 8.08489 36.1966 8.23172C36.1461 8.21693 36.0912 8.20747 36.032 8.20332C35.9825 8.19825 35.9237 8.19897 35.8556 8.20548C35.8362 8.20734 35.8221 8.2136 35.8133 8.22425C35.8035 8.22518 35.789 8.22658 35.7695 8.22844C35.7682 8.31686 35.7863 8.40342 35.8238 8.48812C35.8701 8.56217 35.9393 8.61931 36.0315 8.65955C36.0028 8.7702 35.9946 8.88872 36.0066 9.01509C36.0225 9.18035 36.048 9.34468 36.0832 9.50809C36.1282 9.67056 36.1586 9.83442 36.1744 9.99968C36.1921 10.1844 36.1817 10.3325 36.1434 10.4441C36.2685 10.7265 36.3468 11.0329 36.3785 11.3634C36.3896 11.4801 36.3911 11.5976 36.3828 11.7162C36.3833 11.824 36.3896 11.9411 36.4017 12.0675C36.4119 12.1744 36.4592 12.2582 36.5435 12.3188C36.6268 12.3697 36.6736 12.4486 36.6838 12.5556C36.6875 12.5944 36.6815 12.6343 36.6658 12.675C36.7991 12.6328 36.9266 12.5814 37.0484 12.5207C37.1692 12.4503 37.2976 12.4085 37.4337 12.3955C37.5115 12.3881 37.5858 12.3957 37.6566 12.4183C37.7372 12.4401 37.809 12.4724 37.8719 12.5155C37.8669 12.565 37.8623 12.6194 37.8581 12.6787C37.8637 12.737 37.8693 12.7953 37.8749 12.8536C37.8851 12.9606 37.8948 13.0626 37.9041 13.1599C37.9222 13.2464 37.9413 13.3427 37.9612 13.4487C37.8965 13.5922 37.8157 13.7226 37.719 13.8398C37.6321 13.956 37.577 14.0986 37.554 14.2676C37.4081 14.2815 37.2802 14.3281 37.17 14.4073C37.0687 14.4759 36.9731 14.5537 36.8833 14.6408C36.7926 14.7181 36.7019 14.7955 36.6112 14.8728C36.5196 14.9404 36.4154 14.9798 36.2988 14.991C36.153 15.0049 36.049 14.9953 35.987 14.962C35.924 14.9189 35.8756 14.8745 35.8418 14.8287C35.808 14.7829 35.7746 14.7419 35.7418 14.7058C35.7186 14.6688 35.6686 14.6589 35.5917 14.676C35.5602 14.5515 35.5102 14.4386 35.4416 14.3372C35.3721 14.2262 35.2982 14.1204 35.22 14.02C35.1514 13.9186 35.078 13.8177 34.9997 13.7173C34.9302 13.6063 34.8753 13.4938 34.835 13.3799C34.7525 13.1327 34.7031 12.8726 34.6867 12.5995C34.6704 12.3263 34.6016 12.0681 34.4802 11.8246C34.4866 11.6867 34.4882 11.5492 34.4849 11.4121C34.4806 11.2654 34.472 11.124 34.459 10.9879C34.4329 10.7157 34.3976 10.4493 34.3531 10.1887C34.3173 9.91739 34.2811 9.64126 34.2444 9.36027C34.168 9.27929 34.1149 9.18627 34.0853 9.08119C34.0644 8.96547 34.044 8.8546 34.024 8.7486C33.9921 8.72223 33.9552 8.69632 33.9136 8.67088C33.8816 8.6445 33.8585 8.60748 33.8441 8.5598C33.7644 8.5478 33.7052 8.54366 33.6663 8.54738C33.5302 8.5604 33.4168 8.60558 33.3261 8.68293C33.2442 8.74963 33.1644 8.7867 33.0866 8.79414C33.0088 8.80158 32.935 8.79884 32.8651 8.7859C32.7952 8.77297 32.7262 8.76976 32.6581 8.77627C32.5998 8.78185 32.5672 8.79969 32.5602 8.82978C32.5621 8.84922 32.5445 8.87053 32.5075 8.89369C32.4802 8.91592 32.414 8.94188 32.3089 8.97155C32.2039 9.00122 32.0842 9.03229 31.95 9.06475C31.8245 9.08656 31.6991 9.10838 31.5736 9.13019C31.4579 9.15107 31.3806 9.16337 31.3417 9.16709C31.1862 9.18197 31.0667 9.16397 30.9834 9.11308C30.8894 9.0534 30.7803 8.99026 30.6562 8.92365C30.6701 8.86346 30.6761 8.82365 30.6742 8.80421C30.6649 8.70699 30.6283 8.63201 30.5644 8.57927C30.4996 8.5168 30.4648 8.46126 30.4602 8.41266C30.45 8.30572 30.4858 8.21891 30.5677 8.15221C30.6399 8.08644 30.6748 7.9899 30.6724 7.8626C30.8867 7.74399 31.1082 7.64923 31.3369 7.5783C31.5655 7.50737 31.8 7.4457 32.0402 7.39329C32.2805 7.34087 32.5154 7.28406 32.745 7.22285C32.9843 7.16072 33.2164 7.07474 33.4413 6.96493C33.5103 6.96814 33.5744 6.97182 33.6337 6.97596C33.7017 6.96945 33.7698 6.96294 33.8378 6.95643C34.1295 6.92853 34.4135 6.87193 34.6898 6.78663C34.9749 6.69068 35.2682 6.62829 35.5695 6.59945C35.6473 6.59201 35.7255 6.58943 35.8042 6.59171C35.8829 6.594 35.9621 6.60114 36.0417 6.61314C36.425 6.51761 36.8029 6.41768 37.1756 6.31336C37.5579 6.20811 37.9509 6.11165 38.3545 6.02398C38.5471 5.98594 38.7353 5.95322 38.919 5.92583C39.1116 5.88779 39.3037 5.84488 39.4953 5.79712C39.5624 5.78089 39.6097 5.76165 39.637 5.73942C39.6731 5.70654 39.6874 5.65121 39.6799 5.57344C39.7712 5.60395 39.8702 5.6141 39.9772 5.60387C40.1424 5.58806 40.3 5.54355 40.45 5.47034C40.5999 5.39713 40.7576 5.35262 40.9228 5.33681C40.9617 5.33309 40.9962 5.33469 41.0263 5.34162C41.0555 5.33883 41.0846 5.33604 41.1138 5.33325C41.1818 5.32674 41.2131 5.29432 41.2075 5.236C41.2107 5.16702 41.2551 5.11862 41.3407 5.09081C41.4069 5.06486 41.5028 5.04097 41.6282 5.01916C41.7536 4.99735 41.8839 4.97507 42.0191 4.95233C42.1631 4.91894 42.2925 4.88694 42.4072 4.85634C42.5308 4.81508 42.6195 4.76736 42.6731 4.71318L42.7599 4.54301C42.9358 4.53599 43.0696 4.60167 43.1613 4.74005C43.2618 4.86777 43.3249 5.0138 43.3504 5.17813C43.393 5.2133 43.4483 5.22763 43.5164 5.22112C43.5932 5.20395 43.6608 5.19258 43.7191 5.187L43.7629 5.18282ZM55.755 3.02014C55.7708 3.18541 55.7764 3.34674 55.7718 3.50414C55.7761 3.65088 55.7618 3.80921 55.729 3.97913C55.648 4.05555 55.5781 4.14562 55.5194 4.24934L55.3418 4.54593C55.2821 4.63993 55.2175 4.73439 55.1481 4.82932C55.0778 4.91454 54.9866 4.98702 54.8746 5.04679C54.8183 5.48383 54.7364 5.9086 54.6287 6.32113C54.5298 6.723 54.4668 7.14105 54.4396 7.5753C54.3434 7.80033 54.2734 8.04247 54.2295 8.30173C54.1857 8.561 54.1374 8.82558 54.0848 9.0955C54.0409 9.35476 53.9864 9.60523 53.9212 9.84691C53.856 10.0886 53.7545 10.3092 53.6166 10.5088C53.5612 10.7496 53.5076 11.0098 53.4559 11.2894C53.4032 11.5593 53.2929 11.7906 53.1249 11.9832C53.1365 12.0017 53.1442 12.0304 53.1479 12.0693C53.1591 12.186 53.1406 12.3006 53.0925 12.4131C53.0435 12.5159 53.0241 12.6207 53.0343 12.7277C52.8899 12.8592 52.7523 13.0097 52.6213 13.1792C52.5001 13.3478 52.374 13.5168 52.2431 13.6863C52.1122 13.8558 51.9696 14.0068 51.8155 14.1392C51.6614 14.2717 51.489 14.3667 51.2983 14.4242C51.1529 14.34 51.0159 14.2403 50.8871 14.125C50.7593 14.0195 50.6139 13.9354 50.4509 13.8725C50.3313 13.4425 50.2418 13.0194 50.1823 12.6032C50.1317 12.1764 50.0572 11.7568 49.9589 11.3444C49.8968 11.1051 49.8112 10.8778 49.7024 10.6626C49.6032 10.4464 49.5425 10.2217 49.5201 9.98838C49.5155 9.93978 49.5108 9.89117 49.5062 9.84256C49.5103 9.78331 49.5149 9.72891 49.52 9.67937C49.4126 9.58174 49.3368 9.45655 49.2928 9.3038C49.2478 9.14133 49.2077 8.97839 49.1724 8.81499C49.1362 8.64187 49.0908 8.47454 49.0361 8.313C48.9911 8.15053 48.9193 8.01515 48.8207 7.90686C48.8558 7.86426 48.8702 7.80893 48.8637 7.74088C48.859 7.69228 48.8446 7.6446 48.8205 7.59785C48.8062 7.55018 48.7967 7.50204 48.792 7.45343C48.7883 7.41455 48.7987 7.36941 48.8232 7.31801C48.7361 7.22824 48.6743 7.14586 48.6377 7.07088C48.6099 6.98525 48.5874 6.90402 48.5702 6.82718C48.5521 6.74061 48.534 6.65405 48.5159 6.56749C48.5076 6.48 48.489 6.38858 48.4603 6.29323C48.4343 6.22704 48.3957 6.18169 48.3443 6.15717C48.3016 6.12201 48.2794 6.09471 48.2776 6.07526C48.2729 6.02666 48.2886 5.98591 48.3247 5.95303C48.17 5.77162 48.0387 5.57817 47.9307 5.37268C47.8228 5.16718 47.7051 4.96261 47.5777 4.75898C47.5772 4.65111 47.6082 4.56476 47.6707 4.49993C47.7331 4.43509 47.7743 4.35267 47.7942 4.25266L48.2608 4.20802C48.7685 5.00313 49.1774 5.84202 49.4875 6.7247C49.8064 7.59674 50.097 8.48128 50.3594 9.37833C50.4331 9.63616 50.502 9.89445 50.566 10.1532C50.6397 10.411 50.7187 10.6732 50.8031 10.9399C50.8281 10.9963 50.8633 11.0567 50.9087 11.121C50.9541 11.1854 50.9801 11.2516 50.9866 11.3196C50.9922 11.3779 50.9832 11.4377 50.9596 11.4988C51.0216 11.5321 51.0705 11.5814 51.1062 11.6466C51.1516 11.711 51.1877 11.7811 51.2146 11.857C51.2503 11.9222 51.2815 11.9928 51.3084 12.0687C51.3344 12.1349 51.3696 12.1953 51.4141 12.2499C51.5298 12.229 51.6267 12.1658 51.7049 12.0602C51.7831 11.9546 51.8502 11.8354 51.9061 11.7025C51.9709 11.559 52.0264 11.4212 52.0726 11.2893C52.1277 11.1467 52.1952 11.0323 52.2752 10.9462C52.2747 10.8383 52.2844 10.7344 52.3043 10.6344C52.3329 10.5237 52.3421 10.4149 52.3319 10.308C52.4133 10.1334 52.4859 9.96951 52.5497 9.81625C52.6136 9.663 52.6454 9.48336 52.6453 9.27736C52.6902 9.23382 52.7166 9.20187 52.7245 9.1815C52.7314 9.1514 52.7747 9.14236 52.8543 9.15436C52.8292 8.89188 52.8439 8.63541 52.8984 8.38494C52.9617 8.12382 53.0556 7.87449 53.18 7.63695C53.1781 7.4115 53.2004 7.18373 53.2471 6.95363C53.3025 6.71288 53.3682 6.47606 53.444 6.24317C53.4666 6.17233 53.4981 6.09084 53.5383 5.9987C53.5776 5.89683 53.5936 5.80702 53.5861 5.72925C53.5824 5.69036 53.5694 5.65727 53.5472 5.62997C53.5337 5.59201 53.5252 5.55359 53.5214 5.51471C53.514 5.43694 53.5367 5.3661 53.5894 5.30219C53.6422 5.23828 53.69 5.17484 53.7331 5.11186C53.7117 4.88827 53.7146 4.66236 53.7418 4.43412C53.769 4.20588 53.8476 4.00216 53.9776 3.82295C53.9946 3.48777 54.0271 3.16093 54.0751 2.84241C54.1222 2.51417 54.2047 2.19725 54.3226 1.89166L54.8476 1.84144C54.8299 1.65674 54.9037 1.55648 55.0689 1.54067C55.1662 1.53137 55.2754 1.54544 55.3967 1.58289C55.495 1.78931 55.5717 2.02723 55.6269 2.29663C55.6909 2.55539 55.7336 2.79656 55.755 3.02014ZM67.0141 11.346C66.998 11.4849 66.9455 11.6028 66.8566 11.6996C66.7766 11.7857 66.6757 11.8591 66.554 11.9198C66.4322 11.9805 66.3043 12.0271 66.17 12.0596C66.0446 12.0814 65.9284 12.0974 65.8215 12.1076C65.7729 12.1123 65.7242 12.1169 65.6756 12.1216C65.6358 12.1156 65.5916 12.1149 65.543 12.1195C65.4944 12.1242 65.4724 12.1508 65.4771 12.1994C65.4817 12.248 65.4607 12.2844 65.4139 12.3085C65.3635 12.2937 65.3135 12.2838 65.2639 12.2787C65.2144 12.2736 65.1653 12.2734 65.1167 12.2781C65.0487 12.2846 64.9811 12.2959 64.914 12.3122C64.8566 12.3275 64.7987 12.3379 64.7404 12.3435C64.6626 12.3509 64.6033 12.3468 64.5626 12.3311C64.5316 12.3144 64.5006 12.2978 64.4695 12.2811C64.4473 12.2538 64.4202 12.227 64.3883 12.2006C64.366 12.1733 64.3297 12.1522 64.2792 12.1375C64.2084 12.1148 64.1496 12.1155 64.1028 12.1396C64.0658 12.1628 63.9998 12.1397 63.9049 12.0703C63.7789 11.9842 63.6657 11.8773 63.5652 11.7496C63.4735 11.6112 63.3813 11.468 63.2886 11.3199C63.196 11.1718 63.0985 11.0241 62.9961 10.877C62.8937 10.7298 62.7786 10.6035 62.6508 10.498L62.5342 10.5091C62.3592 10.5259 62.2446 10.6104 62.1905 10.7627C62.1391 10.7382 62.0873 10.7089 62.035 10.6746C61.9817 10.6307 61.9245 10.5969 61.8634 10.5733C61.6463 10.6627 61.4186 10.7434 61.1802 10.8153C60.9418 10.8871 60.7011 10.9347 60.4581 10.9579L60.2539 10.9775C60.1956 10.983 60.1315 10.9794 60.0616 10.9664C59.9681 11.0146 59.8853 11.0716 59.8131 11.1374C59.7399 11.1934 59.6548 11.2261 59.5576 11.2354C59.4992 11.241 59.4293 11.228 59.3478 11.1966C59.2895 11.2022 59.2627 11.2293 59.2673 11.2779C59.2817 11.3255 59.2549 11.3526 59.1868 11.3591L59.0556 11.3717C58.9195 11.3847 58.7838 11.4026 58.6487 11.4253C58.5232 11.4471 58.3925 11.4646 58.2564 11.4776C58.0717 11.4953 57.8798 11.4891 57.6807 11.4591C57.6349 11.4929 57.5828 11.5126 57.5245 11.5182C57.4875 11.5413 57.4615 11.5782 57.4468 11.6286C57.431 11.6694 57.4153 11.7101 57.3996 11.7509C57.3829 11.7819 57.3566 11.8138 57.3205 11.8467C57.2932 11.8689 57.2499 11.878 57.1906 11.8739C57.1823 11.9924 57.1426 12.0894 57.0713 12.1649C57.0001 12.2403 56.9709 12.3461 56.984 12.4822C56.8826 12.5508 56.8021 12.6321 56.7424 12.7261C56.6827 12.8201 56.6235 12.9189 56.5648 13.0227C56.506 13.1264 56.4419 13.2257 56.3725 13.3206C56.3129 13.4146 56.2319 13.4911 56.1296 13.5499C56.0866 13.6129 56.0808 13.7066 56.1124 13.8311C56.0138 13.9289 55.89 14.0192 55.741 14.1021C55.592 14.1851 55.4494 14.233 55.3133 14.246C55.0314 14.273 54.8225 14.1409 54.6868 13.8498C54.6775 13.7526 54.6774 13.6496 54.6866 13.5408C54.6852 13.4232 54.6944 13.3144 54.7143 13.2144C54.7332 13.1047 54.7681 13.0082 54.819 12.9248C54.869 12.8317 54.9455 12.7606 55.0488 12.7115C55.0404 12.624 55.0056 12.5685 54.9445 12.5449C54.8825 12.5116 54.8521 12.4508 54.8535 12.3623C55.1039 12.2108 55.3165 12.0237 55.4914 11.801C55.6663 11.5782 55.8208 11.3476 55.955 11.1092C56.0979 10.86 56.2408 10.6109 56.3838 10.3618C56.5267 10.1127 56.6914 9.88599 56.8779 9.68176L56.8486 9.37554C57.1105 9.03656 57.2666 8.66846 57.3168 8.27124C57.4219 8.24157 57.4853 8.18645 57.507 8.10589C57.5385 8.0244 57.5491 7.93019 57.5389 7.82325C57.5875 7.8186 57.6148 7.79637 57.6208 7.75656C57.6356 7.70609 57.6779 7.68732 57.7478 7.70025C57.813 7.45857 57.8897 7.23541 57.9781 7.03075C58.0664 6.8261 58.1547 6.62144 58.2431 6.41679C58.3305 6.20241 58.4028 5.98457 58.4601 5.76326C58.5272 5.54102 58.5676 5.29681 58.5813 5.03061C58.7165 5.00787 58.7834 4.93771 58.7819 4.82012C58.7893 4.69189 58.798 4.57823 58.8082 4.47916C58.941 4.32911 59.0326 4.15848 59.0829 3.96727C59.143 3.77512 59.193 3.57905 59.2327 3.37904C59.2715 3.16932 59.3156 2.96399 59.365 2.76305C59.4233 2.55146 59.513 2.36139 59.6342 2.19283L59.63 2.14908C59.6254 2.10048 59.6032 2.07317 59.5633 2.06717C59.5226 2.05145 59.4999 2.01929 59.4953 1.97068C59.504 1.96003 59.508 1.94984 59.507 1.94012C59.619 1.88036 59.6991 1.79421 59.7472 1.6817C59.7944 1.55947 59.8739 1.46846 59.986 1.4087C60.2059 1.55443 60.3955 1.63929 60.5548 1.6633C60.7131 1.67758 60.9196 1.68235 61.1742 1.67761C61.3136 1.80162 61.3974 1.96037 61.4258 2.15387C61.4629 2.33671 61.5146 2.51816 61.5809 2.69821C61.6884 3.00185 61.8003 3.30016 61.9166 3.59315C62.0418 3.87549 62.1435 4.16987 62.2219 4.4763C62.2687 4.65821 62.3389 4.82808 62.4325 4.9859C62.5261 5.14372 62.5958 5.30873 62.6417 5.48092C62.6742 5.61516 62.6891 5.7707 62.6864 5.94754C62.6827 6.11466 62.7161 6.25862 62.7865 6.37941L62.9109 6.60296C62.9698 6.70524 63.0193 6.81332 63.0597 6.92718C63.1097 7.04012 63.1549 7.15352 63.1952 7.26738C63.3009 7.55158 63.3992 7.86101 63.4901 8.19567C63.5897 8.51968 63.7206 8.81127 63.8828 9.07045C63.9407 9.16301 64.0201 9.22408 64.121 9.25367C64.2317 9.28232 64.3511 9.30032 64.4794 9.30768C64.6067 9.30531 64.7286 9.29854 64.8453 9.28738C64.9707 9.26557 65.0772 9.25048 65.1647 9.24211L65.3105 9.22816C65.3689 9.22258 65.4281 9.22672 65.4883 9.24058C65.5346 9.31463 65.5606 9.38082 65.5662 9.43914C65.5773 9.5558 65.5473 9.65187 65.476 9.72736C65.4047 9.80285 65.3733 9.88434 65.3817 9.97183C65.3863 10.0204 65.4109 10.072 65.4553 10.1267C65.4155 10.1206 65.3567 10.1214 65.279 10.1288C65.0554 10.1502 64.8404 10.21 64.6339 10.3082C64.7275 10.4661 64.8431 10.5973 64.9806 10.7018C65.127 10.7957 65.2777 10.8843 65.4328 10.9676C65.5226 10.8805 65.6209 10.8319 65.7279 10.8216C65.8445 10.8105 65.9542 10.8294 66.057 10.8784C66.1686 10.9168 66.2827 10.9304 66.3994 10.9193C66.4869 10.9109 66.5487 10.8903 66.5848 10.8574C66.6709 10.9374 66.7429 11.0237 66.8008 11.1163C66.8578 11.1991 66.9289 11.2757 67.0141 11.346ZM62.2268 9.44961C62.1915 9.28621 62.1463 9.17281 62.0912 9.10941C62.0449 9.03536 62.002 8.94626 61.9626 8.84212C61.9107 8.70974 61.8676 8.56672 61.8333 8.41304C61.8087 8.25843 61.7748 8.10961 61.7317 7.96658C61.6321 7.64257 61.5227 7.31949 61.4036 6.99733C61.2942 6.67425 61.1614 6.36322 61.0053 6.06423C61.0386 6.00218 61.0529 5.94685 61.0482 5.89825L61.0441 5.8545C60.9473 5.76566 60.8729 5.65505 60.821 5.52267C60.7682 5.38058 60.7158 5.24334 60.6639 5.11096C60.6208 4.96793 60.5645 4.84088 60.495 4.72981C60.4343 4.60808 60.3419 4.51391 60.2178 4.4473C60.1942 4.50842 60.1861 4.57787 60.1936 4.65564C60.2001 4.72368 60.211 4.78641 60.2263 4.8438C60.2513 4.90027 60.2671 4.96253 60.2736 5.03058C60.181 5.08848 60.1156 5.17323 60.0772 5.28481C60.0476 5.38575 59.987 5.47003 59.8954 5.53765C59.8474 5.85617 59.7639 6.16337 59.6451 6.45923C59.5253 6.74538 59.3958 7.03246 59.2566 7.32046C59.1271 7.60754 59.0029 7.89901 58.8841 8.19487C58.7643 8.48102 58.6751 8.77896 58.6164 9.08869C58.4984 9.18827 58.4216 9.30843 58.386 9.44918C58.3602 9.589 58.3538 9.72695 58.3668 9.86305C58.4589 9.90329 58.5589 9.92315 58.6668 9.92264C58.7834 9.91148 58.8952 9.90079 59.0022 9.89055C59.1091 9.88032 59.2121 9.88028 59.3112 9.89042C59.4102 9.90056 59.5024 9.9408 59.5876 10.0111C59.7103 9.96015 59.844 9.92283 59.9889 9.89916C60.1426 9.86483 60.2648 9.809 60.3555 9.73165C60.5564 9.7811 60.7687 9.79512 60.9923 9.77373C61.1089 9.76257 61.2198 9.74216 61.3249 9.71248C61.4397 9.68188 61.5491 9.64688 61.6533 9.60749C61.7426 9.61856 61.8139 9.64607 61.8672 9.69003C61.9195 9.72426 61.9938 9.73187 62.0901 9.71285C62.135 9.66931 62.1604 9.62764 62.1664 9.58782C62.1715 9.53829 62.1916 9.49221 62.2268 9.44961ZM74.5879 7.91382C74.5981 8.02076 74.5671 8.10711 74.4949 8.17288C74.4218 8.22892 74.3894 8.30069 74.3978 8.38818C74.4015 8.42707 74.4256 8.47381 74.4701 8.52842C74.334 8.54144 74.2458 8.59402 74.2056 8.68616C74.1654 8.77831 74.126 8.88017 74.0877 8.99175L73.8981 9.00989C73.8495 9.01454 73.8115 9.02798 73.7842 9.05021C73.7569 9.07245 73.7306 9.1044 73.7051 9.14607C73.6885 9.1771 73.664 9.22849 73.6316 9.30026C73.4506 9.35682 73.2768 9.43721 73.1102 9.54145C72.9524 9.63503 72.7955 9.73833 72.6395 9.85135C72.4924 9.95372 72.3408 10.0614 72.1848 10.1744C72.0279 10.2777 71.8648 10.3669 71.6954 10.442C71.6218 10.5962 71.5066 10.7249 71.3497 10.8282L71.306 10.8324C71.2583 10.8468 71.2141 10.8461 71.1734 10.8304C71.1414 10.804 71.1011 10.7932 71.0525 10.7978C71.0234 10.8006 71.0044 10.8073 70.9956 10.818C70.7226 11.0403 70.4062 11.1687 70.0465 11.2031C69.9493 11.2124 69.8565 11.2164 69.7681 11.215C69.6787 11.2039 69.5854 11.203 69.4882 11.2123C69.459 11.2151 69.4405 11.2267 69.4327 11.2471L69.4091 11.3082C69.4012 11.3286 69.3885 11.3494 69.3709 11.3707C69.3631 11.3911 69.33 11.4041 69.2716 11.4097C69.1647 11.4199 69.0564 11.4155 68.9467 11.3966C68.8369 11.3777 68.7247 11.3835 68.6099 11.4141C68.3742 11.3091 68.1876 11.2043 68.0501 11.0998C67.9125 10.9952 67.7791 10.8314 67.6499 10.6083C67.591 10.506 67.5132 10.4105 67.4164 10.3216C67.3294 10.2319 67.2608 10.1305 67.2108 10.0176C67.1973 9.97961 67.1762 9.91296 67.1475 9.81761C67.1178 9.71253 67.0877 9.6026 67.0571 9.48781C67.0265 9.37301 66.9963 9.26308 66.9666 9.158C66.9467 9.052 66.9349 8.97956 66.9311 8.94067C66.92 8.82402 66.9141 8.71176 66.9136 8.60389C66.9219 8.48538 66.9302 8.36686 66.9385 8.24835C66.9615 7.87336 66.965 7.50023 66.9491 7.12897C66.942 6.74705 66.9898 6.3746 67.0924 6.01161C67.0627 5.90654 67.0432 5.80539 67.0339 5.70818L67.0032 5.38738C66.9855 5.20268 66.9464 5.04946 66.8857 4.92774C66.9513 4.79392 66.9767 4.64924 66.9619 4.4937C66.9451 4.31872 66.8624 4.22362 66.7138 4.20841L66.7097 4.16466C66.6901 3.96052 66.6067 3.80663 66.4595 3.70299C66.4269 3.36275 66.4854 3.10209 66.6348 2.92102C66.7931 2.7293 67.0071 2.55676 67.2769 2.40342C67.3102 2.34137 67.3202 2.29137 67.3067 2.25341C67.3766 2.26634 67.4417 2.27974 67.5019 2.2936C67.562 2.30747 67.6213 2.31161 67.6796 2.30603C67.7768 2.29673 67.8629 2.27377 67.9379 2.23717C67.9782 2.35103 68.0581 2.41697 68.1776 2.43497C68.3058 2.44232 68.4107 2.46172 68.4922 2.49316L68.5103 2.68273C68.5391 2.98409 68.6395 3.26389 68.8113 3.52213C68.7799 3.60362 68.7635 3.68858 68.7621 3.777C68.7608 3.86542 68.7638 3.94852 68.7713 4.02629C68.7824 4.14294 68.7985 4.25913 68.8193 4.37485C68.8402 4.49058 68.8558 4.60191 68.866 4.70884C68.8772 4.8255 68.8737 4.94355 68.8557 5.06299C68.8475 5.18151 68.8038 5.2887 68.7246 5.38456C68.727 5.51186 68.7312 5.65861 68.7373 5.8248C68.7522 5.98034 68.7578 6.14167 68.7542 6.30879C68.7603 6.47498 68.7513 6.63771 68.7273 6.79697C68.7033 6.95623 68.6571 7.08819 68.5886 7.19284C68.5928 7.33959 68.5975 7.4912 68.6027 7.64767C68.6167 7.79349 68.6301 7.93444 68.6432 8.07054C68.6636 8.28441 68.6975 8.53623 68.7449 8.82601C68.8019 9.11485 68.8932 9.35137 69.0188 9.53557C69.0748 9.60869 69.1727 9.65818 69.3126 9.68404C69.4621 9.70898 69.5806 9.71726 69.6681 9.70889C69.775 9.69866 69.8806 9.67385 69.9847 9.63445C70.0977 9.58441 70.1742 9.51331 70.2145 9.42117C70.2737 9.42531 70.3154 9.45076 70.3395 9.4975C70.3636 9.54425 70.4013 9.57988 70.4527 9.60439C70.9845 9.31807 71.5172 9.04147 72.0509 8.77459C72.5845 8.50771 73.1052 8.20773 73.6129 7.87466C73.6944 7.90611 73.7789 7.91764 73.8664 7.90927C73.9636 7.89997 74.0599 7.88095 74.1552 7.85221C74.2506 7.82347 74.3469 7.80444 74.4441 7.79514L74.5462 7.78538C74.5712 7.84184 74.5851 7.88466 74.5879 7.91382ZM83.7028 8.43973C83.6779 8.58927 83.6263 8.71683 83.5481 8.82241C83.47 8.92799 83.3762 9.02525 83.267 9.11418C83.1675 9.20218 83.0579 9.28625 82.938 9.36639C82.8172 9.43681 82.7022 9.51648 82.593 9.60541L82.4034 9.62355C81.9951 9.66261 81.6699 9.59563 81.4277 9.42259C81.1943 9.23891 81.0053 9.00683 80.8608 8.72635C80.7153 8.43615 80.5971 8.12372 80.5062 7.78906C80.4251 7.45347 80.3321 7.14843 80.2274 6.87396C80.12 6.98233 80.034 7.10829 79.9692 7.25182C79.9035 7.38564 79.833 7.51992 79.7576 7.65467C79.6919 7.78849 79.6107 7.91398 79.514 8.03114C79.427 8.14737 79.3028 8.23284 79.1412 8.28754C79.1186 8.35837 79.0911 8.42968 79.0587 8.50145C79.036 8.57229 79.0236 8.64706 79.0213 8.72576C78.8186 8.86287 78.6372 9.01757 78.4771 9.18985C78.317 9.36213 78.1573 9.53927 77.9982 9.72127C77.839 9.90328 77.6745 10.0809 77.5047 10.2541C77.3436 10.4167 77.156 10.5572 76.9417 10.6758C76.931 10.667 76.9111 10.664 76.882 10.6668C76.7653 10.678 76.6612 10.7174 76.5695 10.785C76.477 10.8429 76.3724 10.8775 76.2557 10.8886C76.178 10.8961 76.1036 10.8885 76.0328 10.8658C75.9717 10.8422 75.9052 10.8142 75.8335 10.7819C75.7714 10.7486 75.7055 10.7254 75.6355 10.7125C75.5656 10.6996 75.4923 10.7017 75.4154 10.7189C75.3015 10.5532 75.1549 10.4053 74.9757 10.2753C74.8053 10.1347 74.6913 9.96898 74.6338 9.77828C74.606 9.69264 74.583 9.60655 74.565 9.51999C74.5557 9.42277 74.5366 9.32649 74.5079 9.23114C74.4648 9.08811 74.4119 8.94601 74.3494 8.80485C74.2859 8.65396 74.2321 8.50214 74.1881 8.34939C74.2116 8.08226 74.2327 7.79084 74.2516 7.47511C74.2598 7.15059 74.2782 6.83 74.3067 6.51334C74.3441 6.18602 74.4027 5.8763 74.4827 5.58415C74.5715 5.28135 74.6936 5.01951 74.849 4.79862L74.8247 4.69794C74.8098 4.5424 74.825 4.3938 74.8703 4.25212C74.9156 4.11044 74.9662 3.97316 75.0222 3.84027C75.0782 3.70739 75.1244 3.57543 75.1609 3.4444C75.1974 3.31338 75.1937 3.17149 75.1496 3.01874C75.2607 2.94925 75.3776 2.88902 75.5002 2.83804C75.6229 2.78707 75.7522 2.75507 75.8883 2.74205C76.0147 2.72996 76.1332 2.73824 76.2439 2.76689C76.2319 2.84652 76.2706 2.89187 76.3599 2.90295L76.3641 2.94669C76.3836 3.15084 76.3784 3.35245 76.3484 3.55152C76.3184 3.7506 76.2787 3.9506 76.2292 4.15154C76.1788 4.34275 76.1289 4.53883 76.0795 4.73976C76.0388 4.93005 76.0132 5.1238 76.0026 5.32101C75.9647 5.33445 75.9374 5.35668 75.9207 5.38771C75.9138 5.4178 75.9069 5.4479 75.8999 5.47799C75.893 5.50808 75.8808 5.53378 75.8632 5.55508C75.8456 5.57639 75.8174 5.5889 75.7785 5.59262C75.7527 5.93844 75.7221 6.28473 75.6866 6.63148C75.6599 6.96759 75.6628 7.30576 75.6953 7.646C75.7149 7.85015 75.7543 8.05729 75.8136 8.26744C75.873 8.47759 75.9654 8.67476 76.091 8.85895L76.1479 8.83879C76.2548 8.82856 76.3398 8.84496 76.4028 8.88798C76.4755 8.93008 76.5676 8.97032 76.6792 9.00869C76.7551 8.98181 76.8257 8.95053 76.8909 8.91486C76.9553 8.86946 76.9784 8.80348 76.9603 8.71692C77.0857 8.69511 77.1899 8.65571 77.2727 8.59874C77.3546 8.53204 77.4264 8.46141 77.4879 8.38685L77.6871 8.16178C77.7584 8.08629 77.8461 8.02885 77.9502 7.98946C77.9446 7.93113 77.955 7.88599 77.9814 7.85403L78.0605 7.75817C78.0869 7.72622 78.1035 7.69519 78.1105 7.6651C78.1262 7.62436 78.1259 7.57042 78.1097 7.5033C78.2254 7.48242 78.3101 7.44489 78.3638 7.3907C78.4272 7.33559 78.4804 7.27654 78.5234 7.21356C78.5753 7.13993 78.6222 7.06677 78.6643 6.99407C78.7064 6.92137 78.764 6.857 78.8371 6.80095C78.8912 6.64862 78.965 6.44536 79.0584 6.19117C79.1615 5.93605 79.2588 5.67167 79.3504 5.39804C79.4517 5.12347 79.5349 4.86535 79.6 4.62367C79.674 4.37134 79.7049 4.18198 79.6928 4.05561C79.6882 4.007 79.6694 3.96465 79.6365 3.92856C79.6134 3.89153 79.6043 3.84825 79.6094 3.79872L79.6052 3.75497C79.6737 3.65032 79.7315 3.53687 79.7787 3.41464C79.8356 3.29147 79.8929 3.17317 79.9507 3.05972C80.0183 2.94535 80.0916 2.84023 80.1707 2.74437C80.2498 2.64851 80.3551 2.56976 80.4866 2.50814C80.6468 2.54186 80.8056 2.56101 80.963 2.56557C81.1301 2.5692 81.2893 2.5932 81.4407 2.63758C81.4737 2.87968 81.525 3.15927 81.5946 3.47635C81.6641 3.79343 81.7582 4.05912 81.8768 4.27341C81.8889 4.39978 81.8957 4.52176 81.8971 4.63935C81.9083 4.756 81.9195 4.87266 81.9306 4.98931C81.9492 5.18374 81.9731 5.38256 82.0024 5.58577C82.0414 5.78806 82.0935 5.97437 82.1589 6.1447C82.1048 6.29703 82.0856 6.45582 82.1014 6.62108C82.1228 6.84467 82.1773 7.05528 82.2649 7.25292C82.3516 7.44083 82.4202 7.64519 82.4707 7.86599C82.6138 8.02888 82.7875 8.10056 82.9916 8.08103C83.0402 8.07638 83.0786 8.0678 83.1069 8.05529C83.1448 8.04185 83.1823 8.02354 83.2193 8.00038C83.3055 8.08043 83.3819 8.16141 83.4486 8.24332C83.5241 8.31458 83.6088 8.38005 83.7028 8.43973ZM92.7531 0.598805L92.7587 0.657132C92.6925 0.683085 92.6631 0.734946 92.6705 0.812716C92.5682 0.871553 92.4602 0.921134 92.3463 0.961458C92.2315 0.992061 92.123 1.03678 92.0207 1.09562C91.9128 1.09613 91.8006 1.10196 91.6839 1.11312C91.5761 1.11363 91.4687 1.119 91.3617 1.12923C91.0701 1.15713 90.7794 1.19476 90.4896 1.2421C90.1998 1.28945 89.9082 1.31735 89.6147 1.32581C89.486 1.4166 89.3414 1.4942 89.1808 1.55862C89.029 1.61238 88.8801 1.64624 88.7343 1.66019C88.6177 1.67135 88.5142 1.66654 88.4239 1.64574C88.2018 1.78472 87.9535 1.90658 87.679 2.01132C87.4142 2.11513 87.1446 2.21941 86.8701 2.32415C86.5947 2.41917 86.3304 2.52784 86.0773 2.65017C85.8329 2.76184 85.6214 2.90961 85.4428 3.09347C85.4364 3.23143 85.4348 3.36892 85.4381 3.50595C85.4405 3.63325 85.4477 3.76009 85.4598 3.88647C85.4728 4.02257 85.4898 4.14848 85.5106 4.2642C85.5412 4.379 85.5864 4.4924 85.6462 4.6044C85.6967 4.61919 85.7515 4.62866 85.8108 4.6328C85.8798 4.63601 85.9386 4.63529 85.9872 4.63064C86.0358 4.62599 86.0839 4.61648 86.1316 4.60211C86.1783 4.57802 86.2091 4.54074 86.2239 4.49027C86.3679 4.45688 86.5132 4.43807 86.66 4.43384C86.8058 4.41989 86.9516 4.40593 87.0974 4.39198C87.2432 4.37803 87.3837 4.35969 87.5189 4.33694C87.6638 4.31327 87.8024 4.27548 87.9348 4.22358C88.0866 4.16981 88.235 4.13109 88.3798 4.10742C88.5345 4.08282 88.6842 4.05868 88.8291 4.03501C88.974 4.01134 89.1233 3.98234 89.2769 3.94802C89.4297 3.90397 89.585 3.83516 89.7428 3.74158C89.8738 3.77809 90.0025 3.79031 90.1289 3.77822C90.265 3.76519 90.3972 3.76236 90.5254 3.76971C90.5981 3.81181 90.6567 3.86016 90.7012 3.91477C90.7553 3.96844 90.7862 4.03417 90.7936 4.11194C90.8066 4.24803 90.771 4.38878 90.6868 4.53418C90.6026 4.67958 90.537 4.81339 90.4898 4.93563L90.3294 4.95097C90.0961 4.9733 89.8709 5.02918 89.6538 5.11862C89.4455 5.19741 89.2338 5.29124 89.0186 5.40012C88.8121 5.49835 88.6004 5.59219 88.3833 5.68163C88.175 5.76042 87.9542 5.81097 87.7209 5.83329C87.682 5.83702 87.66 5.86364 87.655 5.91318C87.6587 5.95206 87.6518 5.98216 87.6342 6.00346C87.5846 5.99839 87.5113 6.0005 87.4141 6.00981C87.1905 6.0312 86.9789 6.07596 86.7794 6.1441C86.5799 6.21224 86.3733 6.25653 86.1594 6.277C86.1011 6.28258 86.0427 6.28816 85.9844 6.29374C85.9251 6.2896 85.8659 6.28546 85.8066 6.28131C85.7655 6.36373 85.7074 6.42325 85.6324 6.45985C85.5565 6.48673 85.4873 6.53259 85.4248 6.59743C85.4041 6.68771 85.3948 6.79651 85.3972 6.92381C85.4093 7.05019 85.417 7.18189 85.4203 7.31892C85.4324 7.44529 85.4343 7.56774 85.426 7.68625C85.4177 7.80477 85.3877 7.90084 85.3359 7.97447C85.3502 8.02215 85.391 8.03787 85.4581 8.02164C85.5243 7.99568 85.5611 8.02159 85.5685 8.09936C85.5769 8.18685 85.576 8.28014 85.5659 8.37921C85.5557 8.47828 85.5553 8.57642 85.5646 8.67364C85.5823 8.85834 85.6213 9.06062 85.6815 9.28049C85.7506 9.48971 85.8377 9.68248 85.9429 9.85882C86.0578 10.0342 86.199 10.1777 86.3667 10.2892C86.5334 10.3909 86.7334 10.4307 86.9667 10.4083C87.1222 10.3935 87.2652 10.3503 87.3958 10.279C87.5263 10.2077 87.6288 10.0997 87.7032 9.95528L87.7748 9.93372C87.8136 9.93 87.8481 9.9316 87.8782 9.93854C87.918 9.94454 87.9574 9.94568 87.9963 9.94196C88.0546 9.93638 88.1243 9.89538 88.2052 9.81896C88.295 9.73189 88.3887 9.63463 88.4863 9.52719C88.5937 9.41881 88.7015 9.3153 88.8098 9.21665C88.9172 9.10828 89.0224 9.02953 89.1257 8.98042C89.1807 8.83781 89.2308 8.69567 89.2762 8.55399C89.3312 8.41138 89.4182 8.29515 89.5371 8.20529L89.4966 7.78241C89.5836 7.66618 89.6764 7.5592 89.775 7.46148C89.8832 7.36283 89.96 7.24266 90.0053 7.10098C90.0558 7.11578 90.101 7.12617 90.1408 7.13217C90.1903 7.13725 90.2394 7.13746 90.288 7.13281C90.3366 7.12816 90.3847 7.11864 90.4324 7.10427C90.4898 7.08897 90.5419 7.06927 90.5886 7.04518C90.6766 7.14467 90.7466 7.26061 90.7985 7.39299C90.8592 7.51471 90.9291 7.63065 91.0083 7.74079C90.9376 7.92414 90.8555 8.14292 90.7621 8.39711C90.6687 8.6513 90.5656 8.90642 90.4527 9.16247C90.3399 9.41853 90.2164 9.66579 90.0822 9.90425C89.9569 10.1321 89.8269 10.3113 89.6922 10.4419C89.6658 10.4738 89.6059 10.5139 89.5124 10.5621C89.4129 10.6501 89.3227 10.7323 89.2417 10.8087C89.1617 10.8949 89.0874 10.9903 89.0189 11.0949C88.7454 11.2094 88.4843 11.3521 88.2358 11.523C87.997 11.693 87.7578 11.8581 87.518 12.0184C87.3986 12.0004 87.2708 11.9979 87.1347 12.011C87.0181 12.0221 86.9019 12.0381 86.7861 12.059C86.6714 12.0896 86.5459 12.1114 86.4098 12.1245C86.3663 12.0796 86.3047 12.0511 86.2251 12.0391C86.1561 12.0359 86.1271 11.9896 86.1382 11.9003C85.8058 11.9125 85.5296 11.8457 85.3097 11.7C85.0907 11.5639 84.8971 11.3863 84.7289 11.1669C84.5705 10.9466 84.4345 10.7046 84.321 10.4407C84.2075 10.1769 84.09 9.92327 83.9686 9.67982L83.9644 9.63607C83.9598 9.58747 83.9764 9.55644 84.0144 9.543C84.0524 9.52956 84.069 9.49854 84.0644 9.44993C84.0625 9.43049 84.0562 9.41637 84.0456 9.40758C84.0062 9.30344 83.9731 9.21341 83.9462 9.1375C83.9193 9.06159 83.9007 8.97017 83.8905 8.86323C83.8756 8.70769 83.8709 8.55608 83.8764 8.40841C83.881 8.25101 83.8758 8.09454 83.8609 7.939C83.8461 7.78346 83.8136 7.64922 83.7635 7.53629C83.7978 7.48396 83.8258 7.41752 83.8475 7.33696C83.8586 7.2476 83.8648 7.15872 83.8661 7.0703C83.8675 6.98188 83.864 6.89392 83.8556 6.80643C83.8569 6.71801 83.8641 6.63884 83.877 6.56893C83.8279 6.46572 83.785 6.37662 83.7484 6.30164C83.7109 6.21694 83.6866 6.11626 83.6754 5.99961L83.6656 5.89754C83.747 5.72298 83.8134 5.54495 83.8647 5.36346C83.916 5.18196 83.9717 4.99514 84.0318 4.803L84.0276 4.75926C84.0006 4.47734 83.9639 4.19635 83.9175 3.9163C83.8711 3.63624 83.8344 3.35526 83.8075 3.07334L83.7809 2.79629C83.7716 2.69907 83.7677 2.60626 83.769 2.51784C83.8431 2.47151 83.8963 2.41246 83.9287 2.34069C83.961 2.26892 84.0142 2.20988 84.0883 2.16355L84.5695 2.11751L84.643 1.96333C84.6676 1.91193 84.6819 1.8566 84.686 1.79734C84.7902 1.75795 84.8885 1.7093 84.9811 1.65139C85.0824 1.58284 85.1741 1.51521 85.256 1.44851C85.3846 1.35772 85.4996 1.27804 85.601 1.20949C85.7111 1.13028 85.8178 1.06611 85.921 1.017C86.033 0.957232 86.1508 0.906721 86.2744 0.865467C86.398 0.824213 86.5415 0.785959 86.7049 0.750705C86.7827 0.743265 86.8299 0.724033 86.8465 0.693009C86.8729 0.661055 86.9085 0.62331 86.9534 0.579775C87.0719 0.588057 87.1904 0.596339 87.309 0.604621C87.4265 0.603181 87.5437 0.596881 87.6603 0.585721C87.8936 0.563399 88.1082 0.498727 88.3039 0.391705C88.5956 0.363803 88.8819 0.331506 89.1629 0.294813C89.4536 0.25719 89.7448 0.224428 90.0364 0.196526C90.2891 0.172345 90.5428 0.157885 90.7974 0.153146C91.0521 0.148407 91.3032 0.158715 91.5509 0.18407C91.6356 0.146535 91.7314 0.122653 91.8383 0.112422C91.955 0.101262 92.073 0.104683 92.1925 0.122686C92.3207 0.130038 92.4422 0.118412 92.557 0.0878088C92.577 0.193812 92.6101 0.283839 92.6564 0.357889C92.7116 0.421287 92.7438 0.501592 92.7531 0.598805Z" fill="#F3967C"/>
</svg>
