<svg width="166" height="25" viewBox="0 0 166 25" fill="none" xmlns="http://www.w3.org/2000/svg">
<path d="M10.3137 18.5141C9.83531 17.7149 9.18859 17.1165 8.4666 16.5644C7.72039 15.993 6.90529 15.4036 6.01748 15.1076C5.19473 14.8347 4.18063 14.9428 3.36554 15.1964C2.57722 15.4409 2.01086 15.9338 1.71238 16.742C1.41261 17.5528 1.34118 18.3494 1.99173 18.9903C2.58743 19.5772 3.46886 19.9594 4.2763 20.0238C4.51739 20.0431 5.14881 20.0855 5.31973 19.868C5.51745 19.6171 5.45622 18.9247 5.39372 18.648C5.21896 17.8668 4.43958 17.2182 3.77883 17.8758C3.09894 18.5515 2.18434 17.3456 2.85913 16.6751C3.60152 15.9364 4.75465 15.8888 5.61312 16.4627C6.47542 17.0393 6.89126 18.0882 6.89253 19.1229C6.89253 20.1808 6.56343 21.1138 5.5251 21.4175C4.53015 21.7084 3.44462 21.5256 2.50196 21.0971C1.61161 20.6904 0.748033 20.0585 0.292649 19.1358C-0.176767 18.1847 0.0120205 17.0213 0.38194 16.0766C1.19704 13.9969 3.39998 13.3187 5.40775 13.4461C6.65782 13.5259 7.8084 14.2492 8.82504 14.9686C9.82255 15.6738 10.8048 16.4859 11.4502 17.5657C11.949 18.3957 10.815 19.352 10.3137 18.5141Z" fill="#369CB7"/>
<path d="M28.5607 9.89299C28.7533 11.7423 28.062 13.315 27.0147 13.4C25.9675 13.4888 24.961 12.0602 24.7684 10.2109C24.5758 8.36151 25.2672 6.79271 26.3144 6.70391C27.3617 6.61768 28.3681 8.04363 28.5607 9.89299Z" fill="#369CB7"/>
<path d="M8.2688 11.5761C8.2688 16.751 12.5752 20.2168 17.8076 20.2168C23.0401 20.2168 27.1003 17.4601 27.21 11.5761C27.3082 6.40386 22.9699 2.20581 17.7413 2.20581C12.5088 2.20581 8.2688 6.40128 8.2688 11.5761Z" fill="#369CB7"/>
<path d="M20.1675 2.6963C20.1395 2.22785 17.4199 2.17122 16.7694 0.490453C16.6877 0.276818 16.6584 0.092783 16.6469 0.00012207C16.379 0.0863483 15.814 0.308991 15.3127 0.855948C14.833 1.37845 14.6532 1.93185 14.5843 2.20211C14.4682 2.15449 14.1901 2.02065 13.9784 1.71178C13.7297 1.34886 13.7297 0.973062 13.7348 0.855948C13.5013 1.05285 13.2335 1.33341 13.0064 1.71178C12.3061 2.89578 12.5548 4.15571 12.6441 4.52893C18.8333 3.58173 20.1892 3.03091 20.1675 2.6963Z" fill="#369CB7"/>
<path d="M13.4503 15.7421C13.9771 18.1577 17.1699 19.5013 20.5808 18.7433C23.9943 17.9853 26.3325 15.4139 25.8057 13.0022C25.2788 10.5865 22.086 9.24294 18.6713 10.001C15.2642 10.7551 12.9222 13.3265 13.4503 15.7421Z" fill="white"/>
<path d="M12.2754 11.3022C12.6887 13.4887 14.6046 14.8542 16.5575 14.351C18.5104 13.8478 19.7605 11.6677 19.3472 9.48115C18.9339 7.29461 17.0155 5.92914 15.0651 6.43234C13.1122 6.93555 11.8621 9.11566 12.2754 11.3022Z" fill="white"/>
<path d="M24.2251 8.20571C24.6384 10.3922 23.5121 12.5402 21.7135 13.0048C19.9149 13.4693 18.1202 12.0717 17.7095 9.88518C17.2962 7.69864 18.4225 5.55072 20.2211 5.08613C22.0197 4.62154 23.8119 6.01531 24.2251 8.20571Z" fill="white"/>
<path d="M9.67332 16.5284C9.06486 16.6545 8.42579 16.3315 7.88239 15.6867C7.34027 15.0433 6.90274 14.0883 6.69992 12.97C6.4971 11.8529 6.56981 10.7912 6.84662 9.97782C7.12469 9.16318 7.60559 8.60721 8.21405 8.47981C8.8225 8.35368 9.46157 8.67671 10.005 9.32147C10.5471 9.96495 10.9846 10.9199 11.1874 12.0369C11.3915 13.154 11.3201 14.2158 11.0433 15.0304C10.7652 15.8476 10.2843 16.4036 9.67332 16.5284Z" fill="#369CB7" stroke="white" stroke-width="0.7"/>
<path d="M8.1539 12.8825C9.48944 15.5864 9.68333 17.6005 10.5941 17.3366C11.5074 17.0728 11.7511 14.1952 11.4551 11.925C11.1617 9.65482 9.17309 8.1079 8.85802 8.42578C8.54295 8.42578 7.86051 10.6123 8.1539 12.8825Z" fill="#369CB7"/>
<path d="M22.6446 15.9017C22.5247 16.042 21.2568 17.4705 19.013 17.4396C17.4032 17.4177 15.8993 16.6507 15.0906 15.4474C15.3993 15.7022 16.8011 16.7961 18.9837 16.8669C20.934 16.9325 22.2721 16.1398 22.6446 15.9017Z" fill="#369CB7"/>
<path d="M18.6558 14.0421C18.7655 14.0987 19.1737 14.2904 19.6903 14.1759C20.2082 14.0614 20.4977 13.7139 20.5768 13.6161C20.3089 13.7178 19.99 13.8194 19.6303 13.8992C19.2744 13.9777 18.9428 14.0189 18.6558 14.0421Z" fill="#369CB7"/>
<path d="M27.3057 11.7242C27.3886 11.6792 27.5008 11.7384 27.5085 11.8632L27.96 20.3147C27.9626 20.3868 27.9269 20.4524 27.872 20.4794L20.429 24.2155L20.4277 24.2168C20.3996 24.2322 20.3639 24.2348 20.3333 24.2232H20.332L12.4374 21.5244H12.4361C12.3813 21.5064 12.3379 21.4485 12.3328 21.3726L11.8813 12.9172C11.8774 12.8568 11.9017 12.804 11.9387 12.7718C11.9744 12.7396 12.0203 12.7281 12.0662 12.7448H12.0675L19.934 15.5079H19.9353C19.9953 15.5285 20.0603 15.5246 20.1164 15.495L27.3057 11.7242Z" fill="#369CB7" stroke="white" stroke-width="0.8"/>
<path d="M20.1738 23.7252L19.786 16.172L20.3575 16.0034L20.6891 23.4163L20.1738 23.7252Z" fill="white"/>
<path d="M12.6198 12.5594L12.579 12.9185L12.5586 12.8979L12.5127 12.5607V12.2827L18.3281 14.6121L12.6543 12.5388L12.6237 12.5272L12.6198 12.5594Z" fill="#369CB7" stroke="white" stroke-width="0.4"/>
<path d="M26.9128 11.92L26.6666 11.1697L20.8818 14.7847L26.673 11.5854L26.6947 11.5738L26.7074 11.5957L26.8988 11.9213H26.9128V11.92Z" fill="#369CB7" stroke="white" stroke-width="0.4"/>
<path d="M14.4158 19.6659C14.4285 20.3094 13.5917 20.8435 12.5483 20.8628C11.5074 20.8821 10.6515 20.3763 10.6387 19.7328C10.6298 19.0894 11.4628 18.5553 12.5062 18.536C13.5509 18.518 14.4056 19.0237 14.4158 19.6659Z" fill="#369CB7"/>
<path d="M13.6837 19.6788C13.6901 20.0701 13.1786 20.3983 12.5408 20.4111C11.903 20.424 11.3825 20.1113 11.3736 19.72C11.3672 19.3288 11.8787 19.0006 12.5152 18.9877C13.153 18.9787 13.6735 19.2876 13.6837 19.6788Z" fill="white"/>
<path d="M14.7054 18.2851C14.7181 19.0367 13.7436 19.6595 12.528 19.6827C11.3098 19.7046 10.3161 19.1126 10.3008 18.3649C10.288 17.6172 11.2626 16.9904 12.4782 16.9673C13.6964 16.9454 14.6926 17.5374 14.7054 18.2851Z" fill="#369CB7"/>
<path d="M13.8509 18.3018C13.8573 18.76 13.2641 19.1422 12.5192 19.155C11.7742 19.1679 11.1658 18.8076 11.1594 18.3494C11.1505 17.8913 11.7462 17.5091 12.4911 17.4962C13.2322 17.4833 13.8407 17.8424 13.8509 18.3018Z" fill="white"/>
<path d="M14.0563 17.0278C14.0691 17.67 13.2323 18.2053 12.1888 18.2246C11.148 18.2439 10.2921 17.7382 10.2793 17.0947C10.2793 17.0664 10.2793 17.0368 10.2831 17.0085C10.3456 16.4074 11.1505 15.9171 12.1442 15.8978C13.1915 15.8798 14.0435 16.3856 14.0563 17.0278Z" fill="#369CB7"/>
<path d="M13.3202 17.0406C13.3265 17.4319 12.815 17.76 12.1785 17.7729C11.7027 17.7819 11.1032 17.5374 11.0203 17.1655C11.0165 17.1462 11.0114 17.1204 11.0114 17.0831C11.0177 16.7176 11.63 16.3611 12.153 16.3508C12.7933 16.3405 13.3138 16.6494 13.3202 17.0406Z" fill="white"/>
<path d="M11.815 14.8475C11.6071 14.9466 10.9348 15.2555 10.5751 15.926C10.3162 16.406 10.2817 16.859 10.2817 17.0946C10.783 16.7162 11.2818 16.3365 11.7844 15.9556C11.7589 15.5901 11.838 15.2169 11.815 14.8475Z" fill="#369CB7"/>
<path d="M11.5942 16.5955C11.4118 16.8117 11.2281 17.0253 11.0457 17.239C11.0202 17.163 10.8658 16.656 11.0648 16.1283C11.2319 15.6792 11.5419 15.517 11.6133 15.4849C11.371 15.8993 11.311 16.3124 11.4309 16.4938C11.459 16.5324 11.5024 16.5762 11.5942 16.5955Z" fill="white"/>
<path d="M25.5148 17.8051C25.5595 18.4473 26.4358 18.9093 27.4779 18.8398C28.5188 18.7703 29.3276 18.1899 29.2829 17.5503C29.2383 16.9106 28.3619 16.4461 27.3236 16.5156C26.2814 16.585 25.4702 17.1616 25.5148 17.8051Z" fill="#369CB7"/>
<path d="M26.2456 17.7538C26.2711 18.1451 26.8069 18.4282 27.4447 18.3844C28.0786 18.3433 28.5748 17.9893 28.5493 17.5981C28.5238 17.2068 27.9881 16.9237 27.3503 16.9675C26.7125 17.0087 26.2214 17.3626 26.2456 17.7538Z" fill="white"/>
<path d="M25.1104 16.4524C25.1614 17.2001 26.1832 17.7419 27.3975 17.6582C28.6119 17.5759 29.5558 16.9002 29.5048 16.1525C29.4551 15.4048 28.4295 14.863 27.2177 14.9466C26.0033 15.0329 25.0607 15.7046 25.1104 16.4524Z" fill="#369CB7"/>
<path d="M25.9625 16.3945C25.9944 16.8527 26.6182 17.1809 27.3606 17.1294C28.1017 17.0779 28.6795 16.6673 28.6476 16.2092C28.6157 15.751 27.992 15.4228 27.2496 15.4743C26.5085 15.5258 25.9345 15.9363 25.9625 16.3945Z" fill="white"/>
<path d="M25.5263 15.1437C25.5709 15.7872 26.4473 16.2479 27.4856 16.1784C28.5265 16.1089 29.3339 15.5298 29.2906 14.8902C29.2906 14.8619 29.2842 14.8323 29.2816 14.804C29.1681 14.2081 28.3262 13.7924 27.3313 13.8594C26.2891 13.925 25.4817 14.5015 25.5263 15.1437Z" fill="#369CB7"/>
<path d="M26.2572 15.0934C26.2827 15.4846 26.8185 15.7677 27.4563 15.724C27.9321 15.6918 28.5073 15.3997 28.5571 15.02C28.5609 15.0007 28.5635 14.975 28.5609 14.9377C28.5227 14.5747 27.8823 14.2697 27.3619 14.3071C26.7241 14.3482 26.233 14.7009 26.2572 15.0934Z" fill="white"/>
<path d="M27.6157 12.7708C27.8262 12.8402 28.4614 13.0809 28.899 13.7463C29.1987 14.2031 29.2702 14.6523 29.2906 14.8852C28.7612 14.5506 28.2306 14.2134 27.6999 13.8788C27.6744 13.7077 27.6514 13.5236 27.6374 13.328C27.6208 13.1311 27.6157 12.9445 27.6157 12.7708Z" fill="#369CB7"/>
<path d="M27.9396 14.5014C28.1386 14.6983 28.3401 14.899 28.5391 15.0972C28.5582 15.0213 28.6679 14.5014 28.4256 13.993C28.2202 13.5606 27.8988 13.4268 27.826 13.3984C28.1041 13.7897 28.1985 14.1976 28.0914 14.3881C28.0684 14.4241 28.0276 14.4756 27.9396 14.5014Z" fill="white"/>
<path d="M17.2451 11.5504C17.3332 12.2222 16.9173 12.8297 16.3178 12.9095C15.7183 12.9893 15.1634 12.5079 15.0779 11.8374C14.9899 11.1656 15.4057 10.5582 16.0053 10.4784C16.6022 10.3986 17.1609 10.8786 17.2451 11.5504Z" fill="#369CB7"/>
<path d="M16.0396 10.9585C16.0779 11.2417 15.9006 11.4965 15.6519 11.5287C15.3993 11.5608 15.1659 11.3601 15.1314 11.0769C15.0932 10.7938 15.2705 10.539 15.5192 10.5068C15.7718 10.4746 16.0052 10.6754 16.0396 10.9585Z" fill="white"/>
<path d="M22.8145 10.4014C22.8999 11.0732 22.4866 11.6807 21.8871 11.7604C21.2876 11.8402 20.7327 11.3589 20.6473 10.6871C20.5592 10.0153 20.9751 9.40788 21.5721 9.32809C22.1716 9.24959 22.7265 9.73091 22.8145 10.4014Z" fill="#369CB7"/>
<path d="M21.7072 9.68581C21.7455 9.96894 21.5682 10.2238 21.3195 10.2559C21.0669 10.2881 20.8335 10.0873 20.799 9.80421C20.7608 9.52108 20.9381 9.26627 21.1868 9.2341C21.4355 9.20192 21.669 9.40269 21.7072 9.68581Z" fill="white"/>
<path d="M12.5981 12.5247V12.9107L13.0446 13.0394L12.8533 12.6534L12.5981 12.5247Z" fill="white"/>
<path d="M12.6237 12.6998L16.4198 14.1271L19.7401 15.3934L12.778 12.844L12.6237 12.6998Z" fill="#369CB7"/>
<path d="M25.2902 12.3316L21.2084 14.8412L24.3336 13.2325L26.8847 11.9455L26.6934 11.5594L25.2902 12.3316Z" fill="white"/>
<path d="M26.6628 11.7627L23.1065 13.7189L19.9966 15.4473L26.5301 11.9287L26.6628 11.7627Z" fill="#369CB7"/>
<path d="M103.643 20.3879L102.406 18.6608C101.83 20.3879 100.809 20.7804 100.061 20.7804C98.7946 20.7804 98.5956 19.6337 98.5956 18.9658V10.3149H94.0787V13.042H95.3722V18.9208C94.8109 20.5758 93.4282 21.0545 92.5085 21.0545C91.2418 21.0545 90.7392 20.0816 90.7392 19.2399V13.0587H92.3363V10.3162H90.7392V4.82861L87.5158 6.77449V10.3303H86.2211V13.0574H87.5158V16.8166C86.4507 18.9787 84.1776 21.4625 81.5002 21.4625C78.5497 21.4625 77.2831 19.6788 77.2831 17.397C77.2831 13.8849 79.2985 12.6366 80.9517 12.6366C81.5844 12.6366 81.9721 12.8258 81.9721 12.8258V14.8862H84.7057V10.2557C84.7057 10.2557 83.3255 9.80656 81.726 9.80656C74.7192 9.80656 73.9411 15.3958 73.9411 17.4845C73.9411 17.9337 73.9857 18.442 74.0839 18.9787C73.7102 20.4458 72.9321 20.7624 72.3721 20.7624C71.1641 20.7624 71.1641 19.5707 71.1641 19.3107V10.3419C71.1641 10.3123 68.9625 9.76152 67.1065 9.76152C60.9046 9.76152 58.8892 14.1024 58.8892 17.9903C58.8892 19.3262 59.4351 24.2462 64.0259 24.2462C65.8245 24.2462 67.5223 23.3904 68.3859 21.9091C68.3859 21.9091 68.442 21.8229 68.4714 21.8229C68.5007 21.8229 68.5007 21.8525 68.5275 21.9091C68.7711 22.9978 69.7087 24.0287 71.2611 24.0287C73.5048 24.0287 74.7 22.6221 75.1758 21.6337C76.1976 23.0699 77.9681 24.2024 80.9453 24.2024C84.2401 24.2024 86.1828 22.4753 87.5362 20.922C87.8092 22.8074 89.1779 24.1432 91.5786 24.1432C93.867 24.1432 95.2344 23.317 95.9832 22.4457C96.6159 23.3891 97.681 24.0145 99.1058 24.0145C102.359 24.0145 103.709 21.3737 103.709 20.6466C103.744 20.5462 103.643 20.3879 103.643 20.3879ZM68.0007 17.6583C68.0007 19.2116 66.8641 20.9966 64.8079 20.9966C62.3026 20.9966 62.2758 18.3262 62.2758 17.5424C62.2758 13.6533 65.0094 12.5349 66.4904 12.5349C67.5708 12.5349 68.0007 12.7241 68.0007 12.7241V17.6583Z" fill="#369CB7"/>
<path d="M41.1394 4.82739H30.5916V7.83243H33.0522V23.6684H36.7501V17.4125H41.1662C42.9647 17.4125 48.3605 17.2233 48.3605 11.0987C48.3605 4.82739 43.7569 4.82739 41.1394 4.82739ZM40.9799 14.4512C40.3179 14.4512 36.7361 14.4216 36.7361 14.4216V7.83243H41.1815C42.5349 7.83243 44.6064 7.86204 44.6064 11.0537C44.6204 14.2904 41.9149 14.4512 40.9799 14.4512Z" fill="#369CB7"/>
<path d="M164.004 17.2659C163.615 18.253 163.084 19.1668 162.363 19.9956C161.644 20.8218 160.867 21.2439 160.046 21.2439C159.297 21.2439 158.606 20.9685 157.959 20.4177C157.297 19.8669 156.778 19.2144 156.404 18.4589C157.57 18.1539 158.547 17.5452 159.339 16.6302C160.131 15.7164 160.533 14.6997 160.533 13.5672C160.533 12.4656 160.189 11.5647 159.497 10.8672C158.791 10.1697 157.885 9.83762 156.748 9.83762C154.359 9.83762 152.576 11.1014 151.368 13.6251V4.83008H146.922V7.55714H148.16V20.5464C147.831 20.7201 147.484 20.7922 147.18 20.7922C145.913 20.7922 145.67 19.7021 145.67 19.0651V14.1463C145.67 11.288 143.714 10.0242 141.367 10.0242C138.747 10.0242 137.583 11.5776 137.583 11.5776C137.526 11.6638 137.497 11.6947 137.468 11.6947C137.437 11.6947 137.437 11.6381 137.437 11.6085V10.3305H132.962V13.0602H134.401V18.7511C133.826 20.4061 132.82 20.7832 132.085 20.7832C130.817 20.7832 130.615 19.6365 130.615 18.9686V10.3177H126.099V13.0447H127.392V18.8347C126.832 20.4177 125.837 20.7806 125.105 20.7806C123.866 20.7806 123.593 19.6339 123.593 18.966V14.1463C123.593 11.288 121.638 10.0242 119.264 10.0242C116.646 10.0242 115.51 11.5776 115.51 11.5776V4.83008H99.4515C99.8827 5.3809 100.143 6.07843 100.143 6.83258C100.143 7.16719 100.087 7.50051 100 7.80552H103.627V18.1539C103.627 18.1539 104.49 19.3302 104.748 19.7369C104.849 19.8952 105.021 20.2452 105.021 20.6648C105.021 21.4189 104.546 22.5231 103.625 23.4523V23.6711H107.323V7.80809H112.315V23.6711H115.538V16.5736C115.538 14.6869 116.588 13.0614 118.458 13.0614C118.876 13.0614 120.444 13.3073 120.444 15.0639V20.3173C120.444 22.3198 121.853 24.0469 124.227 24.0469C126.026 24.0469 127.249 23.2052 127.97 22.3494C128.587 23.3648 129.697 24.0469 131.178 24.0469C132.617 24.0469 133.679 23.5231 134.431 22.8861V23.6853H137.653V16.5723C137.653 14.6856 138.675 13.0602 140.546 13.0602C140.992 13.0602 142.532 13.306 142.532 15.0627V20.316C142.532 22.3185 143.941 24.0456 146.288 24.0456C147.022 24.0456 147.669 23.9015 148.217 23.6827H151.411C151.411 19.6777 151.613 18.5014 151.8 17.746C152.103 16.4114 152.633 15.2197 153.367 14.2043C154.1 13.1889 154.948 12.6651 155.913 12.6651C156.908 12.6651 157.51 13.2751 157.51 14.2043C157.51 15.5401 156.344 16.6714 153.266 17.6134C153.353 18.2955 154.058 20.038 154.806 21.083C156.186 23.0135 157.756 24.0443 159.685 24.0443C160.779 24.0443 161.772 23.7239 162.691 23.0714C164.534 21.7664 165.425 20.1255 166 18.3393L164.004 17.2659Z" fill="#369CB7"/>
<path d="M58.893 15.4667V10.0821C58.7055 9.96495 58.1455 9.93792 57.8713 9.93792C54.3455 9.92377 52.6924 12.5363 52.6184 12.6225C52.5623 12.71 52.5329 12.7396 52.5023 12.7396C52.4462 12.7396 52.4462 12.6225 52.4462 12.6225V10.315H49.4103V23.6659H52.6337V18.7175C52.6337 18.1075 52.7204 16.1912 53.6848 14.8284C54.2307 14.0742 55.0382 13.3471 56.19 13.3471V15.4667H58.893Z" fill="#369CB7"/>
<path d="M128.896 8.86199C129.976 8.86199 130.881 7.94826 130.881 6.82989C130.881 5.73984 129.976 4.82739 128.896 4.82739C127.789 4.82739 126.91 5.74113 126.91 6.82989C126.91 7.94954 127.773 8.86199 128.896 8.86199Z" fill="#369CB7"/>
<path d="M96.88 8.86199C97.9604 8.86199 98.8661 7.94826 98.8661 6.82989C98.8661 5.73984 97.9604 4.82739 96.88 4.82739C95.7728 4.82739 94.8939 5.74113 94.8939 6.82989C94.8939 7.94954 95.7728 8.86199 96.88 8.86199Z" fill="#369CB7"/>
</svg>
