<svg width="20" height="20" viewBox="0 0 20 20" fill="none" xmlns="http://www.w3.org/2000/svg">
<ellipse cx="9.64911" cy="6.06502" rx="3.98169" ry="3.98169" stroke="#C4C4C4" stroke-linecap="round" stroke-linejoin="round"/>
<path fill-rule="evenodd" clip-rule="evenodd" d="M3.33333 15.5845C3.33226 15.3046 3.39486 15.0281 3.51639 14.7759C3.89778 14.0132 4.9733 13.6089 5.86574 13.4258C6.50938 13.2885 7.1619 13.1967 7.81845 13.1512C9.03401 13.0444 10.2566 13.0444 11.4722 13.1512C12.1286 13.1972 12.7811 13.289 13.4249 13.4258C14.3173 13.6089 15.3928 13.975 15.7742 14.7759C16.0186 15.2899 16.0186 15.8867 15.7742 16.4006C15.3928 17.2016 14.3173 17.5677 13.4249 17.7431C12.782 17.8862 12.1292 17.9805 11.4722 18.0254C10.4828 18.1092 9.4888 18.1245 8.49732 18.0711C8.26849 18.0711 8.04729 18.0711 7.81845 18.0254C7.16384 17.9811 6.51358 17.8867 5.87337 17.7431C4.9733 17.5677 3.90541 17.2016 3.51639 16.4006C3.39548 16.1456 3.33294 15.8668 3.33333 15.5845Z" stroke="#C4C4C4" stroke-linecap="round" stroke-linejoin="round"/>
</svg>
