<svg width="97" height="21" viewBox="0 0 97 21" fill="none" xmlns="http://www.w3.org/2000/svg">
<path d="M74.2317 2.13078H69.0492C68.7444 2.13078 68.4395 2.44791 68.2871 2.76505L66.1531 16.719C66.1531 17.0362 66.3056 17.1947 66.6104 17.1947H69.3541C69.6589 17.1947 69.8114 17.0362 69.8114 16.719L70.4211 12.7548C70.4211 12.4377 70.7259 12.1206 71.1832 12.1206H72.8599C76.3657 12.1206 78.3473 10.3763 78.8045 6.88781C79.1094 5.4607 78.8045 4.19216 78.1948 3.39932C77.2803 2.60648 75.9084 2.13078 74.2317 2.13078V2.13078ZM74.8415 7.36352C74.5366 9.26633 73.1648 9.26633 71.7929 9.26633H70.8784L71.4881 5.61927C71.4881 5.4607 71.6405 5.30213 71.9453 5.30213H72.2502C73.1648 5.30213 74.0793 5.30213 74.5366 5.93641C74.8415 6.09497 74.8415 6.57068 74.8415 7.36352" fill="#C4C4C4"/>
<path d="M36.8872 2.13078H31.7047C31.3998 2.13078 31.095 2.44791 30.9426 2.76505L28.8086 16.719C28.8086 17.0362 28.961 17.1947 29.2659 17.1947H31.7047C32.0096 17.1947 32.3144 16.8776 32.4668 16.5605L33.0765 12.7548C33.0765 12.4377 33.3814 12.1206 33.8387 12.1206H35.5154C39.0212 12.1206 41.0027 10.3763 41.46 6.88781C41.7649 5.4607 41.46 4.19216 40.8503 3.39932C39.9357 2.60648 38.7163 2.13078 36.8872 2.13078V2.13078ZM37.4969 7.36352C37.1921 9.26633 35.8202 9.26633 34.4484 9.26633H33.6862L34.296 5.61927C34.296 5.4607 34.4484 5.30213 34.7532 5.30213H35.0581C35.9726 5.30213 36.8872 5.30213 37.3445 5.93641C37.4969 6.09497 37.6493 6.57068 37.4969 7.36352Z" fill="#CFCFCF"/>
<path d="M52.5872 7.20491H50.1484C49.996 7.20491 49.6911 7.36348 49.6911 7.52205L49.5387 8.31489L49.3863 7.99775C48.7766 7.20491 47.7096 6.88778 46.4902 6.88778C43.7465 6.88778 41.3077 9.10773 40.8504 12.1205C40.5455 13.7062 41.0028 15.1333 41.7649 16.0847C42.5271 17.0361 43.5941 17.3533 44.9659 17.3533C47.2523 17.3533 48.4717 15.9262 48.4717 15.9262L48.3193 16.719C48.3193 17.0361 48.4717 17.1947 48.7766 17.1947H51.063C51.3678 17.1947 51.6727 16.8776 51.8251 16.5604L53.1969 7.68062C53.0445 7.52205 52.7397 7.20491 52.5872 7.20491V7.20491ZM49.0814 12.2791C48.7766 13.7062 47.7096 14.8162 46.1853 14.8162C45.4232 14.8162 44.8135 14.4991 44.5086 14.1819C44.2038 13.7062 44.0513 13.0719 44.0513 12.2791C44.2038 10.852 45.4232 9.74201 46.795 9.74201C47.5571 9.74201 48.0144 10.0591 48.4717 10.3763C48.929 10.852 49.0814 11.6448 49.0814 12.2791Z" fill="#CFCFCF"/>
<path d="M89.7792 7.20491H87.3404C87.188 7.20491 86.8831 7.36348 86.8831 7.52205L86.7307 8.31489L86.5783 7.99775C85.9686 7.20491 84.9016 6.88778 83.6822 6.88778C80.9385 6.88778 78.4997 9.10773 78.0424 12.1205C77.7375 13.7062 78.1948 15.1333 78.9569 16.0847C79.7191 17.0361 80.7861 17.3533 82.1579 17.3533C84.4443 17.3533 85.6637 15.9262 85.6637 15.9262L85.5113 16.719C85.5113 17.0361 85.6637 17.1947 85.9686 17.1947H88.255C88.5598 17.1947 88.8647 16.8776 89.0171 16.5604L90.3889 7.68062C90.2365 7.52205 90.0841 7.20491 89.7792 7.20491V7.20491ZM86.2734 12.2791C85.9686 13.7062 84.9016 14.8162 83.3773 14.8162C82.6152 14.8162 82.0055 14.4991 81.7006 14.1819C81.3958 13.7062 81.2433 13.0719 81.2433 12.2791C81.3958 10.852 82.6152 9.74201 83.987 9.74201C84.7492 9.74201 85.2064 10.0591 85.6637 10.3763C86.2734 10.852 86.4259 11.6448 86.2734 12.2791Z" fill="#C4C4C4"/>
<path d="M65.8484 7.20463H63.2571C62.9522 7.20463 62.7998 7.3632 62.6474 7.52176L59.294 12.9131L57.7697 7.8389C57.6173 7.52176 57.4649 7.3632 57.0076 7.3632H54.5688C54.2639 7.3632 54.1115 7.68033 54.1115 7.99746L56.8552 16.4015L54.2639 20.2072C54.1115 20.5243 54.2639 21 54.5688 21H57.0076C57.3125 21 57.4649 20.8414 57.6173 20.6829L66.0008 8.15603C66.4581 7.68033 66.1532 7.20463 65.8484 7.20463" fill="#CFCFCF"/>
<path d="M92.6754 2.6062L90.5414 16.8774C90.5414 17.1945 90.6938 17.3531 90.9987 17.3531H93.1326C93.4375 17.3531 93.7423 17.036 93.8948 16.7188L96.0287 2.76477C96.0287 2.44763 95.8763 2.28906 95.5715 2.28906H93.1326C92.9802 2.13049 92.8278 2.28906 92.6754 2.6062" fill="#C4C4C4"/>
<path d="M14.4045 1.56586C13.5277 0.521952 11.8994 0 9.64476 0H3.38193C3.00616 0 2.63039 0.391464 2.50513 0.782928L0 17.8768C0 18.2683 0.250513 18.5293 0.501026 18.5293H4.38398L5.38603 12.1354V12.3963C5.51129 12.0049 5.88706 11.6134 6.26283 11.6134H8.14168C11.7741 11.6134 14.5298 10.0476 15.4066 5.74147V5.35C15.2813 5.35 15.2813 5.35 15.4066 5.35C15.5318 3.65366 15.2813 2.60976 14.4045 1.56586" fill="#CFCFCF"/>
<path d="M15.1428 5.47643V5.86379C14.2739 10.2539 11.5433 11.6742 7.94379 11.6742H6.08198C5.70961 11.6742 5.33725 12.0615 5.21313 12.4489L3.97192 20.3252C3.97192 20.5834 4.09604 20.8417 4.46841 20.8417H7.69554C8.06791 20.8417 8.44027 20.5834 8.44027 20.1961V20.0669L9.06087 16.0642V15.806C9.06087 15.4186 9.43323 15.1604 9.8056 15.1604H10.3021C13.4051 15.1604 15.8875 13.8692 16.5081 9.99562C16.7564 8.44618 16.6322 7.02587 15.8875 6.12203C15.7634 5.86379 15.5152 5.60555 15.1428 5.47643" fill="#C4C4C4"/>
<path d="M14.2739 5.08865C14.1498 5.08865 14.0257 4.95953 13.9016 4.95953C13.7774 4.95953 13.6533 4.95953 13.5292 4.83041C13.0327 4.70129 12.5362 4.70129 11.9156 4.70129H7.07491C6.95079 4.70129 6.82667 4.70129 6.70255 4.83041C6.45431 4.95953 6.33019 5.21777 6.33019 5.47601L5.33722 12.1903V12.4485C5.46134 12.0612 5.8337 11.6738 6.20606 11.6738H8.06788C11.6674 11.6738 14.398 10.1243 15.2669 5.86337C15.2669 5.73425 15.2669 5.60513 15.391 5.47601C15.1428 5.34689 15.0186 5.21777 14.7704 5.21777C14.398 5.08865 14.398 5.08865 14.2739 5.08865" fill="#F6F6F6"/>
</svg>
