<svg width="53" height="62" fill="none" xmlns="http://www.w3.org/2000/svg"><path stroke="#fff" stroke-width=".5" d="M4.506 26.005H48.79v30.77H4.506z"/><path d="M49.33 56.955a.079.079 0 01-.06-.025.123.123 0 01-.03-.086V25.875c0-.041.015-.07.03-.086a.079.079 0 01.06-.025c.026 0 .045.01.06.025.015.016.03.045.03.086v30.969c0 .075-.056.111-.09.111zM15.886 21.49h0c.029-.305.049-.6.016-.851-.033-.259-.125-.506-.347-.681a.874.874 0 00-.49-.166 3.96 3.96 0 00-.422 0l-.068.004h-.01l-.01.001c-.085.01-.173.01-.277.01h-.003l-1.857.024c-.262 0-.448-.011-.64-.023a7.51 7.51 0 01-.112-.009c-.142-.011-.309-.025-.499-.016-.111 0-.237 0-.395-.011h0-.007l-.056-.003a9.788 9.788 0 00-.646-.013 2.913 2.913 0 00-.398.032 1.03 1.03 0 00-.18.045.464.464 0 00-.181.113l-.008.009-.007.008a.604.604 0 00-.105.313c-.01.098-.008.21-.002.316.012.214.045.44.068.578.019.119.03.22.04.318l.003.034a.132.132 0 01-.026.088.077.077 0 01-.058.029h0c-.037.002-.09-.03-.097-.098a2.257 2.257 0 00-.046-.332l-.002-.012v-.005c-.04-.273-.081-.549-.075-.803.007-.258.06-.455.177-.59h0l.002-.003c.112-.135.319-.218.626-.252.3-.033.639-.014.966.004.156.013.3.013.39.013h.001a9.31 9.31 0 01.754.032c.142.012.31.026.5.016l1.852-.024c.052 0 .102-.004.145-.006h.007c.047-.004.088-.006.13-.006h.014c.44-.026.801-.046 1.1.187.252.202.37.473.417.782.047.306.023.626 0 .93l-.002.034-.003.034c-.01.1-.02.206-.02.303a.138.138 0 01-.037.083.074.074 0 01-.053.026h-.002a.087.087 0 01-.056-.032.142.142 0 01-.032-.092c0-.107.01-.215.021-.338zm30.771 0h0c.028-.305.048-.6.016-.851-.034-.259-.126-.506-.348-.681a.874.874 0 00-.49-.166 3.96 3.96 0 00-.422 0l-.068.004h-.01l-.01.001c-.085.01-.172.01-.277.01h-.003l-1.857.024c-.262 0-.448-.011-.639-.023a7.51 7.51 0 01-.113-.009c-.142-.011-.309-.025-.499-.016-.11 0-.237 0-.395-.011h0-.007l-.056-.003a9.788 9.788 0 00-.645-.013 2.913 2.913 0 00-.399.032 1.03 1.03 0 00-.18.045.465.465 0 00-.181.113l-.008.009-.007.008a.604.604 0 00-.104.313c-.01.098-.009.21-.003.316.012.214.045.44.068.578.02.119.03.22.04.318l.003.034a.132.132 0 01-.026.088.077.077 0 01-.057.029.083.083 0 01-.064-.022.112.112 0 01-.033-.075 2.24 2.24 0 00-.047-.333l-.002-.012v-.005a4.882 4.882 0 01-.075-.803c.007-.258.061-.455.177-.59h0l.002-.003c.112-.135.32-.218.626-.252.3-.033.64-.014.966.004.157.013.3.013.39.013h.001a9.31 9.31 0 01.754.032c.142.012.31.026.5.016l1.852-.024c.052 0 .102-.004.145-.006h.007c.047-.004.088-.006.13-.006h.014c.44-.026.801-.046 1.1.187.253.202.37.473.417.782.047.306.023.626 0 .93 0 .011 0 .023-.002.034l-.003.034c-.01.1-.02.206-.02.303a.138.138 0 01-.037.083.074.074 0 01-.053.026h-.001a.087.087 0 01-.057-.032.142.142 0 01-.032-.092c0-.107.01-.215.022-.338z" fill="#fff" stroke="#fff" stroke-width=".5"/><path d="M14.697 49.434l.334.21c.13.081 3.278 2 11.401 2 8.124 0 11.272-1.919 11.402-2l.333-.21V37.557l4.495-1.411v6.66c-1.152.308-1.998 1.306-1.998 2.488v3.528h5.493v-3.528c0-1.181-.846-2.18-1.997-2.488v-7.13l2.618-.823-7.866-2.47-.474 1.34 3.603 1.13-15.609 4.9-15.608-4.9 15.608-4.9 10.585 3.323.473-1.338-11.058-3.472-20.346 6.387 8.61 2.704v11.877zm29.962-4.14v2.117h-2.497v-2.117c0-.648.56-1.175 1.249-1.175.688 0 1.248.527 1.248 1.175zm-28.464-7.267l10.237 3.214 10.237-3.214v5.527h-1.847v1.411h1.847v1.41h-3.246v1.412h3.246v.85c-.965.443-4.071 1.595-10.237 1.595-6.17 0-9.276-1.154-10.237-1.594V38.027z" fill="#fff"/><path d="M43.912 19.727l-.008-.01-15.5-18.587-.002-.002a1.372 1.372 0 00-1.04-.498h-.01c-.412 0-.787.197-1.045.514l-.001.002-14.649 18.43c-.035.044-.085.042-.114.017a.13.13 0 01-.015-.165s0 0 0 0L26.176 1.002s0 0 0 0a1.512 1.512 0 011.165-.581h.011c.441 0 .86.203 1.169.562 0 0 0 0 0 0l15.497 18.584h0l.003.003a.116.116 0 01-.012.157l-.008.007-.007.007-.004.002a.091.091 0 01-.03.004.091.091 0 01-.035-.007.027.027 0 01-.007-.004l-.006-.01z" fill="#fff" stroke="#fff" stroke-width=".5"/><path d="M27.392 3.275h0l-.01-.002a.817.817 0 01-.523-.291c-.132-.175-.177-.491-.077-.761h0l.001-.004c.078-.22.228-.333.367-.353h.002c.222-.034.404-.045.549-.035.294.04.49.196.575.4.087.211.053.494-.107.723a.812.812 0 01-.659.33.569.569 0 01-.118-.007zM27.17 2.08l-.08.016-.055.059.182.17-.182-.17h0l-.002.001-.001.002-.004.004-.008.01a.598.598 0 00-.075.12h0l-.004.01a.63.63 0 00-.02.413c.01.03.028.083.068.13a.609.609 0 00.411.21.646.646 0 00.633-.248h0l.003-.004a.533.533 0 00.088-.456l-.003-.009-.004-.01a.422.422 0 00-.244-.225.916.916 0 00-.152-.044c-.07-.02-.144-.02-.17-.02h-.006c-.11 0-.24.015-.375.041zM4.116 25.877h0v-.002c0-.076.056-.111.09-.111.02 0 .04.008.058.028.019.02.032.05.032.083 0 0 0 0 0 0l-.193 30.967v.002a.12.12 0 01-.03.086.079.079 0 01-.118-.002.125.125 0 01-.032-.084s0 0 0 0l.193-30.967z" fill="#fff" stroke="#fff" stroke-width=".5"/><path d="M2.903 61.157h47.73c1.073 0 1.954-.94 1.954-2.073v-.205c0-1.133-.87-2.073-1.954-2.073H2.903c-1.072 0-1.953.928-1.953 2.073v.205c0 1.133.87 2.073 1.953 2.073zm-1.173-2.29c0-.686.524-1.25 1.173-1.25h47.73c.639 0 1.174.552 1.174 1.25v.205c0 .686-.525 1.25-1.174 1.25H2.903c-.638 0-1.173-.552-1.173-1.25v-.205zm1.173-32.845h47.73c1.073 0 1.954-.94 1.954-2.073v-.205c0-1.133-.87-2.074-1.954-2.074H2.903c-1.072 0-1.953.93-1.953 2.074v.205c0 1.132.87 2.073 1.953 2.073zm-1.173-2.29c0-.686.524-1.251 1.173-1.251h47.73c.639 0 1.174.553 1.174 1.25v.205c0 .687-.525 1.251-1.174 1.251H2.903c-.638 0-1.173-.553-1.173-1.25v-.205z" fill="#fff" stroke="#fff" stroke-width=".1"/></svg>