<svg width="49" height="52" fill="none" xmlns="http://www.w3.org/2000/svg"><g clip-path="url(#clip0)" fill="#fff"><path d="M19.497 51.819H.32c-.177 0-.32-.154-.32-.344V47.27c0-2.749 2.085-4.985 4.647-4.985h2.54v-1.66c0-.19.144-.343.32-.343h.05c.065 0 .13.021.184.062.775.586 1.504.883 2.168.883.693 0 1.44-.294 2.22-.874a.302.302 0 01.331-.022c.106.06.172.176.172.304v1.65h2.539c2.562 0 4.646 2.236 4.646 4.985v4.206c0 .19-.143.344-.32.344zM.641 51.13h18.536v-3.86c0-2.37-1.797-4.298-4.007-4.298h-2.858c-.177 0-.32-.154-.32-.344v-1.37c-.715.436-1.413.656-2.083.656-.66 0-1.358-.232-2.081-.69v1.404c0 .19-.143.344-.32.344h-2.86c-2.21 0-4.007 1.928-4.007 4.298v3.863z"/><path d="M19.497 51.819H.321c-.177 0-.32-.154-.32-.344v-4.208c0-2.748 2.084-4.985 4.646-4.985h.86a.323.323 0 01.308.251l2.71 3.856 1.279-1.033a.303.303 0 01.385 0l1.278 1.033 2.711-3.856a.323.323 0 01.309-.25h.684c2.562 0 4.647 2.236 4.647 4.985v4.207c0 .19-.144.344-.32.344zM.641 51.132h18.536v-3.865c0-2.37-1.797-4.298-4.007-4.298h-.496l-2.888 4.108a.306.306 0 01-.448.068L9.996 46.06l-1.342 1.084a.306.306 0 01-.448-.067l-2.887-4.108h-.672c-2.209 0-4.006 1.928-4.006 4.298v3.865zM17.34 33.29c-1.116 0-2.024-.973-2.024-2.17 0-1.196.908-2.169 2.023-2.169 1.116 0 2.023.973 2.023 2.17 0 1.196-.907 2.17-2.023 2.17zm0-3.652c-.763 0-1.383.665-1.383 1.483 0 .818.62 1.483 1.382 1.483.763 0 1.383-.665 1.383-1.483 0-.818-.62-1.483-1.383-1.483z"/><path d="M9.909 41.913c-1.675 0-3.608-1.508-5.302-4.138-1.583-2.458-2.566-5.347-2.566-7.54 0-4.654 3.53-8.44 7.868-8.44 4.339 0 7.868 3.786 7.868 8.44 0 2.218-.96 5.106-2.504 7.537-1.673 2.632-3.628 4.141-5.364 4.141zm0-19.431c-3.985 0-7.228 3.478-7.228 7.753 0 4.176 4.038 10.991 7.228 10.991 1.5 0 3.306-1.436 4.834-3.84 1.476-2.324 2.393-5.064 2.393-7.151 0-4.275-3.242-7.753-7.227-7.753z"/><path d="M7.981 30.143c0 .437-.33.79-.736.79-.407 0-.737-.353-.737-.79 0-.436.33-.79.737-.79.406 0 .736.354.736.79zm5.329 0c0 .437-.329.79-.736.79s-.736-.353-.736-.79c0-.436.33-.79.736-.79.407 0 .737.354.737.79z"/><path d="M2.47 29.995a.387.387 0 01-.12-.017.384.384 0 01-.241-.245c-.147-.436-.245-.836-.245-1.37 0-4.607 3.648-8.356 8.133-8.356 4.484 0 8.132 3.749 8.132 8.356l.001.089c.005.41.016 1.166-.467 1.378a.306.306 0 01-.287.113c-.955-.15-1.894-.922-2.51-2.064a5.256 5.256 0 01-.324-.73l-.016-.047c-.817-2.311-1.215-2.35-1.286-2.333a14.92 14.92 0 01-3.243.34 14.9 14.9 0 01-3.243-.34c-.072-.015-.47.022-1.287 2.334l-.016.046a5.273 5.273 0 01-.324.73c-.329.61-.76 1.127-1.25 1.495-.009.007-.934.62-1.406.62zm7.526-9.3c-4.13 0-7.491 3.44-7.491 7.668 0 .348.048.615.133.905.273-.107.758-.376.874-.457.41-.31.778-.753 1.06-1.276.11-.203.204-.416.28-.63l.016-.046c.546-1.546 1.165-2.954 2.016-2.763a14.27 14.27 0 003.112.326c1.098 0 2.145-.11 3.113-.326.847-.192 1.47 1.216 2.016 2.763l.016.046c.076.214.17.427.28.63.486.903 1.191 1.528 1.908 1.7a.595.595 0 01.082-.038c.036-.04.085-.207.078-.735v-.1c0-4.228-3.362-7.667-7.493-7.667zM8.462 47.214c-.015 0-.03 0-.045-.004a.316.316 0 01-.211-.133l-2.973-4.231a.36.36 0 01.063-.48l1.541-1.247a.306.306 0 01.449.068l2.973 4.23a.36.36 0 01-.064.482l-1.54 1.246a.307.307 0 01-.193.069zm-2.524-4.508l2.587 3.683 1.029-.832-2.587-3.683-1.03.832z"/><path d="M11.53 47.214a.303.303 0 01-.192-.07L9.798 45.9a.36.36 0 01-.063-.48l2.972-4.232a.306.306 0 01.448-.067l1.541 1.246a.362.362 0 01.063.48l-2.972 4.232a.314.314 0 01-.256.136zm-1.091-1.657l1.029.832 2.587-3.682-1.03-.832-2.586 3.682zm-6.527 6.262c-.176 0-.32-.154-.32-.344v-3.324c0-.19.143-.344.32-.344.177 0 .32.154.32.344v3.324c0 .19-.143.344-.32.344zm12.168 0c-.177 0-.32-.154-.32-.344v-3.324c0-.19.143-.344.32-.344.177 0 .32.154.32.344v3.324c0 .19-.143.344-.32.344zm-5.805-25.124a7.571 7.571 0 01-2.173-.3c-1.903-.582-3.445-2.39-4.829-4.258a1.109 1.109 0 00-.01-.016l-1.27-1.93a.311.311 0 01-.015-.025c-.573-1.055-.851-1.996-.851-2.876 0-.387.041-.856.369-1.055.386-.235.839.056 1.523.497 1.358.874 3.631 2.335 6.674.415 2.306-1.455 3.907-1.075 4.843-.5 1.542.945 2.232 2.986 2.232 4.589 0 1.625-.633 2.997-1.832 3.968-1.293 1.047-3.056 1.491-4.66 1.491zm-6.494-4.978c1.315 1.776 2.77 3.49 4.496 4.016 1.784.544 4.513.348 6.273-1.078 1.046-.848 1.577-1.999 1.577-3.42 0-1.404-.59-3.183-1.91-3.992-1.131-.696-2.584-.523-4.2.496-3.37 2.127-5.945.472-7.327-.418-.324-.208-.722-.464-.873-.48-.017.044-.05.164-.05.449 0 .752.248 1.575.758 2.517l1.256 1.91zm6.128 15.428c-1.108 0-1.907-.534-2.375-1.588a.355.355 0 01.152-.458c.159-.082.35-.009.426.162.363.817.934 1.197 1.797 1.197 1.09 0 1.644-.765 1.785-1.17.062-.177.247-.267.413-.2a.35.35 0 01.187.442c-.271.778-1.134 1.615-2.385 1.615zm37.915 14.674H28.647c-.176 0-.32-.154-.32-.344V47.27c0-2.749 2.085-4.985 4.647-4.985h2.54v-1.66c0-.19.143-.343.32-.343h.049c.066 0 .13.021.184.062.775.586 1.505.883 2.168.883.694 0 1.441-.294 2.22-.874a.303.303 0 01.331-.022c.106.06.172.177.172.304v1.65h2.539c2.562 0 4.647 2.236 4.647 4.985v4.206c0 .19-.143.344-.32.344zm-18.856-.688h18.536V47.27c0-2.37-1.798-4.298-4.007-4.298h-2.859c-.177 0-.32-.154-.32-.344v-1.37c-.714.436-1.412.656-2.082.656-.661 0-1.359-.232-2.081-.69v1.404c0 .19-.144.344-.32.344h-2.861c-2.209 0-4.006 1.928-4.006 4.298v3.863z"/><path d="M47.824 51.819H28.647c-.176 0-.32-.154-.32-.344v-4.208c0-2.748 2.085-4.985 4.647-4.985h.859a.323.323 0 01.308.25l2.71 3.857 1.28-1.034a.303.303 0 01.384 0l1.279 1.034 2.71-3.856.004-.013a.323.323 0 01.305-.238h.684c2.562 0 4.647 2.236 4.647 4.985v4.208c0 .19-.143.344-.32.344zm-18.856-.687h18.536v-3.865c0-2.37-1.798-4.298-4.007-4.298H43l-2.887 4.108a.306.306 0 01-.448.068l-1.342-1.085-1.342 1.085a.306.306 0 01-.448-.068l-2.888-4.108h-.671c-2.21 0-4.007 1.928-4.007 4.298v3.865zm1.838-17.842c-1.116 0-2.023-.973-2.023-2.17 0-1.196.907-2.169 2.023-2.169 1.115 0 2.023.973 2.023 2.17 0 1.196-.908 2.17-2.023 2.17zm0-3.652c-.762 0-1.383.665-1.383 1.483 0 .818.62 1.483 1.383 1.483.762 0 1.382-.665 1.382-1.483 0-.818-.62-1.483-1.382-1.483z"/><path d="M38.236 41.913c-1.675 0-3.608-1.508-5.302-4.138-1.583-2.458-2.566-5.347-2.566-7.54 0-4.654 3.53-8.44 7.868-8.44 4.338 0 7.868 3.786 7.868 8.44 0 2.218-.96 5.106-2.505 7.537-1.672 2.632-3.627 4.141-5.363 4.141zm0-19.431c-3.985 0-7.227 3.478-7.227 7.753 0 4.176 4.037 10.991 7.227 10.991 1.499 0 3.306-1.436 4.834-3.84 1.476-2.324 2.393-5.064 2.393-7.151 0-4.275-3.242-7.753-7.227-7.753z"/><path d="M36.308 30.143c0 .437-.33.79-.737.79-.406 0-.736-.353-.736-.79 0-.436.33-.79.736-.79.407 0 .737.354.737.79zm5.329 0c0 .437-.33.79-.736.79-.407 0-.737-.353-.737-.79 0-.436.33-.79.737-.79.406 0 .736.354.736.79z"/><path d="M30.797 29.995a.374.374 0 01-.12-.017.385.385 0 01-.241-.245c-.147-.436-.245-.836-.245-1.37 0-4.607 3.648-8.356 8.132-8.356s8.132 3.749 8.132 8.356l.001.09c.006.409.016 1.165-.466 1.377a.305.305 0 01-.286.113c-.957-.15-1.896-.922-2.512-2.063a5.354 5.354 0 01-.323-.731l-.017-.046c-.816-2.312-1.216-2.35-1.286-2.333a14.92 14.92 0 01-3.243.34c-1.14 0-2.232-.114-3.243-.34-.071-.017-.47.02-1.286 2.332l-.017.047a5.218 5.218 0 01-.323.73c-.33.61-.761 1.127-1.25 1.496-.01.006-.935.62-1.407.62zm7.526-9.3c-4.131 0-7.492 3.44-7.492 7.668 0 .348.048.615.134.905.273-.107.758-.376.873-.457.41-.31.779-.753 1.061-1.276.11-.203.203-.416.28-.63l.015-.046c.547-1.547 1.166-2.955 2.016-2.763.969.217 2.016.326 3.113.326a14.3 14.3 0 003.112-.326c.849-.19 1.47 1.216 2.017 2.763l.016.046c.075.214.17.427.28.63.486.903 1.19 1.528 1.908 1.7a.604.604 0 01.081-.038c.037-.04.086-.207.079-.735l-.001-.1c0-4.228-3.361-7.667-7.492-7.667zm-1.535 26.519a.312.312 0 01-.256-.137l-2.972-4.231a.362.362 0 01.063-.48l1.541-1.247a.306.306 0 01.448.068l2.973 4.23a.362.362 0 01-.063.482l-1.541 1.246a.303.303 0 01-.193.069zm-2.524-4.507l2.587 3.682 1.03-.832-2.587-3.682-1.03.832z"/><path d="M39.857 47.214a.301.301 0 01-.192-.07l-1.54-1.245a.361.361 0 01-.063-.48l2.971-4.232a.306.306 0 01.45-.067l1.54 1.246a.362.362 0 01.063.48l-2.973 4.232a.314.314 0 01-.256.136zm-1.092-1.657l1.03.832 2.587-3.682-1.03-.832-2.587 3.682zm-6.526 6.263c-.177 0-.32-.155-.32-.345v-3.324c0-.19.143-.344.32-.344.177 0 .32.154.32.344v3.324c0 .19-.143.344-.32.344zm12.168 0c-.177 0-.32-.155-.32-.345v-3.324c0-.19.143-.344.32-.344.176 0 .32.154.32.344v3.324c0 .19-.144.344-.32.344zm-6.172-14.675c-1.107 0-1.907-.534-2.374-1.588a.355.355 0 01.151-.458.311.311 0 01.427.163c.362.816.933 1.196 1.796 1.196 1.09 0 1.645-.765 1.786-1.17.062-.177.246-.267.412-.2a.35.35 0 01.188.442c-.272.778-1.134 1.615-2.386 1.615zm.221-11.016c-5.604 0-6.441-2.79-6.441-4.453 0-1.662.837-4.452 6.441-4.452 4.585 0 8.228 4.043 8.381 4.216a.361.361 0 010 .473c-.153.173-3.796 4.216-8.38 4.216zm0-8.218c-3.795 0-5.8 1.302-5.8 3.765s2.005 3.765 5.8 3.765c3.694 0 6.84-2.904 7.691-3.765-.852-.86-4.003-3.765-7.69-3.765z"/><path d="M32.112 48.984h-16.2c-.176 0-.32-.154-.32-.344V28.751c0-.19.144-.343.32-.343h16.2c.176 0 .32.153.32.343v19.89c0 .19-.144.343-.32.343zm-15.88-.687h15.56V29.095h-15.56v19.202z"/><path d="M33.708 51.82H14.53c-.177 0-.32-.155-.32-.345V49.37c0-2.749 2.084-4.985 4.647-4.985h2.54v-1.66c0-.19.143-.343.32-.343h.048c.067 0 .13.022.185.062.775.586 1.505.883 2.168.883.694 0 1.44-.294 2.22-.874a.303.303 0 01.332-.022.35.35 0 01.171.305v1.649h2.539c2.563 0 4.647 2.237 4.647 4.985v2.105c0 .19-.144.344-.32.344zm-18.857-.688h18.536V49.37c0-2.37-1.797-4.298-4.007-4.298h-2.858c-.177 0-.32-.153-.32-.344v-1.37c-.715.436-1.413.656-2.083.656-.66 0-1.358-.232-2.08-.69v1.404c0 .19-.144.344-.321.344h-2.86c-2.21 0-4.007 1.928-4.007 4.298v1.762z"/><path d="M33.708 51.819H14.53c-.177 0-.32-.154-.32-.344V49.37c0-2.75 2.084-4.986 4.647-4.986h.858a.323.323 0 01.309.25l2.71 3.857 1.279-1.033a.303.303 0 01.385 0l1.28 1.033 2.71-3.856c0-.005.002-.01.003-.014a.323.323 0 01.305-.237h.683c2.563 0 4.648 2.237 4.648 4.986v2.106c0 .19-.143.344-.32.344zm-18.857-.687h18.536v-1.763c0-2.37-1.797-4.298-4.007-4.298h-.496l-2.887 4.108a.306.306 0 01-.449.067l-1.342-1.085-1.341 1.085a.307.307 0 01-.449-.067L19.53 45.07h-.671c-2.21 0-4.007 1.928-4.007 4.298v1.763zm9.269-7.117c-1.676 0-3.608-1.509-5.303-4.14-1.582-2.456-2.565-5.345-2.565-7.539 0-4.654 3.529-8.44 7.868-8.44 4.338 0 7.867 3.786 7.867 8.44 0 2.218-.96 5.107-2.504 7.538-1.672 2.631-3.627 4.14-5.363 4.14zm0-19.432c-3.986 0-7.228 3.478-7.228 7.753 0 4.177 4.038 10.992 7.228 10.992 1.498 0 3.305-1.437 4.833-3.841 1.477-2.324 2.394-5.064 2.394-7.151 0-4.275-3.242-7.753-7.227-7.753z"/><path d="M22.191 32.245c0 .436-.33.79-.736.79-.407 0-.737-.354-.737-.79 0-.437.33-.79.737-.79.406 0 .736.353.736.79zm5.329 0c0 .436-.33.79-.736.79-.407 0-.737-.354-.737-.79 0-.437.33-.79.737-.79s.737.353.737.79zm-4.848 17.07a.313.313 0 01-.256-.136l-2.973-4.232a.36.36 0 01.063-.48l1.541-1.246a.306.306 0 01.45.068l2.972 4.23a.37.37 0 01.061.255.349.349 0 01-.124.227l-1.541 1.245a.305.305 0 01-.193.07zm-2.524-4.507l2.587 3.683 1.03-.832-2.588-3.683-1.03.832z"/><path d="M25.741 49.315a.305.305 0 01-.193-.069l-1.54-1.245a.36.36 0 01-.063-.48l2.972-4.232a.306.306 0 01.449-.068l1.54 1.246a.35.35 0 01.125.226.364.364 0 01-.061.254l-2.973 4.232a.313.313 0 01-.256.136zm-1.092-1.656l1.029.832 2.587-3.683-1.029-.832-2.587 3.683zm-.529-8.412c-1.109 0-1.908-.535-2.375-1.589a.355.355 0 01.151-.458.311.311 0 01.427.163c.362.817.933 1.197 1.796 1.197 1.09 0 1.645-.765 1.785-1.17.062-.177.247-.267.413-.2a.35.35 0 01.188.442c-.272.778-1.134 1.615-2.386 1.615zm8.298-7.136a.306.306 0 01-.139-.034 32.305 32.305 0 01-5.53-3.65 24.515 24.515 0 01-1.48-1.296 15.784 15.784 0 01-1.648-1.798c-.96-1.24-1.777-2.736-2.569-4.708a.366.366 0 01.002-.278.33.33 0 01.193-.186 8.405 8.405 0 012.764-.465c2.503 0 4.83 1.075 6.551 3.026 1.591 1.801 2.467 4.162 2.467 6.647 0 .845-.1 1.682-.301 2.487a.339.339 0 01-.176.224.3.3 0 01-.134.031zM21.784 20.706c.723 1.737 1.468 3.074 2.33 4.188.451.583.983 1.162 1.578 1.723.423.403.895.815 1.445 1.262a31.833 31.833 0 005.064 3.392c.125-.62.188-1.259.188-1.902 0-2.308-.814-4.5-2.291-6.174-1.6-1.813-3.761-2.811-6.086-2.811-.759 0-1.507.108-2.228.322z"/><path d="M15.64 32.246c-.05 0-.1-.013-.145-.038a.338.338 0 01-.162-.212 10.32 10.32 0 01-.338-2.627c0-4.218 2.513-7.92 6.253-9.207a8.398 8.398 0 012.763-.466c2.503 0 4.83 1.075 6.551 3.026.06.067.09.157.087.249a.355.355 0 01-.104.241 34.579 34.579 0 01-4.894 3.954c-2.806 1.887-6.045 3.541-9.9 5.059a.293.293 0 01-.11.021zm8.371-11.863a7.8 7.8 0 00-2.566.432c-3.475 1.197-5.81 4.635-5.81 8.554 0 .704.076 1.402.227 2.08 3.667-1.465 6.761-3.059 9.45-4.865a34.266 34.266 0 004.555-3.64c-1.574-1.654-3.64-2.56-5.856-2.56zm22.679-3.724H18.043c-.895 0-1.623-.781-1.623-1.741V9.897c0-.19.143-.344.32-.344.177 0 .32.154.32.344v5.021c0 .58.441 1.054.983 1.054h28.649c.541 0 .982-.473.982-1.054V1.803c0-.58-.44-1.053-.982-1.053h-28.65c-.542 0-.982.473-.982 1.053v5.062c0 .19-.144.343-.32.343-.177 0-.32-.154-.32-.343V1.803c0-.96.727-1.74 1.622-1.74h28.649c.894 0 1.622.78 1.622 1.74v13.115c0 .96-.728 1.74-1.622 1.74z"/><path d="M44.625 14.249H20.108c-.689 0-1.249-.601-1.249-1.34V3.814c0-.739.56-1.34 1.249-1.34h10.705c.177 0 .32.154.32.344 0 .19-.143.343-.32.343H20.108c-.336 0-.608.293-.608.653v9.097c0 .359.272.651.608.651h24.517c.335 0 .608-.292.608-.651V3.813c0-.36-.273-.653-.608-.653h-11.08c-.176 0-.32-.153-.32-.343 0-.19.144-.344.32-.344h11.08c.689 0 1.249.601 1.249 1.34v9.097c0 .738-.56 1.339-1.249 1.339z"/><path d="M28.066 11.84h-.02a.317.317 0 01-.252-.16l-3.348-5.742-2.13 4.81a.31.31 0 01-.427.163.355.355 0 01-.152-.457l2.382-5.378a.321.321 0 01.27-.196.312.312 0 01.29.161l3.421 5.867 2.099-2.765a.306.306 0 01.386-.093l2.842 1.453 2.425-3.154a.311.311 0 01.239-.125.304.304 0 01.244.112l3.087 3.62 3.25-1.681a.31.31 0 01.427.16c.077.17.01.376-.15.459l-3.464 1.792a.305.305 0 01-.375-.078l-2.998-3.517-2.35 3.056a.306.306 0 01-.385.091l-2.84-1.452-2.223 2.928a.312.312 0 01-.248.127z"/></g><defs><clipPath id="clip0"><path fill="#fff" d="M0 0h48.313v51.827H0z"/></clipPath></defs></svg>