<svg width="51" height="53" fill="none" xmlns="http://www.w3.org/2000/svg"><path d="M24.519 37.837c-.332 0-.656.106-.931.304-.276.199-.49.481-.618.812a1.94 1.94 0 00-.095 1.044c.064.35.224.673.459.926.234.253.533.425.858.495.325.07.662.034.968-.103a1.71 1.71 0 00.752-.666 1.91 1.91 0 00.283-1.005c0-.479-.177-.938-.492-1.277a1.619 1.619 0 00-1.184-.53zm0 2.524a.63.63 0 01-.37-.12.707.707 0 01-.244-.322.769.769 0 01-.038-.414.736.736 0 01.182-.367.65.65 0 01.34-.196.62.62 0 01.384.04.678.678 0 01.298.264.757.757 0 01-.083.905.641.641 0 01-.47.21zm3.519-15.049a.423.423 0 00.412-.066.483.483 0 00.14-.175.524.524 0 00.05-.224v-2.98a.523.523 0 00-.05-.225.483.483 0 00-.14-.174.424.424 0 00-.412-.066l-1.472.54v-.613a.511.511 0 00-.133-.347.44.44 0 00-.322-.144h-3.66c-.314 0-.615.135-.837.374a1.33 1.33 0 00-.346.901v2.44c0 .337.125.662.346.9.222.24.523.375.836.375h3.66a.44.44 0 00.323-.144.511.511 0 00.133-.347v-.565l1.472.54zm-1.46-2.337l1.151-.422v1.608l-1.15-.422v-.764zm-.923 1.87H22.45a.263.263 0 01-.192-.085.306.306 0 01-.08-.208v-2.439c0-.077.029-.152.08-.207a.263.263 0 01.192-.086h3.205v3.026zM13.118 8.334a.436.436 0 00.287-.109c.05-.043 1.264-1.064 3.548-.416a.424.424 0 00.347-.049.468.468 0 00.135-.127.508.508 0 00.089-.366.517.517 0 00-.178-.325.442.442 0 00-.162-.083c-2.761-.783-4.294.55-4.358.608a.497.497 0 00-.148.249c-.024.097-.02.2.012.295.032.095.09.177.167.235a.432.432 0 00.261.088zm0 2.235a.437.437 0 00.287-.109c.05-.044 1.264-1.064 3.548-.417a.422.422 0 00.347-.048.468.468 0 00.135-.127.508.508 0 00.089-.366.517.517 0 00-.178-.326.442.442 0 00-.162-.083c-2.761-.783-4.294.551-4.358.609a.497.497 0 00-.148.248.532.532 0 00.012.296c.032.095.09.176.167.234a.432.432 0 00.261.089zm0 2.339a.436.436 0 00.287-.109c.05-.044 1.264-1.064 3.548-.417a.424.424 0 00.347-.048.469.469 0 00.135-.127.509.509 0 00.089-.366.517.517 0 00-.178-.326.443.443 0 00-.162-.083c-2.761-.783-4.294.551-4.358.609a.497.497 0 00-.148.248.532.532 0 00.012.296c.032.095.09.176.167.234a.432.432 0 00.261.089zM4.977 7.809c2.278-.646 3.492.368 3.548.416a.433.433 0 00.64-.067.518.518 0 00-.061-.691c-.064-.057-1.597-1.392-4.358-.608a.442.442 0 00-.162.083.517.517 0 00.045.819.433.433 0 00.348.048zm0 2.234c2.277-.645 3.49.368 3.548.417a.433.433 0 00.64-.067.518.518 0 00-.061-.691c-.064-.058-1.597-1.392-4.358-.609a.442.442 0 00-.162.083.517.517 0 00.045.819.434.434 0 00.348.048zm0 2.339c2.277-.645 3.49.368 3.548.417a.433.433 0 00.64-.067.518.518 0 00-.061-.691c-.064-.058-1.597-1.392-4.358-.609a.443.443 0 00-.162.083.517.517 0 00.045.819.434.434 0 00.348.048z" fill="#fff"/><path d="M49.24 7.771h-.69a3.505 3.505 0 00-1.024-2.178 3.032 3.032 0 00-2.113-.879h-23.89V2.563a1.48 1.48 0 00-.327-.93 1.286 1.286 0 00-.813-.468 9.253 9.253 0 00-.784-.036A1.037 1.037 0 0019.36.53a.907.907 0 00-.53-.31c-1.627-.297-5.62-.709-7.533 1.878a.388.388 0 01-.134.116.358.358 0 01-.334 0 .388.388 0 01-.133-.116C8.782-.488 4.79-.077 3.162.22a.907.907 0 00-.53.312 1.033 1.033 0 00-.238.597 9.501 9.501 0 00-.784.036 1.28 1.28 0 00-.814.468 1.47 1.47 0 00-.326.93V40.43c.002.902.334 1.766.925 2.404a3.045 3.045 0 002.229.998h17.113l-1.025 8.074h-2.428a.488.488 0 00-.357.16.569.569 0 00-.148.386.57.57 0 00.148.386c.095.102.223.16.357.16h14.66a.488.488 0 00.358-.16.568.568 0 00.148-.386.568.568 0 00-.148-.386.488.488 0 00-.357-.16h-2.428l-1.025-8.074h16.921a3.046 3.046 0 002.229-.998 3.546 3.546 0 00.924-2.404V15.465h.674c.381 0 .746-.163 1.016-.454.27-.29.42-.685.421-1.096V9.321c0-.41-.152-.805-.421-1.095a1.388 1.388 0 00-1.016-.455zM20.733 51.907l1.025-8.074h5.713l1.024 8.074h-7.762zm24.68-46.101c.512 0 1.007.2 1.395.56.388.36.643.859.72 1.405H43.1c-.38 0-.746.164-1.016.455-.27.29-.42.684-.421 1.095v.759h-20.14V5.806h23.89zM12.008 2.71c1.658-2.239 5.525-1.73 6.67-1.52.004 0 .008.003.01.006a.019.019 0 01.004.012v12.745l-.001.007a.015.015 0 01-.004.006.017.017 0 01-.007.005.015.015 0 01-.008 0c-3.974-.382-6.175.835-7.22 1.72V3.148c.219-.089.41-.24.556-.437zM3.301 1.207a.02.02 0 01.004-.012.016.016 0 01.01-.006C4.46.979 8.326.472 9.984 2.711c.145.197.338.348.556.437v12.543c-.91-.771-2.694-1.793-5.762-1.793a15.22 15.22 0 00-1.466.071.017.017 0 01-.007-.004.015.015 0 01-.004-.006.017.017 0 010-.007V1.207zm-1.92 1.356c0-.104.035-.204.099-.282a.39.39 0 01.246-.142c.1-.014.384-.023.664-.027v11.84a1.047 1.047 0 00.303.739.917.917 0 00.33.21.87.87 0 00.379.048c3.922-.377 5.912.882 6.75 1.667.234.219.534.34.844.34.31 0 .61-.121.846-.34.837-.785 2.827-2.045 6.749-1.667a.865.865 0 00.38-.049.916.916 0 00.33-.21 1.01 1.01 0 00.223-.334c.052-.127.078-.265.078-.404V2.11h.167c.166-.002.332.009.498.03a.389.389 0 01.246.142.448.448 0 01.1.282v13.02a.457.457 0 01-.125.31.371.371 0 01-.295.115c-4.433-.31-6.951.896-8.285 1.963a1.46 1.46 0 01-.912.322c-.328 0-.647-.113-.911-.322-1.188-.95-3.316-2.013-6.901-2.013-.44 0-.9.017-1.384.05a.361.361 0 01-.294-.114.45.45 0 01-.125-.311V2.563zm16.221 21.222c.11 1.302.666 2.514 1.561 3.396.895.883 2.063 1.373 3.276 1.375h1.69v6.889h-8.367V34.3a3.195 3.195 0 00-.452-1.686 2.865 2.865 0 00-1.244-1.13 1.157 1.157 0 01-.243-.149.71.71 0 01-.189-.227.765.765 0 01-.084-.292.898.898 0 01.04-.349.85.85 0 01.168-.3c.32-.374.534-.841.612-1.344.079-.503.02-1.02-.169-1.486a2.584 2.584 0 00-.895-1.145 2.308 2.308 0 00-1.33-.43 2.307 2.307 0 00-1.332.424 2.582 2.582 0 00-.9 1.141 2.83 2.83 0 00-.174 1.486c.077.503.288.971.607 1.347a.88.88 0 01.18.334.932.932 0 01.027.385.772.772 0 01-.113.313.706.706 0 01-.23.225 1.138 1.138 0 01-.13.068c-.508.232-.94.622-1.241 1.12a3.166 3.166 0 00-.451 1.676v1.163H1.483v-11.66h16.119zm4.837 3.788c-1.046-.001-2.048-.45-2.787-1.249a4.432 4.432 0 01-1.154-3.007c0-1.128.415-2.21 1.154-3.008.739-.798 1.741-1.247 2.787-1.25h4.222c.52 0 1.033.11 1.512.323.48.213.916.527 1.283.922.367.396.658.865.857 1.382a4.55 4.55 0 010 3.261c-.199.517-.49.987-.857 1.382a3.938 3.938 0 01-1.282.922c-.48.214-.994.323-1.513.322H22.44zm-11.516 1.85a1.585 1.585 0 01-.354-.787 1.643 1.643 0 01.102-.867c.111-.273.294-.504.525-.666a1.342 1.342 0 011.555.002c.23.164.412.396.523.67.11.272.144.574.099.867-.046.294-.17.567-.358.785-.172.2-.303.436-.384.693-.082.258-.111.53-.088.802.021.256.093.504.21.728.119.224.28.417.473.568.14.11.29.202.45.274.323.156.597.41.788.731.19.322.29.696.286 1.078v1.144H9.23v-1.163a2.04 2.04 0 01.285-1.066c.19-.317.461-.568.781-.72.084-.038.165-.08.243-.128a1.75 1.75 0 00.563-.554c.147-.228.243-.49.282-.764a2.096 2.096 0 00-.057-.87 1.99 1.99 0 00-.404-.757zm34.49 13.318H3.623a2.067 2.067 0 01-1.513-.677 2.407 2.407 0 01-.627-1.633v-3.895h39.105a.488.488 0 00.357-.16.569.569 0 00.149-.385V34.3a3.197 3.197 0 00-.452-1.686 2.865 2.865 0 00-1.244-1.13 1.154 1.154 0 01-.243-.147.709.709 0 01-.189-.229.767.767 0 01-.084-.292.898.898 0 01.039-.348.85.85 0 01.168-.3 2.71 2.71 0 00.613-1.343c.079-.503.02-1.02-.169-1.487a2.584 2.584 0 00-.895-1.145 2.308 2.308 0 00-1.33-.43 2.307 2.307 0 00-1.332.423 2.582 2.582 0 00-.9 1.141 2.82 2.82 0 00-.174 1.486c.076.503.288.971.607 1.347.083.096.144.21.18.335a.934.934 0 01.027.386.777.777 0 01-.114.312.709.709 0 01-.23.226 1.139 1.139 0 01-.13.067c-.507.232-.94.622-1.24 1.12a3.163 3.163 0 00-.451 1.675v1.164h-8.51v-6.89h1.62c1.213-.001 2.381-.491 3.276-1.374.894-.882 1.451-2.094 1.561-3.396h16.056v11.66h-4.932a.488.488 0 00-.357.16.568.568 0 00-.149.386.57.57 0 00.149.386c.094.102.223.16.357.16h4.932v3.894c0 .612-.226 1.2-.627 1.633a2.067 2.067 0 01-1.514.677zm-9.16-13.319a1.584 1.584 0 01-.354-.786 1.645 1.645 0 01.102-.868 1.51 1.51 0 01.526-.666 1.34 1.34 0 011.554.003c.231.163.413.395.523.668.11.273.145.575.1.869-.046.293-.17.566-.358.785a1.97 1.97 0 00-.383.693 2.08 2.08 0 00-.088.8c.02.257.093.506.21.73.118.223.28.417.473.568.14.11.29.202.45.273.323.156.597.41.788.732.19.32.29.695.286 1.077v1.145h-5.52v-1.163a2.04 2.04 0 01.285-1.066c.19-.318.461-.569.781-.721a1.754 1.754 0 00.805-.68c.147-.23.243-.49.282-.764.043-.292.023-.59-.057-.872a1.989 1.989 0 00-.404-.757zm0-12.845a1.584 1.584 0 01-.354-.787 1.645 1.645 0 01.102-.867c.112-.273.294-.504.526-.666a1.34 1.34 0 011.554.002c.231.164.413.396.523.67.11.272.145.574.1.867-.046.294-.17.567-.358.785a1.98 1.98 0 00-.383.694c-.081.258-.111.53-.088.802.021.256.093.504.21.728.119.223.28.417.473.567.14.11.29.203.45.274.323.156.597.41.787.732.191.32.29.695.287 1.077v1.348h-5.52v-1.367a2.04 2.04 0 01.285-1.065c.19-.317.461-.568.781-.72a2.25 2.25 0 00.243-.128c.224-.136.416-.326.563-.554.146-.228.242-.49.281-.763.043-.292.023-.59-.057-.872a1.989 1.989 0 00-.404-.757zm11.301 6.226h-6.46v-1.348a3.197 3.197 0 00-.452-1.686 2.865 2.865 0 00-1.244-1.13 1.159 1.159 0 01-.243-.148.709.709 0 01-.189-.228.767.767 0 01-.084-.292.898.898 0 01.039-.348.85.85 0 01.168-.3 2.71 2.71 0 00.613-1.343c.079-.503.02-1.02-.169-1.487a2.584 2.584 0 00-.895-1.145 2.308 2.308 0 00-1.33-.431 2.307 2.307 0 00-1.332.424 2.582 2.582 0 00-.9 1.14c-.19.467-.251.984-.174 1.487.076.503.288.971.607 1.347a.88.88 0 01.18.334.932.932 0 01.027.386.774.774 0 01-.113.313.707.707 0 01-.23.225 1.122 1.122 0 01-.13.068c-.508.232-.94.621-1.242 1.12a3.163 3.163 0 00-.45 1.675v1.367h-2.056c-.12-1.294-.68-2.493-1.574-3.366-.893-.873-2.054-1.358-3.26-1.36H22.44c-1.206.002-2.367.486-3.26 1.36-.893.873-1.454 2.072-1.574 3.366H1.483v-5.85c.123.032.25.044.377.036 4.155-.293 6.471.802 7.681 1.771.42.34.93.523 1.455.523s1.036-.184 1.456-.523c1.21-.97 3.524-2.064 7.68-1.771a1.22 1.22 0 00.526-.08c.168-.066.322-.167.452-.299.13-.131.234-.29.305-.467.071-.177.108-.368.108-.56V11.17H40.88l-.917 1.232a.584.584 0 00-.062.578.535.535 0 00.187.225c.08.055.174.084.27.084h1.503v.626c0 .411.152.805.422 1.096.27.29.634.454 1.015.454h4.256v7.337zm2.111-8.887a.478.478 0 01-.124.324.41.41 0 01-.3.135h-5.943a.41.41 0 01-.3-.135.478.478 0 01-.125-.324v-1.172a.568.568 0 00-.148-.386.488.488 0 00-.358-.16h-.954l1.151-1.544a.573.573 0 00.112-.342v-.99c0-.122.045-.24.125-.325a.41.41 0 01.3-.135h6.14a.41.41 0 01.3.135c.08.086.124.203.125.324v4.595z" fill="#fff"/></svg>