<svg width="23" height="23" viewBox="0 0 23 23" fill="none" xmlns="http://www.w3.org/2000/svg">
<circle cx="11.0075" cy="11.9925" r="10.5075" transform="rotate(-90 11.0075 11.9925)" stroke="#0E80A4"/>
<path d="M13.244 17.6973C13.3344 17.6973 13.4227 17.6732 13.4978 17.6281C13.573 17.583 13.6315 17.519 13.6661 17.444C13.7006 17.369 13.7097 17.2866 13.692 17.207C13.6743 17.1274 13.6308 17.0544 13.5669 16.997L8.25793 12.2312L13.5669 7.46537C13.6501 7.38801 13.6962 7.28441 13.6951 7.17686C13.6941 7.06932 13.646 6.96645 13.5613 6.8904C13.4766 6.81435 13.362 6.77121 13.2422 6.77028C13.1224 6.76934 13.007 6.81069 12.9208 6.8854L7.28868 11.9413C7.20302 12.0183 7.1549 12.1226 7.1549 12.2313C7.1549 12.3401 7.20302 12.4444 7.28868 12.5213L12.9208 17.5773C12.9633 17.6153 13.0136 17.6455 13.0691 17.6661C13.1246 17.6867 13.184 17.6973 13.244 17.6973Z" fill="#0E80A4"/>
</svg>
