<svg width="22" height="22" viewBox="0 0 22 22" fill="none" xmlns="http://www.w3.org/2000/svg">
<path d="M13.0208 0C11.5208 0 10.3507 0.0143223 9.51042 0.0429688C8.67014 0.0716152 8.02431 0.132486 7.57292 0.225586C7.12153 0.318686 6.83681 0.397461 6.71875 0.461914C6.6007 0.526367 6.40972 0.651693 6.14583 0.837891C5.9375 1.00977 5.55903 1.14941 5.01042 1.25684C4.46181 1.36426 3.54861 1.46094 2.27083 1.54688C2.04861 1.5612 1.875 1.64713 1.75 1.80469C1.72222 1.84766 1.66667 1.94076 1.58333 2.08398C1.5 2.22721 1.38194 2.46712 1.22917 2.80371C1.07639 3.1403 0.934028 3.50912 0.802083 3.91016C0.670139 4.3112 0.555556 4.8125 0.458333 5.41406C0.361111 6.01562 0.3125 6.62435 0.3125 7.24023C0.3125 9.33138 0.652778 10.9355 1.33333 12.0527C1.47222 12.2676 1.66667 12.375 1.91667 12.375C3.08333 12.375 4.36458 13.1055 5.76042 14.5664C7.15625 16.0273 8.36111 18.0111 9.375 20.5176C9.40278 20.5605 9.44792 20.6608 9.51042 20.8184C9.57292 20.9759 9.61111 21.0762 9.625 21.1191C9.63889 21.1621 9.67708 21.2445 9.73958 21.3662C9.80208 21.488 9.85764 21.5667 9.90625 21.6025C9.95486 21.6383 10.0208 21.6921 10.1042 21.7637C10.1875 21.8353 10.2743 21.8818 10.3646 21.9033C10.4549 21.9248 10.566 21.9463 10.6979 21.9678C10.8299 21.9893 10.9792 22 11.1458 22C11.3958 22 11.6528 21.9427 11.9167 21.8281C12.1806 21.7135 12.4236 21.5596 12.6458 21.3662C12.8681 21.1729 13.0486 20.9544 13.1875 20.7109C13.4514 20.2669 13.6042 19.6296 13.6458 18.7988C13.6875 17.9681 13.6632 17.1947 13.5729 16.4785C13.4826 15.7624 13.3611 15.0749 13.2083 14.416C15.6806 14.4303 17.3611 14.4375 18.25 14.4375C19.0694 14.4375 19.7326 14.2083 20.2396 13.75C20.7465 13.2917 21.0069 12.6901 21.0208 11.9453C21.0347 11.3151 20.9722 10.8353 20.8333 10.5059C21.0694 10.2624 21.2674 10.0081 21.4271 9.74316C21.5868 9.47819 21.6736 9.18099 21.6875 8.85156C21.7014 8.17839 21.3819 7.49089 20.7292 6.78906C20.7431 6.76042 20.7708 6.69238 20.8125 6.58496C20.8542 6.47754 20.8854 6.38802 20.9063 6.31641C20.9271 6.24479 20.9444 6.15527 20.9583 6.04785C20.9722 5.94043 20.9792 5.83659 20.9792 5.73633C20.9514 4.94857 20.5069 4.24674 19.6458 3.63086C19.7153 3.1582 19.7083 2.73568 19.625 2.36328C19.2917 0.78776 17.0903 0 13.0208 0ZM2.625 2.94336C4.90278 2.75716 6.34722 2.42773 6.95833 1.95508C7.18056 1.7832 7.375 1.66862 7.54167 1.61133C7.70833 1.55404 8.20833 1.50033 9.04167 1.4502C9.875 1.40006 11.2014 1.375 13.0208 1.375C13.5903 1.375 14.1076 1.38932 14.5729 1.41797C15.0382 1.44662 15.5764 1.49674 16.1875 1.56836C16.7986 1.63997 17.2917 1.76888 17.6667 1.95508C18.0417 2.14128 18.2639 2.3776 18.3333 2.66406C18.3889 2.96484 18.2569 3.28711 17.9375 3.63086C17.8681 3.80273 17.8681 3.97819 17.9375 4.15723C18.0069 4.33626 18.1181 4.46159 18.2708 4.5332H18.2917C18.3611 4.56185 18.4444 4.59766 18.5417 4.64062C18.6389 4.68359 18.7813 4.76237 18.9688 4.87695C19.1563 4.99154 19.3125 5.13119 19.4375 5.2959C19.5625 5.46061 19.6319 5.62174 19.6458 5.7793C19.6458 5.83659 19.6424 5.8903 19.6354 5.94043C19.6285 5.99056 19.6215 6.03711 19.6146 6.08008C19.6076 6.12305 19.5938 6.16602 19.5729 6.20898L19.5208 6.31641L19.4688 6.40234L19.4167 6.47754L19.375 6.53125L19.3438 6.57422L19.3333 6.5957C19.2778 6.66732 19.2431 6.74609 19.2292 6.83203C19.2153 6.91797 19.2153 7.00391 19.2292 7.08984C19.2431 7.17578 19.2743 7.25814 19.3229 7.33691C19.3715 7.41569 19.4306 7.48372 19.5 7.54102C19.5833 7.58398 19.6736 7.64486 19.7708 7.72363C19.8681 7.80241 19.9896 7.94922 20.1354 8.16406C20.2813 8.37891 20.3542 8.59375 20.3542 8.80859C20.3403 9.16667 20.0764 9.50325 19.5625 9.81836C19.4792 9.87565 19.4097 9.94368 19.3542 10.0225C19.2986 10.1012 19.2569 10.1908 19.2292 10.291C19.2153 10.3483 19.2118 10.4092 19.2188 10.4736C19.2257 10.5381 19.2396 10.6025 19.2604 10.667C19.2813 10.7314 19.3125 10.7923 19.3542 10.8496C19.3681 10.8639 19.3819 10.8818 19.3958 10.9033C19.4097 10.9248 19.4375 10.9785 19.4792 11.0645C19.5208 11.1504 19.5556 11.2327 19.5833 11.3115C19.6111 11.3903 19.6354 11.487 19.6563 11.6016C19.6771 11.7161 19.6875 11.8236 19.6875 11.9238C19.6736 12.1816 19.6076 12.3965 19.4896 12.5684C19.3715 12.7402 19.2188 12.8584 19.0313 12.9229C18.8438 12.9873 18.6944 13.0267 18.5833 13.041C18.4722 13.0553 18.3611 13.0625 18.25 13.0625H13.375L12.25 13.041C12.1944 13.041 12.1389 13.0482 12.0833 13.0625C12.0278 13.0768 11.9757 13.0983 11.9271 13.127C11.8785 13.1556 11.8333 13.1878 11.7917 13.2236C11.75 13.2594 11.7153 13.306 11.6875 13.3633C11.5625 13.5495 11.5417 13.7643 11.625 14.0078C11.8472 14.6667 12.0243 15.39 12.1563 16.1777C12.2882 16.9655 12.3507 17.7174 12.3438 18.4336C12.3368 19.1497 12.2361 19.6725 12.0417 20.002C12.0278 20.0306 12 20.0807 11.9583 20.1523C11.9167 20.224 11.8889 20.2741 11.875 20.3027C11.8611 20.3314 11.8299 20.3708 11.7813 20.4209C11.7326 20.471 11.684 20.5068 11.6354 20.5283C11.5868 20.5498 11.5208 20.5713 11.4375 20.5928C11.3542 20.6143 11.2569 20.625 11.1458 20.625C11.1042 20.625 11.0625 20.6107 11.0208 20.582C10.9792 20.5534 10.9167 20.4889 10.8333 20.3887C10.75 20.2884 10.6736 20.1523 10.6042 19.9805C9.53472 17.3164 8.24306 15.193 6.72917 13.6104C5.21528 12.0277 3.75 11.1647 2.33333 11.0215C2.22222 10.7637 2.125 10.5059 2.04167 10.248C1.95833 9.99023 1.87153 9.58203 1.78125 9.02344C1.69097 8.46484 1.64583 7.87044 1.64583 7.24023C1.64583 6.5957 1.70833 5.95475 1.83333 5.31738C1.95833 4.68001 2.08681 4.17871 2.21875 3.81348C2.35069 3.44824 2.48611 3.1582 2.625 2.94336Z" fill="#888888"/>
</svg>
