<svg width="22" height="23" viewBox="0 0 22 23" fill="none" xmlns="http://www.w3.org/2000/svg">
<g clip-path="url(#clip0)">
<path d="M21.8777 9.10212C21.8777 10.1717 21.0483 11.0388 20.0252 11.0388H19.9368C20.463 11.3805 20.8135 11.9898 20.8135 12.685C20.8135 13.7545 19.9841 14.6217 18.961 14.6217H12.0602C13.3447 17.1072 13.8039 18.9388 14.2399 20.498C14.4909 21.393 14.0949 22.373 13.2652 22.7927C12.3411 23.2601 11.3321 22.9279 10.7824 21.8896C9.54553 19.5536 7.60807 16.6432 4.58283 13.4008C4.05078 12.8307 3.68346 12.1373 3.51685 11.3814H0.122803V1.9367H4.13071C4.88481 0.769253 6.16212 6.29425e-05 7.60807 6.29425e-05C7.86255 6.29425e-05 16.2741 -1.33514e-05 17.0613 -1.33514e-05C18.0843 -1.33514e-05 18.9138 0.867075 18.9138 1.9367C18.9138 2.63188 18.5633 3.24121 18.0371 3.58285H18.6359C19.6589 3.58285 20.4884 4.44994 20.4884 5.51957C20.4884 6.21474 20.1378 6.82408 19.6116 7.16571H20.0252C21.0483 7.1654 21.8777 8.03257 21.8777 9.10212Z" fill="#69A7B0"/>
</g>
<defs>
<clipPath id="clip0">
<rect width="22" height="23" fill="white" transform="matrix(1 0 0 -1 0 23)"/>
</clipPath>
</defs>
</svg>
