<svg width="22" height="22" viewBox="0 0 22 22" fill="none" xmlns="http://www.w3.org/2000/svg">
<path d="M13.0207 22C11.5207 22 10.3506 21.9857 9.5103 21.957C8.67002 21.9284 8.02418 21.8675 7.5728 21.7744C7.12141 21.6813 6.83668 21.6025 6.71863 21.5381C6.60057 21.4736 6.4096 21.3483 6.14571 21.1621C5.93738 20.9902 5.55891 20.8506 5.0103 20.7432C4.46168 20.6357 3.54849 20.5391 2.27071 20.4531C2.04849 20.4388 1.87488 20.3529 1.74988 20.1953C1.7221 20.1523 1.66654 20.0592 1.58321 19.916C1.49988 19.7728 1.38182 19.5329 1.22904 19.1963C1.07627 18.8597 0.933906 18.4909 0.801961 18.0898C0.670017 17.6888 0.555434 17.1875 0.458211 16.5859C0.360989 15.9844 0.312378 15.3757 0.312378 14.7598C0.312378 12.6686 0.652656 11.0645 1.33321 9.94727C1.4721 9.73242 1.66654 9.625 1.91654 9.625C3.08321 9.625 4.36446 8.89453 5.7603 7.43359C7.15613 5.97266 8.36099 3.98893 9.37488 1.48242C9.40266 1.43945 9.4478 1.33919 9.5103 1.18164C9.5728 1.02409 9.61099 0.923828 9.62488 0.880859C9.63877 0.837891 9.67696 0.755534 9.73946 0.633789C9.80196 0.512044 9.85752 0.433268 9.90613 0.397461C9.95474 0.361654 10.0207 0.307943 10.104 0.236328C10.1874 0.164714 10.2742 0.118164 10.3645 0.0966797C10.4547 0.0751953 10.5659 0.0537109 10.6978 0.0322266C10.8297 0.0107422 10.979 0 11.1457 0C11.3957 0 11.6527 0.0572917 11.9165 0.171875C12.1804 0.286458 12.4235 0.44043 12.6457 0.633789C12.8679 0.827148 13.0485 1.04557 13.1874 1.28906C13.4513 1.73307 13.604 2.37044 13.6457 3.20117C13.6874 4.0319 13.6631 4.80534 13.5728 5.52148C13.4825 6.23763 13.361 6.92513 13.2082 7.58398C15.6804 7.56966 17.361 7.5625 18.2499 7.5625C19.0693 7.5625 19.7325 7.79167 20.2395 8.25C20.7464 8.70833 21.0068 9.3099 21.0207 10.0547C21.0346 10.6849 20.9721 11.1647 20.8332 11.4941C21.0693 11.7376 21.2672 11.9919 21.427 12.2568C21.5867 12.5218 21.6735 12.819 21.6874 13.1484C21.7013 13.8216 21.3818 14.5091 20.729 15.2109C20.7429 15.2396 20.7707 15.3076 20.8124 15.415C20.854 15.5225 20.8853 15.612 20.9061 15.6836C20.927 15.7552 20.9443 15.8447 20.9582 15.9521C20.9721 16.0596 20.979 16.1634 20.979 16.2637C20.9513 17.0514 20.5068 17.7533 19.6457 18.3691C19.7152 18.8418 19.7082 19.2643 19.6249 19.6367C19.2915 21.2122 17.0902 22 13.0207 22ZM2.62488 19.0566C4.90266 19.2428 6.3471 19.5723 6.95821 20.0449C7.18043 20.2168 7.37488 20.3314 7.54155 20.3887C7.70821 20.446 8.20821 20.4997 9.04155 20.5498C9.87488 20.5999 11.2013 20.625 13.0207 20.625C13.5902 20.625 14.1075 20.6107 14.5728 20.582C15.0381 20.5534 15.5763 20.5033 16.1874 20.4316C16.7985 20.36 17.2915 20.2311 17.6665 20.0449C18.0415 19.8587 18.2638 19.6224 18.3332 19.3359C18.3888 19.0352 18.2568 18.7129 17.9374 18.3691C17.8679 18.1973 17.8679 18.0218 17.9374 17.8428C18.0068 17.6637 18.1179 17.5384 18.2707 17.4668H18.2915C18.361 17.4382 18.4443 17.4023 18.5415 17.3594C18.6388 17.3164 18.7811 17.2376 18.9686 17.123C19.1561 17.0085 19.3124 16.8688 19.4374 16.7041C19.5624 16.5394 19.6318 16.3783 19.6457 16.2207C19.6457 16.1634 19.6422 16.1097 19.6353 16.0596C19.6284 16.0094 19.6214 15.9629 19.6145 15.9199C19.6075 15.877 19.5936 15.834 19.5728 15.791L19.5207 15.6836L19.4686 15.5977L19.4165 15.5225L19.3749 15.4688L19.3436 15.4258L19.3332 15.4043C19.2777 15.3327 19.2429 15.2539 19.229 15.168C19.2152 15.082 19.2152 14.9961 19.229 14.9102C19.2429 14.8242 19.2742 14.7419 19.3228 14.6631C19.3714 14.5843 19.4304 14.5163 19.4999 14.459C19.5832 14.416 19.6735 14.3551 19.7707 14.2764C19.8679 14.1976 19.9895 14.0508 20.1353 13.8359C20.2811 13.6211 20.354 13.4062 20.354 13.1914C20.3402 12.8333 20.0763 12.4967 19.5624 12.1816C19.479 12.1243 19.4096 12.0563 19.354 11.9775C19.2985 11.8988 19.2568 11.8092 19.229 11.709C19.2152 11.6517 19.2117 11.5908 19.2186 11.5264C19.2256 11.4619 19.2395 11.3975 19.2603 11.333C19.2811 11.2686 19.3124 11.2077 19.354 11.1504C19.3679 11.1361 19.3818 11.1182 19.3957 11.0967C19.4096 11.0752 19.4374 11.0215 19.479 10.9355C19.5207 10.8496 19.5554 10.7673 19.5832 10.6885C19.611 10.6097 19.6353 10.513 19.6561 10.3984C19.677 10.2839 19.6874 10.1764 19.6874 10.0762C19.6735 9.81836 19.6075 9.60352 19.4895 9.43164C19.3714 9.25977 19.2186 9.1416 19.0311 9.07715C18.8436 9.0127 18.6943 8.97331 18.5832 8.95898C18.4721 8.94466 18.361 8.9375 18.2499 8.9375H13.3749L12.2499 8.95898C12.1943 8.95898 12.1388 8.95182 12.0832 8.9375C12.0277 8.92318 11.9756 8.90169 11.927 8.87305C11.8784 8.8444 11.8332 8.81217 11.7915 8.77637C11.7499 8.74056 11.7152 8.69401 11.6874 8.63672C11.5624 8.45052 11.5415 8.23568 11.6249 7.99219C11.8471 7.33333 12.0242 6.61003 12.1561 5.82227C12.2881 5.03451 12.3506 4.28255 12.3436 3.56641C12.3367 2.85026 12.236 2.32747 12.0415 1.99805C12.0277 1.9694 11.9999 1.91927 11.9582 1.84766C11.9165 1.77604 11.8888 1.72591 11.8749 1.69727C11.861 1.66862 11.8297 1.62923 11.7811 1.5791C11.7325 1.52897 11.6839 1.49316 11.6353 1.47168C11.5867 1.4502 11.5207 1.42871 11.4374 1.40723C11.354 1.38574 11.2568 1.375 11.1457 1.375C11.104 1.375 11.0624 1.38932 11.0207 1.41797C10.979 1.44661 10.9165 1.51107 10.8332 1.61133C10.7499 1.71159 10.6735 1.84766 10.604 2.01953C9.5346 4.68359 8.24293 6.80697 6.72905 8.38965C5.21516 9.97233 3.74988 10.8353 2.33321 10.9785C2.2221 11.2363 2.12488 11.4941 2.04154 11.752C1.95821 12.0098 1.87141 12.418 1.78113 12.9766C1.69085 13.5352 1.64571 14.1296 1.64571 14.7598C1.64571 15.4043 1.70821 16.0452 1.83321 16.6826C1.95821 17.32 2.08668 17.8213 2.21863 18.1865C2.35057 18.5518 2.48599 18.8418 2.62488 19.0566Z" fill="#2CA3C9"/>
</svg>
