<svg width="22" height="22" viewBox="0 0 22 22" fill="none" xmlns="http://www.w3.org/2000/svg">
<g clip-path="url(#clip0)">
<path d="M12.7083 22C11.2083 22 10.0382 21.9857 9.19792 21.957C8.35764 21.9284 7.71181 21.8675 7.26042 21.7744C6.80903 21.6813 6.52431 21.6025 6.40625 21.5381C6.2882 21.4736 6.09722 21.3483 5.83333 21.1621C5.625 20.9902 5.24653 20.8506 4.69792 20.7432C4.14931 20.6357 3.23611 20.5391 1.95833 20.4531C1.73611 20.4388 1.5625 20.3529 1.4375 20.1953C1.40972 20.1523 1.35417 20.0592 1.27083 19.916C1.1875 19.7728 1.06944 19.5329 0.916667 19.1963C0.763889 18.8597 0.621528 18.4909 0.489583 18.0898C0.357639 17.6888 0.243056 17.1875 0.145833 16.5859C0.0486111 15.9844 0 15.3757 0 14.7598C0 12.6686 0.340278 11.0645 1.02083 9.94727C1.15972 9.73242 1.35417 9.625 1.60417 9.625C2.77083 9.625 4.05208 8.89453 5.44792 7.43359C6.84375 5.97266 8.04861 3.98893 9.0625 1.48242C9.09028 1.43945 9.13542 1.33919 9.19792 1.18164C9.26042 1.02409 9.29861 0.923828 9.3125 0.880859C9.32639 0.837891 9.36458 0.755534 9.42708 0.633789C9.48958 0.512044 9.54514 0.433268 9.59375 0.397461C9.64236 0.361654 9.70833 0.307943 9.79167 0.236328C9.875 0.164714 9.96181 0.118164 10.0521 0.0966797C10.1424 0.0751953 10.2535 0.0537109 10.3854 0.0322266C10.5174 0.0107422 10.6667 0 10.8333 0C11.0833 0 11.3403 0.0572917 11.6042 0.171875C11.8681 0.286458 12.1111 0.44043 12.3333 0.633789C12.5556 0.827148 12.7361 1.04557 12.875 1.28906C13.1389 1.73307 13.2917 2.37044 13.3333 3.20117C13.375 4.0319 13.3507 4.80534 13.2604 5.52148C13.1701 6.23763 13.0486 6.92513 12.8958 7.58398C15.3681 7.56966 17.0486 7.5625 17.9375 7.5625C18.7569 7.5625 19.4201 7.79167 19.9271 8.25C20.434 8.70833 20.6944 9.3099 20.7083 10.0547C20.7222 10.6849 20.6597 11.1647 20.5208 11.4941C20.7569 11.7376 20.9549 11.9919 21.1146 12.2568C21.2743 12.5218 21.3611 12.819 21.375 13.1484C21.3889 13.8216 21.0694 14.5091 20.4167 15.2109C20.4306 15.2396 20.4583 15.3076 20.5 15.415C20.5417 15.5225 20.5729 15.612 20.5938 15.6836C20.6146 15.7552 20.6319 15.8447 20.6458 15.9521C20.6597 16.0596 20.6667 16.1634 20.6667 16.2637C20.6389 17.0514 20.1944 17.7533 19.3333 18.3691C19.4028 18.8418 19.3958 19.2643 19.3125 19.6367C18.9792 21.2122 16.7778 22 12.7083 22ZM2.3125 19.0566C4.59028 19.2428 6.03472 19.5723 6.64583 20.0449C6.86806 20.2168 7.0625 20.3314 7.22917 20.3887C7.39583 20.446 7.89583 20.4997 8.72917 20.5498C9.5625 20.5999 10.8889 20.625 12.7083 20.625C13.2778 20.625 13.7951 20.6107 14.2604 20.582C14.7257 20.5534 15.2639 20.5033 15.875 20.4316C16.4861 20.36 16.9792 20.2311 17.3542 20.0449C17.7292 19.8587 17.9514 19.6224 18.0208 19.3359C18.0764 19.0352 17.9444 18.7129 17.625 18.3691C17.5556 18.1973 17.5556 18.0218 17.625 17.8428C17.6944 17.6637 17.8056 17.5384 17.9583 17.4668H17.9792C18.0486 17.4382 18.1319 17.4023 18.2292 17.3594C18.3264 17.3164 18.4688 17.2376 18.6563 17.123C18.8438 17.0085 19 16.8688 19.125 16.7041C19.25 16.5394 19.3194 16.3783 19.3333 16.2207C19.3333 16.1634 19.3299 16.1097 19.3229 16.0596C19.316 16.0094 19.309 15.9629 19.3021 15.9199C19.2951 15.877 19.2813 15.834 19.2604 15.791L19.2083 15.6836L19.1563 15.5977L19.1042 15.5225L19.0625 15.4688L19.0313 15.4258L19.0208 15.4043C18.9653 15.3327 18.9306 15.2539 18.9167 15.168C18.9028 15.082 18.9028 14.9961 18.9167 14.9102C18.9306 14.8242 18.9618 14.7419 19.0104 14.6631C19.059 14.5843 19.1181 14.5163 19.1875 14.459C19.2708 14.416 19.3611 14.3551 19.4583 14.2764C19.5556 14.1976 19.6771 14.0508 19.8229 13.8359C19.9688 13.6211 20.0417 13.4062 20.0417 13.1914C20.0278 12.8333 19.7639 12.4967 19.25 12.1816C19.1667 12.1243 19.0972 12.0563 19.0417 11.9775C18.9861 11.8988 18.9444 11.8092 18.9167 11.709C18.9028 11.6517 18.8993 11.5908 18.9063 11.5264C18.9132 11.4619 18.9271 11.3975 18.9479 11.333C18.9688 11.2686 19 11.2077 19.0417 11.1504C19.0556 11.1361 19.0694 11.1182 19.0833 11.0967C19.0972 11.0752 19.125 11.0215 19.1667 10.9355C19.2083 10.8496 19.2431 10.7673 19.2708 10.6885C19.2986 10.6097 19.3229 10.513 19.3438 10.3984C19.3646 10.2839 19.375 10.1764 19.375 10.0762C19.3611 9.81836 19.2951 9.60352 19.1771 9.43164C19.059 9.25977 18.9063 9.1416 18.7188 9.07715C18.5313 9.0127 18.3819 8.97331 18.2708 8.95898C18.1597 8.94466 18.0486 8.9375 17.9375 8.9375H13.0625L11.9375 8.95898C11.8819 8.95898 11.8264 8.95182 11.7708 8.9375C11.7153 8.92318 11.6632 8.90169 11.6146 8.87305C11.566 8.8444 11.5208 8.81217 11.4792 8.77637C11.4375 8.74056 11.4028 8.69401 11.375 8.63672C11.25 8.45052 11.2292 8.23568 11.3125 7.99219C11.5347 7.33333 11.7118 6.61003 11.8438 5.82227C11.9757 5.03451 12.0382 4.28255 12.0313 3.56641C12.0243 2.85026 11.9236 2.32747 11.7292 1.99805C11.7153 1.9694 11.6875 1.91927 11.6458 1.84766C11.6042 1.77604 11.5764 1.72591 11.5625 1.69727C11.5486 1.66862 11.5174 1.62923 11.4688 1.5791C11.4201 1.52897 11.3715 1.49316 11.3229 1.47168C11.2743 1.4502 11.2083 1.42871 11.125 1.40723C11.0417 1.38574 10.9444 1.375 10.8333 1.375C10.7917 1.375 10.75 1.38932 10.7083 1.41797C10.6667 1.44661 10.6042 1.51107 10.5208 1.61133C10.4375 1.71159 10.3611 1.84766 10.2917 2.01953C9.22222 4.68359 7.93056 6.80697 6.41667 8.38965C4.90278 9.97233 3.4375 10.8353 2.02083 10.9785C1.90972 11.2363 1.8125 11.4941 1.72917 11.752C1.64583 12.0098 1.55903 12.418 1.46875 12.9766C1.37847 13.5352 1.33333 14.1296 1.33333 14.7598C1.33333 15.4043 1.39583 16.0452 1.52083 16.6826C1.64583 17.32 1.77431 17.8213 1.90625 18.1865C2.03819 18.5518 2.17361 18.8418 2.3125 19.0566Z" fill="#68C2D0"/>
</g>
<defs>
<clipPath id="clip0">
<rect width="21.3754" height="22" fill="white"/>
</clipPath>
</defs>
</svg>
