<svg width="22" height="22" viewBox="0 0 22 22" fill="none" xmlns="http://www.w3.org/2000/svg">
<path d="M13.0208 22C11.5208 22 10.3507 21.9857 9.51042 21.957C8.67014 21.9284 8.02431 21.8675 7.57292 21.7744C7.12153 21.6813 6.83681 21.6025 6.71875 21.5381C6.6007 21.4736 6.40972 21.3483 6.14583 21.1621C5.9375 20.9902 5.55903 20.8506 5.01042 20.7432C4.46181 20.6357 3.54861 20.5391 2.27083 20.4531C2.04861 20.4388 1.875 20.3529 1.75 20.1953C1.72222 20.1523 1.66667 20.0592 1.58333 19.916C1.5 19.7728 1.38194 19.5329 1.22917 19.1963C1.07639 18.8597 0.934028 18.4909 0.802083 18.0898C0.670139 17.6888 0.555556 17.1875 0.458333 16.5859C0.361111 15.9844 0.3125 15.3757 0.3125 14.7598C0.3125 12.6686 0.652778 11.0645 1.33333 9.94727C1.47222 9.73242 1.66667 9.625 1.91667 9.625C3.08333 9.625 4.36458 8.89453 5.76042 7.43359C7.15625 5.97266 8.36111 3.98893 9.375 1.48242C9.40278 1.43945 9.44792 1.33919 9.51042 1.18164C9.57292 1.02409 9.61111 0.923828 9.625 0.880859C9.63889 0.837891 9.67708 0.755534 9.73958 0.633789C9.80208 0.512044 9.85764 0.433268 9.90625 0.397461C9.95486 0.361654 10.0208 0.307943 10.1042 0.236328C10.1875 0.164714 10.2743 0.118164 10.3646 0.0966797C10.4549 0.0751953 10.566 0.0537109 10.6979 0.0322266C10.8299 0.0107422 10.9792 0 11.1458 0C11.3958 0 11.6528 0.0572917 11.9167 0.171875C12.1806 0.286458 12.4236 0.44043 12.6458 0.633789C12.8681 0.827148 13.0486 1.04557 13.1875 1.28906C13.4514 1.73307 13.6042 2.37044 13.6458 3.20117C13.6875 4.0319 13.6632 4.80534 13.5729 5.52148C13.4826 6.23763 13.3611 6.92513 13.2083 7.58398C15.6806 7.56966 17.3611 7.5625 18.25 7.5625C19.0694 7.5625 19.7326 7.79167 20.2396 8.25C20.7465 8.70833 21.0069 9.3099 21.0208 10.0547C21.0347 10.6849 20.9722 11.1647 20.8333 11.4941C21.0694 11.7376 21.2674 11.9919 21.4271 12.2568C21.5868 12.5218 21.6736 12.819 21.6875 13.1484C21.7014 13.8216 21.3819 14.5091 20.7292 15.2109C20.7431 15.2396 20.7708 15.3076 20.8125 15.415C20.8542 15.5225 20.8854 15.612 20.9063 15.6836C20.9271 15.7552 20.9444 15.8447 20.9583 15.9521C20.9722 16.0596 20.9792 16.1634 20.9792 16.2637C20.9514 17.0514 20.5069 17.7533 19.6458 18.3691C19.7153 18.8418 19.7083 19.2643 19.625 19.6367C19.2917 21.2122 17.0903 22 13.0208 22ZM2.625 19.0566C4.90278 19.2428 6.34722 19.5723 6.95833 20.0449C7.18056 20.2168 7.375 20.3314 7.54167 20.3887C7.70833 20.446 8.20833 20.4997 9.04167 20.5498C9.875 20.5999 11.2014 20.625 13.0208 20.625C13.5903 20.625 14.1076 20.6107 14.5729 20.582C15.0382 20.5534 15.5764 20.5033 16.1875 20.4316C16.7986 20.36 17.2917 20.2311 17.6667 20.0449C18.0417 19.8587 18.2639 19.6224 18.3333 19.3359C18.3889 19.0352 18.2569 18.7129 17.9375 18.3691C17.8681 18.1973 17.8681 18.0218 17.9375 17.8428C18.0069 17.6637 18.1181 17.5384 18.2708 17.4668H18.2917C18.3611 17.4382 18.4444 17.4023 18.5417 17.3594C18.6389 17.3164 18.7813 17.2376 18.9688 17.123C19.1563 17.0085 19.3125 16.8688 19.4375 16.7041C19.5625 16.5394 19.6319 16.3783 19.6458 16.2207C19.6458 16.1634 19.6424 16.1097 19.6354 16.0596C19.6285 16.0094 19.6215 15.9629 19.6146 15.9199C19.6076 15.877 19.5938 15.834 19.5729 15.791L19.5208 15.6836L19.4688 15.5977L19.4167 15.5225L19.375 15.4688L19.3438 15.4258L19.3333 15.4043C19.2778 15.3327 19.2431 15.2539 19.2292 15.168C19.2153 15.082 19.2153 14.9961 19.2292 14.9102C19.2431 14.8242 19.2743 14.7419 19.3229 14.6631C19.3715 14.5843 19.4306 14.5163 19.5 14.459C19.5833 14.416 19.6736 14.3551 19.7708 14.2764C19.8681 14.1976 19.9896 14.0508 20.1354 13.8359C20.2813 13.6211 20.3542 13.4062 20.3542 13.1914C20.3403 12.8333 20.0764 12.4967 19.5625 12.1816C19.4792 12.1243 19.4097 12.0563 19.3542 11.9775C19.2986 11.8988 19.2569 11.8092 19.2292 11.709C19.2153 11.6517 19.2118 11.5908 19.2188 11.5264C19.2257 11.4619 19.2396 11.3975 19.2604 11.333C19.2813 11.2686 19.3125 11.2077 19.3542 11.1504C19.3681 11.1361 19.3819 11.1182 19.3958 11.0967C19.4097 11.0752 19.4375 11.0215 19.4792 10.9355C19.5208 10.8496 19.5556 10.7673 19.5833 10.6885C19.6111 10.6097 19.6354 10.513 19.6563 10.3984C19.6771 10.2839 19.6875 10.1764 19.6875 10.0762C19.6736 9.81836 19.6076 9.60352 19.4896 9.43164C19.3715 9.25977 19.2188 9.1416 19.0313 9.07715C18.8438 9.0127 18.6944 8.97331 18.5833 8.95898C18.4722 8.94466 18.3611 8.9375 18.25 8.9375H13.375L12.25 8.95898C12.1944 8.95898 12.1389 8.95182 12.0833 8.9375C12.0278 8.92318 11.9757 8.90169 11.9271 8.87305C11.8785 8.8444 11.8333 8.81217 11.7917 8.77637C11.75 8.74056 11.7153 8.69401 11.6875 8.63672C11.5625 8.45052 11.5417 8.23568 11.625 7.99219C11.8472 7.33333 12.0243 6.61003 12.1563 5.82227C12.2882 5.03451 12.3507 4.28255 12.3438 3.56641C12.3368 2.85026 12.2361 2.32747 12.0417 1.99805C12.0278 1.9694 12 1.91927 11.9583 1.84766C11.9167 1.77604 11.8889 1.72591 11.875 1.69727C11.8611 1.66862 11.8299 1.62923 11.7813 1.5791C11.7326 1.52897 11.684 1.49316 11.6354 1.47168C11.5868 1.4502 11.5208 1.42871 11.4375 1.40723C11.3542 1.38574 11.2569 1.375 11.1458 1.375C11.1042 1.375 11.0625 1.38932 11.0208 1.41797C10.9792 1.44661 10.9167 1.51107 10.8333 1.61133C10.75 1.71159 10.6736 1.84766 10.6042 2.01953C9.53472 4.68359 8.24306 6.80697 6.72917 8.38965C5.21528 9.97233 3.75 10.8353 2.33333 10.9785C2.22222 11.2363 2.125 11.4941 2.04167 11.752C1.95833 12.0098 1.87153 12.418 1.78125 12.9766C1.69097 13.5352 1.64583 14.1296 1.64583 14.7598C1.64583 15.4043 1.70833 16.0452 1.83333 16.6826C1.95833 17.32 2.08681 17.8213 2.21875 18.1865C2.35069 18.5518 2.48611 18.8418 2.625 19.0566Z" fill="#68C2D0"/>
</svg>
