<svg width="25" height="23" viewBox="0 0 25 23" fill="none" xmlns="http://www.w3.org/2000/svg">
<path d="M11.6497 1.46556C12.0363 0.808182 12.987 0.808181 13.3736 1.46556L16.5714 6.90265C16.7169 7.15005 16.9617 7.32301 17.2435 7.3775L23.5588 8.59863C24.3365 8.74902 24.639 9.70102 24.0906 10.2727L19.7787 14.7676C19.5712 14.9839 19.4716 15.282 19.5075 15.5796L20.2439 21.6852C20.3365 22.4538 19.5583 23.0317 18.8494 22.7207L12.9133 20.1171C12.6573 20.0048 12.366 20.0048 12.11 20.1171L6.17391 22.7207C5.46496 23.0317 4.68675 22.4538 4.77944 21.6852L5.51576 15.5796C5.55165 15.282 5.45213 14.9839 5.2446 14.7676L0.932732 10.2727C0.38433 9.70102 0.686749 8.74902 1.46453 8.59863L7.77975 7.3775C8.06155 7.32301 8.30636 7.15005 8.45187 6.90265L11.6497 1.46556Z" fill="#FCCC53"/>
</svg>
