<svg width="14" height="13" viewBox="0 0 14 13" fill="none" xmlns="http://www.w3.org/2000/svg">
<path d="M5.96412 1.46556C6.35076 0.808182 7.30142 0.808181 7.68805 1.46556L9.08124 3.83434C9.22676 4.08174 9.47156 4.2547 9.75337 4.30919L12.4659 4.8337C13.2437 4.98409 13.5461 5.93609 12.9977 6.50777L11.1732 8.40974C10.9657 8.62607 10.8661 8.9241 10.902 9.22173L11.2164 11.8285C11.3091 12.5971 10.5309 13.175 9.82193 12.864L7.22776 11.7262C6.97175 11.6139 6.68042 11.6139 6.42442 11.7262L3.83024 12.864C3.12129 13.175 2.34308 12.5971 2.43576 11.8285L2.75013 9.22173C2.78603 8.9241 2.6865 8.62607 2.47897 8.40974L0.65446 6.50777C0.106058 5.93609 0.408478 4.98409 1.18626 4.8337L3.89881 4.30919C4.18061 4.2547 4.42542 4.08175 4.57093 3.83434L5.96412 1.46556Z" fill="#0E80A4"/>
</svg>
