<svg width="14" height="13" viewBox="0 0 14 13" fill="none" xmlns="http://www.w3.org/2000/svg">
<path d="M6.21412 1.46556C6.60076 0.808182 7.55142 0.808181 7.93805 1.46556L9.33124 3.83434C9.47676 4.08174 9.72156 4.2547 10.0034 4.30919L12.7159 4.8337C13.4937 4.98409 13.7961 5.93609 13.2477 6.50777L11.4232 8.40974C11.2157 8.62607 11.1161 8.9241 11.152 9.22173L11.4664 11.8285C11.5591 12.5971 10.7809 13.175 10.0719 12.864L7.47776 11.7262C7.22175 11.6139 6.93042 11.6139 6.67442 11.7262L4.08024 12.864C3.37129 13.175 2.59308 12.5971 2.68576 11.8285L3.00013 9.22173C3.03603 8.9241 2.9365 8.62607 2.72897 8.40974L0.90446 6.50777C0.356058 5.93609 0.658478 4.98409 1.43626 4.8337L4.14881 4.30919C4.43061 4.2547 4.67542 4.08175 4.82093 3.83434L6.21412 1.46556Z" fill="#FEE87A"/>
</svg>
