<svg width="14" height="13" viewBox="0 0 14 13" fill="none" xmlns="http://www.w3.org/2000/svg">
<path d="M6.29749 1.46556C6.68413 0.808182 7.63479 0.808181 8.02143 1.46556L9.41462 3.83434C9.56013 4.08174 9.80493 4.2547 10.0867 4.30919L12.7993 4.8337C13.5771 4.98409 13.8795 5.93609 13.3311 6.50777L11.5066 8.40974C11.299 8.62607 11.1995 8.9241 11.2354 9.22173L11.5498 11.8285C11.6425 12.5971 10.8643 13.175 10.1553 12.864L7.56113 11.7262C7.30512 11.6139 7.0138 11.6139 6.75779 11.7262L4.16362 12.864C3.45467 13.175 2.67645 12.5971 2.76914 11.8285L3.08351 9.22173C3.1194 8.9241 3.01988 8.62607 2.81235 8.40974L0.987834 6.50777C0.439432 5.93609 0.741852 4.98409 1.51964 4.8337L4.23218 4.30919C4.51399 4.2547 4.75879 4.08175 4.9043 3.83434L6.29749 1.46556Z" fill="#C4C4C4"/>
</svg>
