<svg width="18" height="15" viewBox="0 0 18 15" fill="none" xmlns="http://www.w3.org/2000/svg">
<g clip-path="url(#clip0)">
<path d="M9.63889 2.49094L9.63897 2.49085C10.3679 1.73605 11.3529 1.31531 12.3762 1.31531C13.3996 1.31531 14.3846 1.73605 15.1135 2.49085L15.1136 2.49102C15.8432 3.2458 16.2561 4.27361 16.2561 5.34883C16.2561 6.42405 15.8432 7.45186 15.1135 8.20676L15.1134 8.20685L9.15843 14.3707C9.09191 14.4396 8.99145 14.4396 8.92493 14.3707L2.96991 8.20685C1.4468 6.63032 1.4468 4.06735 2.96991 2.49082C4.48368 0.923968 6.9306 0.923968 8.44436 2.49082L8.68209 2.73688L9.04168 3.10909L9.40127 2.73688L9.63889 2.49094Z" stroke="#C4C4C4"/>
</g>
<defs>
<clipPath id="clip0">
<rect width="16.2857" height="14.107" fill="white" transform="translate(0.857239 0.816895)"/>
</clipPath>
</defs>
</svg>
