<svg width="20" height="20" fill="none" xmlns="http://www.w3.org/2000/svg"><g clip-path="url(#clip0)" fill="#A1A9AA"><path d="M9.944 10.27a5.11 5.11 0 01-4.596-2.83 5.126 5.126 0 01-.545-2.308C4.803 2.302 7.109 0 9.944 0c2.838 0 5.147 2.302 5.147 5.132a5.128 5.128 0 01-5.147 5.138zm0-9.083a3.95 3.95 0 00-3.53 5.722 3.922 3.922 0 003.53 2.173 3.941 3.941 0 003.957-3.947 3.958 3.958 0 00-3.957-3.948z"/><path d="M19.404 20a.593.593 0 01-.585-.489c-.744-4.16-2.874-5.839-4.646-6.839-2.723-1.536-6.115-1.439-8.853.252-1.626 1.005-3.392 2.573-4.139 6.579a.596.596 0 01-1.17-.215c.834-4.462 2.835-6.23 4.685-7.373 3.107-1.92 6.964-2.025 10.065-.276 2.97 1.673 4.584 4.04 5.23 7.663a.593.593 0 01-.587.698z"/></g><defs><clipPath id="clip0"><path fill="#fff" d="M0 0h20v20H0z"/></clipPath></defs></svg>