<svg width="21" height="25" fill="none" xmlns="http://www.w3.org/2000/svg"><path d="M7.86 17.454l3.426 1.04a.425.425 0 01-.021.069c-.092.249-.28.388-.585.436-1.126.18-2.994.066-3.012.066a.523.523 0 10-.065 1.043c.083.004 1.999.122 3.243-.079 1.235-.196 1.588-1.283 1.523-1.968a.525.525 0 00-.371-.454l-3.836-1.16c-1.894-.572-3.972.484-4.059.527-.009.005-.022.01-.03.018L.252 19.3a.525.525 0 00.542.9l3.801-2.292c.166-.087 1.837-.886 3.264-.454z" fill="#A1A9AA"/><path d="M20.935 16.577c-.3-.55-1.24-1.427-2.662-.798-1.344.598-4.185 1.964-4.216 1.977a.522.522 0 10.454.943c.03-.014 2.854-1.375 4.185-1.965.38-.17.699-.17.974 0 .008.005.013.01.021.013l-7.117 5.216a2.378 2.378 0 01-1.764.427l-6.35-1.012a.539.539 0 00-.418.113l-1.606 1.34a.52.52 0 00-.066.738.523.523 0 00.738.065l1.423-1.187 6.118.978c.89.144 1.82-.083 2.549-.616l7.593-5.56a.527.527 0 00.144-.672zm-8.339-8.985h-1.188a.896.896 0 010-1.791h2.097a.41.41 0 00.408-.409.41.41 0 00-.408-.408h-1.093V4.15a.41.41 0 00-.409-.409.41.41 0 00-.408.409v.834h-.187c-.943 0-1.713.77-1.713 1.712 0 .943.77 1.713 1.713 1.713h1.188a.896.896 0 010 1.79H10.46a.41.41 0 00-.408.409.41.41 0 00.408.408h1.13v.851a.41.41 0 00.409.409.41.41 0 00.409-.409v-.85h.208a1.715 1.715 0 001.689-1.713 1.71 1.71 0 00-1.71-1.712z" fill="#A1A9AA"/><path d="M17.658 2.342A7.946 7.946 0 0012 0C9.862 0 7.854.83 6.342 2.342A7.946 7.946 0 004 8c0 2.138.83 4.146 2.342 5.658A7.946 7.946 0 0012 16c2.138 0 4.146-.83 5.658-2.342A7.946 7.946 0 0020 8c0-2.138-.83-4.146-2.342-5.658zM12 15.183c-3.96 0-7.183-3.224-7.183-7.183C4.817 4.04 8.041.817 12 .817c3.96 0 7.183 3.224 7.183 7.183 0 3.96-3.224 7.183-7.183 7.183z" fill="#A1A9AA"/></svg>