<svg width="113" height="106" fill="none" xmlns="http://www.w3.org/2000/svg"><path d="M81.006 2.038c-18.049-5.074-32.801-.61-37.264 12.694-4.473 13.345-.795 26.942-16.999 32.432C13.462 51.538-2.124 59.25.24 80.854c2.246 20.499 14.438 24.274 30.054 25.106 16.616.893 34.429-13.598 49.898-6.525 14.36 6.566 30.564 8.027 32.692-10.95 1.246-11.11-7.955-14.825-9.7-23.481-2.423-11.995 2.422-16.49 3.884-24.507 3.619-19.92-8.76-32.807-26.062-38.46z" fill="#91DFEB"/><mask id="a" maskUnits="userSpaceOnUse" x="0" y="0" width="113" height="106"><path d="M81.006 2.038c-18.049-5.074-32.801-.61-37.264 12.694-4.473 13.345-.795 26.942-16.999 32.432C13.462 51.538-2.124 59.25.24 80.854c2.246 20.499 14.438 24.274 30.054 25.106 16.616.893 34.429-13.598 49.898-6.525 14.36 6.566 30.564 8.027 32.692-10.95 1.246-11.11-7.955-14.825-9.7-23.481-2.423-11.995 2.422-16.49 3.884-24.507 3.619-19.92-8.76-32.807-26.062-38.46z" fill="#91DFEB"/></mask><g mask="url(#a)"><path d="M76.36 59.693l-.784 4.177c7.608 1.558 14.07 6.297 18.296 13.217 4.227 6.983 5.676 15.462 4.106 23.816l4.046.81c1.812-9.414.181-19.015-4.65-26.933-4.89-7.918-12.318-13.28-21.013-15.087z" fill="#0E80A4"/><path d="M100.816 95.541c1.993.686 1.933 2.993 1.208 5.175-.664 2.244-1.751 3.553-3.744 2.868-1.992-.686-3.08-2.993-2.355-5.237.665-2.182 2.899-3.43 4.891-2.806z" fill="#0E80A4"/><path d="M100.092 97.973c-.302 0-.543.062-.785.249a1.041 1.041 0 00-.06 1.496c.543.624.785 1.497.724 2.432-.06.935-.543 1.808-1.208 2.431-.422.374-.483 1.06-.12 1.496a1.02 1.02 0 001.449.125c1.087-.997 1.811-2.369 1.932-3.803.121-1.496-.302-2.93-1.207-3.99-.242-.312-.423-.436-.725-.436z" fill="#0E80A4"/><path d="M98.22 98.845c-.302 0-.543.063-.785.25-.423.374-.483 1.06-.12 1.496.905 1.06.24 3.304-1.57 4.925-.424.374-.484 1.06-.122 1.497.363.436 1.027.498 1.45.124 2.657-2.431 3.442-5.923 1.75-7.918-.12-.249-.361-.311-.603-.374z" fill="#0E80A4"/><path d="M97.133 98.035c-.302 0-.543.062-.785.25a1.024 1.024 0 00-.12 1.433c.06.437-.725 2.245-3.02 4.364-.362.374-.543.936-.242 1.434.363.561 1.087.624 1.57.25 1.329-1.185 2.416-2.556 3.08-3.741 1.087-1.995.725-3.055.242-3.616-.242-.25-.483-.374-.725-.374z" fill="#0E80A4"/><path d="M97.677 98.16c.664.748-.06 1.496-.363 1.808-.241.187-.543.498-.906.872-.785.749-1.871 1.746-3.08 2.806-.422.374-1.086.374-1.448-.125-.363-.436-.363-1.122.06-1.496 2.415-2.182 3.865-3.554 4.106-3.866.06-.062.12-.124.12-.187.242-.186.484-.311.786-.249.302.063.543.187.725.436zm-1.63.124a.923.923 0 00-.122.437c0-.187 0-.312.121-.437zm-.122.81c.06.125.121.313.242.437-.12-.125-.242-.312-.242-.436z" fill="#0E80A4"/><path d="M96.046 95.042c-1.147-.124-2.234.25-3.08.998a1.04 1.04 0 00-.06 1.496.966.966 0 001.45.063 1.948 1.948 0 011.509-.5c.604.063 1.147.375 1.57.874a1.021 1.021 0 001.45.124c.422-.374.482-1.06.12-1.496-.785-.873-1.812-1.434-2.959-1.559zm-34.721-28.99c-8.575-.873-16.304-5.237-21.738-12.407-5.435-7.107-7.91-16.147-7.065-25.437l3.985.374c-.725 8.23 1.45 16.21 6.28 22.507 4.77 6.297 11.473 10.1 18.96 10.848l-.422 4.115zM54.2 78.52s-.181.313-.483.998c-.182.312-.302.686-.665 1.185-.12.25-.302.499-.483.748-.06.125-.18.25-.241.437-.121.124-.181.249-.302.436-.423.561-.906 1.184-1.51 1.746l-.422.436c-.121.187-.302.312-.484.436l-1.087.936c-1.51 1.184-3.441 2.306-5.676 3.117-2.234.748-4.83 1.184-7.548.935-.362-.062-.664-.062-1.026-.125-.363-.062-.664-.124-1.027-.187a11.108 11.108 0 01-2.053-.56l-.543-.188-.483-.187a7.242 7.242 0 01-1.027-.436l-.241-.125-.302-.125-.483-.249c-.302-.187-.604-.312-.967-.561-.362-.25-.664-.436-1.026-.686l-.906-.748c-.12-.125-.302-.25-.423-.374l-.422-.437c-.242-.311-.604-.56-.846-.872a10.493 10.493 0 00-.785-.935c-.241-.312-.422-.686-.664-.998-.241-.312-.423-.686-.604-1.06l-.302-.561a2.253 2.253 0 01-.241-.561c-.664-1.496-1.087-3.18-1.268-4.863-.181-1.683-.181-3.43.18-5.05.061-.436.182-.81.303-1.247.12-.436.181-.81.362-1.247l.483-1.122.544-1.122c.18-.374.483-.748.724-1.185.242-.374.544-.686.785-1.06.242-.311.604-.623.906-.935.302-.312.664-.561.966-.873 2.657-2.182 6.039-3.18 9.3-2.868l.603.063.604.124c.423.063.785.125 1.147.25l.544.187.302.062.302.125.543.25.302.124.12.062h.061s.181.125.121.063h.06l.423.249c.181.062.302.125.483.25l.544.373c.18.125.362.25.483.375.604.498 1.207 1.06 1.69 1.683 2.053 2.431 2.899 5.61 2.657 8.417-.12 1.433-.422 2.743-.966 3.927v.063l-.12.124-.06.063-.061.187c-.06.124-.121.249-.181.311 0 .063-.06.125-.121.187l-.121.25c-.12.124-.181.311-.302.436-.181.312-.362.499-.604.748-.18.25-.422.437-.604.686a10.648 10.648 0 01-2.717 1.87c-.483.25-.906.375-1.389.5-.483.124-.906.249-1.328.249-1.691.187-3.02-.063-3.865-.312-.422-.125-.785-.25-.966-.374-.242-.063-.302-.125-.302-.125-1.147-.499-1.751-1.87-1.268-3.055.483-1.184 1.812-1.808 2.959-1.309l.181.062s.06 0 .181.063c.12.062.302.124.483.187.423.187 1.148.311 2.053.25.906-.063 1.993-.437 2.96-1.31.12-.125.24-.25.362-.374.12-.125.241-.25.301-.374.06-.063.06-.125.121-.187l.06-.063s.06-.062.06-.124c.061-.125.122-.25.182-.312l.12-.187.061-.063c0 .063.06-.124-.06.063v-.063c.362-.748.543-1.558.664-2.43.181-1.747-.302-3.804-1.57-5.363-.302-.436-.664-.748-1.087-1.122-.12-.124-.181-.187-.302-.25l-.302-.186a1.876 1.876 0 00-.362-.25l-.302-.124c-.242-.125-.483-.187-.724-.312l-.182-.062-.18-.063-.424-.187c-.241-.125-.543-.125-.845-.187l-.423-.062-.422-.063c-2.295-.249-4.831.375-6.763 1.933a6.452 6.452 0 00-.725.624c-.241.249-.483.436-.664.685-.181.25-.423.5-.604.749s-.302.436-.483.748l-.483.935-.363.935c-.12.312-.241.624-.301.935-.182.25-.242.561-.302.873-.302 1.31-.363 2.681-.242 4.052.12 1.372.423 2.681.906 3.928.06.125.12.312.181.437l.242.436c.18.312.302.624.483.873.18.312.362.561.543.81.181.25.423.5.604.81.181.25.423.5.664.75l.302.373c.12.125.242.187.362.312.242.187.484.436.725.623.242.187.483.374.725.5.241.186.543.373.845.498l.423.25.12.062.06.062c.061.062-.06 0-.06 0l.242.125c.302.124.604.249.845.374l.423.187c.12.062.302.124.423.124.604.188 1.147.437 1.75.5.303.061.605.124.907.186.302.063.604.063.905.125 2.356.25 4.59 0 6.582-.623a17.826 17.826 0 005.073-2.557c.362-.25.664-.56.966-.81.181-.125.302-.25.422-.374.121-.125.242-.25.423-.374.544-.5.966-1.06 1.389-1.559.12-.125.181-.25.302-.374.06-.125.181-.25.242-.374.12-.25.301-.436.422-.624.302-.374.483-.81.664-1.06l.544-.935c.302-.498.906-.685 1.389-.436.362.312.543.935.302 1.434z" fill="#0E80A4"/><path d="M88.377 83.322c-.422 11.16-9.239 18.204-19.806 17.768-10.567-.436-18.84-8.167-18.417-19.265.423-11.16 9.601-28.117 20.168-27.681 10.568.436 18.478 18.08 18.055 29.178z" fill="#0E80A4"/><path d="M81.373 85.878c-.242 6.67-5.556 10.91-11.836 10.66-6.34-.249-11.291-4.862-11.05-11.533.242-6.671 5.737-16.833 12.077-16.584 6.28.187 11.05 10.786 10.809 17.457z" fill="#fff"/><path d="M88.256 40.24c.06-1.495-.241-2.867-.724-4.239-1.268-6.67-5.012-11.97-12.38-13.528-1.75-.686-5.917-1.372-7.124-4.24a2.396 2.396 0 01-.302-1.06c-.604.187-1.933.686-3.08 1.87-1.087 1.123-1.51 2.37-1.69 2.93-.242-.124-.907-.373-1.39-1.06-.603-.81-.603-1.62-.543-1.87a8.437 8.437 0 00-1.69 1.87c-.967 1.56-1.148 3.243-1.088 4.49-3.08 1.87-4.77 4.55-5.736 7.668-1.329 1.933-2.114 4.053-2.174 6.36-.06 1.932.362 3.74 1.208 5.424.785 10.1 7.487 16.583 18.84 16.583 12.137 0 17.39-5.548 17.692-18.392v-1.184c.06-.499.12-1.06.181-1.621z" fill="#0E80A4"/><path d="M51.965 39.306c-.12-4.053 1.63-7.731 4.59-10.537a7.85 7.85 0 00-4.65-1.309c-4.288.125-7.73 3.491-7.609 7.606.121 4.115 3.684 7.357 8.031 7.295h.06c-.24-.935-.422-1.995-.422-3.055zm34.48-12.594c-1.691.062-3.261.561-4.53 1.496 3.14 2.619 5.073 6.297 5.194 10.35 0 1.06-.06 2.057-.302 3.054 4.287-.124 7.73-3.49 7.608-7.606-.12-4.114-3.683-7.356-7.97-7.294z" fill="#0E80A4"/><path d="M90.611 46.538C90.793 53.084 82.52 62.31 69.9 62.56c-12.62.311-21.256-8.168-21.437-14.714-.06-3.055.604-6.796 4.287-7.294 4.167-.5 9.843 1.808 16.606 1.683 7.186-.187 12.44-3.429 16.666-2.93 3.14.436 4.469 4.364 4.59 7.232z" fill="#0E80A4"/><path d="M85.116 47.099c.181 6.172-5.555 13.654-14.613 13.84-9.057.188-16.666-6.546-16.847-12.718-.12-3.616 1.147-5.985 5.616-6.297 3.14-.249 6.944-.062 10.688-.124 3.381-.063 6.461-.437 9.058-.5 4.468-.186 5.978 1.871 6.098 5.799z" fill="#fff"/><path d="M53.958 46.35c3.321.063 11.473-3.865 15.338-3.99 3.924-.062 11.835 2.12 15.156 1.933.664-.997-3.08-4.613-2.959-5.922.423-3.866-2.355-7.295-6.099-7.607a7.01 7.01 0 00-6.28 2.993c-1.51-1.933-3.925-3.055-6.4-2.68-3.744.56-6.34 4.052-5.676 7.917.18 1.247-3.805 6.422-3.08 7.357z" fill="#fff"/><path d="M69.235 44.044c-.845.062-1.57 0-2.234-.062.242.187 1.027.81 2.234.748 1.208-.063 1.993-.686 2.174-.935-.604.124-1.328.249-2.174.249zm-2.295-4.801c-.12 1.497-1.267 2.619-2.535 2.494-1.329-.124-2.235-1.434-2.114-2.868.12-1.496 1.268-2.618 2.536-2.493 1.268.124 2.234 1.371 2.114 2.867z" fill="#0E80A4"/><path d="M64.707 37.435c-.06.624-.544 1.123-1.087 1.06-.544-.062-.966-.56-.906-1.247.06-.623.543-1.122 1.087-1.06.543.063.906.624.906 1.247z" fill="#fff"/><path d="M76.844 39.368c-.121 1.496-1.268 2.619-2.536 2.494-1.329-.125-2.235-1.434-2.114-2.93.12-1.497 1.268-2.619 2.536-2.494 1.268.124 2.234 1.434 2.114 2.93z" fill="#0E80A4"/><path d="M74.79 37.31c-.06.624-.543 1.123-1.086 1.06-.544-.062-.966-.56-.906-1.246.06-.624.544-1.123 1.087-1.06.543.062.966.56.906 1.247z" fill="#fff"/><path d="M57.581 123.846c-6.823-8.853-6.159-30.425-2.355-33.355l3.14 4.427c.423 1.184-.12 3.927-.483 6.671-.604 4.738-1.932 11.284 3.804 18.766l-4.106 3.491zm22.825-.623c6.824-8.854 6.16-30.425 2.355-33.355l-3.14 4.426c-.422 1.185.121 3.928.484 6.671.603 4.738 1.932 11.285-3.805 18.766l4.106 3.492z" fill="#0E80A4"/><path d="M60.66 49.032s1.994 5.174 9.36 5.174c7.367-.124 8.032-5.86 8.032-5.86" stroke="#0E80A4" stroke-miterlimit="10"/><path d="M37.232 24.78c0-.686-.302-1.31-.785-1.746-.846-.81-2.476-1.497-2.053-2.93.12-.437.302-.811.18-1.31-.12-.436-.422-.623-.845-.686-.905-.124-1.75.561-2.234 1.31-.906 1.434-1.027 3.553-.906 3.865-.06-.062-1.57-.997-2.717-.81-.543.062-1.208.436-1.389.997-.181.374 0 .998.242 1.31-.604.124-.966.872-1.087 1.496-.121.81.18 1.122.604 1.745-.483.437-.423 1.684-.181 2.245.241.499.905.935 1.388 1.184 1.208.624 2.295.624 3.804.81 1.269.126 3.986-.685 5.194-1.433 2.053-1.496.724-5.611.785-6.048z" fill="#0E80A4"/><path d="M35.178 29.83s-1.449 1.309-1.992 1.745c-.363.25-1.087.997-1.39 1.122-.965.312-1.75.81-3.864-.125-1.69-.748-2.174-2.743-2.174-2.743l8.696-.623.724.623z" fill="#0E80A4"/><path d="M26.181 30.89c0 .124.181.186.242.248.06.125.12.25.241.312.121.125.121.437 1.63 1.06.182.063.363.125.484.187.362.125.543.125.966.187.362 0 .664 0 1.026-.062.302-.063.665-.125.906-.25l.363-.187c.06-.062.12-.062.12-.124.06-.125 0-.437-.06-.561-.12-.374 0-.437.06-.312s.181.25.181.374c.06.125.06.25.06.436 0 .063-.06.187-.06.187-.06.063-.06.125-.12.188-.121.062-.242.187-.363.249-.302.124-.604.187-.905.25-.363.062-.665.124-1.027.124-.362 0-.785-.125-1.147-.25l-.544-.186c-.18-.063-.362-.125-.483-.25l-.906-.561c-.12-.125-.241-.25-.362-.312a1.314 1.314 0 01-.241-.374l-.182-.374c0-.125.06-.062.121 0z" fill="#fff"/><path d="M30.408 22.971l.181.374s-.362-.124-.362-.187c-.06 0-.302-.187-.362-.187-.604-.311-.966-.374-1.027-.374-.785-.125-1.087-.062-1.268 0-.543.25-.724.374-.785.499-.181.187-.302.436-.302.561 0 .187-.06.436.06.873.121.312.182.374.242.436 0 0 .06.125.423.374.302.187.423.25.483.312.241.125.483.25.664.312.242.062.966.436 2.174.686.241.062.483.062.724.062.242 0 .484 0 .665-.062.06 0 .12-.063.18-.063.061 0 .242-.062.363-.311a.484.484 0 00.121-.312c0-.125.06-.187.06-.312 0-.187-.06-.374-.12-.561-.06-.187-.182-.312-.302-.436-.181-.187-.544-.375-.604-.375-.06-.062-.302-.124-.363-.187 0 0-.603-.249-.664-.249-.12-.062-.18-.062-.18-.062-.303-.063-.303-.125 0-.063 0 0 .24.063 1.026.374.06 0 .12.063.18.063.061.062.122.062.182.125.12.062.302.187.423.311.12.125.241.25.362.437.12.187.181.374.181.623 0 .125 0 .25-.06.312a.48.48 0 01-.121.312c-.242.249-.362.311-.423.311-.06 0-.12.063-.18.063-.242.062-.484.062-.726.062-.241 0-.483-.062-.724-.062l-.725-.187c-.06 0-.724-.187-2.173-.81-.604-.375-.725-.437-.725-.5l-.181-.187c-.06-.124-.181-.187-.242-.311 0-.063-.12-.312-.12-.312s-.061-.312-.061-.436v-.375c0-.062.06-.249.12-.374.061-.124.122-.187.242-.311.06-.063.544-.562 1.45-.624 0 0 .362 0 1.087.187.301.125.543.187.784.312 0 .062.423.25.423.25z" fill="#fff" stroke="#fff" stroke-width=".25" stroke-miterlimit="10"/><path d="M26.604 24.655l.06.311s-.18 0-.362.187c-.12.125-.241.25-.302.437-.06.125-.06.187-.12.311-.061.125-.061.25-.061.375v.436c0 .125.06.312.12.436.061.125.122.312.242.437.483.499.966.748 1.329.873l.543.187c.12 0 .483.062.544.124.362.063.785.125 1.147.125h1.086c.06 0 .724-.062.785-.125.06 0 .302-.062.664-.249a.74.74 0 00.302-.312c.06-.062.06-.124.12-.187.061-.124.122-.436.122-.56 0-.126 0-.25-.06-.313 0-.124-.061-.187-.122-.249-.06-.062-.06-.125-.12-.187-.242-.125-.363-.125-.363-.125.06 0 .121-.062.121-.062s.12 0 .302.125l.181.187c.12.187.12.374.12.623 0 .125 0 .374-.12.624 0 .062-.06.124-.12.187a.625.625 0 01-.363.311c-.423.25-.604.25-.725.25-.06 0-.241.062-.241.062-.06 0-.483.062-.544.062-.18 0-.362 0-.543.063h-.544c-.362 0-.785-.063-1.147-.125-.12 0-.483-.062-.604-.125l-.543-.187c-1.389-.56-1.328-.748-1.45-.935-.12-.124-.18-.312-.24-.499-.061-.187-.122-.374-.122-.498v-.5c.06-.31.121-.623.242-.81.12-.249.242-.436.362-.56.181-.125.423-.125.423-.125zm-.845 4.925c0 .125.12.312.18.499.061.124.121.311.242.436s.121.561 1.812 1.247c.18.062.362.125.543.125.423.062.725.124 1.208.124a3.78 3.78 0 001.208-.187c.362-.124.785-.249 1.086-.436.182-.125.302-.187.484-.312l.18-.187c.122-.187.122-.623.122-.748a.575.575 0 00-.182-.436c-.18-.374-.483-.437-1.026-.561-.121 0-.181 0-.302-.063h-.725s.181-.062.302-.062h.725c.06 0 .422.062.543.125a.868.868 0 01.483.436c.06.125.121.312.181.499v.56c0 .126-.06.25-.12.25-.06.063-.121.187-.181.25-.121.124-.302.249-.483.374-.363.187-.725.374-1.148.498a4.462 4.462 0 01-1.268.187c-.423 0-.845 0-1.268-.124-.181-.063-.423-.125-.604-.187-.181-.063-.362-.125-.543-.25a5.189 5.189 0 01-.966-.623l-.363-.374c-.12-.125-.18-.312-.241-.437a1.186 1.186 0 01-.121-.436c.12-.25.181-.312.242-.187z" fill="#fff" stroke="#fff" stroke-width=".25" stroke-miterlimit="10"/></g><path d="M76.36 59.693l-.784 4.177c7.608 1.559 14.07 6.297 18.296 13.217 4.227 6.983 5.676 15.462 4.106 23.816l4.046.81c1.812-9.414.181-19.015-4.65-26.933-4.89-7.918-12.318-13.28-21.013-15.087zm-15.035 6.359c-8.575-.873-16.304-5.237-21.738-12.407-5.435-7.107-7.91-16.147-7.065-25.437l3.985.374c-.725 8.23 1.45 16.21 6.28 22.507 4.77 6.297 11.473 10.1 18.96 10.848l-.422 4.115zM54.2 78.52s-.181.313-.483.998c-.182.312-.302.686-.665 1.185-.12.25-.302.499-.483.748-.06.125-.18.25-.241.437-.121.124-.181.249-.302.436-.423.561-.906 1.184-1.51 1.746l-.422.436c-.121.187-.302.312-.484.436l-1.087.936c-1.51 1.184-3.441 2.306-5.676 3.117-2.234.748-4.83 1.184-7.548.935-.362-.062-.664-.062-1.026-.125-.363-.062-.664-.124-1.027-.187a11.108 11.108 0 01-2.053-.56l-.543-.188-.483-.187a7.242 7.242 0 01-1.027-.436l-.241-.125-.302-.125-.483-.249c-.302-.187-.604-.312-.967-.561-.362-.25-.664-.436-1.026-.686l-.906-.748c-.12-.125-.302-.25-.423-.374l-.422-.437c-.242-.311-.604-.56-.846-.872a10.493 10.493 0 00-.785-.935c-.241-.312-.422-.686-.664-.998-.241-.312-.423-.686-.604-1.06l-.302-.561a2.253 2.253 0 01-.241-.561c-.664-1.496-1.087-3.18-1.268-4.863-.181-1.683-.181-3.43.18-5.05.061-.436.182-.81.303-1.247.12-.436.181-.81.362-1.247l.483-1.122.544-1.122c.18-.374.483-.748.724-1.185.242-.374.544-.686.785-1.06.242-.311.604-.623.906-.935.302-.312.664-.561.966-.873 2.657-2.182 6.039-3.18 9.3-2.868l.603.063.604.124c.423.063.785.125 1.147.25l.544.187.302.062.302.125.543.25.302.124.12.062h.061s.181.125.121.063h.06l.423.249c.181.062.302.125.483.25l.544.373c.18.125.362.25.483.375.604.498 1.207 1.06 1.69 1.683 2.053 2.431 2.899 5.61 2.657 8.417-.12 1.433-.422 2.743-.966 3.927v.063l-.12.124-.06.063-.061.187c-.06.124-.121.249-.181.311 0 .063-.06.125-.121.187l-.121.25c-.12.124-.181.311-.302.436-.181.312-.362.499-.604.748-.18.25-.422.437-.604.686a10.648 10.648 0 01-2.717 1.87c-.483.25-.906.375-1.389.5-.483.124-.906.249-1.328.249-1.691.187-3.02-.063-3.865-.312-.422-.125-.785-.25-.966-.374-.242-.063-.302-.125-.302-.125-1.147-.499-1.751-1.87-1.268-3.055.483-1.184 1.812-1.808 2.959-1.309l.181.062s.06 0 .181.063c.12.062.302.124.483.187.423.187 1.148.311 2.053.25.906-.063 1.993-.437 2.96-1.31.12-.125.24-.25.362-.374.12-.125.241-.25.301-.374.06-.063.06-.125.121-.187l.06-.063s.06-.062.06-.124c.061-.125.122-.25.182-.312l.12-.187.061-.063c0 .063.06-.124-.06.063v-.063c.362-.748.543-1.558.664-2.43.181-1.747-.302-3.804-1.57-5.363-.302-.436-.664-.748-1.087-1.122-.12-.124-.181-.187-.302-.25l-.302-.186a1.876 1.876 0 00-.362-.25l-.302-.124c-.242-.125-.483-.187-.724-.312l-.182-.062-.18-.063-.424-.187c-.241-.125-.543-.125-.845-.187l-.423-.062-.422-.063c-2.295-.249-4.831.375-6.763 1.933a6.452 6.452 0 00-.725.624c-.241.249-.483.436-.664.685-.181.25-.423.5-.604.749s-.302.436-.483.748l-.483.935-.363.935c-.12.312-.241.624-.301.935-.182.25-.242.561-.302.873-.302 1.31-.363 2.681-.242 4.052.12 1.372.423 2.681.906 3.928.06.125.12.312.181.437l.242.436c.18.312.302.624.483.873.18.312.362.561.543.81.181.25.423.5.604.81.181.25.423.5.664.75l.302.373c.12.125.242.187.362.312.242.187.484.436.725.623.242.187.483.374.725.5.241.186.543.373.845.498l.423.25.12.062.06.062c.061.062-.06 0-.06 0l.242.125c.302.124.604.249.845.374l.423.187c.12.062.302.124.423.124.604.188 1.147.437 1.75.5.303.061.605.124.907.186.302.063.604.063.905.125 2.356.25 4.59 0 6.582-.623a17.826 17.826 0 005.073-2.557c.362-.25.664-.56.966-.81.181-.125.302-.25.422-.374.121-.125.242-.25.423-.374.544-.5.966-1.06 1.389-1.559.12-.125.181-.25.302-.374.06-.125.181-.25.242-.374.12-.25.301-.436.422-.624.302-.374.483-.81.664-1.06l.544-.935c.302-.498.906-.685 1.389-.436.362.312.543.935.302 1.434z" fill="#0E80A4"/><path d="M88.256 40.24c.06-1.495-.241-2.867-.724-4.239-1.268-6.67-5.012-11.97-12.38-13.528-1.75-.686-5.917-1.372-7.124-4.24a2.396 2.396 0 01-.302-1.06c-.604.187-1.933.686-3.08 1.87-1.087 1.123-1.51 2.37-1.69 2.93-.242-.124-.907-.373-1.39-1.06-.603-.81-.603-1.62-.543-1.87a8.437 8.437 0 00-1.69 1.87c-.967 1.56-1.148 3.243-1.088 4.49-3.08 1.87-4.77 4.55-5.736 7.668-1.329 1.933-2.114 4.053-2.174 6.36-.06 1.932.362 3.74 1.208 5.424.785 10.1 7.487 16.583 18.84 16.583 12.137 0 17.39-5.548 17.692-18.392v-1.184c.06-.499.12-1.06.181-1.621z" fill="#0E80A4"/><path d="M51.965 39.306c-.12-4.053 1.63-7.731 4.59-10.537a7.85 7.85 0 00-4.65-1.309c-4.288.125-7.73 3.491-7.609 7.606.121 4.115 3.684 7.357 8.031 7.295h.06c-.24-.935-.422-1.995-.422-3.055zm34.48-12.594c-1.691.062-3.261.561-4.53 1.496 3.14 2.619 5.073 6.297 5.194 10.35 0 1.06-.06 2.057-.302 3.054 4.287-.124 7.73-3.49 7.608-7.606-.12-4.114-3.683-7.356-7.97-7.294z" fill="#0E80A4"/><path d="M90.611 46.538C90.793 53.084 82.52 62.31 69.9 62.56c-12.62.311-21.256-8.168-21.437-14.714-.06-3.055.604-6.796 4.287-7.294 4.167-.499 9.843 1.808 16.606 1.683 7.186-.187 12.44-3.429 16.666-2.93 3.14.436 4.469 4.364 4.59 7.232z" fill="#0E80A4"/><path d="M85.116 47.099c.181 6.172-5.555 13.654-14.613 13.84-9.057.188-16.666-6.546-16.847-12.718-.12-3.616 1.147-5.985 5.616-6.297 3.14-.249 6.944-.062 10.688-.124 3.381-.063 6.461-.437 9.058-.5 4.468-.186 5.978 1.871 6.098 5.799z" fill="#fff"/><path d="M53.958 46.35c3.321.063 11.473-3.865 15.338-3.99 3.924-.062 11.835 2.12 15.156 1.933.664-.997-3.08-4.613-2.959-5.922.423-3.866-2.355-7.295-6.099-7.607a7.01 7.01 0 00-6.28 2.993c-1.51-1.933-3.925-3.055-6.4-2.68-3.744.56-6.34 4.052-5.676 7.917.18 1.247-3.805 6.422-3.08 7.357z" fill="#fff"/><path d="M69.235 44.044c-.845.062-1.57 0-2.234-.062.242.187 1.027.81 2.234.748 1.208-.063 1.993-.686 2.174-.935-.604.124-1.328.249-2.174.249zm-2.295-4.801c-.12 1.497-1.267 2.619-2.535 2.494-1.329-.124-2.235-1.434-2.114-2.868.12-1.496 1.268-2.618 2.536-2.493 1.268.124 2.234 1.371 2.114 2.867z" fill="#0E80A4"/><path d="M64.707 37.435c-.06.624-.544 1.123-1.087 1.06-.544-.062-.966-.56-.906-1.247.06-.623.543-1.122 1.087-1.06.543.063.906.624.906 1.247z" fill="#fff"/><path d="M76.844 39.368c-.121 1.496-1.268 2.619-2.536 2.494-1.329-.125-2.235-1.434-2.114-2.93.12-1.497 1.268-2.619 2.536-2.494s2.234 1.434 2.114 2.93z" fill="#0E80A4"/><path d="M74.79 37.31c-.06.624-.543 1.123-1.086 1.06-.544-.062-.966-.56-.906-1.246.06-.624.544-1.123 1.087-1.06.543.062.966.56.906 1.247z" fill="#fff"/><path d="M60.66 49.032s1.994 5.174 9.36 5.174c7.367-.124 8.032-5.86 8.032-5.86" stroke="#0E80A4" stroke-miterlimit="10"/><path d="M37.232 24.78c0-.686-.302-1.31-.785-1.746-.846-.81-2.476-1.497-2.053-2.93.12-.437.302-.811.18-1.31-.12-.436-.422-.623-.845-.686-.905-.124-1.75.561-2.234 1.31-.906 1.434-1.027 3.553-.906 3.865-.06-.062-1.57-.997-2.717-.81-.543.062-1.208.436-1.389.997-.181.374 0 .998.242 1.31-.604.124-.966.872-1.087 1.496-.121.81.18 1.122.604 1.745-.483.437-.423 1.684-.181 2.245.241.499.905.935 1.388 1.184 1.208.624 2.295.624 3.804.81 1.269.126 3.986-.685 5.194-1.433 2.053-1.496.724-5.611.785-6.048z" fill="#0E80A4"/><path d="M35.178 29.83s-1.449 1.309-1.992 1.745c-.363.25-1.087.997-1.39 1.122-.965.312-1.75.81-3.864-.125-1.69-.748-2.174-2.743-2.174-2.743l8.696-.623.724.623z" fill="#0E80A4"/><path d="M26.181 30.89c0 .124.181.186.242.249.06.124.12.249.241.311.121.125.121.437 1.63 1.06.182.063.363.125.484.187.362.125.543.125.966.187.362 0 .664 0 1.026-.062.302-.062.665-.125.906-.25l.363-.187c.06-.062.12-.062.12-.124.06-.125 0-.437-.06-.561-.12-.374 0-.437.06-.312s.181.25.181.374c.06.125.06.25.06.437 0 .062-.06.187-.06.187-.06.062-.06.124-.12.186-.121.063-.242.188-.363.25-.302.125-.604.187-.905.25-.363.062-.665.124-1.027.124-.362 0-.785-.125-1.147-.25l-.544-.186c-.18-.063-.362-.125-.483-.25l-.906-.56c-.12-.126-.241-.25-.362-.313a1.3 1.3 0 01-.241-.374l-.182-.374c0-.124.06-.062.121 0z" fill="#fff"/><path d="M30.408 22.971l.181.374s-.362-.124-.362-.187c-.06 0-.302-.187-.362-.187-.604-.311-.966-.374-1.027-.374-.785-.124-1.087-.062-1.268 0-.543.25-.724.374-.785.499-.181.187-.302.436-.302.561 0 .187-.06.437.06.873.121.312.182.374.242.436 0 0 .06.125.423.374.302.188.423.25.483.312.241.125.483.25.664.312.242.062.966.436 2.174.686.241.062.483.062.724.062.242 0 .484 0 .665-.062.06 0 .12-.063.18-.063.061 0 .242-.062.363-.311a.485.485 0 00.121-.312c0-.125.06-.187.06-.312 0-.187-.06-.374-.12-.56-.06-.188-.182-.313-.302-.437-.181-.187-.544-.374-.604-.374-.06-.063-.302-.125-.363-.187 0 0-.603-.25-.664-.25-.12-.062-.18-.062-.18-.062-.303-.063-.303-.125 0-.063 0 0 .24.063 1.026.375.06 0 .12.062.18.062.061.062.122.062.182.125.12.062.302.187.423.311.12.125.241.25.362.437.12.187.181.374.181.623 0 .125 0 .25-.06.312a.48.48 0 01-.121.312c-.242.249-.362.311-.423.311-.06 0-.12.063-.18.063-.242.062-.484.062-.726.062-.241 0-.483-.062-.724-.062l-.725-.187c-.06 0-.724-.187-2.173-.81-.604-.375-.725-.437-.725-.5l-.181-.187c-.06-.124-.181-.187-.242-.311 0-.063-.12-.312-.12-.312s-.061-.312-.061-.436v-.375c0-.062.06-.249.12-.374.061-.124.122-.187.242-.311.06-.063.544-.561 1.45-.624 0 0 .362 0 1.087.187.301.125.543.187.784.312 0 .062.423.25.423.25z" fill="#fff" stroke="#fff" stroke-width=".25" stroke-miterlimit="10"/><path d="M26.604 24.655l.06.311s-.18 0-.362.187c-.12.125-.241.25-.302.437-.06.125-.06.187-.12.312-.061.124-.061.249-.061.374v.437c0 .124.06.31.12.435.061.125.122.312.242.437.483.499.966.748 1.329.873l.543.187c.12 0 .483.062.544.125.362.062.785.124 1.147.124h1.086c.06 0 .724-.062.785-.124.06 0 .302-.063.664-.25a.74.74 0 00.302-.312c.06-.062.06-.124.12-.187.061-.124.122-.436.122-.56 0-.125 0-.25-.06-.313 0-.124-.061-.187-.122-.249-.06-.062-.06-.125-.12-.187-.242-.125-.363-.125-.363-.125.06 0 .121-.062.121-.062s.12 0 .302.125l.181.187c.12.187.12.374.12.623 0 .125 0 .374-.12.624 0 .062-.06.124-.12.187a.624.624 0 01-.363.311c-.423.25-.604.25-.725.25-.06 0-.241.062-.241.062-.06 0-.483.063-.544.063-.18 0-.362 0-.543.062h-.544c-.362 0-.785-.063-1.147-.125-.12 0-.483-.062-.604-.124l-.543-.188c-1.389-.56-1.328-.748-1.45-.935-.12-.124-.18-.311-.24-.498-.061-.188-.122-.375-.122-.5v-.499c.06-.31.121-.622.242-.81.12-.249.242-.436.362-.56.181-.125.423-.125.423-.125zm-.845 4.925c0 .125.12.312.18.499.061.124.121.311.242.436s.121.561 1.812 1.247c.18.062.362.125.543.125.423.062.725.124 1.208.124a3.78 3.78 0 001.208-.187c.362-.124.785-.249 1.086-.436.182-.125.302-.187.484-.312l.18-.187c.122-.187.122-.623.122-.748a.575.575 0 00-.182-.436c-.18-.374-.483-.437-1.026-.561-.121 0-.181 0-.302-.063h-.725s.181-.062.302-.062h.725c.06 0 .422.062.543.125a.868.868 0 01.483.436c.06.125.121.312.181.499v.56c0 .126-.06.25-.12.25-.06.063-.121.187-.181.25-.121.124-.302.249-.483.374-.363.187-.725.374-1.148.498a4.462 4.462 0 01-1.268.188c-.423 0-.845 0-1.268-.125-.181-.063-.423-.125-.604-.187-.181-.063-.362-.125-.543-.25a5.189 5.189 0 01-.966-.623l-.363-.374c-.12-.125-.18-.312-.241-.437a1.186 1.186 0 01-.121-.436c.12-.25.181-.312.242-.187z" fill="#fff" stroke="#fff" stroke-width=".25" stroke-miterlimit="10"/></svg>