<svg width="28" height="25" fill="none" xmlns="http://www.w3.org/2000/svg"><path d="M9.778 18.2c-.454-.758-1.068-1.326-1.753-1.85-.709-.543-1.483-1.102-2.325-1.383-.782-.26-1.744-.157-2.518.084-.749.232-1.286.7-1.57 1.467-.284.77-.352 1.526.266 2.135.565.557 1.402.92 2.168.981.23.018.829.059.991-.148.188-.238.13-.895.07-1.158-.166-.742-.905-1.357-1.533-.733-.645.641-1.514-.504-.873-1.14.705-.701 1.8-.747 2.615-.202.818.548 1.213 1.543 1.214 2.526 0 1.004-.312 1.89-1.298 2.178-.945.276-1.975.103-2.87-.304-.845-.386-1.665-.986-2.098-1.862-.445-.903-.266-2.008.085-2.904.774-1.975 2.865-2.619 4.772-2.498 1.186.076 2.279.763 3.244 1.446.947.67 1.88 1.44 2.492 2.465.474.788-.603 1.696-1.079.9z" fill="#369CB7"/><path d="M25.581 12.848h-.002c-.241.02-.58-.132-.92-.614-.328-.466-.589-1.16-.673-1.967-.084-.81.029-1.53.253-2.039.23-.522.523-.72.76-.74.241-.02.58.133.92.614.328.466.589 1.158.673 1.966.084.809-.029 1.531-.253 2.04-.23.524-.524.72-.758.74z" stroke="#369CB7"/><path d="M18.446 2.288a.5.5 0 10-.176.985l.176-.985zM10.352 4.61c-.506.734-.91 1.179-1.358 1.782a7.627 7.627 0 00-1.138 2.115l.942.333a6.631 6.631 0 01.998-1.852c.368-.495.879-1.084 1.379-1.81l-.823-.568zm14.724 2.344c-1.369-2.32-3.747-4.151-6.63-4.665l-.176.985c2.572.458 4.71 2.097 5.945 4.188l.86-.508z" fill="#369CB7"/><path d="M18.409 2.893c-.027-.44-1.921-.185-2.538-1.764a1.973 1.973 0 01-.116-.46c-.254.08-.79.29-1.265.803a2.952 2.952 0 00-.69 1.265 1.299 1.299 0 01-.806-1.265c-.221.185-1.24 1.51-1.455 1.866-.215.355-.539 1.157-.539 1.157l-.538.8" stroke="#369CB7"/><path d="M14.256 6.75l.123.485-.123-.484zm-2.574 4.534l.496-.058-.002-.018-.003-.017-.491.093zm5.583-3.072a.5.5 0 10.904-.428l-.904.428zm-3.132-1.946C11.96 6.82 10.755 9.1 11.19 11.38l.982-.188c-.356-1.858.639-3.556 2.207-3.956l-.247-.969zm-2.948 5.077l.19 1.615.993-.117-.19-1.615-.993.117zm6.984-3.559c-.358-.755-.938-1.261-1.664-1.508-.713-.242-1.531-.224-2.372-.01l.247.97c.713-.182 1.325-.176 1.803-.013.465.158.838.474 1.082.99l.904-.429z" fill="#369CB7"/><path d="M24.628 7.099s-.495.09-.945 1.08c-.45.988.194 3.147.194 3.147l-.733-2.383c-.393-2.08-2.266-3.931-3.973-3.49-1.375.355-1.8 1.205-1.537 2.32M9.17 16.316c-.578.12-1.184-.187-1.7-.8-.515-.61-.93-1.517-1.123-2.579-.193-1.06-.124-2.068.14-2.84.263-.774.72-1.301 1.298-1.422.577-.12 1.184.186 1.7.799.515.61.93 1.517 1.123 2.578.193 1.06.125 2.068-.137 2.842-.264.775-.721 1.303-1.301 1.422z" stroke="#369CB7"/><path d="M21.485 15.72c-.114.134-1.318 1.49-3.448 1.46-1.528-.02-2.956-.748-3.724-1.89.293.241 1.624 1.28 3.696 1.347 1.852.062 3.122-.69 3.476-.916zm-3.787-1.765c.104.054.492.236.982.127a1.51 1.51 0 00.842-.531 6.526 6.526 0 01-1.824.404z" fill="#369CB7"/><path d="M25.91 12.157c.079-.043.185.013.192.132l.43 8.024c.002.068-.032.13-.084.156l-7.067 3.547-.001.001a.11.11 0 01-.09.006h0l-7.496-2.562h-.001c-.052-.017-.093-.072-.098-.144l-.429-8.027a.168.168 0 01.054-.139.117.117 0 01.122-.025h0l7.47 2.623h0c.057.02.12.016.172-.012l6.826-3.58z" fill="#fff" stroke="#369CB7"/><path d="M19.14 23.148l-.369-7.171.543-.16.315 7.038-.49.293zm-5.467-3.853c.012.61-.782 1.118-1.773 1.136-.988.018-1.8-.462-1.813-1.073-.008-.61.783-1.118 1.773-1.136.992-.017 1.804.463 1.813 1.073z" fill="#369CB7"/><path d="M12.978 19.307c.006.372-.48.683-1.085.695-.605.013-1.1-.284-1.108-.656-.006-.371.48-.683 1.084-.695.605-.009 1.1.285 1.11.656z" fill="#fff"/><path d="M13.947 17.984c.013.713-.913 1.305-2.067 1.327-1.156.02-2.1-.542-2.114-1.252-.012-.71.913-1.304 2.067-1.326 1.156-.021 2.102.54 2.114 1.25z" fill="#369CB7"/><path d="M13.137 18c.006.435-.557.797-1.265.81-.707.012-1.285-.33-1.29-.765-.01-.435.556-.798 1.264-.81.703-.012 1.281.329 1.29.765z" fill="#fff"/><path d="M13.332 16.79c.012.61-.783 1.118-1.773 1.137-.988.018-1.801-.462-1.813-1.073 0-.027 0-.055.003-.082.06-.57.824-1.036 1.767-1.055.995-.017 1.804.463 1.816 1.073z" fill="#369CB7"/><path d="M12.633 16.802c.006.372-.48.683-1.084.695-.452.01-1.021-.223-1.1-.576a.365.365 0 01-.008-.078c.006-.347.587-.686 1.084-.696.607-.01 1.102.284 1.108.655z" fill="#fff"/><path d="M11.204 14.72c-.198.094-.836.387-1.178 1.024a2.35 2.35 0 00-.278 1.11l1.426-1.082c-.024-.347.051-.701.03-1.052z" fill="#369CB7"/><path d="M10.994 16.38c-.173.205-.347.408-.52.61a1.678 1.678 0 01.018-1.054c.158-.426.453-.58.52-.61-.23.393-.287.785-.173.957a.237.237 0 00.155.097z" fill="#fff"/><path d="M24.21 17.528c.043.61.875 1.048 1.864.982.989-.066 1.756-.617 1.714-1.224-.042-.607-.874-1.048-1.86-.982-.99.066-1.76.613-1.717 1.224z" fill="#369CB7"/><path d="M24.904 17.48c.024.37.533.64 1.138.598.602-.039 1.073-.375 1.049-.746-.024-.372-.533-.64-1.138-.6-.606.04-1.072.376-1.05.747z" fill="#fff"/><path d="M23.826 16.244c.048.71 1.018 1.224 2.171 1.145 1.153-.079 2.05-.72 2.001-1.43-.047-.71-1.02-1.224-2.171-1.145-1.153.082-2.048.72-2.001 1.43z" fill="#369CB7"/><path d="M24.635 16.19c.03.434.623.746 1.327.697.704-.049 1.253-.439 1.223-.874-.03-.435-.623-.746-1.328-.697-.703.048-1.248.438-1.222.873z" fill="#fff"/><path d="M24.22 15.002c.043.61.875 1.048 1.861.982.988-.066 1.755-.616 1.714-1.223 0-.027-.006-.055-.009-.082-.108-.566-.907-.96-1.852-.897-.989.063-1.756.61-1.713 1.22z" fill="#369CB7"/><path d="M24.915 14.954c.024.371.533.64 1.139.599.451-.03.997-.308 1.045-.669.003-.018.006-.043.003-.078-.036-.344-.644-.634-1.138-.599-.606.04-1.072.374-1.049.747z" fill="#fff"/><path d="M26.205 12.748c.2.066.803.295 1.218.926.285.434.353.86.372 1.082l-1.51-.956a6.859 6.859 0 01-.08-1.052z" fill="#369CB7"/><path d="M26.513 14.392l.57.565a1.68 1.68 0 00-.108-1.048c-.196-.41-.5-.538-.57-.565.264.372.354.76.252.94a.242.242 0 01-.144.107z" fill="#fff"/><path d="M15.85 11.652h0v.003c.055.417-.204.697-.45.73-.243.032-.563-.169-.616-.586h0v-.002c-.055-.417.205-.697.45-.73h0c.242-.031.564.17.616.585z" fill="#369CB7" stroke="#369CB7"/><path d="M15.37 11.023a.65.65 0 01-.57.748.694.694 0 01-.763-.593.65.65 0 01.57-.747.694.694 0 01.763.592z" fill="#fff"/><path d="M20.085 10.707h0v-.002c-.055-.417.204-.697.447-.73.243-.03.563.17.619.588.052.42-.207.698-.451.73-.242.033-.562-.167-.615-.586z" fill="#369CB7" stroke="#369CB7"/><path d="M20.317 9.944a.65.65 0 01-.57.748.694.694 0 01-.764-.593.65.65 0 01.57-.747.694.694 0 01.764.592zm-8.37 2.571v.366l.424.122-.181-.366-.242-.122z" fill="#fff"/><path d="M11.97 12.68l3.605 1.356 3.152 1.202-6.61-2.42-.146-.137zm12.027-.349l-3.876 2.383 2.967-1.527 2.422-1.222-.181-.367-1.332.733z" fill="#369CB7"/><path d="M25.3 11.791l-3.376 1.858-2.953 1.64 6.203-3.34.126-.158z" fill="#369CB7"/></svg>