<svg width="24" height="24" fill="none" xmlns="http://www.w3.org/2000/svg"><rect x=".5" y=".5" width="19.444" height="23" rx="1.5" stroke="#A1A9AA"/><path stroke="#A1A9AA" d="M2.667 4.5h15.111M2.667 8.944h15.111"/><path d="M23.878 23.286l-3.402-3.402a5.945 5.945 0 001.465-3.915A5.976 5.976 0 0015.971 10a5.976 5.976 0 00-5.969 5.97c0 3.29 2.68 5.969 5.97 5.969a5.945 5.945 0 003.914-1.465l3.402 3.402c.081.08.19.124.295.124a.42.42 0 00.295-.714zm-13.04-7.317a5.137 5.137 0 015.13-5.13 5.137 5.137 0 015.132 5.13 5.14 5.14 0 01-5.131 5.135 5.14 5.14 0 01-5.131-5.135z" fill="#767979"/><path d="M4 16.337C5 17.5 6 20.779 6 20.5c1.6-4.744 1.5-7 3-9.5" stroke="#A1A9AA" stroke-linecap="round"/></svg>