<svg width="20" height="20" fill="none" xmlns="http://www.w3.org/2000/svg"><path d="M10 0C4.486 0 0 4.486 0 10s4.486 10 10 10 10-4.486 10-10S15.514 0 10 0zm0 18.721c-4.809 0-8.721-3.912-8.721-8.721S5.19 1.279 10 1.279 18.721 5.19 18.721 10 14.81 18.721 10 18.721z" fill="#369CB7"/><path d="M10 4.641a3.354 3.354 0 00-3.35 3.35.64.64 0 101.278 0c0-1.141.93-2.07 2.072-2.07s2.072.929 2.072 2.07c0 1.143-.93 2.072-2.072 2.072a.64.64 0 00-.64.64v2.458a.64.64 0 101.28 0v-1.88a3.357 3.357 0 002.71-3.29A3.354 3.354 0 0010 4.642zm0 10.149a.644.644 0 00-.64.64.641.641 0 00.64.64.641.641 0 00.452-1.093.643.643 0 00-.452-.187z" fill="#369CB7"/></svg>