<svg width="25" height="25" fill="none" xmlns="http://www.w3.org/2000/svg"><path d="M7.073 23.471c0 .32-.091.59-.215.768-.125.18-.247.223-.322.223H2.25c-.075 0-.197-.044-.322-.223a1.364 1.364 0 01-.216-.768v-6.758c0-.32.092-.59.216-.767.125-.18.247-.224.322-.224h4.287c.075 0 .197.044.322.224.124.177.215.447.215.767v6.758zm8.541.003c0 .319-.092.588-.215.765-.125.18-.247.223-.322.223h-4.288c-.075 0-.197-.044-.322-.223a1.358 1.358 0 01-.215-.765V13.155c0-.319.092-.588.215-.765.125-.18.247-.223.322-.223h4.288c.075 0 .197.044.322.223.123.176.215.446.215.765v10.319zm8.886-.006c0 .336-.092.62-.215.806-.126.19-.243.226-.3.226h-4.193c-.057 0-.173-.036-.3-.226a1.488 1.488 0 01-.214-.806V8.755c0-.337.092-.62.215-.807.126-.19.242-.226.3-.226h4.193c.056 0 .173.036.3.226.122.186.214.47.214.807v14.713z" stroke="#A1A9AA"/><path d="M1 13s7.111-1.333 10.667-4c3.555-2.667 8-7.556 8-7.556" stroke="#A1A9AA" stroke-linecap="round"/><path d="M16.493.948a.5.5 0 10.124.993l-.124-.993zM20.111 1l.495.07.092-.647-.649.08.062.497zm-.94 3.04a.5.5 0 10.99.142l-.99-.142zm-2.554-2.1l3.556-.444-.124-.992-3.556.444.124.993zM19.616.93l-.444 3.11.99.142.444-3.111-.99-.142z" fill="#A1A9AA"/></svg>