<svg width="20" height="20" fill="none" xmlns="http://www.w3.org/2000/svg"><path d="M14.746 9.59l-.157.224.105.253 2.922 7.054-2.39-.693-.385-.111-.193.35-1.2 2.18-2.683-6.475-.135-.325-.35.017a5.783 5.783 0 01-.559 0l-.351-.017-.135.325-2.682 6.476-1.2-2.181-.194-.35-.384.11-2.39.694 2.921-7.054.105-.253-.157-.225a5.75 5.75 0 01-1.04-3.304A5.793 5.793 0 0110 .5a5.793 5.793 0 015.786 5.785 5.75 5.75 0 01-1.04 3.304zm-8.73 7.72l.502.91.398-.96 1.949-4.704.219-.529-.554-.146a5.78 5.78 0 01-2.414-1.312l-.526-.477-.272.656-2.068 4.993-.398.96 1-.289 1.44-.417.725 1.314zm7.968 0l.723-1.315 1.442.417.999.29-.398-.961-2.068-4.993-.272-.656-.526.477a5.781 5.781 0 01-2.414 1.312l-.554.146.22.53 1.948 4.702.398.961.502-.91z" stroke="#A1A9AA"/><path d="M7.183 6.285A2.82 2.82 0 0110 3.468a2.821 2.821 0 012.818 2.817A2.821 2.821 0 0110 9.103a2.821 2.821 0 01-2.817-2.818z" stroke="#A1A9AA"/></svg>