<svg width="19" height="18" viewBox="0 0 19 18" fill="none" xmlns="http://www.w3.org/2000/svg">
<path d="M18.5324 3.64148C18.5242 3.52329 18.4598 3.41621 18.3594 3.3536L13.0913 0.05655C12.9549 -0.0290348 12.779 -0.0164378 12.6559 0.0873013L9.26664 2.94494L5.87697 0.0873013C5.75359 -0.0164378 5.5776 -0.0290348 5.44163 0.05655L0.173906 3.3536C0.0735017 3.41621 0.00940604 3.52329 0.000884616 3.64148C-0.00726632 3.7593 0.0412683 3.87452 0.13167 3.95084L3.4239 6.72623L0.13167 9.502C0.0412683 9.57832 -0.00726632 9.69354 0.000884616 9.81136C0.00903555 9.92918 0.0735017 10.0363 0.173906 10.0992L5.44126 13.3963C5.50165 13.4341 5.56982 13.4526 5.638 13.4526C5.72321 13.4526 5.80805 13.423 5.87697 13.3655L9.26701 10.5079L12.6567 13.3655C12.7252 13.4233 12.8101 13.4526 12.8957 13.4526C12.9638 13.4526 13.032 13.4341 13.0924 13.3963L18.3601 10.0992C18.4605 10.0366 18.5246 9.92955 18.5331 9.81136C18.5413 9.69317 18.4928 9.57832 18.4024 9.502L15.1101 6.72623L18.4024 3.95084C18.4924 3.87452 18.5409 3.7593 18.5324 3.64148ZM0.997892 3.71187L5.60613 0.827924L8.63976 3.38546L4.03189 6.26941L0.997892 3.71187ZM5.60539 12.6249L0.997521 9.74097L4.03078 7.1838L8.63902 10.0677L5.60539 12.6249ZM4.6973 6.7266L9.26664 3.86674L13.836 6.7266L9.26664 9.5861L4.6973 6.7266ZM17.5354 9.74097L12.9275 12.6249L9.89389 10.0674L14.5021 7.18343L17.5354 9.74097ZM14.5021 6.26904L9.89389 3.38509L12.9272 0.827554L17.5354 3.7115L14.5021 6.26904Z" fill="#0E80A4"/>
<path d="M14.6337 12.6267C14.4292 12.6267 14.2632 12.7927 14.2632 12.9972V13.8053L9.31821 16.8507L4.37356 13.8053V13.0617C4.37356 12.8572 4.20758 12.6912 4.00307 12.6912C3.79855 12.6912 3.63257 12.8572 3.63257 13.0617V14.0124C3.63257 14.1409 3.69926 14.2602 3.80893 14.328L9.12407 17.6017C9.18372 17.6384 9.25115 17.6566 9.31821 17.6566C9.38527 17.6566 9.45308 17.6384 9.51236 17.6017L14.8279 14.328C14.9372 14.2606 15.0042 14.1413 15.0042 14.0124V12.9972C15.0042 12.7923 14.8382 12.6267 14.6337 12.6267Z" fill="#0E80A4"/>
</svg>
