<svg width="19" height="18" fill="none" xmlns="http://www.w3.org/2000/svg"><path d="M18.532 3.641a.37.37 0 00-.173-.287L13.091.057a.37.37 0 00-.435.03l-3.39 2.858L5.878.087a.37.37 0 00-.435-.03L.174 3.354a.37.37 0 00-.042.597l3.292 2.775L.132 9.502a.372.372 0 00.042.597l5.267 3.297a.37.37 0 00.436-.03l3.39-2.858 3.39 2.858a.37.37 0 00.435.03L18.36 10.1a.37.37 0 00.042-.597L15.11 6.726l3.292-2.775a.371.371 0 00.13-.31zm-17.534.07L5.606.829 8.64 3.385 4.032 6.27.998 3.712zm4.607 8.914L.998 9.74 4.03 7.184l4.608 2.884-3.034 2.557zm-.908-5.898l4.57-2.86 4.569 2.86-4.57 2.86-4.569-2.86zM17.535 9.74l-4.607 2.884-3.034-2.558 4.608-2.884 3.033 2.558zm-3.033-3.472L9.894 3.385 12.927.828l4.608 2.884-3.033 2.557z" fill="#0E80A4"/><path d="M14.634 12.627a.37.37 0 00-.37.37v.808l-4.946 3.046-4.944-3.046v-.743a.37.37 0 00-.741 0v.95a.37.37 0 00.176.316l5.315 3.274a.37.37 0 00.388 0l5.316-3.274a.37.37 0 00.176-.316v-1.015a.37.37 0 00-.37-.37z" fill="#0E80A4"/></svg>