<svg width="18" height="20" viewBox="0 0 18 20" fill="none" xmlns="http://www.w3.org/2000/svg">
<path d="M5.57464 0.953114H12.1488C12.4105 0.953114 12.6253 0.738272 12.6253 0.476557C12.6253 0.214841 12.4105 0 12.1488 0H5.57464C5.31292 0 5.09808 0.214841 5.09808 0.476557C5.09808 0.738272 5.30902 0.953114 5.57464 0.953114Z" fill="#2F2F2F"/>
<path d="M17.242 2.01196H16.0467H1.66795H0.476557C0.214841 2.01196 0 2.2268 0 2.48852C0 2.75024 0.214841 2.96508 0.476557 2.96508H1.23827L1.59764 6.77362C1.59764 6.77753 1.59764 6.78534 1.59764 6.78925L2.80465 19.5703C2.82809 19.8164 3.03121 20 3.27731 20H14.4373C14.6834 20 14.8865 19.8125 14.91 19.5703L16.4764 2.96508H17.2381C17.4998 2.96508 17.7146 2.75024 17.7146 2.48852C17.7185 2.2268 17.5076 2.01196 17.242 2.01196ZM14.0076 19.0469H3.71089L2.59372 7.21112H15.1248L14.0076 19.0469ZM15.2147 6.25801H2.50388L2.19138 2.96508H15.5233L15.2147 6.25801Z" fill="#2F2F2F"/>
</svg>
